<svg width="393" height="871" viewBox="0 0 393 871" fill="none" xmlns="http://www.w3.org/2000/svg">
<rect x="138.961" y="274.572" width="15.8649" height="38.0408" rx="7.93247" transform="rotate(-180 138.961 274.572)" stroke="#F2EDE4" stroke-opacity="0.52" stroke-width="5"/>
<path d="M25.3643 187.691L25.3643 198.096C25.3643 201.606 22.5191 204.451 19.0095 204.451V204.451C15.4999 204.451 12.6548 201.606 12.6548 198.096L12.6548 175.57C12.6548 172.06 15.4999 169.215 19.0095 169.215V169.215C22.5191 169.215 25.3643 172.06 25.3643 175.57L25.3643 178.16" stroke="#F2EDE4" stroke-opacity="0.52" stroke-width="5"/>
<path d="M36.9785 212.603L61.2141 212.603C65.6193 212.603 69.1904 209.032 69.1904 204.626L69.1904 204.079C69.1904 199.976 65.8646 196.65 61.762 196.65V196.65C57.6593 196.65 54.3335 199.976 54.3335 204.079L54.3335 204.407" stroke="#F2EDE4" stroke-opacity="0.52" stroke-width="5"/>
<rect x="149.391" y="214.882" width="12.0959" height="12.0959" rx="6.04796" transform="rotate(-180 149.391 214.882)" stroke="#F2EDE4" stroke-opacity="0.52" stroke-width="5"/>
<rect x="197.461" y="85.0011" width="12.0959" height="12.0959" rx="6.04796" transform="rotate(-180 197.461 85.0011)" stroke="#F2EDE4" stroke-opacity="0.52" stroke-width="5"/>
<rect x="87.5093" y="198.491" width="5.4344" height="5.4344" rx="2.7172" transform="rotate(-180 87.5093 198.491)" fill="#F2EDE4" fill-opacity="0.52"/>
<rect x="15.3721" y="259.584" width="5.4344" height="5.4344" rx="2.7172" transform="rotate(-180 15.3721 259.584)" fill="#F2EDE4" fill-opacity="0.52"/>
<rect x="15.3721" y="269.839" width="5.4344" height="5.4344" rx="2.7172" transform="rotate(-180 15.3721 269.839)" fill="#F2EDE4" fill-opacity="0.52"/>
<path d="M97.0633 232.237L97.0633 253.317C97.0633 257.698 100.615 261.249 104.996 261.249V261.249C109.377 261.249 112.928 257.698 112.928 253.317L112.928 250.293" stroke="#F2EDE4" stroke-opacity="0.52" stroke-width="5"/>
<path d="M33.721 102.088L33.721 123.169C33.721 127.55 37.2725 131.101 41.6535 131.101V131.101C46.0344 131.101 49.5859 127.55 49.5859 123.169L49.5859 120.145" stroke="#F2EDE4" stroke-opacity="0.52" stroke-width="5"/>
<path d="M49.2056 278.955L49.2056 262.52C49.2056 259.107 51.9722 256.341 55.385 256.341V256.341C58.7978 256.341 61.5645 259.107 61.5645 262.52L61.5645 264.881" stroke="#F2EDE4" stroke-opacity="0.52" stroke-width="5"/>
<path d="M72.1704 301.569L72.1704 259.409C72.1704 250.453 64.9104 243.193 55.9548 243.193V243.193C46.9992 243.193 39.7393 250.453 39.7393 259.409L39.7393 265.238" stroke="#F2EDE4" stroke-opacity="0.52" stroke-width="5"/>
<path d="M35.1816 202.391L35.1816 174.825C35.1816 165.869 27.9216 158.609 18.966 158.609V158.609C10.0104 158.609 2.75049 165.869 2.75049 174.825L2.75049 180.655" stroke="#F2EDE4" stroke-opacity="0.52" stroke-width="5"/>
<path d="M97.5454 272.469V272.469C90.3083 272.469 84.4415 266.602 84.4415 259.365L84.4415 219.615" stroke="#F2EDE4" stroke-opacity="0.52" stroke-width="5"/>
<path d="M34.2036 142.32V142.32C26.9665 142.32 21.0997 136.454 21.0997 129.217L21.0997 89.4665" stroke="#F2EDE4" stroke-opacity="0.52" stroke-width="5"/>
<path d="M38.1616 272.469V272.469C30.9003 272.469 25.0139 266.582 25.0139 259.321L25.0139 212.603" stroke="#F2EDE4" stroke-opacity="0.52" stroke-width="5"/>
<path d="M92.1548 196.299V196.299C99.9002 196.299 106.179 202.578 106.179 210.324L106.179 220.667" stroke="#F2EDE4" stroke-opacity="0.52" stroke-width="5"/>
<path d="M0.690426 212.296V212.296C0.690427 222.946 -7.94302 231.579 -18.5929 231.579L-33.7567 231.579" stroke="#F2EDE4" stroke-opacity="0.52" stroke-width="5"/>
<path d="M2.83789 191.971L2.83789 195.562C2.83789 199.309 -0.200089 202.347 -3.94762 202.347V202.347C-7.69516 202.347 -10.7331 199.309 -10.7331 195.562L-10.7331 192.626C-10.7331 189.233 -13.4835 186.482 -16.8762 186.482V186.482C-20.269 186.482 -23.0193 189.233 -23.0193 192.626L-23.0193 194.853" stroke="#F2EDE4" stroke-opacity="0.52" stroke-width="5"/>
<path d="M-16.5332 250.468V250.468C-5.8833 250.468 2.75015 259.102 2.75015 269.751L2.75015 284.915" stroke="#F2EDE4" stroke-opacity="0.52" stroke-width="5"/>
<path d="M33.7793 230.221L42.4568 230.221C48.3142 230.221 53.0627 225.472 53.0627 219.615V219.615" stroke="#F2EDE4" stroke-opacity="0.52" stroke-width="5"/>
<path d="M149.128 241.089V241.089C149.128 231.214 141.123 223.209 131.247 223.209L130.809 223.209C120.934 223.209 112.928 231.214 112.928 241.089V241.089" stroke="#F2EDE4" stroke-opacity="0.52" stroke-width="5"/>
<rect x="61.3018" y="108.911" width="15.8649" height="38.0408" rx="7.93247" stroke="#F2EDE4" stroke-opacity="0.52" stroke-width="5"/>
<rect x="209.17" y="81.0376" width="15.8649" height="38.0408" rx="7.93247" stroke="#F2EDE4" stroke-opacity="0.52" stroke-width="5"/>
<path d="M174.898 195.792L174.898 185.387C174.898 181.877 177.743 179.032 181.253 179.032V179.032C184.762 179.032 187.607 181.877 187.607 185.387L187.607 207.913C187.607 211.423 184.762 214.268 181.253 214.268V214.268C177.743 214.268 174.898 211.423 174.898 207.913L174.898 205.324" stroke="#F2EDE4" stroke-opacity="0.52" stroke-width="5"/>
<path d="M163.284 170.88L139.049 170.88C134.643 170.88 131.072 174.452 131.072 178.857L131.072 179.405C131.072 183.507 134.398 186.833 138.501 186.833V186.833C142.603 186.833 145.929 183.507 145.929 179.405L145.929 179.076" stroke="#F2EDE4" stroke-opacity="0.52" stroke-width="5"/>
<path d="M211.355 41L187.119 41C182.714 41 179.143 44.5711 179.143 48.9763L179.143 49.5241C179.143 53.6268 182.468 56.9526 186.571 56.9526V56.9526C190.674 56.9526 194 53.6268 194 49.5241L194 49.1954" stroke="#F2EDE4" stroke-opacity="0.52" stroke-width="5"/>
<rect x="50.8711" y="168.602" width="12.0959" height="12.0959" rx="6.04796" stroke="#F2EDE4" stroke-opacity="0.52" stroke-width="5"/>
<rect x="221.354" y="228.906" width="26.6461" height="26.6461" rx="13.323" stroke="#F2EDE4" stroke-opacity="0.52" stroke-width="5"/>
<rect x="112.753" y="184.992" width="5.4344" height="5.4344" rx="2.7172" fill="#F2EDE4" fill-opacity="0.52"/>
<rect x="184.891" y="123.899" width="5.4344" height="5.4344" rx="2.7172" fill="#F2EDE4" fill-opacity="0.52"/>
<rect x="184.891" y="113.644" width="5.4344" height="5.4344" rx="2.7172" fill="#F2EDE4" fill-opacity="0.52"/>
<path d="M103.199 151.247L103.199 130.166C103.199 125.785 99.6479 122.234 95.2669 122.234V122.234C90.886 122.234 87.3345 125.785 87.3345 130.166L87.3345 133.19" stroke="#F2EDE4" stroke-opacity="0.52" stroke-width="5"/>
<path d="M151.057 104.528L151.057 120.963C151.057 124.376 148.29 127.142 144.878 127.142V127.142C141.465 127.142 138.698 124.376 138.698 120.963L138.698 118.602" stroke="#F2EDE4" stroke-opacity="0.52" stroke-width="5"/>
<path d="M128.092 81.9142L128.092 124.075C128.092 133.03 135.352 140.29 144.307 140.29V140.29C153.263 140.29 160.523 133.03 160.523 124.075L160.523 118.245" stroke="#F2EDE4" stroke-opacity="0.52" stroke-width="5"/>
<path d="M165.081 181.092L165.081 208.658C165.081 217.614 172.341 224.874 181.297 224.874V224.874C190.252 224.874 197.512 217.614 197.512 208.658L197.512 202.829" stroke="#F2EDE4" stroke-opacity="0.52" stroke-width="5"/>
<path d="M102.717 111.015V111.015C109.954 111.015 115.821 116.881 115.821 124.118L115.821 163.868" stroke="#F2EDE4" stroke-opacity="0.52" stroke-width="5"/>
<path d="M162.101 111.015V111.015C169.362 111.015 175.249 116.901 175.249 124.162L175.249 170.881" stroke="#F2EDE4" stroke-opacity="0.52" stroke-width="5"/>
<path d="M108.108 187.184V187.184C100.363 187.184 94.0837 180.905 94.0837 173.159L94.0837 162.817" stroke="#F2EDE4" stroke-opacity="0.52" stroke-width="5"/>
<path d="M225.035 217.424V217.424C214.385 217.424 205.752 226.057 205.752 236.707L205.752 251.871" stroke="#F2EDE4" stroke-opacity="0.52" stroke-width="5"/>
<path d="M199.572 171.187V171.187C199.572 160.537 208.206 151.904 218.856 151.904L234.019 151.904" stroke="#F2EDE4" stroke-opacity="0.52" stroke-width="5"/>
<path d="M197.425 191.512L197.425 187.921C197.425 184.174 200.463 181.136 204.21 181.136V181.136C207.958 181.136 210.996 184.174 210.996 187.921L210.996 190.858C210.996 194.25 213.746 197.001 217.139 197.001V197.001C220.532 197.001 223.282 194.25 223.282 190.858L223.282 188.63" stroke="#F2EDE4" stroke-opacity="0.52" stroke-width="5"/>
<path d="M216.796 133.015V133.015C206.146 133.015 197.513 124.382 197.513 113.732L197.513 98.5679" stroke="#F2EDE4" stroke-opacity="0.52" stroke-width="5"/>
<path d="M166.484 153.263L157.806 153.263C151.949 153.263 147.201 158.011 147.201 163.868V163.868" stroke="#F2EDE4" stroke-opacity="0.52" stroke-width="5"/>
<path d="M51.1343 142.394V142.394C51.1343 152.269 59.1398 160.275 69.0152 160.275L69.4535 160.275C79.3288 160.275 87.3344 152.269 87.3344 142.394V142.394" stroke="#F2EDE4" stroke-opacity="0.52" stroke-width="5"/>
<rect x="120.698" y="469.141" width="15.8649" height="38.0408" rx="7.93247" transform="rotate(-180 120.698 469.141)" stroke="#F2EDE4" stroke-opacity="0.52" stroke-width="5"/>
<path d="M7.10156 382.26L7.10156 392.665C7.10156 396.175 4.25645 399.02 0.746821 399.02V399.02C-2.76281 399.02 -5.60792 396.175 -5.60792 392.665L-5.60792 370.139C-5.60792 366.629 -2.7628 363.784 0.746824 363.784V363.784C4.25645 363.784 7.10157 366.629 7.10157 370.139L7.10156 372.728" stroke="#F2EDE4" stroke-opacity="0.52" stroke-width="5"/>
<path d="M18.7158 407.171L42.9514 407.171C47.3566 407.171 50.9277 403.6 50.9277 399.195L50.9277 398.647C50.9277 394.545 47.6019 391.219 43.4993 391.219V391.219C39.3966 391.219 36.0708 394.545 36.0708 398.647L36.0708 398.976" stroke="#F2EDE4" stroke-opacity="0.52" stroke-width="5"/>
<rect x="131.128" y="409.45" width="12.0959" height="12.0959" rx="6.04796" transform="rotate(-180 131.128 409.45)" stroke="#F2EDE4" stroke-opacity="0.52" stroke-width="5"/>
<rect x="179.199" y="279.57" width="12.0959" height="12.0959" rx="6.04796" transform="rotate(-180 179.199 279.57)" stroke="#F2EDE4" stroke-opacity="0.52" stroke-width="5"/>
<rect x="69.2466" y="393.059" width="5.4344" height="5.4344" rx="2.7172" transform="rotate(-180 69.2466 393.059)" fill="#F2EDE4" fill-opacity="0.52"/>
<path d="M78.8006 426.805L78.8006 447.886C78.8006 452.267 82.3521 455.818 86.7331 455.818V455.818C91.114 455.818 94.6655 452.267 94.6655 447.886L94.6655 444.862" stroke="#F2EDE4" stroke-opacity="0.52" stroke-width="5"/>
<path d="M15.4583 296.657L15.4583 317.737C15.4583 322.118 19.0098 325.67 23.3908 325.67V325.67C27.7718 325.67 31.3232 322.118 31.3232 317.737L31.3232 314.713" stroke="#F2EDE4" stroke-opacity="0.52" stroke-width="5"/>
<path d="M30.9429 473.524L30.9429 457.089C30.9429 453.676 33.7095 450.91 37.1223 450.91V450.91C40.5351 450.91 43.3018 453.676 43.3018 457.089L43.3018 459.45" stroke="#F2EDE4" stroke-opacity="0.52" stroke-width="5"/>
<path d="M53.9077 496.138L53.9077 453.977C53.9077 445.022 46.6477 437.762 37.6921 437.762V437.762C28.7365 437.762 21.4766 445.022 21.4766 453.977L21.4766 459.807" stroke="#F2EDE4" stroke-opacity="0.52" stroke-width="5"/>
<path d="M16.9189 396.96L16.9189 369.394C16.9189 360.438 9.65894 353.178 0.703341 353.178V353.178C-8.25226 353.178 -15.5122 360.438 -15.5122 369.394L-15.5122 375.223" stroke="#F2EDE4" stroke-opacity="0.52" stroke-width="5"/>
<path d="M79.2827 467.037V467.037C72.0456 467.037 66.1788 461.171 66.1788 453.934L66.1788 414.184" stroke="#F2EDE4" stroke-opacity="0.52" stroke-width="5"/>
<path d="M15.9404 336.889V336.889C8.70334 336.889 2.83651 331.022 2.83652 323.785L2.83652 284.035" stroke="#F2EDE4" stroke-opacity="0.52" stroke-width="5"/>
<path d="M19.8989 467.037V467.037C12.6376 467.037 6.75118 461.151 6.75118 453.89L6.75119 407.171" stroke="#F2EDE4" stroke-opacity="0.52" stroke-width="5"/>
<path d="M73.8921 390.868V390.868C81.6375 390.868 87.9163 397.147 87.9163 404.892L87.9163 415.235" stroke="#F2EDE4" stroke-opacity="0.52" stroke-width="5"/>
<path d="M15.5166 424.789L24.1941 424.789C30.0516 424.789 34.8 420.041 34.8 414.184V414.184" stroke="#F2EDE4" stroke-opacity="0.52" stroke-width="5"/>
<path d="M130.866 435.658V435.658C130.866 425.783 122.86 417.777 112.985 417.777L112.547 417.777C102.671 417.777 94.6656 425.783 94.6656 435.658V435.658" stroke="#F2EDE4" stroke-opacity="0.52" stroke-width="5"/>
<rect x="43.0386" y="303.479" width="15.8649" height="38.0408" rx="7.93247" stroke="#F2EDE4" stroke-opacity="0.52" stroke-width="5"/>
<rect x="190.907" y="275.606" width="15.8649" height="38.0408" rx="7.93247" stroke="#F2EDE4" stroke-opacity="0.52" stroke-width="5"/>
<path d="M156.635 390.36L156.635 379.956C156.635 376.446 159.48 373.601 162.99 373.601V373.601C166.5 373.601 169.345 376.446 169.345 379.956L169.345 402.482C169.345 405.992 166.5 408.837 162.99 408.837V408.837C159.48 408.837 156.635 405.992 156.635 402.482L156.635 399.892" stroke="#F2EDE4" stroke-opacity="0.52" stroke-width="5"/>
<path d="M145.022 365.449L120.786 365.449C116.381 365.449 112.81 369.02 112.81 373.426L112.81 373.973C112.81 378.076 116.135 381.402 120.238 381.402V381.402C124.341 381.402 127.667 378.076 127.667 373.973L127.667 373.645" stroke="#F2EDE4" stroke-opacity="0.52" stroke-width="5"/>
<path d="M193.092 235.569L168.856 235.569C164.451 235.569 160.88 239.14 160.88 243.545L160.88 244.093C160.88 248.195 164.206 251.521 168.308 251.521V251.521C172.411 251.521 175.737 248.195 175.737 244.093L175.737 243.764" stroke="#F2EDE4" stroke-opacity="0.52" stroke-width="5"/>
<rect x="32.6084" y="363.17" width="12.0959" height="12.0959" rx="6.04796" stroke="#F2EDE4" stroke-opacity="0.52" stroke-width="5"/>
<rect x="203.091" y="423.475" width="26.6461" height="26.6461" rx="13.323" stroke="#F2EDE4" stroke-opacity="0.52" stroke-width="5"/>
<rect x="94.4907" y="379.561" width="5.4344" height="5.4344" rx="2.7172" fill="#F2EDE4" fill-opacity="0.52"/>
<rect x="166.628" y="318.468" width="5.4344" height="5.4344" rx="2.7172" fill="#F2EDE4" fill-opacity="0.52"/>
<rect x="166.628" y="308.213" width="5.4344" height="5.4344" rx="2.7172" fill="#F2EDE4" fill-opacity="0.52"/>
<path d="M84.9367 345.815L84.9367 324.735C84.9367 320.354 81.3852 316.803 77.0042 316.803V316.803C72.6233 316.803 69.0718 320.354 69.0718 324.735L69.0718 327.759" stroke="#F2EDE4" stroke-opacity="0.52" stroke-width="5"/>
<path d="M132.794 299.097L132.794 315.532C132.794 318.944 130.028 321.711 126.615 321.711V321.711C123.202 321.711 120.436 318.944 120.436 315.532L120.436 313.171" stroke="#F2EDE4" stroke-opacity="0.52" stroke-width="5"/>
<path d="M109.829 276.483L109.829 318.643C109.829 327.599 117.089 334.859 126.045 334.859V334.859C135 334.859 142.26 327.599 142.26 318.643L142.26 312.814" stroke="#F2EDE4" stroke-opacity="0.52" stroke-width="5"/>
<path d="M146.818 375.661L146.818 403.227C146.818 412.183 154.078 419.443 163.034 419.443V419.443C171.99 419.443 179.25 412.183 179.25 403.227L179.25 397.397" stroke="#F2EDE4" stroke-opacity="0.52" stroke-width="5"/>
<path d="M84.4546 305.583V305.583C91.6917 305.583 97.5585 311.45 97.5585 318.687L97.5585 358.437" stroke="#F2EDE4" stroke-opacity="0.52" stroke-width="5"/>
<path d="M143.838 305.583V305.583C151.1 305.583 156.986 311.47 156.986 318.731L156.986 365.449" stroke="#F2EDE4" stroke-opacity="0.52" stroke-width="5"/>
<path d="M89.8452 381.752V381.752C82.0998 381.752 75.821 375.474 75.821 367.728L75.821 357.385" stroke="#F2EDE4" stroke-opacity="0.52" stroke-width="5"/>
<path d="M206.772 411.992V411.992C196.122 411.992 187.489 420.626 187.489 431.276L187.489 446.439" stroke="#F2EDE4" stroke-opacity="0.52" stroke-width="5"/>
<path d="M181.31 365.756V365.756C181.31 355.106 189.943 346.473 200.593 346.473L215.757 346.473" stroke="#F2EDE4" stroke-opacity="0.52" stroke-width="5"/>
<path d="M179.162 386.081L179.162 382.49C179.162 378.742 182.2 375.704 185.948 375.704V375.704C189.695 375.704 192.733 378.742 192.733 382.49L192.733 385.426C192.733 388.819 195.483 391.569 198.876 391.569V391.569C202.269 391.569 205.019 388.819 205.019 385.426L205.019 383.199" stroke="#F2EDE4" stroke-opacity="0.52" stroke-width="5"/>
<path d="M198.533 327.584V327.584C187.883 327.584 179.25 318.95 179.25 308.3L179.25 293.137" stroke="#F2EDE4" stroke-opacity="0.52" stroke-width="5"/>
<path d="M148.221 347.831L139.544 347.831C133.686 347.831 128.938 352.58 128.938 358.437V358.437" stroke="#F2EDE4" stroke-opacity="0.52" stroke-width="5"/>
<path d="M32.8716 336.963V336.963C32.8716 346.838 40.8771 354.843 50.7525 354.843L51.1908 354.843C61.0661 354.843 69.0717 346.838 69.0717 336.963V336.963" stroke="#F2EDE4" stroke-opacity="0.52" stroke-width="5"/>
<rect x="138.961" y="678.572" width="15.8649" height="38.0408" rx="7.93247" transform="rotate(-180 138.961 678.572)" stroke="#F2EDE4" stroke-opacity="0.52" stroke-width="5"/>
<path d="M25.3643 591.691L25.3643 602.096C25.3643 605.606 22.5191 608.451 19.0095 608.451V608.451C15.4999 608.451 12.6548 605.606 12.6548 602.096L12.6548 579.57C12.6548 576.06 15.4999 573.215 19.0095 573.215V573.215C22.5191 573.215 25.3643 576.06 25.3643 579.57L25.3643 582.16" stroke="#F2EDE4" stroke-opacity="0.52" stroke-width="5"/>
<path d="M36.9785 616.603L61.2141 616.603C65.6193 616.603 69.1904 613.032 69.1904 608.626L69.1904 608.079C69.1904 603.976 65.8646 600.65 61.762 600.65V600.65C57.6593 600.65 54.3335 603.976 54.3335 608.079L54.3335 608.407" stroke="#F2EDE4" stroke-opacity="0.52" stroke-width="5"/>
<rect x="149.391" y="618.882" width="12.0959" height="12.0959" rx="6.04796" transform="rotate(-180 149.391 618.882)" stroke="#F2EDE4" stroke-opacity="0.52" stroke-width="5"/>
<rect x="197.461" y="489.001" width="12.0959" height="12.0959" rx="6.04796" transform="rotate(-180 197.461 489.001)" stroke="#F2EDE4" stroke-opacity="0.52" stroke-width="5"/>
<rect x="87.5093" y="602.491" width="5.4344" height="5.4344" rx="2.7172" transform="rotate(-180 87.5093 602.491)" fill="#F2EDE4" fill-opacity="0.52"/>
<rect x="15.3721" y="663.584" width="5.4344" height="5.4344" rx="2.7172" transform="rotate(-180 15.3721 663.584)" fill="#F2EDE4" fill-opacity="0.52"/>
<rect x="15.3721" y="673.839" width="5.4344" height="5.4344" rx="2.7172" transform="rotate(-180 15.3721 673.839)" fill="#F2EDE4" fill-opacity="0.52"/>
<path d="M97.0633 636.237L97.0633 657.317C97.0633 661.698 100.615 665.249 104.996 665.249V665.249C109.377 665.249 112.928 661.698 112.928 657.317L112.928 654.293" stroke="#F2EDE4" stroke-opacity="0.52" stroke-width="5"/>
<path d="M33.721 506.088L33.721 527.169C33.721 531.55 37.2725 535.101 41.6535 535.101V535.101C46.0344 535.101 49.5859 531.55 49.5859 527.169L49.5859 524.145" stroke="#F2EDE4" stroke-opacity="0.52" stroke-width="5"/>
<path d="M49.2056 682.955L49.2056 666.52C49.2056 663.107 51.9722 660.341 55.385 660.341V660.341C58.7978 660.341 61.5645 663.107 61.5645 666.52L61.5645 668.881" stroke="#F2EDE4" stroke-opacity="0.52" stroke-width="5"/>
<path d="M72.1704 705.569L72.1704 663.409C72.1704 654.453 64.9104 647.193 55.9548 647.193V647.193C46.9992 647.193 39.7393 654.453 39.7393 663.409L39.7393 669.238" stroke="#F2EDE4" stroke-opacity="0.52" stroke-width="5"/>
<path d="M35.1816 606.391L35.1816 578.825C35.1816 569.869 27.9216 562.609 18.966 562.609V562.609C10.0104 562.609 2.75049 569.869 2.75049 578.825L2.75049 584.655" stroke="#F2EDE4" stroke-opacity="0.52" stroke-width="5"/>
<path d="M97.5454 676.469V676.469C90.3083 676.469 84.4415 670.602 84.4415 663.365L84.4415 623.615" stroke="#F2EDE4" stroke-opacity="0.52" stroke-width="5"/>
<path d="M34.2036 546.32V546.32C26.9665 546.32 21.0997 540.454 21.0997 533.217L21.0997 493.467" stroke="#F2EDE4" stroke-opacity="0.52" stroke-width="5"/>
<path d="M38.1616 676.469V676.469C30.9003 676.469 25.0139 670.582 25.0139 663.321L25.0139 616.603" stroke="#F2EDE4" stroke-opacity="0.52" stroke-width="5"/>
<path d="M92.1548 600.299V600.299C99.9002 600.299 106.179 606.578 106.179 614.324L106.179 624.667" stroke="#F2EDE4" stroke-opacity="0.52" stroke-width="5"/>
<path d="M0.690426 616.296V616.296C0.690427 626.946 -7.94302 635.579 -18.5929 635.579L-33.7567 635.579" stroke="#F2EDE4" stroke-opacity="0.52" stroke-width="5"/>
<path d="M2.83789 595.971L2.83789 599.562C2.83789 603.309 -0.200089 606.347 -3.94762 606.347V606.347C-7.69516 606.347 -10.7331 603.309 -10.7331 599.562L-10.7331 596.626C-10.7331 593.233 -13.4835 590.482 -16.8762 590.482V590.482C-20.269 590.482 -23.0193 593.233 -23.0193 596.626L-23.0193 598.853" stroke="#F2EDE4" stroke-opacity="0.52" stroke-width="5"/>
<path d="M-16.5332 654.468V654.468C-5.8833 654.468 2.75015 663.102 2.75015 673.751L2.75015 688.915" stroke="#F2EDE4" stroke-opacity="0.52" stroke-width="5"/>
<path d="M33.7793 634.221L42.4568 634.221C48.3142 634.221 53.0627 629.472 53.0627 623.615V623.615" stroke="#F2EDE4" stroke-opacity="0.52" stroke-width="5"/>
<path d="M149.128 645.089V645.089C149.128 635.214 141.123 627.209 131.247 627.209L130.809 627.209C120.934 627.209 112.928 635.214 112.928 645.089V645.089" stroke="#F2EDE4" stroke-opacity="0.52" stroke-width="5"/>
<rect x="61.3018" y="512.911" width="15.8649" height="38.0408" rx="7.93247" stroke="#F2EDE4" stroke-opacity="0.52" stroke-width="5"/>
<rect x="209.17" y="485.038" width="15.8649" height="38.0408" rx="7.93247" stroke="#F2EDE4" stroke-opacity="0.52" stroke-width="5"/>
<path d="M174.898 599.792L174.898 589.387C174.898 585.877 177.743 583.032 181.253 583.032V583.032C184.762 583.032 187.607 585.877 187.607 589.387L187.607 611.913C187.607 615.423 184.762 618.268 181.253 618.268V618.268C177.743 618.268 174.898 615.423 174.898 611.913L174.898 609.324" stroke="#F2EDE4" stroke-opacity="0.52" stroke-width="5"/>
<path d="M163.284 574.88L139.049 574.88C134.643 574.88 131.072 578.452 131.072 582.857L131.072 583.405C131.072 587.507 134.398 590.833 138.501 590.833V590.833C142.603 590.833 145.929 587.507 145.929 583.405L145.929 583.076" stroke="#F2EDE4" stroke-opacity="0.52" stroke-width="5"/>
<path d="M211.355 445L187.119 445C182.714 445 179.143 448.571 179.143 452.976L179.143 453.524C179.143 457.627 182.468 460.953 186.571 460.953V460.953C190.674 460.953 194 457.627 194 453.524L194 453.195" stroke="#F2EDE4" stroke-opacity="0.52" stroke-width="5"/>
<rect x="50.8711" y="572.602" width="12.0959" height="12.0959" rx="6.04796" stroke="#F2EDE4" stroke-opacity="0.52" stroke-width="5"/>
<rect x="221.354" y="632.906" width="26.6461" height="26.6461" rx="13.323" stroke="#F2EDE4" stroke-opacity="0.52" stroke-width="5"/>
<rect x="112.753" y="588.992" width="5.4344" height="5.4344" rx="2.7172" fill="#F2EDE4" fill-opacity="0.52"/>
<rect x="184.891" y="527.899" width="5.4344" height="5.4344" rx="2.7172" fill="#F2EDE4" fill-opacity="0.52"/>
<rect x="184.891" y="517.644" width="5.4344" height="5.4344" rx="2.7172" fill="#F2EDE4" fill-opacity="0.52"/>
<path d="M103.199 555.247L103.199 534.166C103.199 529.785 99.6479 526.234 95.2669 526.234V526.234C90.886 526.234 87.3345 529.785 87.3345 534.166L87.3345 537.19" stroke="#F2EDE4" stroke-opacity="0.52" stroke-width="5"/>
<path d="M151.057 508.528L151.057 524.963C151.057 528.376 148.29 531.142 144.878 531.142V531.142C141.465 531.142 138.698 528.376 138.698 524.963L138.698 522.602" stroke="#F2EDE4" stroke-opacity="0.52" stroke-width="5"/>
<path d="M128.092 485.914L128.092 528.075C128.092 537.03 135.352 544.29 144.307 544.29V544.29C153.263 544.29 160.523 537.03 160.523 528.075L160.523 522.245" stroke="#F2EDE4" stroke-opacity="0.52" stroke-width="5"/>
<path d="M165.081 585.092L165.081 612.658C165.081 621.614 172.341 628.874 181.297 628.874V628.874C190.252 628.874 197.512 621.614 197.512 612.658L197.512 606.829" stroke="#F2EDE4" stroke-opacity="0.52" stroke-width="5"/>
<path d="M102.717 515.015V515.015C109.954 515.015 115.821 520.881 115.821 528.118L115.821 567.868" stroke="#F2EDE4" stroke-opacity="0.52" stroke-width="5"/>
<path d="M162.101 515.015V515.015C169.362 515.015 175.249 520.901 175.249 528.162L175.249 574.881" stroke="#F2EDE4" stroke-opacity="0.52" stroke-width="5"/>
<path d="M108.108 591.184V591.184C100.363 591.184 94.0837 584.905 94.0837 577.159L94.0837 566.817" stroke="#F2EDE4" stroke-opacity="0.52" stroke-width="5"/>
<path d="M225.035 621.424V621.424C214.385 621.424 205.752 630.057 205.752 640.707L205.752 655.871" stroke="#F2EDE4" stroke-opacity="0.52" stroke-width="5"/>
<path d="M199.572 575.187V575.187C199.572 564.537 208.206 555.904 218.856 555.904L234.019 555.904" stroke="#F2EDE4" stroke-opacity="0.52" stroke-width="5"/>
<path d="M197.425 595.512L197.425 591.921C197.425 588.174 200.463 585.136 204.21 585.136V585.136C207.958 585.136 210.996 588.174 210.996 591.921L210.996 594.858C210.996 598.25 213.746 601.001 217.139 601.001V601.001C220.532 601.001 223.282 598.25 223.282 594.858L223.282 592.63" stroke="#F2EDE4" stroke-opacity="0.52" stroke-width="5"/>
<path d="M216.796 537.015V537.015C206.146 537.015 197.513 528.382 197.513 517.732L197.513 502.568" stroke="#F2EDE4" stroke-opacity="0.52" stroke-width="5"/>
<path d="M166.484 557.263L157.806 557.263C151.949 557.263 147.201 562.011 147.201 567.868V567.868" stroke="#F2EDE4" stroke-opacity="0.52" stroke-width="5"/>
<path d="M51.1343 546.394V546.394C51.1343 556.269 59.1398 564.275 69.0152 564.275L69.4535 564.275C79.3288 564.275 87.3344 556.269 87.3344 546.394V546.394" stroke="#F2EDE4" stroke-opacity="0.52" stroke-width="5"/>
<rect x="120.698" y="873.141" width="15.8649" height="38.0408" rx="7.93247" transform="rotate(-180 120.698 873.141)" stroke="#F2EDE4" stroke-opacity="0.52" stroke-width="5"/>
<path d="M7.10156 786.26L7.10156 796.665C7.10156 800.175 4.25645 803.02 0.746821 803.02V803.02C-2.76281 803.02 -5.60792 800.175 -5.60792 796.665L-5.60792 774.139C-5.60792 770.629 -2.7628 767.784 0.746824 767.784V767.784C4.25645 767.784 7.10157 770.629 7.10157 774.139L7.10156 776.728" stroke="#F2EDE4" stroke-opacity="0.52" stroke-width="5"/>
<path d="M18.7158 811.171L42.9514 811.171C47.3566 811.171 50.9277 807.6 50.9277 803.195L50.9277 802.647C50.9277 798.545 47.6019 795.219 43.4993 795.219V795.219C39.3966 795.219 36.0708 798.545 36.0708 802.647L36.0708 802.976" stroke="#F2EDE4" stroke-opacity="0.52" stroke-width="5"/>
<rect x="131.128" y="813.45" width="12.0959" height="12.0959" rx="6.04796" transform="rotate(-180 131.128 813.45)" stroke="#F2EDE4" stroke-opacity="0.52" stroke-width="5"/>
<rect x="179.199" y="683.57" width="12.0959" height="12.0959" rx="6.04796" transform="rotate(-180 179.199 683.57)" stroke="#F2EDE4" stroke-opacity="0.52" stroke-width="5"/>
<rect x="69.2466" y="797.059" width="5.4344" height="5.4344" rx="2.7172" transform="rotate(-180 69.2466 797.059)" fill="#F2EDE4" fill-opacity="0.52"/>
<path d="M78.8006 830.805L78.8006 851.886C78.8006 856.267 82.3521 859.818 86.7331 859.818V859.818C91.114 859.818 94.6655 856.267 94.6655 851.886L94.6655 848.862" stroke="#F2EDE4" stroke-opacity="0.52" stroke-width="5"/>
<path d="M15.4583 700.657L15.4583 721.737C15.4583 726.118 19.0098 729.67 23.3908 729.67V729.67C27.7718 729.67 31.3232 726.118 31.3232 721.737L31.3232 718.713" stroke="#F2EDE4" stroke-opacity="0.52" stroke-width="5"/>
<path d="M30.9429 877.524L30.9429 861.089C30.9429 857.676 33.7095 854.91 37.1223 854.91V854.91C40.5351 854.91 43.3018 857.676 43.3018 861.089L43.3018 863.45" stroke="#F2EDE4" stroke-opacity="0.52" stroke-width="5"/>
<path d="M53.9077 900.138L53.9077 857.977C53.9077 849.022 46.6477 841.762 37.6921 841.762V841.762C28.7365 841.762 21.4766 849.022 21.4766 857.977L21.4766 863.807" stroke="#F2EDE4" stroke-opacity="0.52" stroke-width="5"/>
<path d="M16.9189 800.96L16.9189 773.394C16.9189 764.438 9.65894 757.178 0.703341 757.178V757.178C-8.25226 757.178 -15.5122 764.438 -15.5122 773.394L-15.5122 779.223" stroke="#F2EDE4" stroke-opacity="0.52" stroke-width="5"/>
<path d="M79.2827 871.037V871.037C72.0456 871.037 66.1788 865.171 66.1788 857.934L66.1788 818.184" stroke="#F2EDE4" stroke-opacity="0.52" stroke-width="5"/>
<path d="M15.9404 740.889V740.889C8.70334 740.889 2.83651 735.022 2.83652 727.785L2.83652 688.035" stroke="#F2EDE4" stroke-opacity="0.52" stroke-width="5"/>
<path d="M19.8989 871.037V871.037C12.6376 871.037 6.75118 865.151 6.75118 857.89L6.75119 811.171" stroke="#F2EDE4" stroke-opacity="0.52" stroke-width="5"/>
<path d="M73.8921 794.868V794.868C81.6375 794.868 87.9163 801.147 87.9163 808.892L87.9163 819.235" stroke="#F2EDE4" stroke-opacity="0.52" stroke-width="5"/>
<path d="M15.5166 828.789L24.1941 828.789C30.0516 828.789 34.8 824.041 34.8 818.184V818.184" stroke="#F2EDE4" stroke-opacity="0.52" stroke-width="5"/>
<path d="M130.866 839.658V839.658C130.866 829.783 122.86 821.777 112.985 821.777L112.547 821.777C102.671 821.777 94.6656 829.783 94.6656 839.658V839.658" stroke="#F2EDE4" stroke-opacity="0.52" stroke-width="5"/>
<rect x="43.0386" y="707.479" width="15.8649" height="38.0408" rx="7.93247" stroke="#F2EDE4" stroke-opacity="0.52" stroke-width="5"/>
<rect x="190.907" y="679.606" width="15.8649" height="38.0408" rx="7.93247" stroke="#F2EDE4" stroke-opacity="0.52" stroke-width="5"/>
<path d="M156.635 794.36L156.635 783.956C156.635 780.446 159.48 777.601 162.99 777.601V777.601C166.5 777.601 169.345 780.446 169.345 783.956L169.345 806.482C169.345 809.992 166.5 812.837 162.99 812.837V812.837C159.48 812.837 156.635 809.992 156.635 806.482L156.635 803.892" stroke="#F2EDE4" stroke-opacity="0.52" stroke-width="5"/>
<path d="M145.022 769.449L120.786 769.449C116.381 769.449 112.81 773.02 112.81 777.426L112.81 777.973C112.81 782.076 116.135 785.402 120.238 785.402V785.402C124.341 785.402 127.667 782.076 127.667 777.973L127.667 777.645" stroke="#F2EDE4" stroke-opacity="0.52" stroke-width="5"/>
<path d="M193.092 639.569L168.856 639.569C164.451 639.569 160.88 643.14 160.88 647.545L160.88 648.093C160.88 652.195 164.206 655.521 168.308 655.521V655.521C172.411 655.521 175.737 652.195 175.737 648.093L175.737 647.764" stroke="#F2EDE4" stroke-opacity="0.52" stroke-width="5"/>
<rect x="32.6084" y="767.17" width="12.0959" height="12.0959" rx="6.04796" stroke="#F2EDE4" stroke-opacity="0.52" stroke-width="5"/>
<rect x="203.091" y="827.475" width="26.6461" height="26.6461" rx="13.323" stroke="#F2EDE4" stroke-opacity="0.52" stroke-width="5"/>
<rect x="94.4907" y="783.561" width="5.4344" height="5.4344" rx="2.7172" fill="#F2EDE4" fill-opacity="0.52"/>
<rect x="166.628" y="722.468" width="5.4344" height="5.4344" rx="2.7172" fill="#F2EDE4" fill-opacity="0.52"/>
<rect x="166.628" y="712.213" width="5.4344" height="5.4344" rx="2.7172" fill="#F2EDE4" fill-opacity="0.52"/>
<path d="M84.9367 749.815L84.9367 728.735C84.9367 724.354 81.3852 720.803 77.0042 720.803V720.803C72.6233 720.803 69.0718 724.354 69.0718 728.735L69.0718 731.759" stroke="#F2EDE4" stroke-opacity="0.52" stroke-width="5"/>
<path d="M132.794 703.097L132.794 719.532C132.794 722.944 130.028 725.711 126.615 725.711V725.711C123.202 725.711 120.436 722.944 120.436 719.532L120.436 717.171" stroke="#F2EDE4" stroke-opacity="0.52" stroke-width="5"/>
<path d="M109.829 680.483L109.829 722.643C109.829 731.599 117.089 738.859 126.045 738.859V738.859C135 738.859 142.26 731.599 142.26 722.643L142.26 716.814" stroke="#F2EDE4" stroke-opacity="0.52" stroke-width="5"/>
<path d="M146.818 779.661L146.818 807.227C146.818 816.183 154.078 823.443 163.034 823.443V823.443C171.99 823.443 179.25 816.183 179.25 807.227L179.25 801.397" stroke="#F2EDE4" stroke-opacity="0.52" stroke-width="5"/>
<path d="M84.4546 709.583V709.583C91.6917 709.583 97.5585 715.45 97.5585 722.687L97.5585 762.437" stroke="#F2EDE4" stroke-opacity="0.52" stroke-width="5"/>
<path d="M143.838 709.583V709.583C151.1 709.583 156.986 715.47 156.986 722.731L156.986 769.449" stroke="#F2EDE4" stroke-opacity="0.52" stroke-width="5"/>
<path d="M89.8452 785.752V785.752C82.0998 785.752 75.821 779.474 75.821 771.728L75.821 761.385" stroke="#F2EDE4" stroke-opacity="0.52" stroke-width="5"/>
<path d="M206.772 815.992V815.992C196.122 815.992 187.489 824.626 187.489 835.276L187.489 850.439" stroke="#F2EDE4" stroke-opacity="0.52" stroke-width="5"/>
<path d="M181.31 769.756V769.756C181.31 759.106 189.943 750.473 200.593 750.473L215.757 750.473" stroke="#F2EDE4" stroke-opacity="0.52" stroke-width="5"/>
<path d="M179.162 790.081L179.162 786.49C179.162 782.742 182.2 779.704 185.948 779.704V779.704C189.695 779.704 192.733 782.742 192.733 786.49L192.733 789.426C192.733 792.819 195.483 795.569 198.876 795.569V795.569C202.269 795.569 205.019 792.819 205.019 789.426L205.019 787.199" stroke="#F2EDE4" stroke-opacity="0.52" stroke-width="5"/>
<path d="M198.533 731.584V731.584C187.883 731.584 179.25 722.95 179.25 712.3L179.25 697.137" stroke="#F2EDE4" stroke-opacity="0.52" stroke-width="5"/>
<path d="M148.221 751.831L139.544 751.831C133.686 751.831 128.938 756.58 128.938 762.437V762.437" stroke="#F2EDE4" stroke-opacity="0.52" stroke-width="5"/>
<path d="M32.8716 740.963V740.963C32.8716 750.838 40.8771 758.843 50.7525 758.843L51.1908 758.843C61.0661 758.843 69.0717 750.838 69.0717 740.963V740.963" stroke="#F2EDE4" stroke-opacity="0.52" stroke-width="5"/>
<rect x="395.961" y="213.572" width="15.8649" height="38.0408" rx="7.93247" transform="rotate(-180 395.961 213.572)" stroke="#F2EDE4" stroke-opacity="0.52" stroke-width="5"/>
<rect x="248.093" y="241.446" width="15.8649" height="38.0408" rx="7.93247" transform="rotate(-180 248.093 241.446)" stroke="#F2EDE4" stroke-opacity="0.52" stroke-width="5"/>
<path d="M282.364 126.691L282.364 137.096C282.364 140.606 279.519 143.451 276.01 143.451V143.451C272.5 143.451 269.655 140.606 269.655 137.096L269.655 114.57C269.655 111.06 272.5 108.215 276.01 108.215V108.215C279.519 108.215 282.364 111.06 282.364 114.57L282.364 117.16" stroke="#F2EDE4" stroke-opacity="0.52" stroke-width="5"/>
<path d="M293.978 151.603L318.214 151.603C322.619 151.603 326.19 148.032 326.19 143.626L326.19 143.079C326.19 138.976 322.865 135.65 318.762 135.65V135.65C314.659 135.65 311.333 138.976 311.333 143.079L311.333 143.407" stroke="#F2EDE4" stroke-opacity="0.52" stroke-width="5"/>
<rect x="406.391" y="153.882" width="12.0959" height="12.0959" rx="6.04796" transform="rotate(-180 406.391 153.882)" stroke="#F2EDE4" stroke-opacity="0.52" stroke-width="5"/>
<rect x="235.909" y="93.5773" width="26.6461" height="26.6461" rx="13.323" transform="rotate(-180 235.909 93.5773)" stroke="#F2EDE4" stroke-opacity="0.52" stroke-width="5"/>
<rect x="344.509" y="137.491" width="5.4344" height="5.4344" rx="2.7172" transform="rotate(-180 344.509 137.491)" fill="#F2EDE4" fill-opacity="0.52"/>
<rect x="272.372" y="198.584" width="5.4344" height="5.4344" rx="2.7172" transform="rotate(-180 272.372 198.584)" fill="#F2EDE4" fill-opacity="0.52"/>
<rect x="272.372" y="208.839" width="5.4344" height="5.4344" rx="2.7172" transform="rotate(-180 272.372 208.839)" fill="#F2EDE4" fill-opacity="0.52"/>
<path d="M354.063 171.237L354.063 192.317C354.063 196.698 357.615 200.249 361.996 200.249V200.249C366.377 200.249 369.928 196.698 369.928 192.317L369.928 189.293" stroke="#F2EDE4" stroke-opacity="0.52" stroke-width="5"/>
<path d="M290.721 41.0884L290.721 62.1686C290.721 66.5496 294.272 70.1011 298.653 70.1011V70.1011C303.034 70.1011 306.586 66.5496 306.586 62.1686L306.586 59.1446" stroke="#F2EDE4" stroke-opacity="0.52" stroke-width="5"/>
<path d="M306.206 217.955L306.206 201.52C306.206 198.107 308.972 195.341 312.385 195.341V195.341C315.798 195.341 318.564 198.107 318.564 201.52L318.564 203.881" stroke="#F2EDE4" stroke-opacity="0.52" stroke-width="5"/>
<path d="M329.17 240.569L329.17 198.409C329.17 189.453 321.91 182.193 312.955 182.193V182.193C303.999 182.193 296.739 189.453 296.739 198.409L296.739 204.238" stroke="#F2EDE4" stroke-opacity="0.52" stroke-width="5"/>
<path d="M292.182 141.391L292.182 113.825C292.182 104.869 284.922 97.6093 275.966 97.6093V97.6093C267.01 97.6093 259.75 104.869 259.75 113.825L259.75 119.655" stroke="#F2EDE4" stroke-opacity="0.52" stroke-width="5"/>
<path d="M354.545 211.469V211.469C347.308 211.469 341.441 205.602 341.441 198.365L341.441 158.615" stroke="#F2EDE4" stroke-opacity="0.52" stroke-width="5"/>
<path d="M291.204 81.3204V81.3204C283.967 81.3204 278.1 75.4536 278.1 68.2165L278.1 28.4665" stroke="#F2EDE4" stroke-opacity="0.52" stroke-width="5"/>
<path d="M295.162 211.469V211.469C287.9 211.469 282.014 205.582 282.014 198.321L282.014 151.603" stroke="#F2EDE4" stroke-opacity="0.52" stroke-width="5"/>
<path d="M349.155 135.299V135.299C356.9 135.299 363.179 141.578 363.179 149.324L363.179 159.667" stroke="#F2EDE4" stroke-opacity="0.52" stroke-width="5"/>
<path d="M232.228 105.06V105.06C242.877 105.06 251.511 96.4262 251.511 85.7763L251.511 70.6126" stroke="#F2EDE4" stroke-opacity="0.52" stroke-width="5"/>
<path d="M257.69 151.296V151.296C257.69 161.946 249.057 170.579 238.407 170.579L223.243 170.579" stroke="#F2EDE4" stroke-opacity="0.52" stroke-width="5"/>
<path d="M259.838 130.971L259.838 134.562C259.838 138.309 256.8 141.347 253.052 141.347V141.347C249.305 141.347 246.267 138.309 246.267 134.562L246.267 131.626C246.267 128.233 243.517 125.482 240.124 125.482V125.482C236.731 125.482 233.981 128.233 233.981 131.626L233.981 133.853" stroke="#F2EDE4" stroke-opacity="0.52" stroke-width="5"/>
<path d="M240.467 189.468V189.468C251.117 189.468 259.75 198.102 259.75 208.751L259.75 223.915" stroke="#F2EDE4" stroke-opacity="0.52" stroke-width="5"/>
<path d="M290.779 169.221L299.457 169.221C305.314 169.221 310.063 164.472 310.063 158.615V158.615" stroke="#F2EDE4" stroke-opacity="0.52" stroke-width="5"/>
<path d="M406.128 180.089V180.089C406.128 170.214 398.123 162.209 388.247 162.209L387.809 162.209C377.934 162.209 369.928 170.214 369.928 180.089V180.089" stroke="#F2EDE4" stroke-opacity="0.52" stroke-width="5"/>
<rect x="318.302" y="47.9109" width="15.8649" height="38.0408" rx="7.93247" stroke="#F2EDE4" stroke-opacity="0.52" stroke-width="5"/>
<path d="M420.284 109.88L396.049 109.88C391.643 109.88 388.072 113.452 388.072 117.857L388.072 118.405C388.072 122.507 391.398 125.833 395.501 125.833V125.833C399.603 125.833 402.929 122.507 402.929 118.405L402.929 118.076" stroke="#F2EDE4" stroke-opacity="0.52" stroke-width="5"/>
<rect x="307.871" y="107.602" width="12.0959" height="12.0959" rx="6.04796" stroke="#F2EDE4" stroke-opacity="0.52" stroke-width="5"/>
<rect x="369.753" y="123.992" width="5.4344" height="5.4344" rx="2.7172" fill="#F2EDE4" fill-opacity="0.52"/>
<path d="M360.199 90.2466L360.199 69.1664C360.199 64.7854 356.648 61.2339 352.267 61.2339V61.2339C347.886 61.2339 344.334 64.7854 344.334 69.1664L344.334 72.1903" stroke="#F2EDE4" stroke-opacity="0.52" stroke-width="5"/>
<path d="M385.092 20.9142L385.092 63.0746C385.092 72.0302 392.352 79.2902 401.307 79.2902V79.2902C410.263 79.2902 417.523 72.0302 417.523 63.0746L417.523 57.2448" stroke="#F2EDE4" stroke-opacity="0.52" stroke-width="5"/>
<path d="M359.717 50.0145V50.0145C366.954 50.0145 372.821 55.8814 372.821 63.1184L372.821 102.868" stroke="#F2EDE4" stroke-opacity="0.52" stroke-width="5"/>
<path d="M365.108 126.184V126.184C357.363 126.184 351.084 119.905 351.084 112.159L351.084 101.817" stroke="#F2EDE4" stroke-opacity="0.52" stroke-width="5"/>
<path d="M308.134 81.3938V81.3938C308.134 91.2692 316.14 99.2747 326.015 99.2747L326.453 99.2747C336.329 99.2747 344.334 91.2692 344.334 81.3938V81.3938" stroke="#F2EDE4" stroke-opacity="0.52" stroke-width="5"/>
<rect x="377.698" y="408.141" width="15.8649" height="38.0408" rx="7.93247" transform="rotate(-180 377.698 408.141)" stroke="#F2EDE4" stroke-opacity="0.52" stroke-width="5"/>
<rect x="229.83" y="436.014" width="15.8649" height="38.0408" rx="7.93247" transform="rotate(-180 229.83 436.014)" stroke="#F2EDE4" stroke-opacity="0.52" stroke-width="5"/>
<path d="M264.102 321.26L264.102 331.665C264.102 335.175 261.256 338.02 257.747 338.02V338.02C254.237 338.02 251.392 335.175 251.392 331.665L251.392 309.139C251.392 305.629 254.237 302.784 257.747 302.784V302.784C261.256 302.784 264.102 305.629 264.102 309.139L264.102 311.728" stroke="#F2EDE4" stroke-opacity="0.52" stroke-width="5"/>
<path d="M275.716 346.171L299.951 346.171C304.357 346.171 307.928 342.6 307.928 338.195L307.928 337.647C307.928 333.545 304.602 330.219 300.499 330.219V330.219C296.397 330.219 293.071 333.545 293.071 337.647L293.071 337.976" stroke="#F2EDE4" stroke-opacity="0.52" stroke-width="5"/>
<rect x="388.128" y="348.45" width="12.0959" height="12.0959" rx="6.04796" transform="rotate(-180 388.128 348.45)" stroke="#F2EDE4" stroke-opacity="0.52" stroke-width="5"/>
<rect x="217.646" y="288.146" width="26.6461" height="26.6461" rx="13.323" transform="rotate(-180 217.646 288.146)" stroke="#F2EDE4" stroke-opacity="0.52" stroke-width="5"/>
<rect x="326.247" y="332.059" width="5.4344" height="5.4344" rx="2.7172" transform="rotate(-180 326.247 332.059)" fill="#F2EDE4" fill-opacity="0.52"/>
<rect x="254.109" y="393.153" width="5.4344" height="5.4344" rx="2.7172" transform="rotate(-180 254.109 393.153)" fill="#F2EDE4" fill-opacity="0.52"/>
<rect x="254.109" y="403.408" width="5.4344" height="5.4344" rx="2.7172" transform="rotate(-180 254.109 403.408)" fill="#F2EDE4" fill-opacity="0.52"/>
<path d="M335.801 365.805L335.801 386.886C335.801 391.267 339.352 394.818 343.733 394.818V394.818C348.114 394.818 351.666 391.267 351.666 386.886L351.666 383.862" stroke="#F2EDE4" stroke-opacity="0.52" stroke-width="5"/>
<path d="M272.458 235.657L272.458 256.737C272.458 261.118 276.01 264.67 280.391 264.67V264.67C284.772 264.67 288.323 261.118 288.323 256.737L288.323 253.713" stroke="#F2EDE4" stroke-opacity="0.52" stroke-width="5"/>
<path d="M287.943 412.524L287.943 396.089C287.943 392.676 290.71 389.91 294.122 389.91V389.91C297.535 389.91 300.302 392.676 300.302 396.089L300.302 398.45" stroke="#F2EDE4" stroke-opacity="0.52" stroke-width="5"/>
<path d="M310.908 435.138L310.908 392.977C310.908 384.022 303.648 376.762 294.692 376.762V376.762C285.737 376.762 278.477 384.022 278.477 392.977L278.477 398.807" stroke="#F2EDE4" stroke-opacity="0.52" stroke-width="5"/>
<path d="M273.919 335.96L273.919 308.394C273.919 299.438 266.659 292.178 257.703 292.178V292.178C248.748 292.178 241.488 299.438 241.488 308.394L241.488 314.223" stroke="#F2EDE4" stroke-opacity="0.52" stroke-width="5"/>
<path d="M336.283 406.037V406.037C329.046 406.037 323.179 400.171 323.179 392.934L323.179 353.184" stroke="#F2EDE4" stroke-opacity="0.52" stroke-width="5"/>
<path d="M272.94 275.889V275.889C265.703 275.889 259.837 270.022 259.837 262.785L259.837 223.035" stroke="#F2EDE4" stroke-opacity="0.52" stroke-width="5"/>
<path d="M276.899 406.037V406.037C269.638 406.037 263.751 400.151 263.751 392.89L263.751 346.171" stroke="#F2EDE4" stroke-opacity="0.52" stroke-width="5"/>
<path d="M330.892 329.868V329.868C338.637 329.868 344.916 336.147 344.916 343.892L344.916 354.235" stroke="#F2EDE4" stroke-opacity="0.52" stroke-width="5"/>
<path d="M213.965 299.628V299.628C224.615 299.628 233.248 290.995 233.248 280.345L233.248 265.181" stroke="#F2EDE4" stroke-opacity="0.52" stroke-width="5"/>
<path d="M239.428 345.865V345.865C239.428 356.515 230.794 365.148 220.144 365.148L204.981 365.148" stroke="#F2EDE4" stroke-opacity="0.52" stroke-width="5"/>
<path d="M241.575 325.54L241.575 329.131C241.575 332.878 238.537 335.916 234.79 335.916V335.916C231.042 335.916 228.004 332.878 228.004 329.131L228.004 326.194C228.004 322.802 225.254 320.051 221.861 320.051V320.051C218.468 320.051 215.718 322.802 215.718 326.194L215.718 328.422" stroke="#F2EDE4" stroke-opacity="0.52" stroke-width="5"/>
<path d="M222.204 384.037V384.037C232.854 384.037 241.487 392.67 241.487 403.32L241.487 418.484" stroke="#F2EDE4" stroke-opacity="0.52" stroke-width="5"/>
<path d="M272.517 363.789L281.194 363.789C287.052 363.789 291.8 359.041 291.8 353.184V353.184" stroke="#F2EDE4" stroke-opacity="0.52" stroke-width="5"/>
<path d="M387.866 374.658V374.658C387.866 364.783 379.86 356.777 369.985 356.777L369.547 356.777C359.671 356.777 351.666 364.783 351.666 374.658V374.658" stroke="#F2EDE4" stroke-opacity="0.52" stroke-width="5"/>
<rect x="300.039" y="242.479" width="15.8649" height="38.0408" rx="7.93247" stroke="#F2EDE4" stroke-opacity="0.52" stroke-width="5"/>
<path d="M402.022 304.449L377.786 304.449C373.381 304.449 369.81 308.02 369.81 312.426L369.81 312.973C369.81 317.076 373.135 320.402 377.238 320.402V320.402C381.341 320.402 384.667 317.076 384.667 312.973L384.667 312.645" stroke="#F2EDE4" stroke-opacity="0.52" stroke-width="5"/>
<rect x="289.608" y="302.17" width="12.0959" height="12.0959" rx="6.04796" stroke="#F2EDE4" stroke-opacity="0.52" stroke-width="5"/>
<rect x="351.491" y="318.561" width="5.4344" height="5.4344" rx="2.7172" fill="#F2EDE4" fill-opacity="0.52"/>
<path d="M341.937 284.815L341.937 263.735C341.937 259.354 338.385 255.803 334.004 255.803V255.803C329.623 255.803 326.072 259.354 326.072 263.735L326.072 266.759" stroke="#F2EDE4" stroke-opacity="0.52" stroke-width="5"/>
<path d="M389.794 238.097L389.794 254.532C389.794 257.944 387.028 260.711 383.615 260.711V260.711C380.202 260.711 377.436 257.944 377.436 254.532L377.436 252.171" stroke="#F2EDE4" stroke-opacity="0.52" stroke-width="5"/>
<path d="M366.829 215.483L366.829 257.643C366.829 266.599 374.089 273.859 383.045 273.859V273.859C392 273.859 399.26 266.599 399.26 257.643L399.26 251.814" stroke="#F2EDE4" stroke-opacity="0.52" stroke-width="5"/>
<path d="M341.455 244.583V244.583C348.692 244.583 354.559 250.45 354.559 257.687L354.558 297.437" stroke="#F2EDE4" stroke-opacity="0.52" stroke-width="5"/>
<path d="M346.845 320.752V320.752C339.1 320.752 332.821 314.474 332.821 306.728L332.821 296.385" stroke="#F2EDE4" stroke-opacity="0.52" stroke-width="5"/>
<path d="M405.221 286.831L396.544 286.831C390.686 286.831 385.938 291.58 385.938 297.437V297.437" stroke="#F2EDE4" stroke-opacity="0.52" stroke-width="5"/>
<path d="M289.872 275.963V275.963C289.872 285.838 297.877 293.843 307.753 293.843L308.191 293.843C318.066 293.843 326.072 285.838 326.072 275.963V275.963" stroke="#F2EDE4" stroke-opacity="0.52" stroke-width="5"/>
<rect x="395.961" y="617.572" width="15.8649" height="38.0408" rx="7.93247" transform="rotate(-180 395.961 617.572)" stroke="#F2EDE4" stroke-opacity="0.52" stroke-width="5"/>
<rect x="248.093" y="645.446" width="15.8649" height="38.0408" rx="7.93247" transform="rotate(-180 248.093 645.446)" stroke="#F2EDE4" stroke-opacity="0.52" stroke-width="5"/>
<path d="M282.364 530.691L282.364 541.096C282.364 544.606 279.519 547.451 276.01 547.451V547.451C272.5 547.451 269.655 544.606 269.655 541.096L269.655 518.57C269.655 515.06 272.5 512.215 276.01 512.215V512.215C279.519 512.215 282.364 515.06 282.364 518.57L282.364 521.16" stroke="#F2EDE4" stroke-opacity="0.52" stroke-width="5"/>
<path d="M293.978 555.603L318.214 555.603C322.619 555.603 326.19 552.032 326.19 547.626L326.19 547.079C326.19 542.976 322.865 539.65 318.762 539.65V539.65C314.659 539.65 311.333 542.976 311.333 547.079L311.333 547.407" stroke="#F2EDE4" stroke-opacity="0.52" stroke-width="5"/>
<rect x="406.391" y="557.882" width="12.0959" height="12.0959" rx="6.04796" transform="rotate(-180 406.391 557.882)" stroke="#F2EDE4" stroke-opacity="0.52" stroke-width="5"/>
<rect x="235.909" y="497.577" width="26.6461" height="26.6461" rx="13.323" transform="rotate(-180 235.909 497.577)" stroke="#F2EDE4" stroke-opacity="0.52" stroke-width="5"/>
<rect x="344.509" y="541.491" width="5.4344" height="5.4344" rx="2.7172" transform="rotate(-180 344.509 541.491)" fill="#F2EDE4" fill-opacity="0.52"/>
<rect x="272.372" y="602.584" width="5.4344" height="5.4344" rx="2.7172" transform="rotate(-180 272.372 602.584)" fill="#F2EDE4" fill-opacity="0.52"/>
<rect x="272.372" y="612.839" width="5.4344" height="5.4344" rx="2.7172" transform="rotate(-180 272.372 612.839)" fill="#F2EDE4" fill-opacity="0.52"/>
<path d="M354.063 575.237L354.063 596.317C354.063 600.698 357.615 604.249 361.996 604.249V604.249C366.377 604.249 369.928 600.698 369.928 596.317L369.928 593.293" stroke="#F2EDE4" stroke-opacity="0.52" stroke-width="5"/>
<path d="M290.721 445.088L290.721 466.169C290.721 470.55 294.272 474.101 298.653 474.101V474.101C303.034 474.101 306.586 470.55 306.586 466.169L306.586 463.145" stroke="#F2EDE4" stroke-opacity="0.52" stroke-width="5"/>
<path d="M306.206 621.955L306.206 605.52C306.206 602.107 308.972 599.341 312.385 599.341V599.341C315.798 599.341 318.564 602.107 318.564 605.52L318.564 607.881" stroke="#F2EDE4" stroke-opacity="0.52" stroke-width="5"/>
<path d="M329.17 644.569L329.17 602.409C329.17 593.453 321.91 586.193 312.955 586.193V586.193C303.999 586.193 296.739 593.453 296.739 602.409L296.739 608.238" stroke="#F2EDE4" stroke-opacity="0.52" stroke-width="5"/>
<path d="M292.182 545.391L292.182 517.825C292.182 508.869 284.922 501.609 275.966 501.609V501.609C267.01 501.609 259.75 508.869 259.75 517.825L259.75 523.655" stroke="#F2EDE4" stroke-opacity="0.52" stroke-width="5"/>
<path d="M354.545 615.469V615.469C347.308 615.469 341.441 609.602 341.441 602.365L341.441 562.615" stroke="#F2EDE4" stroke-opacity="0.52" stroke-width="5"/>
<path d="M291.204 485.32V485.32C283.967 485.32 278.1 479.454 278.1 472.217L278.1 432.467" stroke="#F2EDE4" stroke-opacity="0.52" stroke-width="5"/>
<path d="M295.162 615.469V615.469C287.9 615.469 282.014 609.582 282.014 602.321L282.014 555.603" stroke="#F2EDE4" stroke-opacity="0.52" stroke-width="5"/>
<path d="M349.155 539.299V539.299C356.9 539.299 363.179 545.578 363.179 553.324L363.179 563.667" stroke="#F2EDE4" stroke-opacity="0.52" stroke-width="5"/>
<path d="M232.228 509.06V509.06C242.877 509.06 251.511 500.426 251.511 489.776L251.511 474.613" stroke="#F2EDE4" stroke-opacity="0.52" stroke-width="5"/>
<path d="M257.69 555.296V555.296C257.69 565.946 249.057 574.579 238.407 574.579L223.243 574.579" stroke="#F2EDE4" stroke-opacity="0.52" stroke-width="5"/>
<path d="M259.838 534.971L259.838 538.562C259.838 542.309 256.8 545.347 253.052 545.347V545.347C249.305 545.347 246.267 542.309 246.267 538.562L246.267 535.626C246.267 532.233 243.517 529.482 240.124 529.482V529.482C236.731 529.482 233.981 532.233 233.981 535.626L233.981 537.853" stroke="#F2EDE4" stroke-opacity="0.52" stroke-width="5"/>
<path d="M240.467 593.468V593.468C251.117 593.468 259.75 602.102 259.75 612.751L259.75 627.915" stroke="#F2EDE4" stroke-opacity="0.52" stroke-width="5"/>
<path d="M290.779 573.221L299.457 573.221C305.314 573.221 310.063 568.472 310.063 562.615V562.615" stroke="#F2EDE4" stroke-opacity="0.52" stroke-width="5"/>
<path d="M406.128 584.089V584.089C406.128 574.214 398.123 566.209 388.247 566.209L387.809 566.209C377.934 566.209 369.928 574.214 369.928 584.089V584.089" stroke="#F2EDE4" stroke-opacity="0.52" stroke-width="5"/>
<rect x="318.302" y="451.911" width="15.8649" height="38.0408" rx="7.93247" stroke="#F2EDE4" stroke-opacity="0.52" stroke-width="5"/>
<path d="M420.284 513.88L396.049 513.88C391.643 513.88 388.072 517.452 388.072 521.857L388.072 522.405C388.072 526.507 391.398 529.833 395.501 529.833V529.833C399.603 529.833 402.929 526.507 402.929 522.405L402.929 522.076" stroke="#F2EDE4" stroke-opacity="0.52" stroke-width="5"/>
<rect x="307.871" y="511.602" width="12.0959" height="12.0959" rx="6.04796" stroke="#F2EDE4" stroke-opacity="0.52" stroke-width="5"/>
<rect x="369.753" y="527.992" width="5.4344" height="5.4344" rx="2.7172" fill="#F2EDE4" fill-opacity="0.52"/>
<path d="M360.199 494.247L360.199 473.166C360.199 468.785 356.648 465.234 352.267 465.234V465.234C347.886 465.234 344.334 468.785 344.334 473.166L344.334 476.19" stroke="#F2EDE4" stroke-opacity="0.52" stroke-width="5"/>
<path d="M385.092 424.914L385.092 467.075C385.092 476.03 392.352 483.29 401.307 483.29V483.29C410.263 483.29 417.523 476.03 417.523 467.075L417.523 461.245" stroke="#F2EDE4" stroke-opacity="0.52" stroke-width="5"/>
<path d="M359.717 454.015V454.015C366.954 454.015 372.821 459.881 372.821 467.118L372.821 506.868" stroke="#F2EDE4" stroke-opacity="0.52" stroke-width="5"/>
<path d="M365.108 530.184V530.184C357.363 530.184 351.084 523.905 351.084 516.159L351.084 505.817" stroke="#F2EDE4" stroke-opacity="0.52" stroke-width="5"/>
<path d="M308.134 485.394V485.394C308.134 495.269 316.14 503.275 326.015 503.275L326.453 503.275C336.329 503.275 344.334 495.269 344.334 485.394V485.394" stroke="#F2EDE4" stroke-opacity="0.52" stroke-width="5"/>
<rect x="377.698" y="812.141" width="15.8649" height="38.0408" rx="7.93247" transform="rotate(-180 377.698 812.141)" stroke="#F2EDE4" stroke-opacity="0.52" stroke-width="5"/>
<rect x="229.83" y="840.014" width="15.8649" height="38.0408" rx="7.93247" transform="rotate(-180 229.83 840.014)" stroke="#F2EDE4" stroke-opacity="0.52" stroke-width="5"/>
<path d="M264.102 725.26L264.102 735.665C264.102 739.175 261.256 742.02 257.747 742.02V742.02C254.237 742.02 251.392 739.175 251.392 735.665L251.392 713.139C251.392 709.629 254.237 706.784 257.747 706.784V706.784C261.256 706.784 264.102 709.629 264.102 713.139L264.102 715.728" stroke="#F2EDE4" stroke-opacity="0.52" stroke-width="5"/>
<path d="M275.716 750.171L299.951 750.171C304.357 750.171 307.928 746.6 307.928 742.195L307.928 741.647C307.928 737.545 304.602 734.219 300.499 734.219V734.219C296.397 734.219 293.071 737.545 293.071 741.647L293.071 741.976" stroke="#F2EDE4" stroke-opacity="0.52" stroke-width="5"/>
<rect x="388.128" y="752.45" width="12.0959" height="12.0959" rx="6.04796" transform="rotate(-180 388.128 752.45)" stroke="#F2EDE4" stroke-opacity="0.52" stroke-width="5"/>
<rect x="217.646" y="692.146" width="26.6461" height="26.6461" rx="13.323" transform="rotate(-180 217.646 692.146)" stroke="#F2EDE4" stroke-opacity="0.52" stroke-width="5"/>
<rect x="326.247" y="736.059" width="5.4344" height="5.4344" rx="2.7172" transform="rotate(-180 326.247 736.059)" fill="#F2EDE4" fill-opacity="0.52"/>
<rect x="254.109" y="797.153" width="5.4344" height="5.4344" rx="2.7172" transform="rotate(-180 254.109 797.153)" fill="#F2EDE4" fill-opacity="0.52"/>
<rect x="254.109" y="807.408" width="5.4344" height="5.4344" rx="2.7172" transform="rotate(-180 254.109 807.408)" fill="#F2EDE4" fill-opacity="0.52"/>
<path d="M335.801 769.805L335.801 790.886C335.801 795.267 339.352 798.818 343.733 798.818V798.818C348.114 798.818 351.666 795.267 351.666 790.886L351.666 787.862" stroke="#F2EDE4" stroke-opacity="0.52" stroke-width="5"/>
<path d="M272.458 639.657L272.458 660.737C272.458 665.118 276.01 668.67 280.391 668.67V668.67C284.772 668.67 288.323 665.118 288.323 660.737L288.323 657.713" stroke="#F2EDE4" stroke-opacity="0.52" stroke-width="5"/>
<path d="M287.943 816.524L287.943 800.089C287.943 796.676 290.71 793.91 294.122 793.91V793.91C297.535 793.91 300.302 796.676 300.302 800.089L300.302 802.45" stroke="#F2EDE4" stroke-opacity="0.52" stroke-width="5"/>
<path d="M310.908 839.138L310.908 796.977C310.908 788.022 303.648 780.762 294.692 780.762V780.762C285.737 780.762 278.477 788.022 278.477 796.977L278.477 802.807" stroke="#F2EDE4" stroke-opacity="0.52" stroke-width="5"/>
<path d="M273.919 739.96L273.919 712.394C273.919 703.438 266.659 696.178 257.703 696.178V696.178C248.748 696.178 241.488 703.438 241.488 712.394L241.488 718.223" stroke="#F2EDE4" stroke-opacity="0.52" stroke-width="5"/>
<path d="M336.283 810.037V810.037C329.046 810.037 323.179 804.171 323.179 796.934L323.179 757.184" stroke="#F2EDE4" stroke-opacity="0.52" stroke-width="5"/>
<path d="M272.94 679.889V679.889C265.703 679.889 259.837 674.022 259.837 666.785L259.837 627.035" stroke="#F2EDE4" stroke-opacity="0.52" stroke-width="5"/>
<path d="M276.899 810.037V810.037C269.638 810.037 263.751 804.151 263.751 796.89L263.751 750.171" stroke="#F2EDE4" stroke-opacity="0.52" stroke-width="5"/>
<path d="M330.892 733.868V733.868C338.637 733.868 344.916 740.147 344.916 747.892L344.916 758.235" stroke="#F2EDE4" stroke-opacity="0.52" stroke-width="5"/>
<path d="M213.965 703.628V703.628C224.615 703.628 233.248 694.995 233.248 684.345L233.248 669.181" stroke="#F2EDE4" stroke-opacity="0.52" stroke-width="5"/>
<path d="M239.428 749.865V749.865C239.428 760.515 230.794 769.148 220.144 769.148L204.981 769.148" stroke="#F2EDE4" stroke-opacity="0.52" stroke-width="5"/>
<path d="M241.575 729.54L241.575 733.131C241.575 736.878 238.537 739.916 234.79 739.916V739.916C231.042 739.916 228.004 736.878 228.004 733.131L228.004 730.194C228.004 726.802 225.254 724.051 221.861 724.051V724.051C218.468 724.051 215.718 726.802 215.718 730.194L215.718 732.422" stroke="#F2EDE4" stroke-opacity="0.52" stroke-width="5"/>
<path d="M222.204 788.037V788.037C232.854 788.037 241.487 796.67 241.487 807.32L241.487 822.484" stroke="#F2EDE4" stroke-opacity="0.52" stroke-width="5"/>
<path d="M272.517 767.789L281.194 767.789C287.052 767.789 291.8 763.041 291.8 757.184V757.184" stroke="#F2EDE4" stroke-opacity="0.52" stroke-width="5"/>
<path d="M387.866 778.658V778.658C387.866 768.783 379.86 760.777 369.985 760.777L369.547 760.777C359.671 760.777 351.666 768.783 351.666 778.658V778.658" stroke="#F2EDE4" stroke-opacity="0.52" stroke-width="5"/>
<rect x="300.039" y="646.479" width="15.8649" height="38.0408" rx="7.93247" stroke="#F2EDE4" stroke-opacity="0.52" stroke-width="5"/>
<path d="M402.022 708.449L377.786 708.449C373.381 708.449 369.81 712.02 369.81 716.426L369.81 716.973C369.81 721.076 373.135 724.402 377.238 724.402V724.402C381.341 724.402 384.667 721.076 384.667 716.973L384.667 716.645" stroke="#F2EDE4" stroke-opacity="0.52" stroke-width="5"/>
<rect x="289.608" y="706.17" width="12.0959" height="12.0959" rx="6.04796" stroke="#F2EDE4" stroke-opacity="0.52" stroke-width="5"/>
<rect x="351.491" y="722.561" width="5.4344" height="5.4344" rx="2.7172" fill="#F2EDE4" fill-opacity="0.52"/>
<path d="M341.937 688.815L341.937 667.735C341.937 663.354 338.385 659.803 334.004 659.803V659.803C329.623 659.803 326.072 663.354 326.072 667.735L326.072 670.759" stroke="#F2EDE4" stroke-opacity="0.52" stroke-width="5"/>
<path d="M389.794 642.097L389.794 658.532C389.794 661.944 387.028 664.711 383.615 664.711V664.711C380.202 664.711 377.436 661.944 377.436 658.532L377.436 656.171" stroke="#F2EDE4" stroke-opacity="0.52" stroke-width="5"/>
<path d="M366.829 619.483L366.829 661.643C366.829 670.599 374.089 677.859 383.045 677.859V677.859C392 677.859 399.26 670.599 399.26 661.643L399.26 655.814" stroke="#F2EDE4" stroke-opacity="0.52" stroke-width="5"/>
<path d="M341.455 648.583V648.583C348.692 648.583 354.559 654.45 354.559 661.687L354.558 701.437" stroke="#F2EDE4" stroke-opacity="0.52" stroke-width="5"/>
<path d="M346.845 724.752V724.752C339.1 724.752 332.821 718.474 332.821 710.728L332.821 700.385" stroke="#F2EDE4" stroke-opacity="0.52" stroke-width="5"/>
<path d="M405.221 690.831L396.544 690.831C390.686 690.831 385.938 695.58 385.938 701.437V701.437" stroke="#F2EDE4" stroke-opacity="0.52" stroke-width="5"/>
<path d="M289.872 679.963V679.963C289.872 689.838 297.877 697.843 307.753 697.843L308.191 697.843C318.066 697.843 326.072 689.838 326.072 679.963V679.963" stroke="#F2EDE4" stroke-opacity="0.52" stroke-width="5"/>
</svg>
