<svg width="393" height="195" viewBox="0 0 393 195" fill="none" xmlns="http://www.w3.org/2000/svg">
<rect x="141.235" y="43.682" width="22.5863" height="54.1573" rx="11.2932" stroke="#B8A16B" stroke-width="8"/>
<rect x="351.749" y="4" width="22.5863" height="54.1573" rx="11.2932" stroke="#18BC7A" stroke-width="8"/>
<path d="M302.958 167.371V152.558C302.958 147.562 307.009 143.511 312.006 143.511V143.511C317.002 143.511 321.053 147.562 321.053 152.558V184.628C321.053 189.625 317.002 193.675 312.006 193.675V193.675C307.009 193.675 302.958 189.625 302.958 184.628L302.958 180.941" stroke="#B8A16B" stroke-width="8"/>
<path d="M286.424 131.906H251.92C245.649 131.906 240.565 136.99 240.565 143.262V144.041C240.565 149.882 245.3 154.617 251.141 154.617V154.617C256.981 154.617 261.716 149.882 261.716 144.041V143.574" stroke="#18BC7A" stroke-width="8"/>
<rect x="126.385" y="128.662" width="17.2205" height="17.2205" rx="8.61026" stroke="#B8A16B" stroke-width="8"/>
<rect x="214.485" y="151.997" width="7.73675" height="7.73675" rx="3.86838" fill="#B8A16B"/>
<rect x="317.183" y="65.0205" width="7.73675" height="7.73675" rx="3.86838" fill="#B8A16B"/>
<rect x="317.183" y="50.4205" width="7.73675" height="7.73675" rx="3.86838" fill="#B8A16B"/>
<path d="M200.883 103.954V73.9427C200.883 67.7057 195.827 62.6496 189.59 62.6496V62.6496C183.353 62.6496 178.296 67.7057 178.296 73.9427V78.2479" stroke="#18BC7A" stroke-width="8"/>
<path d="M269.016 37.4428L269.016 60.8402C269.016 65.6989 265.078 69.6376 260.219 69.6376V69.6376C255.36 69.6376 251.421 65.6989 251.421 60.8402L251.421 57.4795" stroke="#18BC7A" stroke-width="8"/>
<path d="M236.322 5.24784L236.322 65.2701C236.322 78.0198 246.657 88.3555 259.407 88.3555V88.3555C272.157 88.3555 282.493 78.0198 282.493 65.2701L282.493 56.9705" stroke="#18BC7A" stroke-width="8"/>
<path d="M288.982 146.444L288.982 185.689C288.982 198.439 299.318 208.774 312.067 208.774V208.774C324.817 208.774 335.153 198.439 335.153 185.689L335.153 177.389" stroke="#18BC7A" stroke-width="8"/>
<path d="M200.197 46.6769V46.6769C210.5 46.6769 218.852 55.0293 218.852 65.3325V121.923" stroke="#B8A16B" stroke-width="8"/>
<path d="M284.739 46.6769V46.6769C295.076 46.6769 303.457 55.0573 303.457 65.3949V131.906" stroke="#18BC7A" stroke-width="8"/>
<path d="M207.871 155.116V155.116C196.844 155.116 187.905 146.177 187.905 135.15L187.905 120.426" stroke="#18BC7A" stroke-width="8"/>
<path d="M374.335 198.167V198.167C359.174 198.167 346.882 210.459 346.882 225.62L346.882 247.208" stroke="#18BC7A" stroke-width="8"/>
<path d="M338.085 132.343V132.343C338.085 117.181 350.377 104.89 365.538 104.89L387.126 104.89" stroke="#B8A16B" stroke-width="8"/>
<path d="M335.028 161.278V156.166C335.028 150.831 339.353 146.506 344.688 146.506V146.506C350.023 146.506 354.348 150.831 354.348 156.166V160.347C354.348 165.177 358.264 169.092 363.094 169.092V169.092C367.924 169.092 371.84 165.177 371.84 160.347V157.175" stroke="#18BC7A" stroke-width="8"/>
<path d="M362.606 77.9983V77.9983C347.444 77.9983 335.153 65.7072 335.153 50.5453L335.153 28.9573" stroke="#B8A16B" stroke-width="8"/>
<path d="M290.978 106.824L278.624 106.824C270.285 106.824 263.525 113.584 263.525 121.923V121.923" stroke="#B8A16B" stroke-width="8"/>
<path d="M126.759 91.3505V91.3505C126.759 105.41 138.157 116.807 152.216 116.807H152.84C166.899 116.807 178.296 105.41 178.296 91.3505V91.3505" stroke="#18BC7A" stroke-width="8"/>
<path d="M90.0718 155.839L90.0718 170.652C90.0718 175.649 86.0213 179.699 81.0248 179.699V179.699C76.0282 179.699 71.9778 175.649 71.9778 170.652L71.9778 138.582C71.9778 133.585 76.0283 129.535 81.0248 129.535V129.535C86.0213 129.535 90.0718 133.585 90.0718 138.582L90.0718 142.269" stroke="#B8A16B" stroke-width="8"/>
<path d="M106.606 191.304L141.11 191.304C147.381 191.304 152.465 186.22 152.465 179.949L152.465 179.169C152.465 173.328 147.73 168.593 141.89 168.593V168.593C136.049 168.593 131.314 173.328 131.314 179.169L131.314 179.637" stroke="#18BC7A" stroke-width="8"/>
<rect x="266.645" y="194.549" width="17.2205" height="17.2205" rx="8.61026" transform="rotate(-180 266.645 194.549)" stroke="#B8A16B" stroke-width="8"/>
<rect x="23.9351" y="108.696" width="37.935" height="37.935" rx="18.9675" transform="rotate(-180 23.9351 108.696)" stroke="#18BC7A" stroke-width="8"/>
<rect x="178.545" y="171.214" width="7.73675" height="7.73675" rx="3.86838" transform="rotate(-180 178.545 171.214)" fill="#B8A16B"/>
<path d="M104.048 176.767L104.048 137.521C104.048 124.772 93.7126 114.436 80.9629 114.436V114.436C68.2132 114.436 57.8774 124.772 57.8774 137.521L57.8774 145.821" stroke="#18BC7A" stroke-width="8"/>
<path d="M108.291 276.533V276.533C97.9529 276.533 89.5726 268.153 89.5726 257.815L89.5726 191.304" stroke="#18BC7A" stroke-width="8"/>
<path d="M185.159 168.094V168.094C196.186 168.094 205.124 177.033 205.124 188.06L205.124 202.785" stroke="#18BC7A" stroke-width="8"/>
<path d="M18.6948 125.043V125.043C33.8567 125.043 46.1478 112.752 46.1478 97.5897L46.1478 76.0016" stroke="#18BC7A" stroke-width="8"/>
<path d="M54.9438 190.867V190.867C54.9438 206.029 42.6527 218.32 27.4909 218.32L5.90283 218.32" stroke="#B8A16B" stroke-width="8"/>
<path d="M58.0015 161.932L58.0015 167.044C58.0015 172.379 53.6764 176.704 48.3412 176.704V176.704C43.006 176.704 38.6809 172.379 38.6809 167.044L38.6809 162.864C38.6809 158.033 34.7653 154.118 29.9352 154.118V154.118C25.1051 154.118 21.1895 158.033 21.1895 162.864L21.1895 166.035" stroke="#18BC7A" stroke-width="8"/>
</svg>
