<svg width="393" height="871" viewBox="0 0 393 871" fill="none" xmlns="http://www.w3.org/2000/svg">
<rect x="138.961" y="274.572" width="15.8649" height="38.0408" rx="7.93247" transform="rotate(-180 138.961 274.572)" stroke="#F2EDE4" stroke-opacity="0.52" stroke-width="5"/>
<path d="M25.3643 187.691L25.3643 198.096C25.3643 201.606 22.5191 204.451 19.0095 204.451V204.451C15.4999 204.451 12.6548 201.606 12.6548 198.096L12.6548 175.57C12.6548 172.06 15.4999 169.215 19.0095 169.215V169.215C22.5191 169.215 25.3643 172.06 25.3643 175.57L25.3643 178.16" stroke="#F2EDE4" stroke-opacity="0.52" stroke-width="5"/>
<path d="M36.9785 212.603L61.2141 212.603C65.6193 212.603 69.1904 209.032 69.1904 204.626L69.1904 204.079C69.1904 199.976 65.8646 196.65 61.762 196.65V196.65C57.6593 196.65 54.3335 199.976 54.3335 204.079L54.3335 204.407" stroke="#F2EDE4" stroke-opacity="0.52" stroke-width="5"/>
<rect x="149.391" y="214.882" width="12.0959" height="12.0959" rx="6.04796" transform="rotate(-180 149.391 214.882)" stroke="#F2EDE4" stroke-opacity="0.52" stroke-width="5"/>
<rect x="197.461" y="85.0012" width="12.0959" height="12.0959" rx="6.04796" transform="rotate(-180 197.461 85.0012)" stroke="#F2EDE4" stroke-opacity="0.52" stroke-width="5"/>
<rect x="87.5093" y="198.491" width="5.4344" height="5.4344" rx="2.7172" transform="rotate(-180 87.5093 198.491)" fill="#F2EDE4" fill-opacity="0.52"/>
<rect x="15.3721" y="259.584" width="5.4344" height="5.4344" rx="2.7172" transform="rotate(-180 15.3721 259.584)" fill="#F2EDE4" fill-opacity="0.52"/>
<rect x="15.3721" y="269.839" width="5.4344" height="5.4344" rx="2.7172" transform="rotate(-180 15.3721 269.839)" fill="#F2EDE4" fill-opacity="0.52"/>
<path d="M97.0633 232.237L97.0633 253.317C97.0633 257.698 100.615 261.249 104.996 261.249V261.249C109.377 261.249 112.928 257.698 112.928 253.317L112.928 250.293" stroke="#F2EDE4" stroke-opacity="0.52" stroke-width="5"/>
<path d="M33.721 102.088L33.721 123.169C33.721 127.55 37.2725 131.101 41.6535 131.101V131.101C46.0344 131.101 49.5859 127.55 49.5859 123.169L49.5859 120.145" stroke="#F2EDE4" stroke-opacity="0.52" stroke-width="5"/>
<path d="M49.2056 278.955L49.2056 262.52C49.2056 259.107 51.9722 256.341 55.385 256.341V256.341C58.7978 256.341 61.5645 259.107 61.5645 262.52L61.5645 264.881" stroke="#F2EDE4" stroke-opacity="0.52" stroke-width="5"/>
<path d="M72.1704 301.569L72.1704 259.409C72.1704 250.453 64.9104 243.193 55.9548 243.193V243.193C46.9992 243.193 39.7393 250.453 39.7393 259.409L39.7393 265.238" stroke="#F2EDE4" stroke-opacity="0.52" stroke-width="5"/>
<path d="M35.1816 202.391L35.1816 174.825C35.1816 165.869 27.9216 158.609 18.966 158.609V158.609C10.0104 158.609 2.75049 165.869 2.75049 174.825L2.75049 180.655" stroke="#F2EDE4" stroke-opacity="0.52" stroke-width="5"/>
<path d="M97.5454 272.469V272.469C90.3083 272.469 84.4415 266.602 84.4415 259.365L84.4415 219.615" stroke="#F2EDE4" stroke-opacity="0.52" stroke-width="5"/>
<path d="M34.2036 142.321V142.321C26.9665 142.321 21.0997 136.454 21.0997 129.217L21.0997 89.4666" stroke="#F2EDE4" stroke-opacity="0.52" stroke-width="5"/>
<path d="M38.1616 272.469V272.469C30.9003 272.469 25.0139 266.582 25.0139 259.321L25.0139 212.603" stroke="#F2EDE4" stroke-opacity="0.52" stroke-width="5"/>
<path d="M92.1548 196.3V196.3C99.9002 196.3 106.179 202.578 106.179 210.324L106.179 220.667" stroke="#F2EDE4" stroke-opacity="0.52" stroke-width="5"/>
<path d="M0.690426 212.296V212.296C0.690427 222.946 -7.94302 231.579 -18.5929 231.579L-33.7567 231.579" stroke="#F2EDE4" stroke-opacity="0.52" stroke-width="5"/>
<path d="M2.83789 191.971L2.83789 195.562C2.83789 199.309 -0.200089 202.347 -3.94762 202.347V202.347C-7.69516 202.347 -10.7331 199.309 -10.7331 195.562L-10.7331 192.626C-10.7331 189.233 -13.4835 186.483 -16.8762 186.483V186.483C-20.269 186.483 -23.0193 189.233 -23.0193 192.626L-23.0193 194.853" stroke="#F2EDE4" stroke-opacity="0.52" stroke-width="5"/>
<path d="M-16.5332 250.468V250.468C-5.8833 250.468 2.75015 259.102 2.75015 269.752L2.75015 284.915" stroke="#F2EDE4" stroke-opacity="0.52" stroke-width="5"/>
<path d="M33.7793 230.221L42.4568 230.221C48.3142 230.221 53.0627 225.472 53.0627 219.615V219.615" stroke="#F2EDE4" stroke-opacity="0.52" stroke-width="5"/>
<path d="M149.128 241.089V241.089C149.128 231.214 141.123 223.209 131.247 223.209L130.809 223.209C120.934 223.209 112.928 231.214 112.928 241.089V241.089" stroke="#F2EDE4" stroke-opacity="0.52" stroke-width="5"/>
<rect x="61.3018" y="108.911" width="15.8649" height="38.0408" rx="7.93247" stroke="#F2EDE4" stroke-opacity="0.52" stroke-width="5"/>
<rect x="209.17" y="81.0377" width="15.8649" height="38.0408" rx="7.93247" stroke="#F2EDE4" stroke-opacity="0.52" stroke-width="5"/>
<path d="M174.898 195.792L174.898 185.387C174.898 181.877 177.743 179.032 181.253 179.032V179.032C184.762 179.032 187.607 181.877 187.607 185.387L187.607 207.913C187.607 211.423 184.762 214.268 181.253 214.268V214.268C177.743 214.268 174.898 211.423 174.898 207.913L174.898 205.324" stroke="#F2EDE4" stroke-opacity="0.52" stroke-width="5"/>
<path d="M163.284 170.881L139.049 170.881C134.643 170.881 131.072 174.452 131.072 178.857L131.072 179.405C131.072 183.507 134.398 186.833 138.501 186.833V186.833C142.603 186.833 145.929 183.507 145.929 179.405L145.929 179.076" stroke="#F2EDE4" stroke-opacity="0.52" stroke-width="5"/>
<path d="M211.355 41L187.119 41C182.714 41 179.143 44.5711 179.143 48.9763L179.143 49.5241C179.143 53.6268 182.468 56.9526 186.571 56.9526V56.9526C190.674 56.9526 194 53.6268 194 49.5241L194 49.1954" stroke="#F2EDE4" stroke-opacity="0.52" stroke-width="5"/>
<rect x="50.8711" y="168.602" width="12.0959" height="12.0959" rx="6.04796" stroke="#F2EDE4" stroke-opacity="0.52" stroke-width="5"/>
<rect x="221.354" y="228.906" width="26.6461" height="26.6461" rx="13.323" stroke="#F2EDE4" stroke-opacity="0.52" stroke-width="5"/>
<rect x="112.753" y="184.992" width="5.4344" height="5.4344" rx="2.7172" fill="#F2EDE4" fill-opacity="0.52"/>
<rect x="184.891" y="123.899" width="5.4344" height="5.4344" rx="2.7172" fill="#F2EDE4" fill-opacity="0.52"/>
<rect x="184.891" y="113.644" width="5.4344" height="5.4344" rx="2.7172" fill="#F2EDE4" fill-opacity="0.52"/>
<path d="M103.199 151.247L103.199 130.166C103.199 125.785 99.6479 122.234 95.2669 122.234V122.234C90.886 122.234 87.3345 125.785 87.3345 130.166L87.3345 133.19" stroke="#F2EDE4" stroke-opacity="0.52" stroke-width="5"/>
<path d="M151.057 104.528L151.057 120.963C151.057 124.376 148.29 127.142 144.878 127.142V127.142C141.465 127.142 138.698 124.376 138.698 120.963L138.698 118.602" stroke="#F2EDE4" stroke-opacity="0.52" stroke-width="5"/>
<path d="M128.092 81.9141L128.092 124.075C128.092 133.03 135.352 140.29 144.307 140.29V140.29C153.263 140.29 160.523 133.03 160.523 124.075L160.523 118.245" stroke="#F2EDE4" stroke-opacity="0.52" stroke-width="5"/>
<path d="M165.081 181.092L165.081 208.658C165.081 217.614 172.341 224.874 181.297 224.874V224.874C190.252 224.874 197.512 217.614 197.512 208.658L197.512 202.829" stroke="#F2EDE4" stroke-opacity="0.52" stroke-width="5"/>
<path d="M102.717 111.014V111.014C109.954 111.014 115.821 116.881 115.821 124.118L115.821 163.868" stroke="#F2EDE4" stroke-opacity="0.52" stroke-width="5"/>
<path d="M162.101 111.014V111.014C169.362 111.014 175.249 116.901 175.249 124.162L175.249 170.881" stroke="#F2EDE4" stroke-opacity="0.52" stroke-width="5"/>
<path d="M108.108 187.184V187.184C100.363 187.184 94.0837 180.905 94.0837 173.159L94.0837 162.817" stroke="#F2EDE4" stroke-opacity="0.52" stroke-width="5"/>
<path d="M225.035 217.424V217.424C214.385 217.424 205.752 226.057 205.752 236.707L205.752 251.871" stroke="#F2EDE4" stroke-opacity="0.52" stroke-width="5"/>
<path d="M199.572 171.187V171.187C199.572 160.537 208.206 151.904 218.856 151.904L234.019 151.904" stroke="#F2EDE4" stroke-opacity="0.52" stroke-width="5"/>
<path d="M197.425 191.512L197.425 187.921C197.425 184.174 200.463 181.136 204.21 181.136V181.136C207.958 181.136 210.996 184.174 210.996 187.921L210.996 190.858C210.996 194.25 213.746 197.001 217.139 197.001V197.001C220.532 197.001 223.282 194.25 223.282 190.858L223.282 188.63" stroke="#F2EDE4" stroke-opacity="0.52" stroke-width="5"/>
<path d="M216.796 133.015V133.015C206.146 133.015 197.513 124.382 197.513 113.732L197.513 98.5679" stroke="#F2EDE4" stroke-opacity="0.52" stroke-width="5"/>
<path d="M166.484 153.263L157.806 153.263C151.949 153.263 147.201 158.011 147.201 163.868V163.868" stroke="#F2EDE4" stroke-opacity="0.52" stroke-width="5"/>
<path d="M51.1343 142.394V142.394C51.1343 152.269 59.1398 160.275 69.0152 160.275L69.4535 160.275C79.3288 160.275 87.3344 152.269 87.3344 142.394V142.394" stroke="#F2EDE4" stroke-opacity="0.52" stroke-width="5"/>
<rect x="120.698" y="469.141" width="15.8649" height="38.0408" rx="7.93247" transform="rotate(-180 120.698 469.141)" stroke="#F2EDE4" stroke-opacity="0.52" stroke-width="5"/>
<path d="M7.10156 382.26L7.10156 392.665C7.10156 396.175 4.25645 399.02 0.746821 399.02V399.02C-2.76281 399.02 -5.60792 396.175 -5.60792 392.665L-5.60792 370.139C-5.60792 366.629 -2.7628 363.784 0.746824 363.784V363.784C4.25645 363.784 7.10157 366.629 7.10157 370.139L7.10156 372.728" stroke="#F2EDE4" stroke-opacity="0.52" stroke-width="5"/>
<path d="M18.7158 407.171L42.9514 407.171C47.3566 407.171 50.9277 403.6 50.9277 399.195L50.9277 398.647C50.9277 394.545 47.6019 391.219 43.4993 391.219V391.219C39.3966 391.219 36.0708 394.545 36.0708 398.647L36.0708 398.976" stroke="#F2EDE4" stroke-opacity="0.52" stroke-width="5"/>
<rect x="131.128" y="409.45" width="12.0959" height="12.0959" rx="6.04796" transform="rotate(-180 131.128 409.45)" stroke="#F2EDE4" stroke-opacity="0.52" stroke-width="5"/>
<rect x="179.199" y="279.57" width="12.0959" height="12.0959" rx="6.04796" transform="rotate(-180 179.199 279.57)" stroke="#F2EDE4" stroke-opacity="0.52" stroke-width="5"/>
<rect x="69.2466" y="393.06" width="5.4344" height="5.4344" rx="2.7172" transform="rotate(-180 69.2466 393.06)" fill="#F2EDE4" fill-opacity="0.52"/>
<path d="M78.8006 426.805L78.8006 447.886C78.8006 452.267 82.3521 455.818 86.7331 455.818V455.818C91.114 455.818 94.6655 452.267 94.6655 447.886L94.6655 444.862" stroke="#F2EDE4" stroke-opacity="0.52" stroke-width="5"/>
<path d="M15.4583 296.657L15.4583 317.737C15.4583 322.118 19.0098 325.67 23.3908 325.67V325.67C27.7718 325.67 31.3232 322.118 31.3232 317.737L31.3232 314.713" stroke="#F2EDE4" stroke-opacity="0.52" stroke-width="5"/>
<path d="M30.9429 473.524L30.9429 457.089C30.9429 453.676 33.7095 450.91 37.1223 450.91V450.91C40.5351 450.91 43.3018 453.676 43.3018 457.089L43.3018 459.45" stroke="#F2EDE4" stroke-opacity="0.52" stroke-width="5"/>
<path d="M53.9077 496.138L53.9077 453.977C53.9077 445.022 46.6477 437.762 37.6921 437.762V437.762C28.7365 437.762 21.4766 445.022 21.4766 453.977L21.4766 459.807" stroke="#F2EDE4" stroke-opacity="0.52" stroke-width="5"/>
<path d="M16.9189 396.96L16.9189 369.394C16.9189 360.438 9.65894 353.178 0.703341 353.178V353.178C-8.25226 353.178 -15.5122 360.438 -15.5122 369.394L-15.5122 375.223" stroke="#F2EDE4" stroke-opacity="0.52" stroke-width="5"/>
<path d="M79.2827 467.037V467.037C72.0456 467.037 66.1788 461.171 66.1788 453.933L66.1788 414.183" stroke="#F2EDE4" stroke-opacity="0.52" stroke-width="5"/>
<path d="M15.9404 336.889V336.889C8.70334 336.889 2.83651 331.022 2.83652 323.785L2.83652 284.035" stroke="#F2EDE4" stroke-opacity="0.52" stroke-width="5"/>
<path d="M19.8989 467.037V467.037C12.6376 467.037 6.75118 461.151 6.75118 453.89L6.75119 407.171" stroke="#F2EDE4" stroke-opacity="0.52" stroke-width="5"/>
<path d="M73.8921 390.868V390.868C81.6375 390.868 87.9163 397.147 87.9163 404.892L87.9163 415.235" stroke="#F2EDE4" stroke-opacity="0.52" stroke-width="5"/>
<path d="M15.5166 424.789L24.1941 424.789C30.0516 424.789 34.8 420.041 34.8 414.184V414.184" stroke="#F2EDE4" stroke-opacity="0.52" stroke-width="5"/>
<path d="M130.866 435.658V435.658C130.866 425.783 122.86 417.777 112.985 417.777L112.547 417.777C102.671 417.777 94.6656 425.783 94.6656 435.658V435.658" stroke="#F2EDE4" stroke-opacity="0.52" stroke-width="5"/>
<rect x="43.0386" y="303.479" width="15.8649" height="38.0408" rx="7.93247" stroke="#F2EDE4" stroke-opacity="0.52" stroke-width="5"/>
<rect x="190.907" y="275.606" width="15.8649" height="38.0408" rx="7.93247" stroke="#F2EDE4" stroke-opacity="0.52" stroke-width="5"/>
<path d="M156.635 390.36L156.635 379.956C156.635 376.446 159.48 373.601 162.99 373.601V373.601C166.5 373.601 169.345 376.446 169.345 379.956L169.345 402.482C169.345 405.992 166.5 408.837 162.99 408.837V408.837C159.48 408.837 156.635 405.992 156.635 402.482L156.635 399.892" stroke="#F2EDE4" stroke-opacity="0.52" stroke-width="5"/>
<path d="M145.022 365.449L120.786 365.449C116.381 365.449 112.81 369.02 112.81 373.426L112.81 373.973C112.81 378.076 116.135 381.402 120.238 381.402V381.402C124.341 381.402 127.667 378.076 127.667 373.973L127.667 373.645" stroke="#F2EDE4" stroke-opacity="0.52" stroke-width="5"/>
<path d="M193.092 235.569L168.856 235.569C164.451 235.569 160.88 239.14 160.88 243.545L160.88 244.093C160.88 248.195 164.206 251.521 168.308 251.521V251.521C172.411 251.521 175.737 248.195 175.737 244.093L175.737 243.764" stroke="#F2EDE4" stroke-opacity="0.52" stroke-width="5"/>
<rect x="32.6084" y="363.17" width="12.0959" height="12.0959" rx="6.04796" stroke="#F2EDE4" stroke-opacity="0.52" stroke-width="5"/>
<rect x="203.091" y="423.475" width="26.6461" height="26.6461" rx="13.323" stroke="#F2EDE4" stroke-opacity="0.52" stroke-width="5"/>
<rect x="94.4907" y="379.561" width="5.4344" height="5.4344" rx="2.7172" fill="#F2EDE4" fill-opacity="0.52"/>
<rect x="166.628" y="318.468" width="5.4344" height="5.4344" rx="2.7172" fill="#F2EDE4" fill-opacity="0.52"/>
<rect x="166.628" y="308.213" width="5.4344" height="5.4344" rx="2.7172" fill="#F2EDE4" fill-opacity="0.52"/>
<path d="M84.9367 345.815L84.9367 324.735C84.9367 320.354 81.3852 316.802 77.0042 316.802V316.802C72.6233 316.802 69.0718 320.354 69.0718 324.735L69.0718 327.759" stroke="#F2EDE4" stroke-opacity="0.52" stroke-width="5"/>
<path d="M132.794 299.097L132.794 315.532C132.794 318.944 130.028 321.711 126.615 321.711V321.711C123.202 321.711 120.436 318.944 120.436 315.532L120.436 313.171" stroke="#F2EDE4" stroke-opacity="0.52" stroke-width="5"/>
<path d="M109.829 276.483L109.829 318.643C109.829 327.599 117.089 334.859 126.045 334.859V334.859C135 334.859 142.26 327.599 142.26 318.643L142.26 312.813" stroke="#F2EDE4" stroke-opacity="0.52" stroke-width="5"/>
<path d="M146.818 375.661L146.818 403.227C146.818 412.183 154.078 419.443 163.034 419.443V419.443C171.99 419.443 179.25 412.183 179.25 403.227L179.25 397.397" stroke="#F2EDE4" stroke-opacity="0.52" stroke-width="5"/>
<path d="M84.4546 305.583V305.583C91.6917 305.583 97.5585 311.45 97.5585 318.687L97.5585 358.437" stroke="#F2EDE4" stroke-opacity="0.52" stroke-width="5"/>
<path d="M143.838 305.583V305.583C151.1 305.583 156.986 311.47 156.986 318.731L156.986 365.449" stroke="#F2EDE4" stroke-opacity="0.52" stroke-width="5"/>
<path d="M89.8452 381.752V381.752C82.0998 381.752 75.821 375.474 75.821 367.728L75.821 357.385" stroke="#F2EDE4" stroke-opacity="0.52" stroke-width="5"/>
<path d="M206.772 411.992V411.992C196.122 411.992 187.489 420.626 187.489 431.276L187.489 446.439" stroke="#F2EDE4" stroke-opacity="0.52" stroke-width="5"/>
<path d="M181.31 365.756V365.756C181.31 355.106 189.943 346.473 200.593 346.473L215.757 346.473" stroke="#F2EDE4" stroke-opacity="0.52" stroke-width="5"/>
<path d="M179.162 386.081L179.162 382.49C179.162 378.742 182.2 375.704 185.948 375.704V375.704C189.695 375.704 192.733 378.742 192.733 382.49L192.733 385.426C192.733 388.819 195.483 391.569 198.876 391.569V391.569C202.269 391.569 205.019 388.819 205.019 385.426L205.019 383.199" stroke="#F2EDE4" stroke-opacity="0.52" stroke-width="5"/>
<path d="M198.533 327.584V327.584C187.883 327.584 179.25 318.95 179.25 308.3L179.25 293.137" stroke="#F2EDE4" stroke-opacity="0.52" stroke-width="5"/>
<path d="M148.221 347.831L139.544 347.831C133.686 347.831 128.938 352.58 128.938 358.437V358.437" stroke="#F2EDE4" stroke-opacity="0.52" stroke-width="5"/>
<path d="M32.8716 336.962V336.962C32.8716 346.838 40.8771 354.843 50.7525 354.843L51.1908 354.843C61.0661 354.843 69.0717 346.838 69.0717 336.962V336.962" stroke="#F2EDE4" stroke-opacity="0.52" stroke-width="5"/>
<rect x="121.961" y="691.572" width="15.8649" height="38.0408" rx="7.93247" transform="rotate(-180 121.961 691.572)" stroke="#F2EDE4" stroke-opacity="0.52" stroke-width="5"/>
<path d="M8.36426 604.691L8.36426 615.096C8.36426 618.606 5.51914 621.451 2.00952 621.451V621.451C-1.50011 621.451 -4.34523 618.606 -4.34522 615.096L-4.34522 592.57C-4.34522 589.06 -1.50011 586.215 2.00952 586.215V586.215C5.51915 586.215 8.36426 589.06 8.36426 592.57L8.36426 595.16" stroke="#F2EDE4" stroke-opacity="0.52" stroke-width="5"/>
<path d="M19.9785 629.603L44.2141 629.603C48.6193 629.603 52.1904 626.032 52.1904 621.626L52.1904 621.079C52.1904 616.976 48.8646 613.65 44.762 613.65V613.65C40.6593 613.65 37.3335 616.976 37.3335 621.079L37.3335 621.407" stroke="#F2EDE4" stroke-opacity="0.52" stroke-width="5"/>
<rect x="132.391" y="631.882" width="12.0959" height="12.0959" rx="6.04796" transform="rotate(-180 132.391 631.882)" stroke="#F2EDE4" stroke-opacity="0.52" stroke-width="5"/>
<rect x="180.461" y="502.001" width="12.0959" height="12.0959" rx="6.04796" transform="rotate(-180 180.461 502.001)" stroke="#F2EDE4" stroke-opacity="0.52" stroke-width="5"/>
<rect x="70.5093" y="615.491" width="5.4344" height="5.4344" rx="2.7172" transform="rotate(-180 70.5093 615.491)" fill="#F2EDE4" fill-opacity="0.52"/>
<path d="M80.0633 649.237L80.0633 670.317C80.0633 674.698 83.6148 678.249 87.9958 678.249V678.249C92.3767 678.249 95.9282 674.698 95.9282 670.317L95.9282 667.293" stroke="#F2EDE4" stroke-opacity="0.52" stroke-width="5"/>
<path d="M61.6206 499.865L82.7008 499.865C87.0818 499.865 90.6333 496.314 90.6333 491.933V491.933C90.6333 487.552 87.0818 484 82.7008 484L79.6768 484" stroke="#F2EDE4" stroke-opacity="0.52" stroke-width="5"/>
<path d="M16.721 519.088L16.721 540.169C16.721 544.55 20.2725 548.101 24.6535 548.101V548.101C29.0344 548.101 32.5859 544.55 32.5859 540.169L32.5859 537.145" stroke="#F2EDE4" stroke-opacity="0.52" stroke-width="5"/>
<path d="M32.2056 695.955L32.2056 679.52C32.2056 676.107 34.9722 673.341 38.385 673.341V673.341C41.7978 673.341 44.5645 676.107 44.5645 679.52L44.5645 681.881" stroke="#F2EDE4" stroke-opacity="0.52" stroke-width="5"/>
<path d="M55.1704 718.569L55.1704 676.409C55.1704 667.453 47.9104 660.193 38.9548 660.193V660.193C29.9992 660.193 22.7393 667.453 22.7393 676.409L22.7393 682.238" stroke="#F2EDE4" stroke-opacity="0.52" stroke-width="5"/>
<path d="M18.1816 619.391L18.1816 591.825C18.1816 582.869 10.9216 575.609 1.96604 575.609V575.609C-6.98956 575.609 -14.2495 582.869 -14.2495 591.825L-14.2495 597.655" stroke="#F2EDE4" stroke-opacity="0.52" stroke-width="5"/>
<path d="M80.5454 689.469V689.469C73.3083 689.469 67.4415 683.602 67.4415 676.365L67.4415 636.615" stroke="#F2EDE4" stroke-opacity="0.52" stroke-width="5"/>
<path d="M101.853 499.383V499.383C101.853 506.62 95.9862 512.487 88.7491 512.487L48.9991 512.487" stroke="#F2EDE4" stroke-opacity="0.52" stroke-width="5"/>
<path d="M17.2036 559.321V559.321C9.96652 559.321 4.0997 553.454 4.0997 546.217L4.0997 506.467" stroke="#F2EDE4" stroke-opacity="0.52" stroke-width="5"/>
<path d="M21.1616 689.469V689.469C13.9003 689.469 8.01388 683.582 8.01388 676.321L8.01388 629.603" stroke="#F2EDE4" stroke-opacity="0.52" stroke-width="5"/>
<path d="M75.1548 613.3V613.3C82.9002 613.3 89.179 619.578 89.179 627.324L89.179 637.667" stroke="#F2EDE4" stroke-opacity="0.52" stroke-width="5"/>
<path d="M16.7793 647.221L25.4568 647.221C31.3142 647.221 36.0627 642.472 36.0627 636.615V636.615" stroke="#F2EDE4" stroke-opacity="0.52" stroke-width="5"/>
<path d="M132.128 658.089V658.089C132.128 648.214 124.123 640.209 114.247 640.209L113.809 640.209C103.934 640.209 95.9283 648.214 95.9283 658.089V658.089" stroke="#F2EDE4" stroke-opacity="0.52" stroke-width="5"/>
<rect x="44.3018" y="525.911" width="15.8649" height="38.0408" rx="7.93247" stroke="#F2EDE4" stroke-opacity="0.52" stroke-width="5"/>
<rect x="192.17" y="498.038" width="15.8649" height="38.0408" rx="7.93247" stroke="#F2EDE4" stroke-opacity="0.52" stroke-width="5"/>
<path d="M157.898 612.792L157.898 602.387C157.898 598.877 160.743 596.032 164.253 596.032V596.032C167.762 596.032 170.607 598.877 170.607 602.387L170.607 624.913C170.607 628.423 167.762 631.268 164.253 631.268V631.268C160.743 631.268 157.898 628.423 157.898 624.913L157.898 622.324" stroke="#F2EDE4" stroke-opacity="0.52" stroke-width="5"/>
<path d="M146.284 587.881L122.049 587.881C117.643 587.881 114.072 591.452 114.072 595.857L114.072 596.405C114.072 600.507 117.398 603.833 121.501 603.833V603.833C125.603 603.833 128.929 600.507 128.929 596.405L128.929 596.076" stroke="#F2EDE4" stroke-opacity="0.52" stroke-width="5"/>
<path d="M194.355 458L170.119 458C165.714 458 162.143 461.571 162.143 465.976L162.143 466.524C162.143 470.627 165.468 473.953 169.571 473.953V473.953C173.674 473.953 177 470.627 177 466.524L177 466.195" stroke="#F2EDE4" stroke-opacity="0.52" stroke-width="5"/>
<rect x="33.8711" y="585.602" width="12.0959" height="12.0959" rx="6.04796" stroke="#F2EDE4" stroke-opacity="0.52" stroke-width="5"/>
<rect x="204.354" y="645.906" width="26.6461" height="26.6461" rx="13.323" stroke="#F2EDE4" stroke-opacity="0.52" stroke-width="5"/>
<rect x="95.7534" y="601.992" width="5.4344" height="5.4344" rx="2.7172" fill="#F2EDE4" fill-opacity="0.52"/>
<rect x="167.891" y="540.899" width="5.4344" height="5.4344" rx="2.7172" fill="#F2EDE4" fill-opacity="0.52"/>
<rect x="167.891" y="530.644" width="5.4344" height="5.4344" rx="2.7172" fill="#F2EDE4" fill-opacity="0.52"/>
<path d="M86.1994 568.247L86.1994 547.166C86.1994 542.785 82.6479 539.234 78.2669 539.234V539.234C73.886 539.234 70.3345 542.785 70.3345 547.166L70.3345 550.19" stroke="#F2EDE4" stroke-opacity="0.52" stroke-width="5"/>
<path d="M134.057 521.528L134.057 537.963C134.057 541.376 131.29 544.142 127.878 544.142V544.142C124.465 544.142 121.698 541.376 121.698 537.963L121.698 535.602" stroke="#F2EDE4" stroke-opacity="0.52" stroke-width="5"/>
<path d="M111.092 498.914L111.092 541.075C111.092 550.03 118.352 557.29 127.307 557.29V557.29C136.263 557.29 143.523 550.03 143.523 541.075L143.523 535.245" stroke="#F2EDE4" stroke-opacity="0.52" stroke-width="5"/>
<path d="M148.081 598.092L148.081 625.658C148.081 634.614 155.341 641.874 164.297 641.874V641.874C173.252 641.874 180.512 634.614 180.512 625.658L180.512 619.829" stroke="#F2EDE4" stroke-opacity="0.52" stroke-width="5"/>
<path d="M85.7173 528.014V528.014C92.9544 528.014 98.8212 533.881 98.8212 541.118L98.8212 580.868" stroke="#F2EDE4" stroke-opacity="0.52" stroke-width="5"/>
<path d="M145.101 528.014V528.014C152.362 528.014 158.249 533.901 158.249 541.162L158.249 587.881" stroke="#F2EDE4" stroke-opacity="0.52" stroke-width="5"/>
<path d="M91.1079 604.184V604.184C83.3625 604.184 77.0837 597.905 77.0837 590.159L77.0837 579.817" stroke="#F2EDE4" stroke-opacity="0.52" stroke-width="5"/>
<path d="M208.035 634.424V634.424C197.385 634.424 188.752 643.057 188.752 653.707L188.752 668.871" stroke="#F2EDE4" stroke-opacity="0.52" stroke-width="5"/>
<path d="M182.572 588.187V588.187C182.572 577.537 191.206 568.904 201.856 568.904L217.019 568.904" stroke="#F2EDE4" stroke-opacity="0.52" stroke-width="5"/>
<path d="M180.425 608.512L180.425 604.921C180.425 601.174 183.463 598.136 187.21 598.136V598.136C190.958 598.136 193.996 601.174 193.996 604.921L193.996 607.858C193.996 611.25 196.746 614.001 200.139 614.001V614.001C203.532 614.001 206.282 611.25 206.282 607.858L206.282 605.63" stroke="#F2EDE4" stroke-opacity="0.52" stroke-width="5"/>
<path d="M199.796 550.015V550.015C189.146 550.015 180.513 541.382 180.513 530.732L180.513 515.568" stroke="#F2EDE4" stroke-opacity="0.52" stroke-width="5"/>
<path d="M149.484 570.263L140.806 570.263C134.949 570.263 130.201 575.011 130.201 580.868V580.868" stroke="#F2EDE4" stroke-opacity="0.52" stroke-width="5"/>
<path d="M34.1343 559.394V559.394C34.1343 569.269 42.1398 577.275 52.0152 577.275L52.4535 577.275C62.3288 577.275 70.3344 569.269 70.3344 559.394V559.394" stroke="#F2EDE4" stroke-opacity="0.52" stroke-width="5"/>
<rect x="103.698" y="886.141" width="15.8649" height="38.0408" rx="7.93247" transform="rotate(-180 103.698 886.141)" stroke="#F2EDE4" stroke-opacity="0.52" stroke-width="5"/>
<path d="M1.71577 824.171L25.9514 824.171C30.3566 824.171 33.9277 820.6 33.9277 816.195L33.9277 815.647C33.9277 811.545 30.6019 808.219 26.4993 808.219V808.219C22.3966 808.219 19.0708 811.545 19.0708 815.647L19.0708 815.976" stroke="#F2EDE4" stroke-opacity="0.52" stroke-width="5"/>
<rect x="114.128" y="826.45" width="12.0959" height="12.0959" rx="6.04796" transform="rotate(-180 114.128 826.45)" stroke="#F2EDE4" stroke-opacity="0.52" stroke-width="5"/>
<rect x="162.199" y="696.57" width="12.0959" height="12.0959" rx="6.04796" transform="rotate(-180 162.199 696.57)" stroke="#F2EDE4" stroke-opacity="0.52" stroke-width="5"/>
<rect x="52.2466" y="810.059" width="5.4344" height="5.4344" rx="2.7172" transform="rotate(-180 52.2466 810.059)" fill="#F2EDE4" fill-opacity="0.52"/>
<path d="M61.8006 843.805L61.8006 864.886C61.8006 869.267 65.3521 872.818 69.7331 872.818V872.818C74.114 872.818 77.6655 869.267 77.6655 864.886L77.6655 861.862" stroke="#F2EDE4" stroke-opacity="0.52" stroke-width="5"/>
<path d="M-1.5417 713.657L-1.5417 734.737C-1.5417 739.118 2.00979 742.67 6.39077 742.67V742.67C10.7718 742.67 14.3232 739.118 14.3232 734.737L14.3232 731.713" stroke="#F2EDE4" stroke-opacity="0.52" stroke-width="5"/>
<path d="M13.9429 890.524L13.9429 874.089C13.9429 870.676 16.7095 867.91 20.1223 867.91V867.91C23.5351 867.91 26.3018 870.676 26.3018 874.089L26.3018 876.45" stroke="#F2EDE4" stroke-opacity="0.52" stroke-width="5"/>
<path d="M36.9077 913.138L36.9077 870.977C36.9077 862.022 29.6477 854.762 20.6921 854.762V854.762C11.7365 854.762 4.47656 862.022 4.47656 870.977L4.47656 876.807" stroke="#F2EDE4" stroke-opacity="0.52" stroke-width="5"/>
<path d="M-0.0811137 813.96L-0.081112 786.394C-0.0811115 777.438 -7.34106 770.178 -16.2967 770.178V770.178C-25.2523 770.178 -32.5122 777.438 -32.5122 786.394L-32.5122 792.223" stroke="#F2EDE4" stroke-opacity="0.52" stroke-width="5"/>
<path d="M62.2827 884.037V884.037C55.0456 884.037 49.1788 878.171 49.1788 870.934L49.1788 831.184" stroke="#F2EDE4" stroke-opacity="0.52" stroke-width="5"/>
<path d="M2.89893 884.037V884.037C-4.36237 884.037 -10.2488 878.151 -10.2488 870.89L-10.2488 824.171" stroke="#F2EDE4" stroke-opacity="0.52" stroke-width="5"/>
<path d="M56.8921 807.868V807.868C64.6375 807.868 70.9163 814.147 70.9163 821.892L70.9163 832.235" stroke="#F2EDE4" stroke-opacity="0.52" stroke-width="5"/>
<path d="M-1.4834 841.789L7.19411 841.789C13.0516 841.789 17.8 837.041 17.8 831.184V831.184" stroke="#F2EDE4" stroke-opacity="0.52" stroke-width="5"/>
<path d="M113.866 852.658V852.658C113.866 842.783 105.86 834.777 95.9848 834.777L95.5465 834.777C85.6712 834.777 77.6656 842.783 77.6656 852.658V852.658" stroke="#F2EDE4" stroke-opacity="0.52" stroke-width="5"/>
<rect x="26.0386" y="720.479" width="15.8649" height="38.0408" rx="7.93247" stroke="#F2EDE4" stroke-opacity="0.52" stroke-width="5"/>
<rect x="173.907" y="692.606" width="15.8649" height="38.0408" rx="7.93247" stroke="#F2EDE4" stroke-opacity="0.52" stroke-width="5"/>
<path d="M139.635 807.36L139.635 796.956C139.635 793.446 142.48 790.601 145.99 790.601V790.601C149.5 790.601 152.345 793.446 152.345 796.956L152.345 819.482C152.345 822.992 149.5 825.837 145.99 825.837V825.837C142.48 825.837 139.635 822.992 139.635 819.482L139.635 816.892" stroke="#F2EDE4" stroke-opacity="0.52" stroke-width="5"/>
<path d="M128.022 782.449L103.786 782.449C99.3807 782.449 95.8096 786.02 95.8096 790.426L95.8096 790.973C95.8096 795.076 99.1354 798.402 103.238 798.402V798.402C107.341 798.402 110.667 795.076 110.667 790.973L110.667 790.645" stroke="#F2EDE4" stroke-opacity="0.52" stroke-width="5"/>
<path d="M176.092 652.569L151.856 652.569C147.451 652.569 143.88 656.14 143.88 660.545L143.88 661.093C143.88 665.195 147.206 668.521 151.308 668.521V668.521C155.411 668.521 158.737 665.195 158.737 661.093L158.737 660.764" stroke="#F2EDE4" stroke-opacity="0.52" stroke-width="5"/>
<rect x="15.6084" y="780.17" width="12.0959" height="12.0959" rx="6.04796" stroke="#F2EDE4" stroke-opacity="0.52" stroke-width="5"/>
<rect x="186.091" y="840.475" width="26.6461" height="26.6461" rx="13.323" stroke="#F2EDE4" stroke-opacity="0.52" stroke-width="5"/>
<rect x="77.4907" y="796.561" width="5.4344" height="5.4344" rx="2.7172" fill="#F2EDE4" fill-opacity="0.52"/>
<rect x="149.628" y="735.468" width="5.4344" height="5.4344" rx="2.7172" fill="#F2EDE4" fill-opacity="0.52"/>
<rect x="149.628" y="725.213" width="5.4344" height="5.4344" rx="2.7172" fill="#F2EDE4" fill-opacity="0.52"/>
<path d="M67.9367 762.815L67.9367 741.735C67.9367 737.354 64.3852 733.803 60.0042 733.803V733.803C55.6233 733.803 52.0718 737.354 52.0718 741.735L52.0718 744.759" stroke="#F2EDE4" stroke-opacity="0.52" stroke-width="5"/>
<path d="M115.794 716.097L115.794 732.532C115.794 735.944 113.028 738.711 109.615 738.711V738.711C106.202 738.711 103.436 735.944 103.436 732.532L103.436 730.171" stroke="#F2EDE4" stroke-opacity="0.52" stroke-width="5"/>
<path d="M92.8292 693.483L92.8292 735.643C92.8292 744.599 100.089 751.859 109.045 751.859V751.859C118 751.859 125.26 744.599 125.26 735.643L125.26 729.813" stroke="#F2EDE4" stroke-opacity="0.52" stroke-width="5"/>
<path d="M129.818 792.661L129.818 820.227C129.818 829.183 137.078 836.443 146.034 836.443V836.443C154.99 836.443 162.25 829.183 162.25 820.227L162.25 814.397" stroke="#F2EDE4" stroke-opacity="0.52" stroke-width="5"/>
<path d="M67.4546 722.583V722.583C74.6917 722.583 80.5585 728.45 80.5585 735.687L80.5585 775.437" stroke="#F2EDE4" stroke-opacity="0.52" stroke-width="5"/>
<path d="M126.838 722.583V722.583C134.1 722.583 139.986 728.47 139.986 735.731L139.986 782.449" stroke="#F2EDE4" stroke-opacity="0.52" stroke-width="5"/>
<path d="M72.8452 798.752V798.752C65.0998 798.752 58.821 792.474 58.821 784.728L58.821 774.385" stroke="#F2EDE4" stroke-opacity="0.52" stroke-width="5"/>
<path d="M189.772 828.992V828.992C179.122 828.992 170.489 837.626 170.489 848.276L170.489 863.439" stroke="#F2EDE4" stroke-opacity="0.52" stroke-width="5"/>
<path d="M164.31 782.756V782.756C164.31 772.106 172.943 763.473 183.593 763.473L198.757 763.473" stroke="#F2EDE4" stroke-opacity="0.52" stroke-width="5"/>
<path d="M162.162 803.081L162.162 799.49C162.162 795.742 165.2 792.704 168.948 792.704V792.704C172.695 792.704 175.733 795.742 175.733 799.49L175.733 802.426C175.733 805.819 178.483 808.569 181.876 808.569V808.569C185.269 808.569 188.019 805.819 188.019 802.426L188.019 800.199" stroke="#F2EDE4" stroke-opacity="0.52" stroke-width="5"/>
<path d="M181.533 744.584V744.584C170.883 744.584 162.25 735.95 162.25 725.3L162.25 710.137" stroke="#F2EDE4" stroke-opacity="0.52" stroke-width="5"/>
<path d="M131.221 764.831L122.544 764.831C116.686 764.831 111.938 769.58 111.938 775.437V775.437" stroke="#F2EDE4" stroke-opacity="0.52" stroke-width="5"/>
<path d="M15.8716 753.962V753.962C15.8716 763.838 23.8771 771.843 33.7525 771.843L34.1908 771.843C44.0661 771.843 52.0717 763.838 52.0717 753.962V753.962" stroke="#F2EDE4" stroke-opacity="0.52" stroke-width="5"/>
<rect x="395.961" y="213.572" width="15.8649" height="38.0408" rx="7.93247" transform="rotate(-180 395.961 213.572)" stroke="#F2EDE4" stroke-opacity="0.52" stroke-width="5"/>
<rect x="248.093" y="241.446" width="15.8649" height="38.0408" rx="7.93247" transform="rotate(-180 248.093 241.446)" stroke="#F2EDE4" stroke-opacity="0.52" stroke-width="5"/>
<path d="M282.364 126.691L282.364 137.096C282.364 140.606 279.519 143.451 276.01 143.451V143.451C272.5 143.451 269.655 140.606 269.655 137.096L269.655 114.57C269.655 111.06 272.5 108.215 276.01 108.215V108.215C279.519 108.215 282.364 111.06 282.364 114.57L282.364 117.16" stroke="#F2EDE4" stroke-opacity="0.52" stroke-width="5"/>
<path d="M293.978 151.603L318.214 151.603C322.619 151.603 326.19 148.032 326.19 143.626L326.19 143.079C326.19 138.976 322.865 135.65 318.762 135.65V135.65C314.659 135.65 311.333 138.976 311.333 143.079L311.333 143.407" stroke="#F2EDE4" stroke-opacity="0.52" stroke-width="5"/>
<rect x="406.391" y="153.882" width="12.0959" height="12.0959" rx="6.04796" transform="rotate(-180 406.391 153.882)" stroke="#F2EDE4" stroke-opacity="0.52" stroke-width="5"/>
<rect x="235.909" y="93.5773" width="26.6461" height="26.6461" rx="13.323" transform="rotate(-180 235.909 93.5773)" stroke="#F2EDE4" stroke-opacity="0.52" stroke-width="5"/>
<rect x="344.509" y="137.491" width="5.4344" height="5.4344" rx="2.7172" transform="rotate(-180 344.509 137.491)" fill="#F2EDE4" fill-opacity="0.52"/>
<rect x="272.372" y="198.584" width="5.4344" height="5.4344" rx="2.7172" transform="rotate(-180 272.372 198.584)" fill="#F2EDE4" fill-opacity="0.52"/>
<rect x="272.372" y="208.839" width="5.4344" height="5.4344" rx="2.7172" transform="rotate(-180 272.372 208.839)" fill="#F2EDE4" fill-opacity="0.52"/>
<path d="M354.063 171.237L354.063 192.317C354.063 196.698 357.615 200.249 361.996 200.249V200.249C366.377 200.249 369.928 196.698 369.928 192.317L369.928 189.293" stroke="#F2EDE4" stroke-opacity="0.52" stroke-width="5"/>
<path d="M290.721 41.0885L290.721 62.1687C290.721 66.5496 294.272 70.1011 298.653 70.1011V70.1011C303.034 70.1011 306.586 66.5496 306.586 62.1687L306.586 59.1447" stroke="#F2EDE4" stroke-opacity="0.52" stroke-width="5"/>
<path d="M306.206 217.955L306.206 201.52C306.206 198.107 308.972 195.341 312.385 195.341V195.341C315.798 195.341 318.564 198.107 318.564 201.52L318.564 203.881" stroke="#F2EDE4" stroke-opacity="0.52" stroke-width="5"/>
<path d="M329.17 240.569L329.17 198.409C329.17 189.453 321.91 182.193 312.955 182.193V182.193C303.999 182.193 296.739 189.453 296.739 198.409L296.739 204.238" stroke="#F2EDE4" stroke-opacity="0.52" stroke-width="5"/>
<path d="M292.182 141.391L292.182 113.825C292.182 104.869 284.922 97.6093 275.966 97.6093V97.6093C267.01 97.6093 259.75 104.869 259.75 113.825L259.75 119.655" stroke="#F2EDE4" stroke-opacity="0.52" stroke-width="5"/>
<path d="M354.545 211.469V211.469C347.308 211.469 341.441 205.602 341.441 198.365L341.441 158.615" stroke="#F2EDE4" stroke-opacity="0.52" stroke-width="5"/>
<path d="M291.204 81.3206V81.3206C283.967 81.3206 278.1 75.4537 278.1 68.2166L278.1 28.4666" stroke="#F2EDE4" stroke-opacity="0.52" stroke-width="5"/>
<path d="M295.162 211.469V211.469C287.9 211.469 282.014 205.582 282.014 198.321L282.014 151.603" stroke="#F2EDE4" stroke-opacity="0.52" stroke-width="5"/>
<path d="M349.155 135.3V135.3C356.9 135.3 363.179 141.578 363.179 149.324L363.179 159.667" stroke="#F2EDE4" stroke-opacity="0.52" stroke-width="5"/>
<path d="M232.228 105.06V105.06C242.877 105.06 251.511 96.4262 251.511 85.7763L251.511 70.6126" stroke="#F2EDE4" stroke-opacity="0.52" stroke-width="5"/>
<path d="M257.69 151.296V151.296C257.69 161.946 249.057 170.579 238.407 170.579L223.243 170.579" stroke="#F2EDE4" stroke-opacity="0.52" stroke-width="5"/>
<path d="M259.838 130.971L259.838 134.562C259.838 138.309 256.8 141.347 253.052 141.347V141.347C249.305 141.347 246.267 138.309 246.267 134.562L246.267 131.626C246.267 128.233 243.517 125.483 240.124 125.483V125.483C236.731 125.483 233.981 128.233 233.981 131.626L233.981 133.853" stroke="#F2EDE4" stroke-opacity="0.52" stroke-width="5"/>
<path d="M240.467 189.468V189.468C251.117 189.468 259.75 198.102 259.75 208.752L259.75 223.915" stroke="#F2EDE4" stroke-opacity="0.52" stroke-width="5"/>
<path d="M290.779 169.221L299.457 169.221C305.314 169.221 310.063 164.472 310.063 158.615V158.615" stroke="#F2EDE4" stroke-opacity="0.52" stroke-width="5"/>
<path d="M406.128 180.089V180.089C406.128 170.214 398.123 162.209 388.247 162.209L387.809 162.209C377.934 162.209 369.928 170.214 369.928 180.089V180.089" stroke="#F2EDE4" stroke-opacity="0.52" stroke-width="5"/>
<rect x="318.302" y="47.9108" width="15.8649" height="38.0408" rx="7.93247" stroke="#F2EDE4" stroke-opacity="0.52" stroke-width="5"/>
<path d="M420.284 109.881L396.049 109.881C391.643 109.881 388.072 113.452 388.072 117.857L388.072 118.405C388.072 122.507 391.398 125.833 395.501 125.833V125.833C399.603 125.833 402.929 122.507 402.929 118.405L402.929 118.076" stroke="#F2EDE4" stroke-opacity="0.52" stroke-width="5"/>
<rect x="307.871" y="107.602" width="12.0959" height="12.0959" rx="6.04796" stroke="#F2EDE4" stroke-opacity="0.52" stroke-width="5"/>
<rect x="369.753" y="123.992" width="5.4344" height="5.4344" rx="2.7172" fill="#F2EDE4" fill-opacity="0.52"/>
<path d="M360.199 90.2466L360.199 69.1664C360.199 64.7854 356.648 61.2339 352.267 61.2339V61.2339C347.886 61.2339 344.334 64.7854 344.334 69.1664L344.334 72.1903" stroke="#F2EDE4" stroke-opacity="0.52" stroke-width="5"/>
<path d="M385.092 20.9141L385.092 63.0745C385.092 72.0301 392.352 79.2901 401.307 79.2901V79.2901C410.263 79.2901 417.523 72.0301 417.523 63.0745L417.523 57.2448" stroke="#F2EDE4" stroke-opacity="0.52" stroke-width="5"/>
<path d="M359.717 50.0145V50.0145C366.954 50.0145 372.821 55.8813 372.821 63.1184L372.821 102.868" stroke="#F2EDE4" stroke-opacity="0.52" stroke-width="5"/>
<path d="M365.108 126.184V126.184C357.363 126.184 351.084 119.905 351.084 112.159L351.084 101.817" stroke="#F2EDE4" stroke-opacity="0.52" stroke-width="5"/>
<path d="M308.134 81.3937V81.3937C308.134 91.2691 316.14 99.2747 326.015 99.2747L326.453 99.2747C336.329 99.2747 344.334 91.2691 344.334 81.3937V81.3937" stroke="#F2EDE4" stroke-opacity="0.52" stroke-width="5"/>
<rect x="377.698" y="408.141" width="15.8649" height="38.0408" rx="7.93247" transform="rotate(-180 377.698 408.141)" stroke="#F2EDE4" stroke-opacity="0.52" stroke-width="5"/>
<rect x="229.83" y="436.014" width="15.8649" height="38.0408" rx="7.93247" transform="rotate(-180 229.83 436.014)" stroke="#F2EDE4" stroke-opacity="0.52" stroke-width="5"/>
<path d="M264.102 321.26L264.102 331.665C264.102 335.175 261.256 338.02 257.747 338.02V338.02C254.237 338.02 251.392 335.175 251.392 331.665L251.392 309.139C251.392 305.629 254.237 302.784 257.747 302.784V302.784C261.256 302.784 264.102 305.629 264.102 309.139L264.102 311.728" stroke="#F2EDE4" stroke-opacity="0.52" stroke-width="5"/>
<path d="M275.716 346.171L299.951 346.171C304.357 346.171 307.928 342.6 307.928 338.195L307.928 337.647C307.928 333.545 304.602 330.219 300.499 330.219V330.219C296.397 330.219 293.071 333.545 293.071 337.647L293.071 337.976" stroke="#F2EDE4" stroke-opacity="0.52" stroke-width="5"/>
<rect x="388.128" y="348.45" width="12.0959" height="12.0959" rx="6.04796" transform="rotate(-180 388.128 348.45)" stroke="#F2EDE4" stroke-opacity="0.52" stroke-width="5"/>
<rect x="217.646" y="288.146" width="26.6461" height="26.6461" rx="13.323" transform="rotate(-180 217.646 288.146)" stroke="#F2EDE4" stroke-opacity="0.52" stroke-width="5"/>
<rect x="326.247" y="332.06" width="5.4344" height="5.4344" rx="2.7172" transform="rotate(-180 326.247 332.06)" fill="#F2EDE4" fill-opacity="0.52"/>
<rect x="254.109" y="393.153" width="5.4344" height="5.4344" rx="2.7172" transform="rotate(-180 254.109 393.153)" fill="#F2EDE4" fill-opacity="0.52"/>
<rect x="254.109" y="403.408" width="5.4344" height="5.4344" rx="2.7172" transform="rotate(-180 254.109 403.408)" fill="#F2EDE4" fill-opacity="0.52"/>
<path d="M335.801 365.805L335.801 386.886C335.801 391.267 339.352 394.818 343.733 394.818V394.818C348.114 394.818 351.666 391.267 351.666 386.886L351.666 383.862" stroke="#F2EDE4" stroke-opacity="0.52" stroke-width="5"/>
<path d="M272.458 235.657L272.458 256.737C272.458 261.118 276.01 264.67 280.391 264.67V264.67C284.772 264.67 288.323 261.118 288.323 256.737L288.323 253.713" stroke="#F2EDE4" stroke-opacity="0.52" stroke-width="5"/>
<path d="M287.943 412.524L287.943 396.089C287.943 392.676 290.71 389.91 294.122 389.91V389.91C297.535 389.91 300.302 392.676 300.302 396.089L300.302 398.45" stroke="#F2EDE4" stroke-opacity="0.52" stroke-width="5"/>
<path d="M310.908 435.138L310.908 392.977C310.908 384.022 303.648 376.762 294.692 376.762V376.762C285.737 376.762 278.477 384.022 278.477 392.977L278.477 398.807" stroke="#F2EDE4" stroke-opacity="0.52" stroke-width="5"/>
<path d="M273.919 335.96L273.919 308.394C273.919 299.438 266.659 292.178 257.703 292.178V292.178C248.748 292.178 241.488 299.438 241.488 308.394L241.488 314.223" stroke="#F2EDE4" stroke-opacity="0.52" stroke-width="5"/>
<path d="M336.283 406.037V406.037C329.046 406.037 323.179 400.171 323.179 392.933L323.179 353.183" stroke="#F2EDE4" stroke-opacity="0.52" stroke-width="5"/>
<path d="M272.94 275.889V275.889C265.703 275.889 259.837 270.022 259.837 262.785L259.837 223.035" stroke="#F2EDE4" stroke-opacity="0.52" stroke-width="5"/>
<path d="M276.899 406.037V406.037C269.638 406.037 263.751 400.151 263.751 392.89L263.751 346.171" stroke="#F2EDE4" stroke-opacity="0.52" stroke-width="5"/>
<path d="M330.892 329.868V329.868C338.637 329.868 344.916 336.147 344.916 343.892L344.916 354.235" stroke="#F2EDE4" stroke-opacity="0.52" stroke-width="5"/>
<path d="M213.965 299.628V299.628C224.615 299.628 233.248 290.995 233.248 280.345L233.248 265.181" stroke="#F2EDE4" stroke-opacity="0.52" stroke-width="5"/>
<path d="M239.428 345.865V345.865C239.428 356.514 230.794 365.148 220.144 365.148L204.981 365.148" stroke="#F2EDE4" stroke-opacity="0.52" stroke-width="5"/>
<path d="M241.575 325.54L241.575 329.131C241.575 332.878 238.537 335.916 234.79 335.916V335.916C231.042 335.916 228.004 332.878 228.004 329.131L228.004 326.194C228.004 322.802 225.254 320.051 221.861 320.051V320.051C218.468 320.051 215.718 322.802 215.718 326.194L215.718 328.422" stroke="#F2EDE4" stroke-opacity="0.52" stroke-width="5"/>
<path d="M222.204 384.037V384.037C232.854 384.037 241.487 392.67 241.487 403.32L241.487 418.484" stroke="#F2EDE4" stroke-opacity="0.52" stroke-width="5"/>
<path d="M272.517 363.789L281.194 363.789C287.052 363.789 291.8 359.041 291.8 353.184V353.184" stroke="#F2EDE4" stroke-opacity="0.52" stroke-width="5"/>
<path d="M387.866 374.658V374.658C387.866 364.783 379.86 356.777 369.985 356.777L369.547 356.777C359.671 356.777 351.666 364.783 351.666 374.658V374.658" stroke="#F2EDE4" stroke-opacity="0.52" stroke-width="5"/>
<rect x="300.039" y="242.48" width="15.8649" height="38.0408" rx="7.93247" stroke="#F2EDE4" stroke-opacity="0.52" stroke-width="5"/>
<path d="M402.022 304.449L377.786 304.449C373.381 304.449 369.81 308.02 369.81 312.426L369.81 312.973C369.81 317.076 373.135 320.402 377.238 320.402V320.402C381.341 320.402 384.667 317.076 384.667 312.973L384.667 312.645" stroke="#F2EDE4" stroke-opacity="0.52" stroke-width="5"/>
<rect x="289.608" y="302.17" width="12.0959" height="12.0959" rx="6.04796" stroke="#F2EDE4" stroke-opacity="0.52" stroke-width="5"/>
<rect x="351.491" y="318.561" width="5.4344" height="5.4344" rx="2.7172" fill="#F2EDE4" fill-opacity="0.52"/>
<path d="M341.937 284.815L341.937 263.735C341.937 259.354 338.385 255.803 334.004 255.803V255.803C329.623 255.803 326.072 259.354 326.072 263.735L326.072 266.759" stroke="#F2EDE4" stroke-opacity="0.52" stroke-width="5"/>
<path d="M389.794 238.097L389.794 254.532C389.794 257.944 387.028 260.711 383.615 260.711V260.711C380.202 260.711 377.436 257.944 377.436 254.532L377.436 252.171" stroke="#F2EDE4" stroke-opacity="0.52" stroke-width="5"/>
<path d="M366.829 215.483L366.829 257.643C366.829 266.599 374.089 273.859 383.045 273.859V273.859C392 273.859 399.26 266.599 399.26 257.643L399.26 251.814" stroke="#F2EDE4" stroke-opacity="0.52" stroke-width="5"/>
<path d="M341.455 244.583V244.583C348.692 244.583 354.559 250.45 354.559 257.687L354.558 297.437" stroke="#F2EDE4" stroke-opacity="0.52" stroke-width="5"/>
<path d="M346.845 320.752V320.752C339.1 320.752 332.821 314.474 332.821 306.728L332.821 296.385" stroke="#F2EDE4" stroke-opacity="0.52" stroke-width="5"/>
<path d="M405.221 286.831L396.544 286.831C390.686 286.831 385.938 291.58 385.938 297.437V297.437" stroke="#F2EDE4" stroke-opacity="0.52" stroke-width="5"/>
<path d="M289.872 275.962V275.962C289.872 285.838 297.877 293.843 307.753 293.843L308.191 293.843C318.066 293.843 326.072 285.838 326.072 275.962V275.962" stroke="#F2EDE4" stroke-opacity="0.52" stroke-width="5"/>
<rect x="395.961" y="617.572" width="15.8649" height="38.0408" rx="7.93247" transform="rotate(-180 395.961 617.572)" stroke="#F2EDE4" stroke-opacity="0.52" stroke-width="5"/>
<rect x="248.093" y="645.446" width="15.8649" height="38.0408" rx="7.93247" transform="rotate(-180 248.093 645.446)" stroke="#F2EDE4" stroke-opacity="0.52" stroke-width="5"/>
<path d="M282.364 530.691L282.364 541.096C282.364 544.606 279.519 547.451 276.01 547.451V547.451C272.5 547.451 269.655 544.606 269.655 541.096L269.655 518.57C269.655 515.06 272.5 512.215 276.01 512.215V512.215C279.519 512.215 282.364 515.06 282.364 518.57L282.364 521.16" stroke="#F2EDE4" stroke-opacity="0.52" stroke-width="5"/>
<path d="M293.978 555.603L318.214 555.603C322.619 555.603 326.19 552.032 326.19 547.626L326.19 547.079C326.19 542.976 322.865 539.65 318.762 539.65V539.65C314.659 539.65 311.333 542.976 311.333 547.079L311.333 547.407" stroke="#F2EDE4" stroke-opacity="0.52" stroke-width="5"/>
<rect x="406.391" y="557.882" width="12.0959" height="12.0959" rx="6.04796" transform="rotate(-180 406.391 557.882)" stroke="#F2EDE4" stroke-opacity="0.52" stroke-width="5"/>
<rect x="235.909" y="497.577" width="26.6461" height="26.6461" rx="13.323" transform="rotate(-180 235.909 497.577)" stroke="#F2EDE4" stroke-opacity="0.52" stroke-width="5"/>
<rect x="344.509" y="541.491" width="5.4344" height="5.4344" rx="2.7172" transform="rotate(-180 344.509 541.491)" fill="#F2EDE4" fill-opacity="0.52"/>
<rect x="272.372" y="602.584" width="5.4344" height="5.4344" rx="2.7172" transform="rotate(-180 272.372 602.584)" fill="#F2EDE4" fill-opacity="0.52"/>
<rect x="272.372" y="612.839" width="5.4344" height="5.4344" rx="2.7172" transform="rotate(-180 272.372 612.839)" fill="#F2EDE4" fill-opacity="0.52"/>
<path d="M354.063 575.237L354.063 596.317C354.063 600.698 357.615 604.249 361.996 604.249V604.249C366.377 604.249 369.928 600.698 369.928 596.317L369.928 593.293" stroke="#F2EDE4" stroke-opacity="0.52" stroke-width="5"/>
<path d="M290.721 445.088L290.721 466.169C290.721 470.55 294.272 474.101 298.653 474.101V474.101C303.034 474.101 306.586 470.55 306.586 466.169L306.586 463.145" stroke="#F2EDE4" stroke-opacity="0.52" stroke-width="5"/>
<path d="M306.206 621.955L306.206 605.52C306.206 602.107 308.972 599.341 312.385 599.341V599.341C315.798 599.341 318.564 602.107 318.564 605.52L318.564 607.881" stroke="#F2EDE4" stroke-opacity="0.52" stroke-width="5"/>
<path d="M329.17 644.569L329.17 602.409C329.17 593.453 321.91 586.193 312.955 586.193V586.193C303.999 586.193 296.739 593.453 296.739 602.409L296.739 608.238" stroke="#F2EDE4" stroke-opacity="0.52" stroke-width="5"/>
<path d="M292.182 545.391L292.182 517.825C292.182 508.869 284.922 501.609 275.966 501.609V501.609C267.01 501.609 259.75 508.869 259.75 517.825L259.75 523.655" stroke="#F2EDE4" stroke-opacity="0.52" stroke-width="5"/>
<path d="M354.545 615.469V615.469C347.308 615.469 341.441 609.602 341.441 602.365L341.441 562.615" stroke="#F2EDE4" stroke-opacity="0.52" stroke-width="5"/>
<path d="M291.204 485.32V485.32C283.967 485.32 278.1 479.454 278.1 472.217L278.1 432.467" stroke="#F2EDE4" stroke-opacity="0.52" stroke-width="5"/>
<path d="M295.162 615.469V615.469C287.9 615.469 282.014 609.582 282.014 602.321L282.014 555.603" stroke="#F2EDE4" stroke-opacity="0.52" stroke-width="5"/>
<path d="M349.155 539.3V539.3C356.9 539.3 363.179 545.578 363.179 553.324L363.179 563.667" stroke="#F2EDE4" stroke-opacity="0.52" stroke-width="5"/>
<path d="M232.228 509.06V509.06C242.877 509.06 251.511 500.426 251.511 489.776L251.511 474.613" stroke="#F2EDE4" stroke-opacity="0.52" stroke-width="5"/>
<path d="M257.69 555.296V555.296C257.69 565.946 249.057 574.579 238.407 574.579L223.243 574.579" stroke="#F2EDE4" stroke-opacity="0.52" stroke-width="5"/>
<path d="M259.838 534.971L259.838 538.562C259.838 542.309 256.8 545.347 253.052 545.347V545.347C249.305 545.347 246.267 542.309 246.267 538.562L246.267 535.626C246.267 532.233 243.517 529.482 240.124 529.482V529.482C236.731 529.482 233.981 532.233 233.981 535.626L233.981 537.853" stroke="#F2EDE4" stroke-opacity="0.52" stroke-width="5"/>
<path d="M240.467 593.468V593.468C251.117 593.468 259.75 602.102 259.75 612.752L259.75 627.915" stroke="#F2EDE4" stroke-opacity="0.52" stroke-width="5"/>
<path d="M290.779 573.221L299.457 573.221C305.314 573.221 310.063 568.472 310.063 562.615V562.615" stroke="#F2EDE4" stroke-opacity="0.52" stroke-width="5"/>
<path d="M406.128 584.089V584.089C406.128 574.214 398.123 566.209 388.247 566.209L387.809 566.209C377.934 566.209 369.928 574.214 369.928 584.089V584.089" stroke="#F2EDE4" stroke-opacity="0.52" stroke-width="5"/>
<rect x="318.302" y="451.911" width="15.8649" height="38.0408" rx="7.93247" stroke="#F2EDE4" stroke-opacity="0.52" stroke-width="5"/>
<path d="M420.284 513.881L396.049 513.881C391.643 513.881 388.072 517.452 388.072 521.857L388.072 522.405C388.072 526.507 391.398 529.833 395.501 529.833V529.833C399.603 529.833 402.929 526.507 402.929 522.405L402.929 522.076" stroke="#F2EDE4" stroke-opacity="0.52" stroke-width="5"/>
<rect x="307.871" y="511.602" width="12.0959" height="12.0959" rx="6.04796" stroke="#F2EDE4" stroke-opacity="0.52" stroke-width="5"/>
<rect x="369.753" y="527.992" width="5.4344" height="5.4344" rx="2.7172" fill="#F2EDE4" fill-opacity="0.52"/>
<path d="M360.199 494.247L360.199 473.166C360.199 468.785 356.648 465.234 352.267 465.234V465.234C347.886 465.234 344.334 468.785 344.334 473.166L344.334 476.19" stroke="#F2EDE4" stroke-opacity="0.52" stroke-width="5"/>
<path d="M385.092 424.914L385.092 467.075C385.092 476.03 392.352 483.29 401.307 483.29V483.29C410.263 483.29 417.523 476.03 417.523 467.075L417.523 461.245" stroke="#F2EDE4" stroke-opacity="0.52" stroke-width="5"/>
<path d="M359.717 454.014V454.014C366.954 454.014 372.821 459.881 372.821 467.118L372.821 506.868" stroke="#F2EDE4" stroke-opacity="0.52" stroke-width="5"/>
<path d="M365.108 530.184V530.184C357.363 530.184 351.084 523.905 351.084 516.159L351.084 505.817" stroke="#F2EDE4" stroke-opacity="0.52" stroke-width="5"/>
<path d="M308.134 485.394V485.394C308.134 495.269 316.14 503.275 326.015 503.275L326.453 503.275C336.329 503.275 344.334 495.269 344.334 485.394V485.394" stroke="#F2EDE4" stroke-opacity="0.52" stroke-width="5"/>
<rect x="377.698" y="812.141" width="15.8649" height="38.0408" rx="7.93247" transform="rotate(-180 377.698 812.141)" stroke="#F2EDE4" stroke-opacity="0.52" stroke-width="5"/>
<rect x="229.83" y="840.014" width="15.8649" height="38.0408" rx="7.93247" transform="rotate(-180 229.83 840.014)" stroke="#F2EDE4" stroke-opacity="0.52" stroke-width="5"/>
<path d="M264.102 725.26L264.102 735.665C264.102 739.175 261.256 742.02 257.747 742.02V742.02C254.237 742.02 251.392 739.175 251.392 735.665L251.392 713.139C251.392 709.629 254.237 706.784 257.747 706.784V706.784C261.256 706.784 264.102 709.629 264.102 713.139L264.102 715.728" stroke="#F2EDE4" stroke-opacity="0.52" stroke-width="5"/>
<path d="M275.716 750.171L299.951 750.171C304.357 750.171 307.928 746.6 307.928 742.195L307.928 741.647C307.928 737.545 304.602 734.219 300.499 734.219V734.219C296.397 734.219 293.071 737.545 293.071 741.647L293.071 741.976" stroke="#F2EDE4" stroke-opacity="0.52" stroke-width="5"/>
<rect x="388.128" y="752.45" width="12.0959" height="12.0959" rx="6.04796" transform="rotate(-180 388.128 752.45)" stroke="#F2EDE4" stroke-opacity="0.52" stroke-width="5"/>
<rect x="217.646" y="692.146" width="26.6461" height="26.6461" rx="13.323" transform="rotate(-180 217.646 692.146)" stroke="#F2EDE4" stroke-opacity="0.52" stroke-width="5"/>
<rect x="326.247" y="736.059" width="5.4344" height="5.4344" rx="2.7172" transform="rotate(-180 326.247 736.059)" fill="#F2EDE4" fill-opacity="0.52"/>
<rect x="254.109" y="797.153" width="5.4344" height="5.4344" rx="2.7172" transform="rotate(-180 254.109 797.153)" fill="#F2EDE4" fill-opacity="0.52"/>
<rect x="254.109" y="807.408" width="5.4344" height="5.4344" rx="2.7172" transform="rotate(-180 254.109 807.408)" fill="#F2EDE4" fill-opacity="0.52"/>
<path d="M335.801 769.805L335.801 790.886C335.801 795.267 339.352 798.818 343.733 798.818V798.818C348.114 798.818 351.666 795.267 351.666 790.886L351.666 787.862" stroke="#F2EDE4" stroke-opacity="0.52" stroke-width="5"/>
<path d="M272.458 639.657L272.458 660.737C272.458 665.118 276.01 668.67 280.391 668.67V668.67C284.772 668.67 288.323 665.118 288.323 660.737L288.323 657.713" stroke="#F2EDE4" stroke-opacity="0.52" stroke-width="5"/>
<path d="M287.943 816.524L287.943 800.089C287.943 796.676 290.71 793.91 294.122 793.91V793.91C297.535 793.91 300.302 796.676 300.302 800.089L300.302 802.45" stroke="#F2EDE4" stroke-opacity="0.52" stroke-width="5"/>
<path d="M310.908 839.138L310.908 796.977C310.908 788.022 303.648 780.762 294.692 780.762V780.762C285.737 780.762 278.477 788.022 278.477 796.977L278.477 802.807" stroke="#F2EDE4" stroke-opacity="0.52" stroke-width="5"/>
<path d="M273.919 739.96L273.919 712.394C273.919 703.438 266.659 696.178 257.703 696.178V696.178C248.748 696.178 241.488 703.438 241.488 712.394L241.488 718.223" stroke="#F2EDE4" stroke-opacity="0.52" stroke-width="5"/>
<path d="M336.283 810.037V810.037C329.046 810.037 323.179 804.171 323.179 796.934L323.179 757.184" stroke="#F2EDE4" stroke-opacity="0.52" stroke-width="5"/>
<path d="M272.94 679.889V679.889C265.703 679.889 259.837 674.022 259.837 666.785L259.837 627.035" stroke="#F2EDE4" stroke-opacity="0.52" stroke-width="5"/>
<path d="M276.899 810.037V810.037C269.638 810.037 263.751 804.151 263.751 796.89L263.751 750.171" stroke="#F2EDE4" stroke-opacity="0.52" stroke-width="5"/>
<path d="M330.892 733.868V733.868C338.637 733.868 344.916 740.147 344.916 747.892L344.916 758.235" stroke="#F2EDE4" stroke-opacity="0.52" stroke-width="5"/>
<path d="M213.965 703.628V703.628C224.615 703.628 233.248 694.995 233.248 684.345L233.248 669.181" stroke="#F2EDE4" stroke-opacity="0.52" stroke-width="5"/>
<path d="M239.428 749.865V749.865C239.428 760.514 230.794 769.148 220.144 769.148L204.981 769.148" stroke="#F2EDE4" stroke-opacity="0.52" stroke-width="5"/>
<path d="M241.575 729.54L241.575 733.131C241.575 736.878 238.537 739.916 234.79 739.916V739.916C231.042 739.916 228.004 736.878 228.004 733.131L228.004 730.194C228.004 726.802 225.254 724.051 221.861 724.051V724.051C218.468 724.051 215.718 726.802 215.718 730.194L215.718 732.422" stroke="#F2EDE4" stroke-opacity="0.52" stroke-width="5"/>
<path d="M222.204 788.037V788.037C232.854 788.037 241.487 796.67 241.487 807.32L241.487 822.484" stroke="#F2EDE4" stroke-opacity="0.52" stroke-width="5"/>
<path d="M272.517 767.789L281.194 767.789C287.052 767.789 291.8 763.041 291.8 757.184V757.184" stroke="#F2EDE4" stroke-opacity="0.52" stroke-width="5"/>
<path d="M387.866 778.658V778.658C387.866 768.783 379.86 760.777 369.985 760.777L369.547 760.777C359.671 760.777 351.666 768.783 351.666 778.658V778.658" stroke="#F2EDE4" stroke-opacity="0.52" stroke-width="5"/>
<rect x="300.039" y="646.479" width="15.8649" height="38.0408" rx="7.93247" stroke="#F2EDE4" stroke-opacity="0.52" stroke-width="5"/>
<path d="M402.022 708.449L377.786 708.449C373.381 708.449 369.81 712.02 369.81 716.425L369.81 716.973C369.81 721.076 373.135 724.402 377.238 724.402V724.402C381.341 724.402 384.667 721.076 384.667 716.973L384.667 716.645" stroke="#F2EDE4" stroke-opacity="0.52" stroke-width="5"/>
<rect x="289.608" y="706.17" width="12.0959" height="12.0959" rx="6.04796" stroke="#F2EDE4" stroke-opacity="0.52" stroke-width="5"/>
<rect x="351.491" y="722.561" width="5.4344" height="5.4344" rx="2.7172" fill="#F2EDE4" fill-opacity="0.52"/>
<path d="M341.937 688.815L341.937 667.735C341.937 663.354 338.385 659.803 334.004 659.803V659.803C329.623 659.803 326.072 663.354 326.072 667.735L326.072 670.759" stroke="#F2EDE4" stroke-opacity="0.52" stroke-width="5"/>
<path d="M389.794 642.097L389.794 658.532C389.794 661.944 387.028 664.711 383.615 664.711V664.711C380.202 664.711 377.436 661.944 377.436 658.532L377.436 656.171" stroke="#F2EDE4" stroke-opacity="0.52" stroke-width="5"/>
<path d="M366.829 619.483L366.829 661.643C366.829 670.599 374.089 677.859 383.045 677.859V677.859C392 677.859 399.26 670.599 399.26 661.643L399.26 655.813" stroke="#F2EDE4" stroke-opacity="0.52" stroke-width="5"/>
<path d="M341.455 648.583V648.583C348.692 648.583 354.559 654.45 354.559 661.687L354.558 701.437" stroke="#F2EDE4" stroke-opacity="0.52" stroke-width="5"/>
<path d="M346.845 724.752V724.752C339.1 724.752 332.821 718.474 332.821 710.728L332.821 700.385" stroke="#F2EDE4" stroke-opacity="0.52" stroke-width="5"/>
<path d="M405.221 690.831L396.544 690.831C390.686 690.831 385.938 695.58 385.938 701.437V701.437" stroke="#F2EDE4" stroke-opacity="0.52" stroke-width="5"/>
<path d="M289.872 679.962V679.962C289.872 689.838 297.877 697.843 307.753 697.843L308.191 697.843C318.066 697.843 326.072 689.838 326.072 679.962V679.962" stroke="#F2EDE4" stroke-opacity="0.52" stroke-width="5"/>
</svg>
