<svg width="393" height="871" viewBox="0 0 393 871" fill="none" xmlns="http://www.w3.org/2000/svg">
<g opacity="0.2">
<rect x="275.945" y="162.203" width="19.9152" height="47.7525" rx="9.95761" transform="rotate(-180 275.945 162.203)" stroke="#56F1B3" stroke-width="7"/>
<rect x="90.327" y="197.192" width="19.9152" height="47.7525" rx="9.95761" transform="rotate(-180 90.327 197.192)" stroke="#56F1B3" stroke-width="7"/>
<path d="M133.348 53.1417L133.348 66.203C133.348 70.6086 129.776 74.1801 125.37 74.1801V74.1801C120.965 74.1801 117.393 70.6086 117.393 66.203L117.393 37.9255C117.393 33.5199 120.965 29.9484 125.37 29.9484V29.9484C129.776 29.9484 133.348 33.5199 133.348 37.9255L133.348 41.1765" stroke="#56F1B3" stroke-width="7"/>
<path d="M147.927 84.4128L178.35 84.4128C183.88 84.4128 188.362 79.93 188.362 74.4002L188.362 73.7125C188.362 68.5625 184.188 64.3876 179.037 64.3876V64.3876C173.887 64.3876 169.713 68.5625 169.713 73.7125L169.713 74.1251" stroke="#56F1B3" stroke-width="7"/>
<rect x="289.038" y="87.2734" width="15.184" height="15.184" rx="7.59199" transform="rotate(-180 289.038 87.2734)" stroke="#56F1B3" stroke-width="7"/>
<rect x="75.032" y="11.5735" width="33.4488" height="33.4488" rx="16.7244" transform="rotate(-180 75.032 11.5735)" stroke="#56F1B3" stroke-width="7"/>
<rect x="211.358" y="66.6981" width="6.82179" height="6.82179" rx="3.41089" transform="rotate(-180 211.358 66.6981)" fill="#56F1B3"/>
<rect x="120.804" y="143.388" width="6.82179" height="6.82179" rx="3.41089" transform="rotate(-180 120.804 143.388)" fill="#56F1B3"/>
<rect x="120.804" y="156.261" width="6.82179" height="6.82179" rx="3.41089" transform="rotate(-180 120.804 156.261)" fill="#56F1B3"/>
<path d="M223.351 109.059L223.351 135.521C223.351 141.02 227.81 145.479 233.309 145.479V145.479C238.808 145.479 243.267 141.02 243.267 135.521L243.267 131.725" stroke="#56F1B3" stroke-width="7"/>
<path d="M163.276 167.705L163.276 147.074C163.276 142.79 166.749 139.317 171.033 139.317V139.317C175.317 139.317 178.79 142.79 178.79 147.074L178.79 150.037" stroke="#56F1B3" stroke-width="7"/>
<path d="M192.103 196.092L192.103 143.168C192.103 131.926 182.99 122.813 171.748 122.813V122.813C160.506 122.813 151.392 131.926 151.392 143.168L151.392 150.486" stroke="#56F1B3" stroke-width="7"/>
<path d="M145.671 71.5942L145.671 36.9901C145.671 25.7482 136.558 16.6348 125.316 16.6348V16.6348C114.074 16.6348 104.96 25.7482 104.96 36.9901L104.96 44.3082" stroke="#56F1B3" stroke-width="7"/>
<path d="M223.957 159.562V159.562C214.872 159.562 207.507 152.198 207.507 143.113L207.507 93.215" stroke="#56F1B3" stroke-width="7"/>
<path d="M149.412 159.562V159.562C140.297 159.562 132.908 152.173 132.908 143.058L132.908 84.4126" stroke="#56F1B3" stroke-width="7"/>
<path d="M217.19 63.9475V63.9475C226.912 63.9475 234.794 71.8294 234.794 81.5521L234.794 94.5355" stroke="#56F1B3" stroke-width="7"/>
<path d="M70.411 25.9874V25.9874C83.7798 25.9874 94.6174 15.1499 94.6174 1.78107L94.6174 -17.2539" stroke="#56F1B3" stroke-width="7"/>
<path d="M102.374 84.0276V84.0276C102.374 97.3964 91.5367 108.234 78.1679 108.234L59.1329 108.234" stroke="#56F1B3" stroke-width="7"/>
<path d="M105.07 58.5139L105.07 63.0215C105.07 67.7257 101.257 71.5393 96.5525 71.5393V71.5393C91.8482 71.5393 88.0346 67.7257 88.0346 63.0215L88.0346 59.3355C88.0346 55.0766 84.5821 51.6241 80.3232 51.6241V51.6241C76.0643 51.6241 72.6118 55.0766 72.6118 59.3355L72.6118 62.1318" stroke="#56F1B3" stroke-width="7"/>
<path d="M80.7538 131.945V131.945C94.1226 131.945 104.96 142.783 104.96 156.151L104.96 175.186" stroke="#56F1B3" stroke-width="7"/>
<path d="M143.911 106.528L154.804 106.528C162.156 106.528 168.117 100.568 168.117 93.2149V93.2149" stroke="#56F1B3" stroke-width="7"/>
<path d="M288.709 120.172V120.172C288.709 107.776 278.659 97.7262 266.263 97.7262L265.713 97.7262C253.316 97.7262 243.267 107.776 243.267 120.172V120.172" stroke="#56F1B3" stroke-width="7"/>
<rect x="178.46" y="-45.7512" width="19.9152" height="47.7525" rx="9.95761" stroke="#56F1B3" stroke-width="7"/>
<path d="M321.057 63.3101L321.057 50.2488C321.057 45.8432 324.628 42.2717 329.034 42.2717V42.2717C333.44 42.2717 337.011 45.8432 337.011 50.2488L337.011 78.5262C337.011 82.9319 333.44 86.5033 329.034 86.5033V86.5033C324.628 86.5033 321.057 82.9319 321.057 78.5262L321.057 75.2753" stroke="#56F1B3" stroke-width="7"/>
<path d="M306.478 32.0389L276.055 32.0389C270.526 32.0389 266.043 36.5217 266.043 42.0516L266.043 42.7392C266.043 47.8893 270.218 52.0642 275.368 52.0642V52.0642C280.518 52.0642 284.693 47.8893 284.693 42.7392L284.693 42.3266" stroke="#56F1B3" stroke-width="7"/>
<rect x="165.367" y="29.1782" width="15.184" height="15.184" rx="7.59199" stroke="#56F1B3" stroke-width="7"/>
<rect x="379.373" y="104.878" width="33.4488" height="33.4488" rx="16.7244" stroke="#56F1B3" stroke-width="7"/>
<rect x="243.047" y="49.7538" width="6.82179" height="6.82179" rx="3.41089" fill="#56F1B3"/>
<path d="M231.054 7.3927L231.054 -19.0692C231.054 -24.5687 226.596 -29.0269 221.097 -29.0269V-29.0269C215.597 -29.0269 211.139 -24.5687 211.139 -19.0692L211.139 -15.2732" stroke="#56F1B3" stroke-width="7"/>
<path d="M308.734 44.8575L308.734 79.4615C308.734 90.7035 317.848 99.8169 329.09 99.8169V99.8169C340.332 99.8169 349.445 90.7035 349.445 79.4615L349.445 72.1435" stroke="#56F1B3" stroke-width="7"/>
<path d="M230.448 -43.1105V-43.1105C239.533 -43.1105 246.898 -35.7459 246.898 -26.6612L246.898 23.2369" stroke="#56F1B3" stroke-width="7"/>
<path d="M304.993 -43.1105V-43.1105C314.108 -43.1105 321.497 -35.7212 321.497 -26.6061L321.497 32.0392" stroke="#56F1B3" stroke-width="7"/>
<path d="M237.215 52.5045V52.5045C227.492 52.5045 219.611 44.6227 219.611 34.8999L219.611 21.9165" stroke="#56F1B3" stroke-width="7"/>
<path d="M383.994 90.4645V90.4645C370.625 90.4645 359.788 101.302 359.788 114.671L359.788 133.706" stroke="#56F1B3" stroke-width="7"/>
<path d="M352.031 32.4241V32.4241C352.031 19.0553 362.868 8.21773 376.237 8.21773L395.272 8.21773" stroke="#56F1B3" stroke-width="7"/>
<path d="M349.334 57.9377L349.334 53.4302C349.334 48.7259 353.148 44.9124 357.852 44.9124V44.9124C362.557 44.9124 366.37 48.7259 366.37 53.4302L366.37 57.1162C366.37 61.3751 369.823 64.8276 374.082 64.8276V64.8276C378.34 64.8276 381.793 61.3751 381.793 57.1162L381.793 54.3198" stroke="#56F1B3" stroke-width="7"/>
<path d="M310.495 9.92322L299.602 9.92322C292.249 9.92321 286.289 15.8839 286.289 23.2367V23.2367" stroke="#56F1B3" stroke-width="7"/>
<path d="M165.697 -3.72034V-3.72034C165.697 8.67618 175.746 18.7256 188.143 18.7256L188.693 18.7256C201.089 18.7256 211.139 8.67619 211.139 -3.72033V-3.72033" stroke="#56F1B3" stroke-width="7"/>
<rect x="253.021" y="406.445" width="19.9152" height="47.7525" rx="9.95761" transform="rotate(-180 253.021 406.445)" stroke="#56F1B3" stroke-width="7"/>
<rect x="67.4028" y="441.434" width="19.9152" height="47.7525" rx="9.95761" transform="rotate(-180 67.4028 441.434)" stroke="#56F1B3" stroke-width="7"/>
<path d="M110.423 297.383L110.423 310.445C110.423 314.85 106.852 318.422 102.446 318.422V318.422C98.0403 318.422 94.4688 314.85 94.4688 310.445L94.4688 282.167C94.4688 277.762 98.0403 274.19 102.446 274.19V274.19C106.852 274.19 110.423 277.762 110.423 282.167L110.423 285.418" stroke="#56F1B3" stroke-width="7"/>
<path d="M125.002 328.654L155.425 328.654C160.955 328.654 165.438 324.172 165.438 318.642L165.438 317.954C165.438 312.804 161.263 308.629 156.113 308.629V308.629C150.963 308.629 146.788 312.804 146.788 317.954L146.788 318.367" stroke="#56F1B3" stroke-width="7"/>
<rect x="266.114" y="331.515" width="15.184" height="15.184" rx="7.59199" transform="rotate(-180 266.114 331.515)" stroke="#56F1B3" stroke-width="7"/>
<rect x="326.456" y="168.477" width="15.184" height="15.184" rx="7.59199" transform="rotate(-180 326.456 168.477)" stroke="#56F1B3" stroke-width="7"/>
<rect x="52.1078" y="255.815" width="33.4488" height="33.4488" rx="16.7244" transform="rotate(-180 52.1078 255.815)" stroke="#56F1B3" stroke-width="7"/>
<rect x="188.434" y="310.94" width="6.82179" height="6.82179" rx="3.41089" transform="rotate(-180 188.434 310.94)" fill="#56F1B3"/>
<rect x="97.8799" y="387.63" width="6.82179" height="6.82179" rx="3.41089" transform="rotate(-180 97.8799 387.63)" fill="#56F1B3"/>
<rect x="97.8799" y="400.503" width="6.82179" height="6.82179" rx="3.41089" transform="rotate(-180 97.8799 400.503)" fill="#56F1B3"/>
<path d="M200.427 353.301L200.427 379.763C200.427 385.262 204.885 389.72 210.385 389.72V389.72C215.884 389.72 220.342 385.262 220.342 379.763L220.342 375.967" stroke="#56F1B3" stroke-width="7"/>
<path d="M120.914 189.926L120.914 216.388C120.914 221.888 125.372 226.346 130.871 226.346V226.346C136.371 226.346 140.829 221.888 140.829 216.388L140.829 212.592" stroke="#56F1B3" stroke-width="7"/>
<path d="M140.351 411.946L140.351 391.316C140.351 387.032 143.824 383.559 148.108 383.559V383.559C152.393 383.559 155.865 387.032 155.865 391.316L155.865 394.279" stroke="#56F1B3" stroke-width="7"/>
<path d="M169.179 440.334L169.179 387.41C169.179 376.168 160.066 367.055 148.824 367.055V367.055C137.582 367.055 128.469 376.168 128.469 387.41L128.469 394.728" stroke="#56F1B3" stroke-width="7"/>
<path d="M122.747 315.836L122.747 281.232C122.747 269.99 113.634 260.877 102.392 260.877V260.877C91.15 260.877 82.0366 269.99 82.0366 281.232L82.0366 288.55" stroke="#56F1B3" stroke-width="7"/>
<path d="M201.032 403.804V403.804C191.948 403.804 184.583 396.44 184.583 387.355L184.583 337.457" stroke="#56F1B3" stroke-width="7"/>
<path d="M121.519 240.429V240.429C112.434 240.429 105.069 233.065 105.069 223.98L105.069 174.082" stroke="#56F1B3" stroke-width="7"/>
<path d="M126.488 403.804V403.804C117.372 403.804 109.983 396.415 109.983 387.3L109.983 328.654" stroke="#56F1B3" stroke-width="7"/>
<path d="M194.265 308.189V308.189C203.988 308.189 211.87 316.071 211.87 325.794L211.87 338.777" stroke="#56F1B3" stroke-width="7"/>
<path d="M47.4868 270.229V270.229C60.8556 270.229 71.6932 259.392 71.6932 246.023L71.6932 226.988" stroke="#56F1B3" stroke-width="7"/>
<path d="M79.4501 328.269V328.269C79.4501 341.638 68.6125 352.476 55.2437 352.476L36.2087 352.476" stroke="#56F1B3" stroke-width="7"/>
<path d="M82.1462 302.756L82.1462 307.263C82.1462 311.967 78.3327 315.781 73.6284 315.781V315.781C68.9241 315.781 65.1106 311.967 65.1106 307.263L65.1106 303.577C65.1106 299.318 61.658 295.866 57.3991 295.866V295.866C53.1402 295.866 49.6877 299.318 49.6877 303.577L49.6877 306.374" stroke="#56F1B3" stroke-width="7"/>
<path d="M57.8301 376.187V376.187C71.1989 376.187 82.0364 387.025 82.0364 400.393L82.0364 419.428" stroke="#56F1B3" stroke-width="7"/>
<path d="M120.987 350.77L131.88 350.77C139.233 350.77 145.193 344.81 145.193 337.457V337.457" stroke="#56F1B3" stroke-width="7"/>
<path d="M265.784 364.414V364.414C265.784 352.017 255.735 341.968 243.338 341.968L242.788 341.968C230.391 341.968 220.342 352.017 220.342 364.414V364.414" stroke="#56F1B3" stroke-width="7"/>
<rect x="155.535" y="198.49" width="19.9152" height="47.7525" rx="9.95761" stroke="#56F1B3" stroke-width="7"/>
<rect x="341.154" y="163.501" width="19.9152" height="47.7525" rx="9.95761" stroke="#56F1B3" stroke-width="7"/>
<path d="M298.132 307.552L298.132 294.491C298.132 290.085 301.704 286.513 306.109 286.513V286.513C310.515 286.513 314.086 290.085 314.086 294.491L314.086 322.768C314.086 327.174 310.515 330.745 306.109 330.745V330.745C301.704 330.745 298.132 327.174 298.132 322.768L298.132 319.517" stroke="#56F1B3" stroke-width="7"/>
<path d="M283.554 276.281L253.131 276.281C247.601 276.281 243.118 280.764 243.118 286.293L243.118 286.981C243.118 292.131 247.293 296.306 252.443 296.306V296.306C257.593 296.306 261.768 292.131 261.768 286.981L261.768 286.568" stroke="#56F1B3" stroke-width="7"/>
<path d="M343.896 113.242L313.473 113.242C307.944 113.242 303.461 117.725 303.461 123.255L303.461 123.942C303.461 129.092 307.636 133.267 312.786 133.267V133.267C317.936 133.267 322.111 129.092 322.111 123.942L322.111 123.53" stroke="#56F1B3" stroke-width="7"/>
<rect x="142.442" y="273.42" width="15.184" height="15.184" rx="7.59199" stroke="#56F1B3" stroke-width="7"/>
<rect x="356.448" y="349.12" width="33.4488" height="33.4488" rx="16.7244" stroke="#56F1B3" stroke-width="7"/>
<rect x="220.122" y="293.995" width="6.82179" height="6.82179" rx="3.41089" fill="#56F1B3"/>
<rect x="310.676" y="217.305" width="6.82179" height="6.82179" rx="3.41089" fill="#56F1B3"/>
<rect x="310.676" y="204.432" width="6.82179" height="6.82179" rx="3.41089" fill="#56F1B3"/>
<path d="M208.13 251.634L208.13 225.172C208.13 219.673 203.672 215.215 198.172 215.215V215.215C192.673 215.215 188.214 219.673 188.214 225.172L188.214 228.968" stroke="#56F1B3" stroke-width="7"/>
<path d="M268.205 192.989L268.205 213.619C268.205 217.903 264.732 221.376 260.448 221.376V221.376C256.164 221.376 252.691 217.903 252.691 213.619L252.691 210.656" stroke="#56F1B3" stroke-width="7"/>
<path d="M239.377 164.601L239.377 217.525C239.377 228.767 248.49 237.881 259.732 237.881V237.881C270.974 237.881 280.088 228.767 280.088 217.525L280.088 210.207" stroke="#56F1B3" stroke-width="7"/>
<path d="M285.81 289.099L285.81 323.703C285.81 334.945 294.923 344.059 306.165 344.059V344.059C317.407 344.059 326.52 334.945 326.52 323.703L326.52 316.385" stroke="#56F1B3" stroke-width="7"/>
<path d="M207.524 201.131V201.131C216.609 201.131 223.973 208.496 223.973 217.58L223.973 267.478" stroke="#56F1B3" stroke-width="7"/>
<path d="M282.068 201.131V201.131C291.184 201.131 298.573 208.52 298.573 217.636L298.573 276.281" stroke="#56F1B3" stroke-width="7"/>
<path d="M214.291 296.746V296.746C204.568 296.746 196.686 288.864 196.686 279.141L196.686 266.158" stroke="#56F1B3" stroke-width="7"/>
<path d="M361.069 334.706V334.706C347.7 334.706 336.862 345.544 336.862 358.913L336.862 377.948" stroke="#56F1B3" stroke-width="7"/>
<path d="M329.106 276.666V276.666C329.106 263.297 339.944 252.459 353.313 252.459L372.348 252.459" stroke="#56F1B3" stroke-width="7"/>
<path d="M326.411 302.179L326.411 297.672C326.411 292.968 330.224 289.154 334.928 289.154V289.154C339.633 289.154 343.446 292.968 343.446 297.672L343.446 301.358C343.446 305.617 346.899 309.069 351.158 309.069V309.069C355.417 309.069 358.869 305.617 358.869 301.358L358.869 298.562" stroke="#56F1B3" stroke-width="7"/>
<path d="M350.727 228.748V228.748C337.358 228.748 326.52 217.911 326.52 204.542L326.52 185.507" stroke="#56F1B3" stroke-width="7"/>
<path d="M287.57 254.165L276.677 254.165C269.325 254.165 263.364 260.126 263.364 267.478V267.478" stroke="#56F1B3" stroke-width="7"/>
<path d="M142.772 240.521V240.521C142.772 252.918 152.822 262.967 165.218 262.967L165.768 262.967C178.165 262.967 188.214 252.918 188.214 240.521V240.521" stroke="#56F1B3" stroke-width="7"/>
</g>
<g opacity="0.2">
<rect x="238.287" y="651.768" width="19.9152" height="47.7525" rx="9.95761" transform="rotate(-180 238.287 651.768)" stroke="#56F1B3" stroke-width="7"/>
<rect x="52.6678" y="686.757" width="19.9152" height="47.7525" rx="9.95761" transform="rotate(-180 52.6678 686.757)" stroke="#56F1B3" stroke-width="7"/>
<path d="M95.6893 542.707L95.6893 555.768C95.6893 560.174 92.1179 563.745 87.7122 563.745V563.745C83.3066 563.745 79.7351 560.174 79.7351 555.768L79.7351 527.491C79.7351 523.085 83.3066 519.514 87.7122 519.514V519.514C92.1179 519.514 95.6893 523.085 95.6893 527.491L95.6893 530.742" stroke="#56F1B3" stroke-width="7"/>
<path d="M110.269 573.978L140.692 573.978C146.221 573.978 150.704 569.495 150.704 563.965L150.704 563.278C150.704 558.128 146.529 553.953 141.379 553.953V553.953C136.229 553.953 132.054 558.128 132.054 563.278L132.054 563.69" stroke="#56F1B3" stroke-width="7"/>
<rect x="251.38" y="576.839" width="15.184" height="15.184" rx="7.59199" transform="rotate(-180 251.38 576.839)" stroke="#56F1B3" stroke-width="7"/>
<rect x="311.723" y="413.8" width="15.184" height="15.184" rx="7.59199" transform="rotate(-180 311.723 413.8)" stroke="#56F1B3" stroke-width="7"/>
<rect x="37.3737" y="501.139" width="33.4488" height="33.4488" rx="16.7244" transform="rotate(-180 37.3737 501.139)" stroke="#56F1B3" stroke-width="7"/>
<rect x="173.7" y="556.263" width="6.82179" height="6.82179" rx="3.41089" transform="rotate(-180 173.7 556.263)" fill="#56F1B3"/>
<rect x="83.1462" y="632.953" width="6.82179" height="6.82179" rx="3.41089" transform="rotate(-180 83.1462 632.953)" fill="#56F1B3"/>
<rect x="83.1462" y="645.827" width="6.82179" height="6.82179" rx="3.41089" transform="rotate(-180 83.1462 645.827)" fill="#56F1B3"/>
<path d="M185.693 598.624L185.693 625.086C185.693 630.586 190.151 635.044 195.651 635.044V635.044C201.15 635.044 205.608 630.586 205.608 625.086L205.608 621.29" stroke="#56F1B3" stroke-width="7"/>
<path d="M106.179 435.25L106.179 461.712C106.179 467.211 110.638 471.669 116.137 471.669V471.669C121.636 471.669 126.095 467.211 126.095 461.712L126.095 457.916" stroke="#56F1B3" stroke-width="7"/>
<path d="M125.617 657.27L125.617 636.639C125.617 632.355 129.09 628.882 133.374 628.882V628.882C137.658 628.882 141.131 632.355 141.131 636.639L141.131 639.603" stroke="#56F1B3" stroke-width="7"/>
<path d="M154.445 685.657L154.445 632.733C154.445 621.491 145.331 612.378 134.089 612.378V612.378C122.848 612.378 113.734 621.491 113.734 632.733L113.734 640.051" stroke="#56F1B3" stroke-width="7"/>
<path d="M108.013 561.159L108.013 526.555C108.013 515.313 98.8994 506.2 87.6575 506.2V506.2C76.4155 506.2 67.3021 515.313 67.3021 526.555L67.3021 533.873" stroke="#56F1B3" stroke-width="7"/>
<path d="M186.298 649.128V649.128C177.213 649.128 169.849 641.763 169.849 632.678L169.849 582.78" stroke="#56F1B3" stroke-width="7"/>
<path d="M106.785 485.753V485.753C97.7006 485.753 90.336 478.388 90.336 469.303L90.336 419.405" stroke="#56F1B3" stroke-width="7"/>
<path d="M111.754 649.127V649.127C102.639 649.127 95.2495 641.738 95.2495 632.623L95.2495 573.978" stroke="#56F1B3" stroke-width="7"/>
<path d="M179.531 553.512V553.512C189.254 553.512 197.136 561.394 197.136 571.117L197.136 584.1" stroke="#56F1B3" stroke-width="7"/>
<path d="M32.7527 515.553V515.553C46.1215 515.553 56.959 504.715 56.959 491.346L56.959 472.311" stroke="#56F1B3" stroke-width="7"/>
<path d="M64.7164 573.593V573.593C64.7164 586.962 53.8789 597.799 40.5101 597.799L21.4751 597.799" stroke="#56F1B3" stroke-width="7"/>
<path d="M67.4121 548.079L67.4121 552.587C67.4121 557.291 63.5985 561.104 58.8943 561.104V561.104C54.19 561.104 50.3764 557.291 50.3764 552.587L50.3764 548.901C50.3764 544.642 46.9239 541.189 42.665 541.189V541.189C38.4061 541.189 34.9536 544.642 34.9536 548.901L34.9536 551.697" stroke="#56F1B3" stroke-width="7"/>
<path d="M43.0955 621.51V621.51C56.4643 621.51 67.3018 632.348 67.3018 645.717L67.3018 664.752" stroke="#56F1B3" stroke-width="7"/>
<path d="M106.253 596.094L117.146 596.094C124.499 596.094 130.459 590.133 130.459 582.78V582.78" stroke="#56F1B3" stroke-width="7"/>
<path d="M251.05 609.737V609.737C251.05 597.341 241.001 587.291 228.604 587.291L228.054 587.291C215.657 587.291 205.608 597.341 205.608 609.737V609.737" stroke="#56F1B3" stroke-width="7"/>
<rect x="140.801" y="443.814" width="19.9152" height="47.7525" rx="9.95761" stroke="#56F1B3" stroke-width="7"/>
<rect x="326.42" y="408.825" width="19.9152" height="47.7525" rx="9.95761" stroke="#56F1B3" stroke-width="7"/>
<path d="M283.399 552.875L283.399 539.814C283.399 535.408 286.971 531.837 291.376 531.837V531.837C295.782 531.837 299.353 535.408 299.353 539.814L299.353 568.091C299.353 572.497 295.782 576.069 291.376 576.069V576.069C286.971 576.069 283.399 572.497 283.399 568.091L283.399 564.84" stroke="#56F1B3" stroke-width="7"/>
<path d="M268.82 521.604L238.397 521.604C232.867 521.604 228.385 526.087 228.385 531.617L228.385 532.304C228.385 537.455 232.559 541.629 237.709 541.629V541.629C242.859 541.629 247.034 537.455 247.034 532.304L247.034 531.892" stroke="#56F1B3" stroke-width="7"/>
<path d="M329.162 358.565L298.739 358.565C293.209 358.565 288.726 363.048 288.726 368.578L288.726 369.266C288.726 374.416 292.901 378.591 298.051 378.591V378.591C303.201 378.591 307.376 374.416 307.376 369.266L307.376 368.853" stroke="#56F1B3" stroke-width="7"/>
<rect x="127.708" y="518.743" width="15.184" height="15.184" rx="7.59199" stroke="#56F1B3" stroke-width="7"/>
<rect x="341.715" y="594.443" width="33.4488" height="33.4488" rx="16.7244" stroke="#56F1B3" stroke-width="7"/>
<rect x="205.389" y="539.319" width="6.82179" height="6.82179" rx="3.41089" fill="#56F1B3"/>
<rect x="295.943" y="462.629" width="6.82179" height="6.82179" rx="3.41089" fill="#56F1B3"/>
<rect x="295.943" y="449.755" width="6.82179" height="6.82179" rx="3.41089" fill="#56F1B3"/>
<path d="M193.395 496.958L193.395 470.496C193.395 464.996 188.937 460.538 183.438 460.538V460.538C177.938 460.538 173.48 464.996 173.48 470.496L173.48 474.292" stroke="#56F1B3" stroke-width="7"/>
<path d="M253.471 438.312L253.471 458.943C253.471 463.227 249.998 466.7 245.714 466.7V466.7C241.43 466.7 237.957 463.227 237.957 458.943L237.957 455.979" stroke="#56F1B3" stroke-width="7"/>
<path d="M224.643 409.925L224.643 462.849C224.643 474.091 233.756 483.204 244.998 483.204V483.204C256.24 483.204 265.353 474.091 265.353 462.849L265.353 455.531" stroke="#56F1B3" stroke-width="7"/>
<path d="M271.075 534.423L271.075 569.027C271.075 580.269 280.188 589.382 291.43 589.382V589.382C302.672 589.382 311.786 580.269 311.786 569.027L311.786 561.709" stroke="#56F1B3" stroke-width="7"/>
<path d="M192.79 446.455V446.455C201.875 446.455 209.239 453.819 209.239 462.904L209.239 512.802" stroke="#56F1B3" stroke-width="7"/>
<path d="M267.335 446.455V446.455C276.45 446.455 283.839 453.844 283.839 462.959L283.839 521.604" stroke="#56F1B3" stroke-width="7"/>
<path d="M199.557 542.07V542.07C189.835 542.07 181.953 534.188 181.953 524.465L181.953 511.481" stroke="#56F1B3" stroke-width="7"/>
<path d="M346.336 580.03V580.03C332.967 580.03 322.13 590.867 322.13 604.236L322.13 623.271" stroke="#56F1B3" stroke-width="7"/>
<path d="M314.372 521.989V521.989C314.372 508.62 325.21 497.783 338.579 497.783L357.614 497.783" stroke="#56F1B3" stroke-width="7"/>
<path d="M311.677 547.503L311.677 542.995C311.677 538.291 315.49 534.478 320.194 534.478V534.478C324.899 534.478 328.712 538.291 328.712 542.995L328.712 546.681C328.712 550.94 332.165 554.393 336.424 554.393V554.393C340.683 554.393 344.135 550.94 344.135 546.681L344.135 543.885" stroke="#56F1B3" stroke-width="7"/>
<path d="M335.993 474.072V474.072C322.624 474.072 311.786 463.234 311.786 449.865L311.786 430.83" stroke="#56F1B3" stroke-width="7"/>
<path d="M272.836 499.488L261.943 499.488C254.591 499.488 248.63 505.449 248.63 512.802V512.802" stroke="#56F1B3" stroke-width="7"/>
<path d="M128.038 485.845V485.845C128.038 498.241 138.088 508.291 150.484 508.291L151.034 508.291C163.431 508.291 173.48 498.241 173.48 485.845V485.845" stroke="#56F1B3" stroke-width="7"/>
<rect x="215.362" y="896.01" width="19.9152" height="47.7525" rx="9.95761" transform="rotate(-180 215.362 896.01)" stroke="#56F1B3" stroke-width="7"/>
<path d="M72.7644 786.949L72.7644 800.01C72.7644 804.416 69.1929 807.987 64.7873 807.987V807.987C60.3817 807.987 56.8102 804.416 56.8102 800.01L56.8102 771.732C56.8102 767.327 60.3817 763.755 64.7873 763.755V763.755C69.1929 763.755 72.7644 767.327 72.7644 771.732L72.7644 774.983" stroke="#56F1B3" stroke-width="7"/>
<path d="M87.3432 818.22L117.766 818.22C123.296 818.22 127.779 813.737 127.779 808.207L127.779 807.519C127.779 802.369 123.604 798.194 118.454 798.194V798.194C113.304 798.194 109.129 802.369 109.129 807.519L109.129 807.932" stroke="#56F1B3" stroke-width="7"/>
<rect x="228.455" y="821.08" width="15.184" height="15.184" rx="7.59199" transform="rotate(-180 228.455 821.08)" stroke="#56F1B3" stroke-width="7"/>
<rect x="288.797" y="658.042" width="15.184" height="15.184" rx="7.59199" transform="rotate(-180 288.797 658.042)" stroke="#56F1B3" stroke-width="7"/>
<rect x="14.4484" y="745.381" width="33.4488" height="33.4488" rx="16.7244" transform="rotate(-180 14.4484 745.381)" stroke="#56F1B3" stroke-width="7"/>
<rect x="150.775" y="800.505" width="6.82179" height="6.82179" rx="3.41089" transform="rotate(-180 150.775 800.505)" fill="#56F1B3"/>
<rect x="60.2208" y="877.195" width="6.82179" height="6.82179" rx="3.41089" transform="rotate(-180 60.2208 877.195)" fill="#56F1B3"/>
<path d="M162.767 842.866L162.767 869.328C162.767 874.827 167.225 879.286 172.725 879.286V879.286C178.224 879.286 182.682 874.827 182.682 869.328L182.682 865.532" stroke="#56F1B3" stroke-width="7"/>
<path d="M83.2545 679.491L83.2545 705.953C83.2544 711.453 87.7126 715.911 93.2121 715.911V715.911C98.7115 715.911 103.17 711.453 103.17 705.953L103.17 702.157" stroke="#56F1B3" stroke-width="7"/>
<path d="M102.692 901.511L102.692 880.881C102.692 876.597 106.165 873.124 110.449 873.124V873.124C114.733 873.124 118.206 876.597 118.206 880.881L118.206 883.844" stroke="#56F1B3" stroke-width="7"/>
<path d="M131.519 929.899L131.519 876.975C131.519 865.733 122.406 856.62 111.164 856.62V856.62C99.9221 856.62 90.8087 865.733 90.8087 876.975L90.8087 884.293" stroke="#56F1B3" stroke-width="7"/>
<path d="M85.0874 805.401L85.0874 770.797C85.0874 759.555 75.974 750.442 64.732 750.442V750.442C53.4901 750.442 44.3767 759.555 44.3767 770.797L44.3767 778.115" stroke="#56F1B3" stroke-width="7"/>
<path d="M163.373 893.37V893.37C154.288 893.37 146.924 886.005 146.924 876.92L146.924 827.022" stroke="#56F1B3" stroke-width="7"/>
<path d="M83.8595 729.995V729.995C74.7748 729.995 67.4102 722.63 67.4102 713.545L67.4102 663.647" stroke="#56F1B3" stroke-width="7"/>
<path d="M88.8289 893.37V893.37C79.7138 893.37 72.3245 885.98 72.3245 876.865L72.3245 818.22" stroke="#56F1B3" stroke-width="7"/>
<path d="M156.606 797.754V797.754C166.329 797.754 174.211 805.636 174.211 815.359L174.211 828.342" stroke="#56F1B3" stroke-width="7"/>
<path d="M9.82776 759.794V759.794C23.1966 759.794 34.0341 748.957 34.0341 735.588L34.0341 716.553" stroke="#56F1B3" stroke-width="7"/>
<path d="M41.791 817.835V817.835C41.791 831.203 30.9535 842.041 17.5847 842.041L-1.45034 842.041" stroke="#56F1B3" stroke-width="7"/>
<path d="M44.4872 792.321L44.4872 796.828C44.4872 801.533 40.6736 805.346 35.9693 805.346V805.346C31.2651 805.346 27.4515 801.533 27.4515 796.828L27.4515 793.142C27.4515 788.884 23.999 785.431 19.7401 785.431V785.431C15.4812 785.431 12.0287 788.884 12.0287 793.142L12.0287 795.939" stroke="#56F1B3" stroke-width="7"/>
<path d="M20.1702 865.752V865.752C33.539 865.752 44.3765 876.59 44.3765 889.958L44.3765 908.993" stroke="#56F1B3" stroke-width="7"/>
<path d="M83.3271 840.336L94.22 840.336C101.573 840.336 107.533 834.375 107.534 827.022V827.022" stroke="#56F1B3" stroke-width="7"/>
<path d="M228.125 853.979V853.979C228.125 841.582 218.076 831.533 205.679 831.533L205.129 831.533C192.732 831.533 182.683 841.582 182.683 853.979V853.979" stroke="#56F1B3" stroke-width="7"/>
<rect x="117.876" y="688.055" width="19.9152" height="47.7525" rx="9.95761" stroke="#56F1B3" stroke-width="7"/>
<rect x="303.495" y="653.066" width="19.9152" height="47.7525" rx="9.95761" stroke="#56F1B3" stroke-width="7"/>
<path d="M260.473 797.117L260.473 784.056C260.473 779.65 264.045 776.079 268.45 776.079V776.079C272.856 776.079 276.427 779.65 276.427 784.056L276.427 812.333C276.427 816.739 272.856 820.31 268.45 820.31V820.31C264.045 820.31 260.473 816.739 260.473 812.333L260.473 809.082" stroke="#56F1B3" stroke-width="7"/>
<path d="M245.895 765.846L215.472 765.846C209.942 765.846 205.459 770.329 205.459 775.859L205.459 776.546C205.459 781.696 209.634 785.871 214.784 785.871V785.871C219.934 785.871 224.109 781.696 224.109 776.546L224.109 776.134" stroke="#56F1B3" stroke-width="7"/>
<path d="M306.237 602.807L275.814 602.807C270.285 602.807 265.802 607.29 265.802 612.82L265.802 613.508C265.802 618.658 269.977 622.833 275.127 622.833V622.833C280.277 622.833 284.452 618.658 284.452 613.508L284.452 613.095" stroke="#56F1B3" stroke-width="7"/>
<rect x="104.783" y="762.985" width="15.184" height="15.184" rx="7.59199" stroke="#56F1B3" stroke-width="7"/>
<rect x="318.789" y="838.685" width="33.4488" height="33.4488" rx="16.7244" stroke="#56F1B3" stroke-width="7"/>
<rect x="182.464" y="783.561" width="6.82179" height="6.82179" rx="3.41089" fill="#56F1B3"/>
<rect x="273.017" y="706.87" width="6.82179" height="6.82179" rx="3.41089" fill="#56F1B3"/>
<rect x="273.017" y="693.997" width="6.82179" height="6.82179" rx="3.41089" fill="#56F1B3"/>
<path d="M170.47 741.199L170.47 714.738C170.47 709.238 166.012 704.78 160.513 704.78V704.78C155.013 704.78 150.555 709.238 150.555 714.738L150.555 718.534" stroke="#56F1B3" stroke-width="7"/>
<path d="M230.546 682.554L230.546 703.185C230.546 707.469 227.073 710.942 222.789 710.942V710.942C218.505 710.942 215.032 707.469 215.032 703.185L215.032 700.221" stroke="#56F1B3" stroke-width="7"/>
<path d="M201.718 654.167L201.718 707.091C201.718 718.333 210.831 727.446 222.073 727.446V727.446C233.315 727.446 242.428 718.333 242.428 707.091L242.428 699.773" stroke="#56F1B3" stroke-width="7"/>
<path d="M248.151 778.664L248.151 813.268C248.151 824.51 257.264 833.624 268.506 833.624V833.624C279.748 833.624 288.861 824.51 288.861 813.268L288.861 805.95" stroke="#56F1B3" stroke-width="7"/>
<path d="M169.865 690.696V690.696C178.949 690.696 186.314 698.061 186.314 707.146L186.314 757.044" stroke="#56F1B3" stroke-width="7"/>
<path d="M244.409 690.696V690.696C253.525 690.696 260.914 698.086 260.914 707.201L260.914 765.846" stroke="#56F1B3" stroke-width="7"/>
<path d="M176.632 786.311V786.311C166.909 786.311 159.027 778.43 159.027 768.707L159.027 755.723" stroke="#56F1B3" stroke-width="7"/>
<path d="M323.409 824.271V824.271C310.041 824.271 299.203 835.109 299.203 848.478L299.203 867.513" stroke="#56F1B3" stroke-width="7"/>
<path d="M291.447 766.231V766.231C291.447 752.862 302.285 742.025 315.654 742.025L334.689 742.025" stroke="#56F1B3" stroke-width="7"/>
<path d="M288.751 791.745L288.751 787.237C288.751 782.533 292.565 778.719 297.269 778.719V778.719C301.973 778.719 305.787 782.533 305.787 787.237L305.787 790.923C305.787 795.182 309.239 798.635 313.498 798.635V798.635C317.757 798.635 321.21 795.182 321.21 790.923L321.21 788.127" stroke="#56F1B3" stroke-width="7"/>
<path d="M313.068 718.313V718.313C299.699 718.313 288.861 707.476 288.861 694.107L288.861 675.072" stroke="#56F1B3" stroke-width="7"/>
<path d="M249.911 743.73L239.018 743.73C231.666 743.73 225.705 749.691 225.705 757.044V757.044" stroke="#56F1B3" stroke-width="7"/>
<path d="M105.113 730.087V730.087C105.113 742.483 115.162 752.533 127.559 752.533L128.109 752.533C140.505 752.533 150.555 742.483 150.555 730.087V730.087" stroke="#56F1B3" stroke-width="7"/>
</g>
</svg>
