<svg width="388" height="292" viewBox="0 0 388 292" fill="none" xmlns="http://www.w3.org/2000/svg">
<rect x="136.235" y="11.682" width="22.5863" height="54.1573" rx="11.2932" stroke="#B8A16B" stroke-width="8"/>
<rect x="346.748" y="-28" width="22.5863" height="54.1573" rx="11.2932" stroke="#18BC7A" stroke-width="8"/>
<path d="M297.958 135.371V120.558C297.958 115.562 302.008 111.511 307.005 111.511V111.511C312.002 111.511 316.052 115.562 316.052 120.558V152.628C316.052 157.625 312.002 161.675 307.005 161.675V161.675C302.008 161.675 297.958 157.625 297.958 152.628L297.958 148.941" stroke="#B8A16B" stroke-width="8"/>
<path d="M281.423 99.906H246.92C240.648 99.906 235.564 104.99 235.564 111.262V112.041C235.564 117.882 240.299 122.617 246.14 122.617V122.617C251.981 122.617 256.716 117.882 256.716 112.041V111.574" stroke="#18BC7A" stroke-width="8"/>
<rect x="121.385" y="96.6615" width="17.2205" height="17.2205" rx="8.61026" stroke="#B8A16B" stroke-width="8"/>
<rect x="364.094" y="182.515" width="37.935" height="37.935" rx="18.9675" stroke="#18BC7A" stroke-width="8"/>
<rect x="209.484" y="119.997" width="7.73675" height="7.73675" rx="3.86838" fill="#B8A16B"/>
<rect x="312.183" y="33.0205" width="7.73675" height="7.73675" rx="3.86838" fill="#B8A16B"/>
<rect x="312.183" y="18.4205" width="7.73675" height="7.73675" rx="3.86838" fill="#B8A16B"/>
<path d="M195.883 71.9538V41.9427C195.883 35.7057 190.827 30.6495 184.59 30.6495V30.6495C178.353 30.6495 173.296 35.7057 173.296 41.9427V46.2478" stroke="#18BC7A" stroke-width="8"/>
<path d="M264.016 5.44283L264.016 28.8403C264.016 33.699 260.077 37.6377 255.218 37.6377V37.6377C250.36 37.6377 246.421 33.6989 246.421 28.8403L246.421 25.4795" stroke="#18BC7A" stroke-width="8"/>
<path d="M231.322 -26.7522L231.322 33.27C231.322 46.0198 241.657 56.3555 254.407 56.3555V56.3555C267.157 56.3555 277.493 46.0198 277.493 33.27L277.493 24.9704" stroke="#18BC7A" stroke-width="8"/>
<path d="M283.981 114.444L283.981 153.689C283.981 166.439 294.317 176.774 307.067 176.774V176.774C319.817 176.774 330.152 166.439 330.152 153.689L330.152 145.389" stroke="#18BC7A" stroke-width="8"/>
<path d="M195.196 14.677V14.677C205.499 14.677 213.852 23.0294 213.852 33.3326V89.9231" stroke="#B8A16B" stroke-width="8"/>
<path d="M279.738 14.677V14.677C290.076 14.677 298.456 23.0573 298.456 33.395V99.906" stroke="#18BC7A" stroke-width="8"/>
<path d="M202.871 123.116V123.116C191.844 123.116 182.905 114.177 182.905 103.15L182.905 88.4256" stroke="#18BC7A" stroke-width="8"/>
<path d="M369.335 166.167V166.167C354.173 166.167 341.882 178.459 341.882 193.62L341.882 215.208" stroke="#18BC7A" stroke-width="8"/>
<path d="M333.085 100.343V100.343C333.085 85.1809 345.376 72.8898 360.538 72.8898L382.126 72.8898" stroke="#B8A16B" stroke-width="8"/>
<path d="M330.027 129.278V124.166C330.027 118.831 334.352 114.506 339.688 114.506V114.506C345.023 114.506 349.348 118.831 349.348 124.166V128.347C349.348 133.177 353.263 137.092 358.094 137.092V137.092C362.924 137.092 366.839 133.177 366.839 128.347V125.175" stroke="#18BC7A" stroke-width="8"/>
<path d="M357.605 45.9983V45.9983C342.444 45.9983 330.152 33.7072 330.152 18.5453L330.152 -3.04273" stroke="#B8A16B" stroke-width="8"/>
<path d="M285.978 74.824L273.624 74.824C265.285 74.824 258.525 81.5841 258.525 89.9231V89.9231" stroke="#B8A16B" stroke-width="8"/>
<path d="M121.759 59.3505V59.3505C121.759 73.4096 133.157 84.8069 147.216 84.8069H147.84C161.899 84.8069 173.296 73.4096 173.296 59.3505V59.3505" stroke="#18BC7A" stroke-width="8"/>
<rect x="246.795" y="247.528" width="22.5863" height="54.1573" rx="11.2932" transform="rotate(-180 246.795 247.528)" stroke="#B8A16B" stroke-width="8"/>
<rect x="36.2808" y="287.21" width="22.5863" height="54.1573" rx="11.2932" transform="rotate(-180 36.2808 287.21)" stroke="#18BC7A" stroke-width="8"/>
<path d="M85.0718 123.839L85.0718 138.652C85.0718 143.649 81.0213 147.699 76.0248 147.699V147.699C71.0282 147.699 66.9778 143.649 66.9778 138.652L66.9778 106.582C66.9778 101.585 71.0283 97.5349 76.0248 97.5349V97.5349C81.0213 97.5349 85.0718 101.585 85.0718 106.582L85.0718 110.269" stroke="#B8A16B" stroke-width="8"/>
<path d="M101.606 159.304L136.11 159.304C142.381 159.304 147.465 154.22 147.465 147.949L147.465 147.169C147.465 141.328 142.73 136.593 136.89 136.593V136.593C131.049 136.593 126.314 141.328 126.314 147.169L126.314 147.637" stroke="#18BC7A" stroke-width="8"/>
<rect x="261.645" y="162.549" width="17.2205" height="17.2205" rx="8.61026" transform="rotate(-180 261.645 162.549)" stroke="#B8A16B" stroke-width="8"/>
<rect x="173.545" y="139.214" width="7.73675" height="7.73675" rx="3.86838" transform="rotate(-180 173.545 139.214)" fill="#B8A16B"/>
<rect x="70.8462" y="226.19" width="7.73675" height="7.73675" rx="3.86838" transform="rotate(-180 70.8462 226.19)" fill="#B8A16B"/>
<rect x="70.8462" y="240.79" width="7.73675" height="7.73675" rx="3.86838" transform="rotate(-180 70.8462 240.79)" fill="#B8A16B"/>
<path d="M187.147 187.256L187.147 217.267C187.147 223.504 192.203 228.561 198.44 228.561V228.561C204.677 228.561 209.733 223.504 209.733 217.267L209.733 212.962" stroke="#18BC7A" stroke-width="8"/>
<path d="M119.014 253.767L119.014 230.37C119.014 225.511 122.953 221.573 127.811 221.573V221.573C132.67 221.573 136.609 225.511 136.609 230.37L136.609 233.731" stroke="#18BC7A" stroke-width="8"/>
<path d="M151.709 285.962L151.709 225.94C151.709 213.19 141.373 202.855 128.623 202.855V202.855C115.873 202.855 105.538 213.19 105.538 225.94L105.538 234.24" stroke="#18BC7A" stroke-width="8"/>
<path d="M99.0484 144.767L99.0484 105.521C99.0484 92.7716 88.7126 82.4359 75.9629 82.4359V82.4359C63.2132 82.4359 52.8774 92.7716 52.8774 105.521L52.8774 113.821" stroke="#18BC7A" stroke-width="8"/>
<path d="M187.833 244.533V244.533C177.53 244.533 169.178 236.181 169.178 225.878L169.178 169.287" stroke="#B8A16B" stroke-width="8"/>
<path d="M103.291 244.533V244.533C92.9531 244.533 84.5728 236.153 84.5728 225.815L84.5728 159.304" stroke="#18BC7A" stroke-width="8"/>
<path d="M180.159 136.094V136.094C191.186 136.094 200.124 145.033 200.124 156.06L200.124 170.785" stroke="#18BC7A" stroke-width="8"/>
<path d="M49.9441 158.867V158.867C49.9441 174.029 37.653 186.32 22.4911 186.32L0.903069 186.32" stroke="#B8A16B" stroke-width="8"/>
<path d="M53.0015 129.932L53.0015 135.044C53.0015 140.379 48.6764 144.704 43.3412 144.704V144.704C38.006 144.704 33.6809 140.379 33.6809 135.044L33.6809 130.864C33.6809 126.033 29.7653 122.118 24.9352 122.118V122.118C20.1051 122.118 16.1895 126.033 16.1895 130.864L16.1895 134.035" stroke="#18BC7A" stroke-width="8"/>
<path d="M25.4233 213.212V213.212C40.5852 213.212 52.8763 225.503 52.8763 240.665L52.8763 262.253" stroke="#B8A16B" stroke-width="8"/>
<path d="M97.051 184.386L109.405 184.386C117.744 184.386 124.504 177.626 124.504 169.287V169.287" stroke="#B8A16B" stroke-width="8"/>
<path d="M261.27 199.86V199.86C261.27 185.801 249.873 174.403 235.814 174.403L235.19 174.403C221.131 174.403 209.733 185.801 209.733 199.86V199.86" stroke="#18BC7A" stroke-width="8"/>
</svg>
