<svg width="349" height="318" viewBox="0 0 349 318" fill="none" xmlns="http://www.w3.org/2000/svg">
<path fill-rule="evenodd" clip-rule="evenodd" d="M273.298 155.973V109.376C273.298 97.763 281.257 88.3485 291.08 88.3485C300.904 88.3485 308.869 97.763 308.869 109.376V115.819L303.616 115.82V109.376C303.616 101.193 298.001 94.5591 291.08 94.5591C284.159 94.5591 278.551 101.193 278.551 109.376V155.973H273.298Z" fill="#F7CC69" fill-opacity="0.24"/>
<path fill-rule="evenodd" clip-rule="evenodd" d="M294.764 130.979V112.815C294.764 110.758 293.359 109.09 291.619 109.09C289.879 109.09 288.467 110.758 288.467 112.815V115.424L283.214 115.424V112.815C283.214 107.328 286.977 102.88 291.619 102.88C296.255 102.88 300.018 107.328 300.018 112.815V130.979H294.764Z" fill="#F7CC69" fill-opacity="0.24"/>
<path fill-rule="evenodd" clip-rule="evenodd" d="M307.72 120.705C313.052 120.705 317.379 115.59 317.379 109.279V57.6449H322.633V109.279C322.633 119.02 315.954 126.916 307.72 126.916V120.705Z" fill="#F7CC69" fill-opacity="0.24"/>
<path fill-rule="evenodd" clip-rule="evenodd" d="M255.279 79.3447V102.643C255.279 109.2 250.781 114.515 245.239 114.515C239.69 114.515 235.192 109.2 235.192 102.643V99.3009H240.446V102.643C240.446 105.77 242.593 108.305 245.239 108.305C247.879 108.305 250.026 105.77 250.026 102.643V79.3447H255.279Z" fill="#F7CC69" fill-opacity="0.24"/>
<path fill-rule="evenodd" clip-rule="evenodd" d="M108.914 90.3888C108.914 80.548 115.674 72.5585 123.995 72.5585C132.319 72.5585 139.079 80.548 139.079 90.3888C139.079 100.23 132.319 108.219 123.995 108.219C115.674 108.219 108.914 100.23 108.914 90.3888ZM114.166 90.3888C114.166 96.8021 118.572 102.009 123.995 102.009C129.421 102.009 133.824 96.8021 133.824 90.3888C133.824 83.9759 129.421 78.7693 123.995 78.7693C118.572 78.7693 114.166 83.9759 114.166 90.3888Z" fill="#F7CC69" fill-opacity="0.24"/>
<path fill-rule="evenodd" clip-rule="evenodd" d="M133.018 59.8675C144.424 59.8675 153.669 70.7997 153.669 84.2852V101.045H148.416V84.2852C148.416 74.2295 141.521 66.0781 133.018 66.0781V59.8675Z" fill="#F7CC69" fill-opacity="0.24"/>
<path fill-rule="evenodd" clip-rule="evenodd" d="M201.355 89.1287C201.355 76.4995 210.01 66.2613 220.694 66.2613H221.107C231.785 66.2613 240.446 76.4995 240.446 89.1287H235.193C235.193 79.9293 228.889 72.4719 221.107 72.4719H220.694C212.913 72.4719 206.609 79.9293 206.609 89.1287H201.355Z" fill="#F7CC69" fill-opacity="0.24"/>
<path fill-rule="evenodd" clip-rule="evenodd" d="M191.689 22.8181V53.2858C191.689 64.8981 183.731 74.3126 173.907 74.3126C164.084 74.3126 156.119 64.8981 156.119 53.2858V46.8423H161.372V53.2858C161.372 61.4683 166.986 68.102 173.907 68.102C180.829 68.102 186.436 61.4683 186.436 53.2858V22.8181H191.689Z" fill="#F7CC69" fill-opacity="0.24"/>
<path fill-rule="evenodd" clip-rule="evenodd" d="M257.243 42.7316C251.451 42.7316 246.756 48.2807 246.756 55.1264V66.557H241.503V55.1264C241.503 44.8509 248.549 36.521 257.243 36.521V42.7316Z" fill="#F7CC69" fill-opacity="0.24"/>
<path fill-rule="evenodd" clip-rule="evenodd" d="M281.335 48.8289C281.335 51.9831 283.496 54.5395 286.169 54.5395L308.823 54.5395V60.7501L286.169 60.7501C280.6 60.7501 276.082 55.4129 276.082 48.8289H281.335Z" fill="#F7CC69" fill-opacity="0.24"/>
<path fill-rule="evenodd" clip-rule="evenodd" d="M343.363 34.8426V38.8112C343.363 41.2379 345.031 43.2052 347.08 43.2052C349.135 43.2052 350.796 41.2379 350.796 38.8112V35.5654C350.796 30.1008 354.546 25.6711 359.169 25.6711C363.791 25.6711 367.541 30.1008 367.541 35.5654V38.0279H362.288V35.5654C362.288 33.5306 360.889 31.8817 359.169 31.8817C357.448 31.8817 356.049 33.5306 356.049 35.5654V38.8112C356.049 44.6678 352.037 49.4158 347.08 49.4158C342.129 49.4158 338.11 44.6678 338.11 38.8112V34.8426H343.363Z" fill="#F7CC69" fill-opacity="0.24"/>
<path fill-rule="evenodd" clip-rule="evenodd" d="M307.877 46.3586V15.8917C307.877 4.27864 315.836 -5.13506 325.659 -5.13506C335.483 -5.13506 343.448 4.27864 343.448 15.8917V22.3352H338.195V15.8917C338.195 7.70844 332.581 1.07555 325.659 1.07555C318.738 1.07555 313.131 7.70844 313.131 15.8917V46.3586H307.877Z" fill="#F7CC69" fill-opacity="0.24"/>
<path fill-rule="evenodd" clip-rule="evenodd" d="M156.204 34.3349V30.3663C156.204 27.9395 154.536 25.9723 152.487 25.9723C150.432 25.9723 148.771 27.9395 148.771 30.3663V33.6113C148.771 39.0774 145.021 43.5064 140.398 43.5064C135.776 43.5064 132.033 39.0774 132.033 33.6113V31.1496H137.286V33.6113C137.286 35.6461 138.678 37.2958 140.398 37.2958C142.119 37.2958 143.518 35.6461 143.518 33.6113V30.3663C143.518 24.5097 147.53 19.7617 152.487 19.7617C157.439 19.7617 161.457 24.5097 161.457 30.3663V34.3349H156.204Z" fill="#F7CC69" fill-opacity="0.24"/>
<path fill-rule="evenodd" clip-rule="evenodd" d="M242.331 26.4459C248.116 26.4459 252.811 20.8967 252.811 14.0511V2.61969L258.064 2.61969V14.0511C258.064 24.3265 251.018 32.6565 242.331 32.6565V26.4459Z" fill="#F7CC69" fill-opacity="0.24"/>
<path fill-rule="evenodd" clip-rule="evenodd" d="M190.744 8.42736L213.405 8.42736C218.973 8.42736 223.485 13.7646 223.485 20.3479V20.9534C223.485 27.2028 219.197 32.2691 213.917 32.2691C208.631 32.2691 204.343 27.2028 204.343 20.9534L206.97 17.8481L204.343 20.9433C204.343 20.9433 204.343 20.6468 204.343 20.5986C204.343 17.7604 206.97 17.4847 206.97 17.4847C206.97 17.4847 209.596 17.7604 209.596 20.5986C209.596 20.6468 209.596 20.9433 209.596 20.9433L206.97 17.8481L209.596 20.9534C209.596 23.773 211.527 26.0585 213.917 26.0585C216.301 26.0585 218.231 23.773 218.231 20.9534V20.3479C218.231 17.1944 216.071 14.638 213.405 14.638L190.744 14.638V8.42736Z" fill="#F7CC69" fill-opacity="0.24"/>
<path fill-rule="evenodd" clip-rule="evenodd" d="M358.847 102.6C350.343 102.6 343.448 110.752 343.448 120.807V137.567H338.195V120.807C338.195 107.322 347.441 96.3897 358.847 96.3897V102.6Z" fill="#F7CC69" fill-opacity="0.24"/>
<path fill-rule="evenodd" clip-rule="evenodd" d="M252.2 120.705C257.519 120.705 261.826 115.612 261.826 109.327V65.3949H267.08V109.327C267.08 119.041 260.415 126.916 252.2 126.916V120.705Z" fill="#F7CC69" fill-opacity="0.24"/>
<path fill-rule="evenodd" clip-rule="evenodd" d="M230.934 117.369C230.934 123.921 226.435 129.241 220.894 129.241C215.35 129.241 210.85 123.921 210.85 117.369V92.8594C210.85 86.3068 215.35 80.9868 220.894 80.9868C226.435 80.9868 230.934 86.3068 230.934 92.8594V117.369ZM225.682 117.369V92.8594C225.682 89.7346 223.537 87.1977 220.894 87.1977C218.248 87.1977 216.102 89.7346 216.102 92.8594V117.369C216.102 120.494 218.248 123.031 220.894 123.031C223.537 123.031 225.682 120.494 225.682 117.369Z" fill="#F7CC69" fill-opacity="0.24"/>
<path fill-rule="evenodd" clip-rule="evenodd" d="M334.104 117.901C334.104 119.558 332.962 120.905 331.563 120.905C330.158 120.905 329.022 119.558 329.022 117.901C329.022 116.243 330.158 114.898 331.563 114.898C332.962 114.898 334.104 116.243 334.104 117.901Z" fill="#F7CC69" fill-opacity="0.24"/>
<path fill-rule="evenodd" clip-rule="evenodd" d="M273.925 14.3901C273.925 16.0475 272.783 17.3937 271.384 17.3937C269.979 17.3937 268.843 16.0475 268.843 14.3901C268.843 12.7326 269.979 11.3873 271.384 11.3873C272.783 11.3873 273.925 12.7326 273.925 14.3901Z" fill="#F7CC69" fill-opacity="0.24"/>
<path fill-rule="evenodd" clip-rule="evenodd" d="M334.104 106.567C334.104 108.224 332.962 109.569 331.563 109.569C330.158 109.569 329.022 108.224 329.022 106.567C329.022 104.909 330.158 103.564 331.563 103.564C332.962 103.564 334.104 104.909 334.104 106.567Z" fill="#F7CC69" fill-opacity="0.24"/>
<path fill-rule="evenodd" clip-rule="evenodd" d="M273.925 3.05581C273.925 4.71326 272.783 6.05862 271.384 6.05862C269.979 6.05862 268.843 4.71326 268.843 3.05581C268.843 1.39835 269.979 0.052948 271.384 0.052948C272.783 0.052948 273.925 1.39835 273.925 3.05581Z" fill="#F7CC69" fill-opacity="0.24"/>
<path fill-rule="evenodd" clip-rule="evenodd" d="M345.372 57.3056C345.372 67.3613 352.267 75.5128 360.771 75.5128H374.948V81.7234H360.771C349.365 81.7234 340.119 70.7911 340.119 57.3056H345.372Z" fill="#F7CC69" fill-opacity="0.24"/>
<path fill-rule="evenodd" clip-rule="evenodd" d="M311.811 80.2219H303.701C296.773 80.2219 291.159 73.5836 291.159 65.3949H296.412C296.412 70.1538 299.676 74.0113 303.701 74.0113H311.811V80.2219Z" fill="#F7CC69" fill-opacity="0.24"/>
<path fill-rule="evenodd" clip-rule="evenodd" d="M177.263 39.065V27.5653C177.263 25.4009 175.779 23.6472 173.947 23.6472C172.115 23.6472 170.631 25.4009 170.631 27.5653V52.4621C170.631 54.6265 172.115 56.3802 173.947 56.3802C175.779 56.3802 177.263 54.6265 177.263 52.4621V49.5998H182.516V52.4621C182.516 58.0563 178.681 62.5908 173.947 62.5908C169.212 62.5908 165.377 58.0563 165.377 52.4621V27.5653C165.377 21.9711 169.212 17.4366 173.947 17.4366C178.681 17.4366 182.516 21.9711 182.516 27.5653V39.065H177.263Z" fill="#F7CC69" fill-opacity="0.24"/>
<path fill-rule="evenodd" clip-rule="evenodd" d="M215.74 50.6419C215.74 56.0449 212.029 60.4316 207.459 60.4316C202.889 60.4316 199.178 56.0449 199.178 50.6419C199.178 45.239 202.889 40.8523 207.459 40.8523C212.029 40.8523 215.74 45.239 215.74 50.6419ZM210.488 50.6419C210.488 48.6664 209.131 47.0627 207.459 47.0627C205.787 47.0627 204.43 48.6664 204.43 50.6419C204.43 52.617 205.787 54.2208 207.459 54.2208C209.131 54.2208 210.488 52.617 210.488 50.6419Z" fill="#F7CC69" fill-opacity="0.24"/>
<path fill-rule="evenodd" clip-rule="evenodd" d="M235.505 50.6419C235.505 56.0449 231.794 60.4316 227.224 60.4316C222.654 60.4316 218.943 56.0449 218.943 50.6419C218.943 45.239 222.654 40.8523 227.224 40.8523C231.794 40.8523 235.505 45.239 235.505 50.6419ZM230.253 50.6419C230.253 48.6664 228.896 47.0627 227.224 47.0627C225.552 47.0627 224.195 48.6664 224.195 50.6419C224.195 52.617 225.552 54.2208 227.224 54.2208C228.896 54.2208 230.253 52.617 230.253 50.6419Z" fill="#F7CC69" fill-opacity="0.24"/>
<path fill-rule="evenodd" clip-rule="evenodd" d="M322.304 30.1125V41.6122C322.304 43.7758 323.795 45.5303 325.62 45.5303C327.452 45.5303 328.936 43.7758 328.936 41.6122V16.7154C328.936 14.551 327.452 12.7973 325.62 12.7973C323.795 12.7973 322.304 14.551 322.304 16.7154V19.5777H317.051V16.7154C317.051 11.1212 320.892 6.5867 325.62 6.5867C330.355 6.5867 334.19 11.1212 334.19 16.7154V41.6122C334.19 47.2056 330.355 51.7409 325.62 51.7409C320.892 51.7409 317.051 47.2056 317.051 41.6122V30.1125H322.304Z" fill="#F7CC69" fill-opacity="0.24"/>
<path fill-rule="evenodd" clip-rule="evenodd" d="M266.666 39.0448C266.666 40.7023 265.53 42.0476 264.125 42.0476C262.726 42.0476 261.584 40.7023 261.584 39.0448C261.584 37.3874 262.726 36.0412 264.125 36.0412C265.53 36.0412 266.666 37.3874 266.666 39.0448Z" fill="#F7CC69" fill-opacity="0.24"/>
<path fill-rule="evenodd" clip-rule="evenodd" d="M232.901 30.1319C232.901 28.4744 234.044 27.1291 235.442 27.1291C236.847 27.1291 237.983 28.4744 237.983 30.1319C237.983 31.7893 236.847 33.1355 235.442 33.1355C234.044 33.1355 232.901 31.7893 232.901 30.1319Z" fill="#F7CC69" fill-opacity="0.24"/>
<path fill-rule="evenodd" clip-rule="evenodd" d="M281.892 15.6986C281.892 10.2956 285.603 5.90891 290.173 5.90891C294.743 5.90891 298.454 10.2956 298.454 15.6986C298.454 21.1016 294.743 25.4882 290.173 25.4882C285.603 25.4882 281.892 21.1016 281.892 15.6986ZM287.147 15.6986C287.147 17.6737 288.501 19.2774 290.173 19.2774C291.845 19.2774 293.202 17.6737 293.202 15.6986C293.202 13.7231 291.845 12.1193 290.173 12.1193C288.501 12.1193 287.147 13.7231 287.147 15.6986Z" fill="#F7CC69" fill-opacity="0.24"/>
<path fill-rule="evenodd" clip-rule="evenodd" d="M154.195 11.8719C154.195 1.81617 147.3 -6.33525 138.796 -6.33525L124.619 -6.33525V-12.5459L138.796 -12.5459C150.202 -12.5459 159.448 -1.61364 159.448 11.8719L154.195 11.8719Z" fill="#F7CC69" fill-opacity="0.24"/>
<path fill-rule="evenodd" clip-rule="evenodd" d="M103.235 2.90812C103.235 11.9045 97.0587 19.2084 89.4485 19.2084C81.8383 19.2084 75.6618 11.9045 75.6618 2.90812C75.6618 -6.08823 81.8383 -13.3921 89.4485 -13.3921C97.0587 -13.3921 103.235 -6.08823 103.235 2.90812ZM98.434 2.90812C98.434 -2.95449 94.4064 -7.71424 89.4485 -7.71424C84.4907 -7.71424 80.463 -2.95449 80.463 2.90812C80.463 8.77111 84.4907 13.5308 89.4485 13.5308C94.4064 13.5308 98.434 8.77111 98.434 2.90812Z" fill="#F7CC69" fill-opacity="0.24"/>
<path fill-rule="evenodd" clip-rule="evenodd" d="M80.4282 31.8986C69.0222 31.8986 59.7765 20.9664 59.7765 7.4808V-9.27852H65.0298V7.4808C65.0298 17.5365 71.9246 25.688 80.4282 25.688V31.8986Z" fill="#F7CC69" fill-opacity="0.24"/>
<path fill-rule="evenodd" clip-rule="evenodd" d="M37.9314 203.212C37.9314 190.582 46.586 180.344 57.2698 180.344H57.6834C68.3606 180.344 77.0218 190.582 77.0218 203.212H71.7685C71.7685 194.012 65.4647 186.555 57.6834 186.555H57.2698C49.4884 186.555 43.1846 194.012 43.1846 203.212H37.9314Z" fill="#F7CC69" fill-opacity="0.24"/>
<path fill-rule="evenodd" clip-rule="evenodd" d="M12.0903 2.63731C12.0903 15.2666 3.43569 25.5047 -7.24804 25.5047H-7.66166C-18.3388 25.5047 -27 15.2666 -27 2.63731H-21.7468C-21.7468 11.8368 -15.443 19.2941 -7.66166 19.2941H-7.24804C0.533285 19.2941 6.83711 11.8368 6.83711 2.63731H12.0903Z" fill="#F7CC69" fill-opacity="0.24"/>
<path fill-rule="evenodd" clip-rule="evenodd" d="M28.2654 136.901L28.2654 167.369C28.2654 178.981 20.3069 188.395 10.4833 188.395C0.65983 188.395 -7.30542 178.981 -7.30542 167.369L-7.30542 160.925H-2.0522L-2.0522 167.369C-2.0522 175.551 3.56223 182.185 10.4833 182.185C17.4045 182.185 23.0122 175.551 23.0122 167.369L23.0122 136.901H28.2654Z" fill="#F7CC69" fill-opacity="0.24"/>
<path fill-rule="evenodd" clip-rule="evenodd" d="M21.7563 68.9479V38.4802C21.7563 26.8679 29.7149 17.4534 39.5384 17.4534C49.3619 17.4534 57.3271 26.8679 57.3271 38.4802V44.9237H52.0739V38.4802C52.0739 30.2977 46.4595 23.664 39.5384 23.664C32.6173 23.664 27.0096 30.2977 27.0096 38.4802V68.9479H21.7563Z" fill="#F7CC69" fill-opacity="0.24"/>
<path fill-rule="evenodd" clip-rule="evenodd" d="M93.819 156.814C88.0274 156.814 83.3323 162.364 83.3323 169.209V180.64H78.0791V169.209C78.0791 158.934 85.125 150.604 93.819 150.604V156.814Z" fill="#F7CC69" fill-opacity="0.24"/>
<path fill-rule="evenodd" clip-rule="evenodd" d="M131.8 162.307H126.546C126.546 159.487 124.616 157.202 122.232 157.202C119.849 157.202 117.911 159.487 117.911 162.307V162.912C117.911 166.066 120.072 168.622 122.744 168.622H145.399V174.833H122.744C117.176 174.833 112.658 169.496 112.658 162.912V162.307C112.658 156.057 116.946 150.991 122.232 150.991C127.518 150.991 131.8 156.057 131.8 162.307Z" fill="#F7CC69" fill-opacity="0.24"/>
<path fill-rule="evenodd" clip-rule="evenodd" d="M86.6516 57.0379V50.7907C84.2806 50.7907 82.3587 48.4949 82.3587 45.6602C82.3587 42.8256 84.2806 40.5219 86.6516 40.5219H87.1602C89.8125 40.5219 91.9623 43.0911 91.9623 46.2694V73.2101H97.1848V46.2694C97.1848 39.6474 92.6967 34.2748 87.1602 34.2748H86.6516C81.3964 34.2748 77.1362 39.3741 77.1362 45.6602C77.1362 51.9464 81.3964 57.0379 86.6516 57.0379Z" fill="#F7CC69" fill-opacity="0.24"/>
<path fill-rule="evenodd" clip-rule="evenodd" d="M36.8326 -0.215683H42.0858C42.0858 -3.0353 44.0164 -5.32079 46.4001 -5.32079C48.7837 -5.32079 50.7209 -3.0353 50.7209 -0.215683V0.389069C50.7209 3.54328 48.5604 6.09973 45.8879 6.09973H23.2334V12.3103H45.8879C51.4563 12.3103 55.9741 6.97308 55.9741 0.389069V-0.215683C55.9741 -6.4651 51.6861 -11.5314 46.4001 -11.5314C41.114 -11.5314 36.8326 -6.4651 36.8326 -0.215683Z" fill="#F7CC69" fill-opacity="0.24"/>
<path fill-rule="evenodd" clip-rule="evenodd" d="M185.058 148.925V152.894C185.058 155.321 186.726 157.288 188.775 157.288C190.83 157.288 192.491 155.321 192.491 152.894V149.648C192.491 144.184 196.241 139.754 200.864 139.754C205.486 139.754 209.236 144.184 209.236 149.648V152.111H203.983V149.648C203.983 147.613 202.584 145.965 200.864 145.965C199.143 145.965 197.745 147.613 197.745 149.648V152.894C197.745 158.751 193.732 163.499 188.775 163.499C183.824 163.499 179.805 158.751 179.805 152.894V148.925H185.058Z" fill="#F7CC69" fill-opacity="0.24"/>
<path fill-rule="evenodd" clip-rule="evenodd" d="M144.454 160.441V129.974C144.454 118.361 152.412 108.948 162.236 108.948C172.059 108.948 180.024 118.361 180.024 129.974V136.418H174.771V129.974C174.771 121.791 169.157 115.158 162.236 115.158C155.315 115.158 149.707 121.791 149.707 129.974V160.441H144.454Z" fill="#F7CC69" fill-opacity="0.24"/>
<path fill-rule="evenodd" clip-rule="evenodd" d="M58.3862 66.804V70.7726C58.3862 73.1994 60.0542 75.1666 62.103 75.1666C64.1583 75.1666 65.8196 73.1994 65.8196 70.7726V67.5276C65.8196 62.0615 69.569 57.6325 74.1919 57.6325C78.8147 57.6325 82.5576 62.0615 82.5576 67.5276V69.9893H77.3044V67.5276C77.3044 65.4928 75.9123 63.8431 74.1919 63.8431C72.4714 63.8431 71.0728 65.4928 71.0728 67.5276V70.7726C71.0728 76.6292 67.0607 81.3772 62.103 81.3772C57.1518 81.3772 53.133 76.6292 53.133 70.7726V66.804H58.3862Z" fill="#F7CC69" fill-opacity="0.24"/>
<path fill-rule="evenodd" clip-rule="evenodd" d="M78.9065 140.529C84.6916 140.529 89.3866 134.979 89.3866 128.134V116.702H94.6399V128.134C94.6399 138.409 87.594 146.739 78.9065 146.739V140.529Z" fill="#F7CC69" fill-opacity="0.24"/>
<path fill-rule="evenodd" clip-rule="evenodd" d="M27.3198 122.51H49.9809C55.5493 122.51 60.0606 127.847 60.0606 134.431V135.036C60.0606 141.286 55.7726 146.352 50.4931 146.352C45.2071 146.352 40.9191 141.286 40.9191 135.036L43.5457 131.931L40.9191 135.026C40.9191 135.026 40.9191 134.73 40.9191 134.681C40.9191 131.843 43.5457 131.568 43.5457 131.568C43.5457 131.568 46.1723 131.843 46.1723 134.681C46.1723 134.73 46.1723 135.026 46.1723 135.026L43.5457 131.931L46.1723 135.036C46.1723 137.856 48.1029 140.141 50.4931 140.141C52.8768 140.141 54.8074 137.856 54.8074 135.036V134.431C54.8074 131.277 52.6469 128.721 49.9809 128.721H27.3198V122.51Z" fill="#F7CC69" fill-opacity="0.24"/>
<path fill-rule="evenodd" clip-rule="evenodd" d="M16.5829 122.681V128.928C6.81809 128.928 -1.09863 119.464 -1.09863 107.782C-1.09863 96.0995 6.81809 86.6272 16.5829 86.6272H22.0013V92.8744H16.5829C9.70223 92.8744 4.1239 99.5511 4.1239 107.782C4.1239 116.012 9.70223 122.681 16.5829 122.681Z" fill="#F7CC69" fill-opacity="0.24"/>
<path fill-rule="evenodd" clip-rule="evenodd" d="M21.6965 78.9555H-0.96454C-6.53295 78.9555 -11.0442 73.6183 -11.0442 67.035V66.4295C-11.0442 60.1801 -6.75623 55.1138 -1.47675 55.1138C3.8093 55.1138 8.09729 60.1801 8.09729 66.4295L5.47068 69.5348L8.09729 66.4396C8.09729 66.4396 8.09729 66.7361 8.09729 66.7843C8.09729 69.6225 5.47068 69.8982 5.47068 69.8982C5.47068 69.8982 2.84407 69.6225 2.84407 66.7843C2.84407 66.7361 2.84407 66.4396 2.84407 66.4396L5.47068 69.5348L2.84407 66.4295C2.84407 63.6099 0.913465 61.3244 -1.47675 61.3244C-3.8604 61.3244 -5.791 63.6099 -5.791 66.4295V67.035C-5.791 70.1885 -3.63055 72.7449 -0.96454 72.7449H21.6965V78.9555Z" fill="#F7CC69" fill-opacity="0.24"/>
<path fill-rule="evenodd" clip-rule="evenodd" d="M203.125 123.393C191.719 123.393 182.474 112.46 182.474 98.9751V82.2157H187.727V98.9751C187.727 109.03 194.622 117.182 203.125 117.182V123.393Z" fill="#F7CC69" fill-opacity="0.24"/>
<path fill-rule="evenodd" clip-rule="evenodd" d="M62.267 206.942C62.267 203.817 60.1199 201.28 57.4736 201.28C54.8338 201.28 52.6866 203.817 52.6866 206.942H47.4333C47.4333 200.389 51.9314 195.069 57.4736 195.069C63.0223 195.069 67.5202 200.389 67.5202 206.942H62.267Z" fill="#F7CC69" fill-opacity="0.24"/>
<path fill-rule="evenodd" clip-rule="evenodd" d="M-12.245 -1.09293C-12.245 2.03178 -10.0979 4.56879 -7.45161 4.56879C-4.81187 4.56879 -2.66459 2.03178 -2.66459 -1.09293H2.58862C2.58862 5.46003 -1.90947 10.7794 -7.45161 10.7794C-13.0003 10.7794 -17.4983 5.46003 -17.4983 -1.09293H-12.245Z" fill="#F7CC69" fill-opacity="0.24"/>
<path fill-rule="evenodd" clip-rule="evenodd" d="M148.387 194.305H140.277C133.349 194.305 127.735 187.666 127.735 179.478H132.988C132.988 184.237 136.252 188.094 140.277 188.094H148.387V194.305Z" fill="#F7CC69" fill-opacity="0.24"/>
<path fill-rule="evenodd" clip-rule="evenodd" d="M13.8387 153.148L13.8387 141.648C13.8387 139.484 12.3548 137.73 10.5227 137.73C8.69065 137.73 7.20659 139.484 7.20659 141.648L7.20659 166.545C7.20659 168.709 8.69065 170.463 10.5227 170.463C12.3548 170.463 13.8387 168.709 13.8387 166.545V163.683H19.0919V166.545C19.0919 172.139 15.2572 176.674 10.5227 176.674C5.78825 176.674 1.95337 172.139 1.95337 166.545L1.95337 141.648C1.95337 136.054 5.78825 131.519 10.5227 131.519C15.2572 131.519 19.0919 136.054 19.0919 141.648V153.148H13.8387Z" fill="#F7CC69" fill-opacity="0.24"/>
<path fill-rule="evenodd" clip-rule="evenodd" d="M36.1831 52.7009V64.2006C36.1831 66.365 37.667 68.1188 39.499 68.1188C41.3311 68.1188 42.8151 66.365 42.8151 64.2006V39.3039C42.8151 37.1395 41.3311 35.3858 39.499 35.3858C37.667 35.3858 36.1831 37.1395 36.1831 39.3039V42.1662H30.9298V39.3039C30.9298 33.7097 34.7646 29.1752 39.499 29.1752C44.2335 29.1752 48.0684 33.7097 48.0684 39.3039V64.2006C48.0684 69.7948 44.2335 74.3294 39.499 74.3294C34.7646 74.3294 30.9298 69.7948 30.9298 64.2006V52.7009H36.1831Z" fill="#F7CC69" fill-opacity="0.24"/>
<path fill-rule="evenodd" clip-rule="evenodd" d="M51.6815 163.416C51.6815 168.819 47.9708 173.205 43.4005 173.205C38.8303 173.205 35.1196 168.819 35.1196 163.416C35.1196 158.013 38.8303 153.626 43.4005 153.626C47.9708 153.626 51.6815 158.013 51.6815 163.416ZM46.426 163.416C46.426 161.44 45.0695 159.837 43.4005 159.837C41.7283 159.837 40.3716 161.44 40.3716 163.416C40.3716 165.391 41.7283 166.995 43.4005 166.995C45.0695 166.995 46.426 165.391 46.426 163.416Z" fill="#F7CC69" fill-opacity="0.24"/>
<path fill-rule="evenodd" clip-rule="evenodd" d="M71.6241 163.416C71.6241 168.819 67.9134 173.205 63.3432 173.205C58.7729 173.205 55.0623 168.819 55.0623 163.416C55.0623 158.013 58.7729 153.626 63.3432 153.626C67.9134 153.626 71.6241 158.013 71.6241 163.416ZM66.3687 163.416C66.3687 161.44 65.0121 159.837 63.3432 159.837C61.6709 159.837 60.3142 161.44 60.3142 163.416C60.3142 165.391 61.6709 166.995 63.3432 166.995C65.0121 166.995 66.3687 165.391 66.3687 163.416Z" fill="#F7CC69" fill-opacity="0.24"/>
<path fill-rule="evenodd" clip-rule="evenodd" d="M-4.21712 38.2871C-4.21712 32.8837 -0.506454 28.4974 4.06381 28.4974C8.63407 28.4974 12.3447 32.8837 12.3447 38.2871C12.3447 43.69 8.63407 48.0767 4.06381 48.0767C-0.506454 48.0767 -4.21712 43.69 -4.21712 38.2871ZM1.03831 38.2871C1.03831 40.2622 2.39487 41.8659 4.06381 41.8659C5.7361 41.8659 7.09274 40.2622 7.09274 38.2871C7.09274 36.3116 5.7361 34.7079 4.06381 34.7079C2.39487 34.7079 1.03831 36.3116 1.03831 38.2871Z" fill="#F7CC69" fill-opacity="0.24"/>
<path fill-rule="evenodd" clip-rule="evenodd" d="M158.88 144.195V155.695C158.88 157.859 160.371 159.613 162.196 159.613C164.028 159.613 165.512 157.859 165.512 155.695V130.798C165.512 128.634 164.028 126.88 162.196 126.88C160.371 126.88 158.88 128.634 158.88 130.798V133.66H153.627V130.798C153.627 125.204 157.468 120.669 162.196 120.669C166.931 120.669 170.765 125.204 170.765 130.798V155.695C170.765 161.288 166.931 165.824 162.196 165.824C157.468 165.824 153.627 161.288 153.627 155.695V144.195H158.88Z" fill="#F7CC69" fill-opacity="0.24"/>
<path fill-rule="evenodd" clip-rule="evenodd" d="M111.252 206.058C111.252 207.716 110.116 209.061 108.711 209.061C107.312 209.061 106.169 207.716 106.169 206.058C106.169 204.401 107.312 203.055 108.711 203.055C110.116 203.055 111.252 204.401 111.252 206.058Z" fill="#F7CC69" fill-opacity="0.24"/>
<path fill-rule="evenodd" clip-rule="evenodd" d="M120.164 206.058C120.164 207.716 119.027 209.061 117.622 209.061C116.224 209.061 115.081 207.716 115.081 206.058C115.081 204.401 116.224 203.055 117.622 203.055C119.027 203.055 120.164 204.401 120.164 206.058Z" fill="#F7CC69" fill-opacity="0.24"/>
<path fill-rule="evenodd" clip-rule="evenodd" d="M69.4768 144.215C69.4768 142.557 70.6195 141.212 72.0181 141.212C73.4234 141.212 74.5593 142.557 74.5593 144.215C74.5593 145.872 73.4234 147.218 72.0181 147.218C70.6195 147.218 69.4768 145.872 69.4768 144.215Z" fill="#F7CC69" fill-opacity="0.24"/>
<path fill-rule="evenodd" clip-rule="evenodd" d="M131.591 5.73993C131.591 3.91838 132.847 2.43983 134.384 2.43983C135.928 2.43983 137.176 3.91838 137.176 5.73993C137.176 7.56148 135.928 9.04091 134.384 9.04091C132.847 9.04091 131.591 7.56148 131.591 5.73993Z" fill="#F7CC69" fill-opacity="0.24"/>
<path fill-rule="evenodd" clip-rule="evenodd" d="M131.591 16.5305C131.591 14.7089 132.847 13.2304 134.384 13.2304C135.928 13.2304 137.176 14.7089 137.176 16.5305C137.176 18.352 135.928 19.8315 134.384 19.8315C132.847 19.8315 131.591 18.352 131.591 16.5305Z" fill="#F7CC69" fill-opacity="0.24"/>
<path fill-rule="evenodd" clip-rule="evenodd" d="M118.471 129.781C118.471 124.378 122.182 119.991 126.752 119.991C131.322 119.991 135.033 124.378 135.033 129.781C135.033 135.184 131.322 139.571 126.752 139.571C122.182 139.571 118.471 135.184 118.471 129.781ZM123.723 129.781C123.723 131.757 125.08 133.36 126.752 133.36C128.421 133.36 129.777 131.757 129.777 129.781C129.777 127.806 128.421 126.202 126.752 126.202C125.08 126.202 123.723 127.806 123.723 129.781Z" fill="#F7CC69" fill-opacity="0.24"/>
<path fill-rule="evenodd" clip-rule="evenodd" d="M49.2373 271.94C49.2373 261.885 42.3424 253.733 33.8388 253.733H19.6616V247.523H33.8388C45.2449 247.523 54.4905 258.455 54.4905 271.94H49.2373Z" fill="#F7CC69" fill-opacity="0.24"/>
<path fill-rule="evenodd" clip-rule="evenodd" d="M90.493 298.513H100.163C101.983 298.513 103.458 296.741 103.458 294.57C103.458 292.391 101.983 290.627 100.163 290.627H79.2273C77.4073 290.627 75.9325 292.391 75.9325 294.57C75.9325 296.741 77.4073 298.513 79.2273 298.513H81.6342V304.761H79.2273C74.5231 304.761 70.71 300.192 70.71 294.57C70.71 288.94 74.5231 284.379 79.2273 284.379H100.163C104.867 284.379 108.68 288.94 108.68 294.57C108.68 300.192 104.867 304.761 100.163 304.761H90.493V298.513Z" fill="#F7CC69" fill-opacity="0.24"/>
<path fill-rule="evenodd" clip-rule="evenodd" d="M347.112 257.222V280.521C347.112 287.078 342.614 292.393 337.072 292.393C331.523 292.393 327.025 287.078 327.025 280.521V277.179H332.279V280.521C332.279 283.648 334.426 286.182 337.072 286.182C339.712 286.182 341.859 283.648 341.859 280.521V257.222H347.112Z" fill="#F7CC69" fill-opacity="0.24"/>
<path fill-rule="evenodd" clip-rule="evenodd" d="M200.749 268.266C200.749 258.426 207.505 250.436 215.83 250.436C224.154 250.436 230.911 258.426 230.911 268.266C230.911 278.107 224.154 286.097 215.83 286.097C207.505 286.097 200.749 278.107 200.749 268.266ZM206.001 268.266C206.001 274.679 210.407 279.886 215.83 279.886C221.253 279.886 225.659 274.679 225.659 268.266C225.659 261.853 221.253 256.647 215.83 256.647C210.407 256.647 206.001 261.853 206.001 268.266Z" fill="#F7CC69" fill-opacity="0.24"/>
<path fill-rule="evenodd" clip-rule="evenodd" d="M224.851 237.745C236.257 237.745 245.502 248.677 245.502 262.163V278.922H240.249V262.163C240.249 252.107 233.354 243.956 224.851 243.956V237.745Z" fill="#F7CC69" fill-opacity="0.24"/>
<path fill-rule="evenodd" clip-rule="evenodd" d="M293.188 267.006C293.188 254.377 301.843 244.139 312.527 244.139H312.94C323.618 244.139 332.279 254.377 332.279 267.006H327.026C327.026 257.807 320.722 250.35 312.94 250.35H312.527C304.746 250.35 298.442 257.807 298.442 267.006H293.188Z" fill="#F7CC69" fill-opacity="0.24"/>
<path fill-rule="evenodd" clip-rule="evenodd" d="M283.522 200.696V231.164C283.522 242.776 275.564 252.19 265.74 252.19C255.917 252.19 247.951 242.776 247.951 231.164V224.72H253.205V231.164C253.205 239.346 258.819 245.98 265.74 245.98C272.661 245.98 278.269 239.346 278.269 231.164V200.696H283.522Z" fill="#F7CC69" fill-opacity="0.24"/>
<path fill-rule="evenodd" clip-rule="evenodd" d="M349.076 220.609C343.284 220.609 338.589 226.159 338.589 233.004V244.435H333.336V233.004C333.336 222.729 340.382 214.399 349.076 214.399V220.609Z" fill="#F7CC69" fill-opacity="0.24"/>
<path fill-rule="evenodd" clip-rule="evenodd" d="M248.037 212.213V208.244C248.037 205.817 246.369 203.85 244.32 203.85C242.265 203.85 240.604 205.817 240.604 208.244V211.489C240.604 216.955 236.854 221.384 232.231 221.384C227.609 221.384 223.866 216.955 223.866 211.489V209.027H229.119V211.489C229.119 213.524 230.511 215.174 232.231 215.174C233.952 215.174 235.351 213.524 235.351 211.489V208.244C235.351 202.387 239.363 197.639 244.32 197.639C249.272 197.639 253.29 202.387 253.29 208.244V212.213H248.037Z" fill="#F7CC69" fill-opacity="0.24"/>
<path fill-rule="evenodd" clip-rule="evenodd" d="M327.293 190.375C333.079 190.375 337.774 184.826 337.774 177.98V166.549H343.027V177.98C343.027 188.256 335.981 196.586 327.293 196.586V190.375Z" fill="#F7CC69" fill-opacity="0.24"/>
<path fill-rule="evenodd" clip-rule="evenodd" d="M236.137 291.152C230.352 291.152 225.657 296.701 225.657 303.547V314.978H220.404V303.547C220.404 293.272 227.45 284.942 236.137 284.942V291.152Z" fill="#F7CC69" fill-opacity="0.24"/>
<path fill-rule="evenodd" clip-rule="evenodd" d="M282.577 186.305H305.238C310.806 186.305 315.317 191.642 315.317 198.226V198.831C315.317 205.081 311.029 210.147 305.75 210.147C300.464 210.147 296.176 205.081 296.176 198.831L298.803 195.726L296.176 198.821C296.176 198.821 296.176 198.524 296.176 198.476C296.176 195.638 298.803 195.362 298.803 195.362C298.803 195.362 301.429 195.638 301.429 198.476C301.429 198.524 301.429 198.821 301.429 198.821L298.803 195.726L301.429 198.831C301.429 201.651 303.36 203.936 305.75 203.936C308.134 203.936 310.064 201.651 310.064 198.831V198.226C310.064 195.072 307.904 192.516 305.238 192.516H282.577V186.305Z" fill="#F7CC69" fill-opacity="0.24"/>
<path fill-rule="evenodd" clip-rule="evenodd" d="M344.033 298.583C349.352 298.583 353.659 293.489 353.659 287.205V243.273H358.912V287.205C358.912 296.919 352.247 304.793 344.033 304.793V298.583Z" fill="#F7CC69" fill-opacity="0.24"/>
<path fill-rule="evenodd" clip-rule="evenodd" d="M322.769 295.246C322.769 301.799 318.27 307.118 312.725 307.118C307.185 307.118 302.685 301.799 302.685 295.246V270.737C302.685 264.184 307.185 258.864 312.725 258.864C318.27 258.864 322.769 264.184 322.769 270.737V295.246ZM317.514 295.246V270.737C317.514 267.612 315.368 265.075 312.725 265.075C310.083 265.075 307.937 267.612 307.937 270.737V295.246C307.937 298.371 310.083 300.908 312.725 300.908C315.368 300.908 317.514 298.371 317.514 295.246Z" fill="#F7CC69" fill-opacity="0.24"/>
<path fill-rule="evenodd" clip-rule="evenodd" d="M330.992 168.825C330.992 175.377 326.492 180.697 320.948 180.697C315.407 180.697 310.907 175.377 310.907 168.825V144.315C310.907 137.762 315.407 132.443 320.948 132.443C326.492 132.443 330.992 137.762 330.992 144.315V168.825ZM325.736 168.825V144.315C325.736 141.19 323.59 138.653 320.948 138.653C318.305 138.653 316.159 141.19 316.159 144.315V168.825C316.159 171.949 318.305 174.486 320.948 174.486C323.59 174.486 325.736 171.949 325.736 168.825Z" fill="#F7CC69" fill-opacity="0.24"/>
<path fill-rule="evenodd" clip-rule="evenodd" d="M123.305 51.3308C123.305 57.8835 118.805 63.203 113.261 63.203C107.72 63.203 103.22 57.8835 103.22 51.3308V26.8213C103.22 20.2687 107.72 14.9487 113.261 14.9487C118.805 14.9487 123.305 20.2687 123.305 26.8213V51.3308ZM118.049 51.3308V26.8213C118.049 23.6966 115.904 21.1596 113.261 21.1596C110.618 21.1596 108.472 23.6966 108.472 26.8213V51.3308C108.472 54.4556 110.618 56.9926 113.261 56.9926C115.904 56.9926 118.049 54.4556 118.049 51.3308Z" fill="#F7CC69" fill-opacity="0.24"/>
<path fill-rule="evenodd" clip-rule="evenodd" d="M269.096 216.943V205.443C269.096 203.279 267.612 201.525 265.78 201.525C263.947 201.525 262.463 203.279 262.463 205.443V230.34C262.463 232.504 263.947 234.258 265.78 234.258C267.612 234.258 269.096 232.504 269.096 230.34V227.478H274.349V230.34C274.349 235.934 270.514 240.469 265.78 240.469C261.045 240.469 257.21 235.934 257.21 230.34V205.443C257.21 199.849 261.045 195.314 265.78 195.314C270.514 195.314 274.349 199.849 274.349 205.443V216.943H269.096Z" fill="#F7CC69" fill-opacity="0.24"/>
<path fill-rule="evenodd" clip-rule="evenodd" d="M309.495 231.358C309.495 236.761 305.781 241.147 301.214 241.147C296.644 241.147 292.933 236.761 292.933 231.358C292.933 225.955 296.644 221.568 301.214 221.568C305.781 221.568 309.495 225.955 309.495 231.358ZM304.24 231.358C304.24 229.382 302.883 227.779 301.214 227.779C299.542 227.779 298.185 229.382 298.185 231.358C298.185 233.333 299.542 234.937 301.214 234.937C302.883 234.937 304.24 233.333 304.24 231.358Z" fill="#F7CC69" fill-opacity="0.24"/>
<path fill-rule="evenodd" clip-rule="evenodd" d="M304.021 167.672C304.021 173.075 300.307 177.462 295.74 177.462C291.17 177.462 287.459 173.075 287.459 167.672C287.459 162.269 291.17 157.882 295.74 157.882C300.307 157.882 304.021 162.269 304.021 167.672ZM298.765 167.672C298.765 165.697 297.409 164.093 295.74 164.093C294.068 164.093 292.711 165.697 292.711 167.672C292.711 169.647 294.068 171.251 295.74 171.251C297.409 171.251 298.765 169.647 298.765 167.672Z" fill="#F7CC69" fill-opacity="0.24"/>
<path fill-rule="evenodd" clip-rule="evenodd" d="M304.021 145.258C304.021 150.661 300.307 155.047 295.74 155.047C291.17 155.047 287.459 150.661 287.459 145.258C287.459 139.855 291.17 135.468 295.74 135.468C300.307 135.468 304.021 139.855 304.021 145.258ZM298.765 145.258C298.765 143.283 297.409 141.679 295.74 141.679C294.068 141.679 292.711 143.283 292.711 145.258C292.711 147.233 294.068 148.837 295.74 148.837C297.409 148.837 298.765 147.233 298.765 145.258Z" fill="#F7CC69" fill-opacity="0.24"/>
<path fill-rule="evenodd" clip-rule="evenodd" d="M175.007 90.9604C175.007 96.3634 171.294 100.75 166.727 100.75C162.156 100.75 158.446 96.3634 158.446 90.9604C158.446 85.5574 162.156 81.1707 166.727 81.1707C171.294 81.1707 175.007 85.5574 175.007 90.9604ZM169.752 90.9604C169.752 88.9853 168.396 87.3815 166.727 87.3815C165.054 87.3815 163.698 88.9853 163.698 90.9604C163.698 92.9359 165.054 94.5396 166.727 94.5396C168.396 94.5396 169.752 92.9359 169.752 90.9604Z" fill="#F7CC69" fill-opacity="0.24"/>
<path fill-rule="evenodd" clip-rule="evenodd" d="M235.616 -2.47422V9.02548C235.616 11.1891 237.107 12.9436 238.932 12.9436C240.764 12.9436 242.248 11.1891 242.248 9.02548V-15.8713C242.248 -18.0357 240.764 -19.7894 238.932 -19.7894C237.107 -19.7894 235.616 -18.0357 235.616 -15.8713V-13.009H230.363V-15.8713C230.363 -21.4655 234.204 -26 238.932 -26C243.667 -26 247.502 -21.4655 247.502 -15.8713V9.02548C247.502 14.6189 243.667 19.1542 238.932 19.1542C234.204 19.1542 230.363 14.6189 230.363 9.02548V-2.47422H235.616Z" fill="#F7CC69" fill-opacity="0.24"/>
<path fill-rule="evenodd" clip-rule="evenodd" d="M280.892 174.46C280.892 176.117 279.755 177.462 278.35 177.462C276.952 177.462 275.809 176.117 275.809 174.46C275.809 172.802 276.952 171.456 278.35 171.456C279.755 171.456 280.892 172.802 280.892 174.46Z" fill="#F7CC69" fill-opacity="0.24"/>
<path fill-rule="evenodd" clip-rule="evenodd" d="M271.542 174.46C271.542 176.117 270.406 177.462 269.001 177.462C267.602 177.462 266.46 176.117 266.46 174.46C266.46 172.802 267.602 171.456 269.001 171.456C270.406 171.456 271.542 172.802 271.542 174.46Z" fill="#F7CC69" fill-opacity="0.24"/>
<path fill-rule="evenodd" clip-rule="evenodd" d="M317.864 194.061C317.864 192.404 319.006 191.058 320.405 191.058C321.81 191.058 322.946 192.404 322.946 194.061C322.946 195.719 321.81 197.065 320.405 197.065C319.006 197.065 317.864 195.719 317.864 194.061Z" fill="#F7CC69" fill-opacity="0.24"/>
<path fill-rule="evenodd" clip-rule="evenodd" d="M245.567 287.466C245.567 289.124 244.425 290.469 243.026 290.469C241.621 290.469 240.485 289.124 240.485 287.466C240.485 285.809 241.621 284.463 243.026 284.463C244.425 284.463 245.567 285.809 245.567 287.466Z" fill="#F7CC69" fill-opacity="0.24"/>
<path fill-rule="evenodd" clip-rule="evenodd" d="M211.758 313.972C211.758 312.314 212.9 310.969 214.299 310.969C215.704 310.969 216.84 312.314 216.84 313.972C216.84 315.629 215.704 316.975 214.299 316.975C212.9 316.975 211.758 315.629 211.758 313.972Z" fill="#F7CC69" fill-opacity="0.24"/>
<path fill-rule="evenodd" clip-rule="evenodd" d="M249.387 191.348C249.387 181.292 242.492 173.141 233.988 173.141H219.811V166.93H233.988C245.394 166.93 254.64 177.862 254.64 191.348H249.387Z" fill="#F7CC69" fill-opacity="0.24"/>
<path fill-rule="evenodd" clip-rule="evenodd" d="M19.6921 301.23C19.6921 288.601 28.3468 278.363 39.0305 278.363H39.4441C50.1213 278.363 58.7825 288.601 58.7825 301.23H53.5293C53.5293 292.031 47.2255 284.574 39.4441 284.574H39.0305C31.2492 284.574 24.9454 292.031 24.9454 301.23H19.6921Z" fill="#F7CC69" fill-opacity="0.24"/>
<path fill-rule="evenodd" clip-rule="evenodd" d="M55.5725 110.144C55.5725 97.5151 64.2272 87.277 74.9109 87.277H75.3245C86.0017 87.277 94.6629 97.5151 94.6629 110.144H89.4097C89.4097 100.945 83.1058 93.4876 75.3245 93.4876H74.9109C67.1296 93.4876 60.8257 100.945 60.8257 110.144H55.5725Z" fill="#F7CC69" fill-opacity="0.24"/>
<path fill-rule="evenodd" clip-rule="evenodd" d="M224.492 157.625C224.492 144.996 233.147 134.758 243.831 134.758H244.244C254.922 134.758 263.583 144.996 263.583 157.625H258.33C258.33 148.426 252.026 140.969 244.244 140.969H243.831C236.049 140.969 229.746 148.426 229.746 157.625H224.492Z" fill="#F7CC69" fill-opacity="0.24"/>
<path fill-rule="evenodd" clip-rule="evenodd" d="M10.0261 226.135L10.0261 256.603C10.0261 268.215 2.06761 277.629 -7.75591 277.629C-17.5794 277.629 -25.5447 268.215 -25.5447 256.603V250.159H-20.2915L-20.2915 256.603C-20.2915 264.785 -14.677 271.419 -7.75591 271.419C-0.834795 271.419 4.77291 264.785 4.77291 256.603L4.77291 226.135H10.0261Z" fill="#F7CC69" fill-opacity="0.24"/>
<path fill-rule="evenodd" clip-rule="evenodd" d="M75.5798 254.833C69.7881 254.833 65.0931 260.382 65.0931 267.228V278.659H59.8398V267.228C59.8398 256.953 66.8857 248.623 75.5798 248.623V254.833Z" fill="#F7CC69" fill-opacity="0.24"/>
<path fill-rule="evenodd" clip-rule="evenodd" d="M113.561 260.326H108.307C108.307 257.506 106.377 255.221 103.993 255.221C101.61 255.221 99.6724 257.506 99.6724 260.326V260.93C99.6724 264.085 101.833 266.641 104.505 266.641H127.16V272.852H104.505C98.937 272.852 94.4192 267.514 94.4192 260.93V260.326C94.4192 254.076 98.7072 249.01 103.993 249.01C109.279 249.01 113.561 254.076 113.561 260.326Z" fill="#F7CC69" fill-opacity="0.24"/>
<path fill-rule="evenodd" clip-rule="evenodd" d="M203.235 182.081H197.982C197.982 179.261 196.051 176.976 193.667 176.976C191.284 176.976 189.346 179.261 189.346 182.081V182.686C189.346 185.84 191.507 188.397 194.18 188.397H216.834V194.607H194.18C188.611 194.607 184.093 189.27 184.093 182.686V182.081C184.093 175.832 188.381 170.765 193.667 170.765C198.953 170.765 203.235 175.832 203.235 182.081Z" fill="#F7CC69" fill-opacity="0.24"/>
<path fill-rule="evenodd" clip-rule="evenodd" d="M161.7 246.944V250.913C161.7 253.34 163.368 255.307 165.416 255.307C167.472 255.307 169.133 253.34 169.133 250.913V247.667C169.133 242.202 172.882 237.773 177.505 237.773C182.128 237.773 185.878 242.202 185.878 247.667V250.129H180.624V247.667C180.624 245.632 179.226 243.983 177.505 243.983C175.785 243.983 174.386 245.632 174.386 247.667V250.913C174.386 256.769 170.374 261.517 165.416 261.517C160.465 261.517 156.447 256.769 156.447 250.913V246.944H161.7Z" fill="#F7CC69" fill-opacity="0.24"/>
<path fill-rule="evenodd" clip-rule="evenodd" d="M259.774 271.499V275.468C259.774 277.895 261.442 279.862 263.491 279.862C265.546 279.862 267.207 277.895 267.207 275.468V272.222C267.207 266.758 270.957 262.328 275.58 262.328C280.203 262.328 283.952 266.758 283.952 272.222V274.685H278.699V272.222C278.699 270.187 277.3 268.539 275.58 268.539C273.859 268.539 272.461 270.187 272.461 272.222V275.468C272.461 281.325 268.449 286.073 263.491 286.073C258.54 286.073 254.521 281.325 254.521 275.468V271.499H259.774Z" fill="#F7CC69" fill-opacity="0.24"/>
<path fill-rule="evenodd" clip-rule="evenodd" d="M126.214 258.46V227.993C126.214 216.38 134.173 206.967 143.996 206.967C153.82 206.967 161.785 216.38 161.785 227.993V234.437H156.532V227.993C156.532 219.81 150.918 213.177 143.996 213.177C137.075 213.177 131.468 219.81 131.468 227.993V258.46H126.214Z" fill="#F7CC69" fill-opacity="0.24"/>
<path fill-rule="evenodd" clip-rule="evenodd" d="M60.6672 238.547C66.4523 238.547 71.1474 232.998 71.1474 226.153V214.721H76.4006V226.153C76.4006 236.428 69.3547 244.758 60.6672 244.758V238.547Z" fill="#F7CC69" fill-opacity="0.24"/>
<path fill-rule="evenodd" clip-rule="evenodd" d="M9.23781 307.029V303.06C9.23781 300.634 7.56981 298.666 5.52106 298.666C3.46574 298.666 1.80446 300.634 1.80446 303.06V306.305C1.80446 311.771 -1.94502 316.2 -6.56785 316.2C-11.1907 316.2 -14.9336 311.771 -14.9336 306.305V303.844H-9.68038V306.305C-9.68038 308.34 -8.28828 309.99 -6.56785 309.99C-4.84742 309.99 -3.44875 308.34 -3.44875 306.305V303.06C-3.44875 297.204 0.563334 292.456 5.52106 292.456C10.4722 292.456 14.491 297.204 14.491 303.06V307.029H9.23781Z" fill="#F7CC69" fill-opacity="0.24"/>
<path fill-rule="evenodd" clip-rule="evenodd" d="M24.3541 317.169C22.8223 317.169 21.579 315.676 21.579 313.848C21.579 312.012 22.8223 310.527 24.3541 310.527C25.8858 310.527 27.1299 312.012 27.1299 313.848C27.1299 315.676 25.8858 317.169 24.3541 317.169Z" fill="#F7CC69" fill-opacity="0.24"/>
<path fill-rule="evenodd" clip-rule="evenodd" d="M33.4302 317.169C31.8985 317.169 30.6552 315.676 30.6552 313.848C30.6552 312.012 31.8985 310.527 33.4302 310.527C34.962 310.527 36.2061 312.012 36.2061 313.848C36.2061 315.676 34.962 317.169 33.4302 317.169Z" fill="#F7CC69" fill-opacity="0.24"/>
<path fill-rule="evenodd" clip-rule="evenodd" d="M9.08057 212.543H31.7416C37.3101 212.543 41.8213 217.88 41.8213 224.464V225.069C41.8213 231.319 37.5333 236.385 32.2538 236.385C26.9678 236.385 22.6798 231.319 22.6798 225.069L25.3064 221.964L22.6798 225.059C22.6798 225.059 22.6798 224.763 22.6798 224.714C22.6798 221.876 25.3064 221.601 25.3064 221.601C25.3064 221.601 27.933 221.876 27.933 224.714C27.933 224.763 27.933 225.059 27.933 225.059L25.3064 221.964L27.933 225.069C27.933 227.889 29.8636 230.174 32.2538 230.174C34.6375 230.174 36.5681 227.889 36.5681 225.069V224.464C36.5681 221.31 34.4076 218.754 31.7416 218.754H9.08057V212.543Z" fill="#F7CC69" fill-opacity="0.24"/>
<path fill-rule="evenodd" clip-rule="evenodd" d="M126.096 283.377H148.757C154.326 283.377 158.837 288.714 158.837 295.298V295.903C158.837 302.152 154.549 307.219 149.269 307.219C143.983 307.219 139.695 302.152 139.695 295.903L142.322 292.798L139.695 295.893C139.695 295.893 139.695 295.596 139.695 295.548C139.695 292.71 142.322 292.434 142.322 292.434C142.322 292.434 144.949 292.71 144.949 295.548C144.949 295.596 144.949 295.893 144.949 295.893L142.322 292.798L144.949 295.903C144.949 298.723 146.879 301.008 149.269 301.008C151.653 301.008 153.584 298.723 153.584 295.903V295.298C153.584 292.144 151.423 289.588 148.757 289.588H126.096V283.377Z" fill="#F7CC69" fill-opacity="0.24"/>
<path fill-rule="evenodd" clip-rule="evenodd" d="M184.886 221.412C173.48 221.412 164.235 210.479 164.235 196.994V180.235H169.488V196.994C169.488 207.049 176.383 215.201 184.886 215.201V221.412Z" fill="#F7CC69" fill-opacity="0.24"/>
<path fill-rule="evenodd" clip-rule="evenodd" d="M44.1276 301.308C44.1276 298.183 41.9805 295.646 39.3342 295.646C36.6944 295.646 34.5472 298.183 34.5472 301.308H29.2939C29.2939 294.755 33.792 289.436 39.3342 289.436C44.8829 289.436 49.3808 294.755 49.3808 301.308H44.1276Z" fill="#F7CC69" fill-opacity="0.24"/>
<path fill-rule="evenodd" clip-rule="evenodd" d="M80.0033 110.221C80.0033 107.096 77.8562 104.559 75.2099 104.559C72.5702 104.559 70.4229 107.096 70.4229 110.221H65.1697C65.1697 103.668 69.6678 98.3486 75.2099 98.3486C80.7586 98.3486 85.2566 103.668 85.2566 110.221H80.0033Z" fill="#F7CC69" fill-opacity="0.24"/>
<path fill-rule="evenodd" clip-rule="evenodd" d="M248.923 157.702C248.923 154.577 246.776 152.04 244.13 152.04C241.49 152.04 239.343 154.577 239.343 157.702H234.089C234.089 151.149 238.587 145.83 244.13 145.83C249.678 145.83 254.176 151.149 254.176 157.702H248.923Z" fill="#F7CC69" fill-opacity="0.24"/>
<path fill-rule="evenodd" clip-rule="evenodd" d="M168.247 269.407C168.247 279.463 175.142 287.614 183.646 287.614H197.823V293.825H183.646C172.24 293.825 162.994 282.893 162.994 269.407H168.247Z" fill="#F7CC69" fill-opacity="0.24"/>
<path fill-rule="evenodd" clip-rule="evenodd" d="M86.7336 201.061C95.1895 201.061 102.044 192.862 102.044 182.749V116.701H107.267V182.749C107.267 196.313 98.0736 207.308 86.7336 207.308V201.061Z" fill="#F7CC69" fill-opacity="0.24"/>
<path fill-rule="evenodd" clip-rule="evenodd" d="M186.421 317.693H178.311C171.384 317.693 165.77 311.055 165.77 302.866H171.023C171.023 307.625 174.286 311.482 178.311 311.482H186.421V317.693Z" fill="#F7CC69" fill-opacity="0.24"/>
<path fill-rule="evenodd" clip-rule="evenodd" d="M268.776 301.284H276.885C283.813 301.284 289.427 307.923 289.427 316.111H284.174C284.174 311.353 280.911 307.495 276.885 307.495H268.776V301.284Z" fill="#F7CC69" fill-opacity="0.24"/>
<path fill-rule="evenodd" clip-rule="evenodd" d="M-4.40034 242.382L-4.40034 230.882C-4.40034 228.718 -5.88424 226.964 -7.7163 226.964C-9.54836 226.964 -11.0324 228.718 -11.0324 230.882L-11.0324 255.779C-11.0324 257.943 -9.54836 259.697 -7.7163 259.697C-5.88424 259.697 -4.40034 257.943 -4.40034 255.779V252.917H0.852882V255.779C0.852882 261.373 -2.98184 265.908 -7.7163 265.908C-12.4508 265.908 -16.2856 261.373 -16.2856 255.779L-16.2856 230.882C-16.2856 225.288 -12.4508 220.753 -7.7163 220.753C-2.98184 220.753 0.852882 225.288 0.852882 230.882V242.382H-4.40034Z" fill="#F7CC69" fill-opacity="0.24"/>
<path fill-rule="evenodd" clip-rule="evenodd" d="M206.806 224.772V213.272C206.806 211.108 205.322 209.354 203.49 209.354C201.658 209.354 200.174 211.108 200.174 213.272V238.169C200.174 240.334 201.658 242.087 203.49 242.087C205.322 242.087 206.806 240.334 206.806 238.169V235.307H212.059V238.169C212.059 243.763 208.224 248.298 203.49 248.298C198.756 248.298 194.921 243.763 194.921 238.169V213.272C194.921 207.678 198.756 203.144 203.49 203.144C208.224 203.144 212.059 207.678 212.059 213.272V224.772H206.806Z" fill="#F7CC69" fill-opacity="0.24"/>
<path fill-rule="evenodd" clip-rule="evenodd" d="M33.5477 268.496C33.5477 273.899 29.837 278.286 25.2701 278.286C20.6998 278.286 16.9893 273.899 16.9893 268.496C16.9893 263.093 20.6998 258.706 25.2701 258.706C29.837 258.706 33.5477 263.093 33.5477 268.496ZM28.2957 268.496C28.2957 266.521 26.939 264.917 25.2701 264.917C23.5978 264.917 22.2412 266.521 22.2412 268.496C22.2412 270.472 23.5978 272.075 25.2701 272.075C26.939 272.075 28.2957 270.472 28.2957 268.496Z" fill="#F7CC69" fill-opacity="0.24"/>
<path fill-rule="evenodd" clip-rule="evenodd" d="M42.5892 104.606C42.5892 110.009 38.8785 114.395 34.3116 114.395C29.7413 114.395 26.0308 110.009 26.0308 104.606C26.0308 99.2027 29.7413 94.816 34.3116 94.816C38.8785 94.816 42.5892 99.2027 42.5892 104.606ZM37.3372 104.606C37.3372 102.631 35.9805 101.027 34.3116 101.027C32.6393 101.027 31.2827 102.631 31.2827 104.606C31.2827 106.581 32.6393 108.185 34.3116 108.185C35.9805 108.185 37.3372 106.581 37.3372 104.606Z" fill="#F7CC69" fill-opacity="0.24"/>
<path fill-rule="evenodd" clip-rule="evenodd" d="M140.641 242.214V253.714C140.641 255.877 142.132 257.632 143.957 257.632C145.789 257.632 147.273 255.877 147.273 253.714V228.817C147.273 226.653 145.789 224.899 143.957 224.899C142.132 224.899 140.641 226.653 140.641 228.817V231.679H135.388V228.817C135.388 223.223 139.229 218.688 143.957 218.688C148.692 218.688 152.526 223.223 152.526 228.817V253.714C152.526 259.307 148.692 263.842 143.957 263.842C139.229 263.842 135.388 259.307 135.388 253.714V242.214H140.641Z" fill="#F7CC69" fill-opacity="0.24"/>
<path fill-rule="evenodd" clip-rule="evenodd" d="M85.0029 251.147C85.0029 252.804 83.8668 254.149 82.4616 254.149C81.0629 254.149 79.9204 252.804 79.9204 251.147C79.9204 249.489 81.0629 248.143 82.4616 248.143C83.8668 248.143 85.0029 249.489 85.0029 251.147Z" fill="#F7CC69" fill-opacity="0.24"/>
<path fill-rule="evenodd" clip-rule="evenodd" d="M51.2378 242.233C51.2378 240.576 52.3804 239.231 53.7791 239.231C55.1843 239.231 56.3203 240.576 56.3203 242.233C56.3203 243.891 55.1843 245.237 53.7791 245.237C52.3804 245.237 51.2378 243.891 51.2378 242.233Z" fill="#F7CC69" fill-opacity="0.24"/>
<path fill-rule="evenodd" clip-rule="evenodd" d="M-1.88452 208.299C-1.88452 206.641 -0.74187 205.296 0.6568 205.296C2.06204 205.296 3.19796 206.641 3.19796 208.299C3.19796 209.956 2.06204 211.302 0.6568 211.302C-0.74187 211.302 -1.88452 209.956 -1.88452 208.299Z" fill="#F7CC69" fill-opacity="0.24"/>
<path fill-rule="evenodd" clip-rule="evenodd" d="M100.232 227.8C100.232 222.397 103.943 218.01 108.513 218.01C113.083 218.01 116.794 222.397 116.794 227.8C116.794 233.203 113.083 237.589 108.513 237.589C103.943 237.589 100.232 233.203 100.232 227.8ZM105.484 227.8C105.484 229.775 106.841 231.379 108.513 231.379C110.182 231.379 111.539 229.775 111.539 227.8C111.539 225.825 110.182 224.221 108.513 224.221C106.841 224.221 105.484 225.825 105.484 227.8Z" fill="#F7CC69" fill-opacity="0.24"/>
<path fill-rule="evenodd" clip-rule="evenodd" d="M91.9943 2.90769C91.9943 4.56514 90.8583 5.9105 89.453 5.9105C88.0544 5.9105 86.9119 4.56514 86.9119 2.90769C86.9119 1.25023 88.0544 -0.0959325 89.453 -0.0959325C90.8583 -0.0959325 91.9943 1.25023 91.9943 2.90769Z" fill="#F7CC69" fill-opacity="0.24"/>
</svg>
