<svg width="135" height="240" viewBox="0 0 135 240" fill="none" xmlns="http://www.w3.org/2000/svg">
<g clip-path="url(#clip0_37_1238)">
<rect x="19.3723" y="57.0618" width="18.8182" height="45.1221" rx="9.40909" stroke="#18BC7A" stroke-width="6"/>
<path d="M140.339 130.567H111.591C106.366 130.567 102.13 134.803 102.13 140.028V140.678C102.13 145.544 106.075 149.489 110.942 149.489V149.489C115.808 149.489 119.753 145.544 119.753 140.678V140.288" stroke="#18BC7A" stroke-width="6"/>
<rect x="7" y="127.864" width="14.3476" height="14.3476" rx="7.17378" stroke="#18BC7A" stroke-width="6"/>
<rect x="80.4019" y="147.306" width="6.44601" height="6.44601" rx="3.223" fill="#18BC7A"/>
<path d="M69.0684 107.278V82.274C69.0684 77.0775 64.8558 72.8649 59.6593 72.8649V72.8649C54.4628 72.8649 50.2502 77.0775 50.2502 82.274V85.8609" stroke="#18BC7A" stroke-width="6"/>
<path d="M125.835 51.8634L125.835 71.3573C125.835 75.4054 122.553 78.6871 118.505 78.6871V78.6871C114.457 78.6871 111.175 75.4054 111.175 71.3573L111.175 68.5573" stroke="#18BC7A" stroke-width="6"/>
<path d="M98.5951 25.0397L98.5951 75.0482C98.5951 85.6709 107.207 94.2823 117.829 94.2823V94.2823C128.452 94.2823 137.063 85.6709 137.063 75.0482L137.063 68.1332" stroke="#18BC7A" stroke-width="6"/>
<path d="M68.4968 59.557V59.557C77.0811 59.557 84.04 66.5159 84.04 75.1002V122.25" stroke="#18BC7A" stroke-width="6"/>
<path d="M74.8914 149.905V149.905C65.7042 149.905 58.2565 142.457 58.2565 133.27L58.2565 121.002" stroke="#18BC7A" stroke-width="6"/>
<path d="M144.133 109.669L133.84 109.669C126.892 109.669 121.26 115.302 121.26 122.25V122.25" stroke="#18BC7A" stroke-width="6"/>
<path d="M7.31201 96.7775V96.7775C7.31201 108.491 16.8078 117.987 28.5214 117.987H29.0413C40.7549 117.987 50.2507 108.491 50.2507 96.7775V96.7775" stroke="#18BC7A" stroke-width="6"/>
</g>
<defs>
<clipPath id="clip0_37_1238">
<rect width="135" height="240" fill="white"/>
</clipPath>
</defs>
</svg>
