<svg width="403" height="169" viewBox="0 0 403 169" fill="none" xmlns="http://www.w3.org/2000/svg">
<rect x="141.767" y="43.6821" width="22.5863" height="54.1573" rx="11.2932" stroke="#B8A16B" stroke-width="8"/>
<rect x="352.28" y="4" width="22.5863" height="54.1573" rx="11.2932" stroke="#FBAA95" stroke-width="8"/>
<path d="M303.49 167.371V152.558C303.49 147.561 307.541 143.511 312.537 143.511V143.511C317.534 143.511 321.584 147.561 321.584 152.558V184.628C321.584 189.625 317.534 193.675 312.537 193.675V193.675C307.541 193.675 303.49 189.625 303.49 184.628L303.49 180.941" stroke="#B8A16B" stroke-width="8"/>
<path d="M286.956 131.906H252.452C246.181 131.906 241.097 136.99 241.097 143.262V144.041C241.097 149.882 245.832 154.617 251.672 154.617V154.617C257.513 154.617 262.248 149.882 262.248 144.041V143.574" stroke="#FBAA95" stroke-width="8"/>
<rect x="126.917" y="128.662" width="17.2205" height="17.2205" rx="8.61026" stroke="#FC2C2C" stroke-width="8"/>
<rect x="215.017" y="151.997" width="7.73675" height="7.73675" rx="3.86838" fill="#FC2C2C"/>
<rect x="317.715" y="65.0205" width="7.73675" height="7.73675" rx="3.86838" fill="#FC2C2C"/>
<rect x="317.715" y="50.4204" width="7.73675" height="7.73675" rx="3.86838" fill="#FC2C2C"/>
<path d="M201.414 103.954V73.9428C201.414 67.7058 196.358 62.6497 190.121 62.6497V62.6497C183.884 62.6497 178.828 67.7058 178.828 73.9428V78.2479" stroke="#FBAA95" stroke-width="8"/>
<path d="M269.548 37.4428L269.548 60.8403C269.548 65.699 265.609 69.6377 260.751 69.6377V69.6377C255.892 69.6377 251.953 65.6989 251.953 60.8403L251.953 57.4795" stroke="#FBAA95" stroke-width="8"/>
<path d="M236.853 5.24778L236.853 65.27C236.853 78.0198 247.189 88.3555 259.939 88.3555V88.3555C272.689 88.3555 283.024 78.0198 283.024 65.27L283.024 56.9704" stroke="#FBAA95" stroke-width="8"/>
<path d="M289.514 146.444L289.514 185.689C289.514 198.439 299.849 208.774 312.599 208.774V208.774C325.349 208.774 335.685 198.439 335.685 185.689L335.685 177.389" stroke="#FBAA95" stroke-width="8"/>
<path d="M200.729 46.677V46.677C211.032 46.677 219.384 55.0294 219.384 65.3326V121.923" stroke="#FC2C2C" stroke-width="8"/>
<path d="M285.271 46.677V46.677C295.608 46.677 303.988 55.0573 303.988 65.395V131.906" stroke="#FBAA95" stroke-width="8"/>
<path d="M208.402 155.116V155.116C197.376 155.116 188.437 146.177 188.437 135.15L188.437 120.426" stroke="#FBAA95" stroke-width="8"/>
<path d="M338.617 132.343V132.343C338.617 117.181 350.908 104.89 366.07 104.89L387.658 104.89" stroke="#B8A16B" stroke-width="8"/>
<path d="M335.56 161.278V156.166C335.56 150.831 339.885 146.506 345.22 146.506V146.506C350.555 146.506 354.88 150.831 354.88 156.166V160.346C354.88 165.177 358.796 169.092 363.626 169.092V169.092C368.456 169.092 372.372 165.177 372.372 160.346V157.175" stroke="#FBAA95" stroke-width="8"/>
<path d="M363.138 77.9983V77.9983C347.976 77.9983 335.685 65.7072 335.685 50.5453L335.685 28.9573" stroke="#FC2C2C" stroke-width="8"/>
<path d="M291.51 106.824L279.156 106.824C270.817 106.824 264.057 113.584 264.057 121.923V121.923" stroke="#FC2C2C" stroke-width="8"/>
<path d="M127.291 91.3503V91.3503C127.291 105.41 138.688 116.807 152.747 116.807H153.371C167.431 116.807 178.828 105.41 178.828 91.3503V91.3503" stroke="#FBAA95" stroke-width="8"/>
<path d="M90.6035 155.839L90.6035 170.652C90.6035 175.648 86.553 179.699 81.5565 179.699V179.699C76.56 179.699 72.5095 175.648 72.5095 170.652L72.5095 138.582C72.5095 133.585 76.56 129.535 81.5565 129.535V129.535C86.553 129.535 90.6035 133.585 90.6035 138.582L90.6035 142.269" stroke="#B8A16B" stroke-width="8"/>
<path d="M107.138 191.304L141.642 191.304C147.913 191.304 152.997 186.22 152.997 179.949L152.997 179.169C152.997 173.328 148.262 168.593 142.421 168.593V168.593C136.581 168.593 131.846 173.328 131.846 179.169L131.846 179.637" stroke="#FBAA95" stroke-width="8"/>
<rect x="24.4668" y="108.696" width="37.935" height="37.935" rx="18.9675" transform="rotate(-180 24.4668 108.696)" stroke="#FBAA95" stroke-width="8"/>
<rect x="179.077" y="171.214" width="7.73675" height="7.73675" rx="3.86838" transform="rotate(-180 179.077 171.214)" fill="#FC2C2C"/>
<path d="M104.58 176.767L104.58 137.521C104.58 124.772 94.2444 114.436 81.4946 114.436V114.436C68.7449 114.436 58.4092 124.772 58.4092 137.521L58.4092 145.821" stroke="#FBAA95" stroke-width="8"/>
<path d="M185.69 168.094V168.094C196.717 168.094 205.656 177.033 205.656 188.06L205.656 202.785" stroke="#FBAA95" stroke-width="8"/>
<path d="M19.2266 125.043V125.043C34.3884 125.043 46.6795 112.752 46.6795 97.5897L46.6796 76.0017" stroke="#FBAA95" stroke-width="8"/>
<path d="M58.5332 161.932L58.5332 167.044C58.5332 172.379 54.2081 176.704 48.8729 176.704V176.704C43.5377 176.704 39.2126 172.379 39.2126 167.044L39.2126 162.863C39.2126 158.033 35.2971 154.118 30.4669 154.118V154.118C25.6368 154.118 21.7212 158.033 21.7212 162.863L21.7212 166.035" stroke="#FBAA95" stroke-width="8"/>
</svg>
