<svg width="373" height="324" viewBox="0 0 373 324" fill="none" xmlns="http://www.w3.org/2000/svg">
<rect x="135.332" y="43.6821" width="22.5863" height="54.1573" rx="11.2932" stroke="#B8A16B" stroke-width="8"/>
<rect x="345.845" y="4" width="22.5863" height="54.1573" rx="11.2932" stroke="#18BC7A" stroke-width="8"/>
<path d="M297.055 167.371V152.558C297.055 147.561 301.106 143.511 306.102 143.511V143.511C311.099 143.511 315.149 147.561 315.149 152.558V184.628C315.149 189.625 311.099 193.675 306.102 193.675V193.675C301.106 193.675 297.055 189.625 297.055 184.628L297.055 180.941" stroke="#B8A16B" stroke-width="8"/>
<path d="M280.521 131.906H246.017C239.746 131.906 234.662 136.99 234.662 143.262V144.041C234.662 149.882 239.397 154.617 245.237 154.617V154.617C251.078 154.617 255.813 149.882 255.813 144.041V143.574" stroke="#18BC7A" stroke-width="8"/>
<rect x="120.482" y="128.662" width="17.2205" height="17.2205" rx="8.61026" stroke="#B8A16B" stroke-width="8"/>
<rect x="363.191" y="214.515" width="37.935" height="37.935" rx="18.9675" stroke="#18BC7A" stroke-width="8"/>
<rect x="208.582" y="151.997" width="7.73675" height="7.73675" rx="3.86838" fill="#B8A16B"/>
<rect x="311.28" y="65.0205" width="7.73675" height="7.73675" rx="3.86838" fill="#B8A16B"/>
<rect x="311.28" y="50.4204" width="7.73675" height="7.73675" rx="3.86838" fill="#B8A16B"/>
<path d="M194.98 103.954V73.9428C194.98 67.7058 189.924 62.6497 183.687 62.6497V62.6497C177.45 62.6497 172.393 67.7058 172.393 73.9428V78.2479" stroke="#18BC7A" stroke-width="8"/>
<path d="M263.113 37.4428L263.113 60.8403C263.113 65.699 259.174 69.6377 254.316 69.6377V69.6377C249.457 69.6377 245.518 65.6989 245.518 60.8403L245.518 57.4795" stroke="#18BC7A" stroke-width="8"/>
<path d="M230.419 5.24778L230.419 65.27C230.419 78.0198 240.754 88.3555 253.504 88.3555V88.3555C266.254 88.3555 276.59 78.0198 276.59 65.27L276.59 56.9704" stroke="#18BC7A" stroke-width="8"/>
<path d="M283.079 146.444L283.079 185.689C283.079 198.439 293.414 208.774 306.164 208.774V208.774C318.914 208.774 329.25 198.439 329.25 185.689L329.25 177.389" stroke="#18BC7A" stroke-width="8"/>
<path d="M194.294 46.677V46.677C204.597 46.677 212.949 55.0294 212.949 65.3326V121.923" stroke="#B8A16B" stroke-width="8"/>
<path d="M278.835 46.677V46.677C289.173 46.677 297.553 55.0573 297.553 65.395V131.906" stroke="#18BC7A" stroke-width="8"/>
<path d="M201.968 155.116V155.116C190.941 155.116 182.002 146.177 182.002 135.15L182.002 120.426" stroke="#18BC7A" stroke-width="8"/>
<path d="M368.432 198.167V198.167C353.27 198.167 340.979 210.459 340.979 225.62L340.979 247.208" stroke="#18BC7A" stroke-width="8"/>
<path d="M332.182 132.343V132.343C332.182 117.181 344.473 104.89 359.635 104.89L381.223 104.89" stroke="#B8A16B" stroke-width="8"/>
<path d="M329.125 161.278V156.166C329.125 150.831 333.45 146.506 338.785 146.506V146.506C344.12 146.506 348.445 150.831 348.445 156.166V160.346C348.445 165.177 352.361 169.092 357.191 169.092V169.092C362.021 169.092 365.936 165.177 365.936 160.346V157.175" stroke="#18BC7A" stroke-width="8"/>
<path d="M356.703 77.9983V77.9983C341.541 77.9983 329.25 65.7072 329.25 50.5453L329.25 28.9573" stroke="#B8A16B" stroke-width="8"/>
<path d="M285.075 106.824L272.721 106.824C264.382 106.824 257.622 113.584 257.622 121.923V121.923" stroke="#B8A16B" stroke-width="8"/>
<path d="M120.856 91.3503V91.3503C120.856 105.41 132.253 116.807 146.313 116.807H146.937C160.996 116.807 172.393 105.41 172.393 91.3503V91.3503" stroke="#18BC7A" stroke-width="8"/>
<rect x="245.892" y="279.528" width="22.5863" height="54.1573" rx="11.2932" transform="rotate(-180 245.892 279.528)" stroke="#B8A16B" stroke-width="8"/>
<rect x="35.3776" y="319.21" width="22.5863" height="54.1573" rx="11.2932" transform="rotate(-180 35.3776 319.21)" stroke="#18BC7A" stroke-width="8"/>
<path d="M84.1686 155.839L84.1686 170.652C84.1686 175.648 80.1181 179.699 75.1216 179.699V179.699C70.125 179.699 66.0746 175.648 66.0746 170.652L66.0746 138.582C66.0746 133.585 70.1251 129.535 75.1216 129.535V129.535C80.1181 129.535 84.1686 133.585 84.1686 138.582L84.1686 142.269" stroke="#B8A16B" stroke-width="8"/>
<path d="M100.703 191.304L135.207 191.304C141.478 191.304 146.562 186.22 146.562 179.949L146.562 179.169C146.562 173.328 141.827 168.593 135.986 168.593V168.593C130.146 168.593 125.411 173.328 125.411 179.169L125.411 179.637" stroke="#18BC7A" stroke-width="8"/>
<rect x="260.742" y="194.549" width="17.2205" height="17.2205" rx="8.61026" transform="rotate(-180 260.742 194.549)" stroke="#B8A16B" stroke-width="8"/>
<rect x="172.642" y="171.214" width="7.73675" height="7.73675" rx="3.86838" transform="rotate(-180 172.642 171.214)" fill="#B8A16B"/>
<rect x="69.943" y="258.19" width="7.73675" height="7.73675" rx="3.86838" transform="rotate(-180 69.943 258.19)" fill="#B8A16B"/>
<rect x="69.943" y="272.79" width="7.73675" height="7.73675" rx="3.86838" transform="rotate(-180 69.943 272.79)" fill="#B8A16B"/>
<path d="M186.243 219.256L186.243 249.267C186.243 255.504 191.3 260.561 197.537 260.561V260.561C203.774 260.561 208.83 255.504 208.83 249.267L208.83 244.962" stroke="#18BC7A" stroke-width="8"/>
<path d="M118.111 285.767L118.111 262.37C118.111 257.511 122.05 253.573 126.908 253.573V253.573C131.767 253.573 135.706 257.511 135.706 262.37L135.706 265.731" stroke="#18BC7A" stroke-width="8"/>
<path d="M150.805 317.962L150.805 257.94C150.805 245.19 140.47 234.855 127.72 234.855V234.855C114.97 234.855 104.634 245.19 104.634 257.94L104.634 266.24" stroke="#18BC7A" stroke-width="8"/>
<path d="M98.145 176.767L98.145 137.521C98.145 124.772 87.8093 114.436 75.0596 114.436V114.436C62.3098 114.436 51.9741 124.772 51.9741 137.521L51.9741 145.821" stroke="#18BC7A" stroke-width="8"/>
<path d="M186.93 276.533V276.533C176.627 276.533 168.275 268.181 168.275 257.878L168.275 201.287" stroke="#B8A16B" stroke-width="8"/>
<path d="M102.388 276.533V276.533C92.0499 276.533 83.6696 268.153 83.6696 257.815L83.6696 191.304" stroke="#18BC7A" stroke-width="8"/>
<path d="M179.255 168.094V168.094C190.282 168.094 199.221 177.033 199.221 188.06L199.221 202.785" stroke="#18BC7A" stroke-width="8"/>
<path d="M49.0409 190.867V190.867C49.0409 206.029 36.7498 218.32 21.5879 218.32L-0.000128989 218.32" stroke="#B8A16B" stroke-width="8"/>
<path d="M52.0983 161.932L52.0983 167.044C52.0983 172.379 47.7732 176.704 42.438 176.704V176.704C37.1028 176.704 32.7777 172.379 32.7777 167.044L32.7777 162.863C32.7777 158.033 28.8621 154.118 24.032 154.118V154.118C19.2019 154.118 15.2863 158.033 15.2863 162.863L15.2863 166.035" stroke="#18BC7A" stroke-width="8"/>
<path d="M24.5201 245.212V245.212C39.682 245.212 51.9731 257.503 51.9731 272.665L51.9731 294.253" stroke="#B8A16B" stroke-width="8"/>
<path d="M96.1478 216.386L108.502 216.386C116.841 216.386 123.601 209.626 123.601 201.287V201.287" stroke="#B8A16B" stroke-width="8"/>
<path d="M260.367 231.86V231.86C260.367 217.801 248.97 206.403 234.91 206.403L234.286 206.403C220.227 206.403 208.83 217.801 208.83 231.86V231.86" stroke="#18BC7A" stroke-width="8"/>
</svg>
