<svg width="27" height="23" viewBox="0 0 27 23" fill="none" xmlns="http://www.w3.org/2000/svg">
<path fill-rule="evenodd" clip-rule="evenodd" d="M26.7439 16.6057V8.08545H0V16.618C0 18.7963 0.253148 20.5336 1.38313 21.6483C2.50903 22.7599 4.25759 23.0059 6.45732 22.9998H20.2876C22.4884 22.9998 24.2359 22.7497 25.3618 21.6371C26.4897 20.5214 26.7439 18.784 26.7439 16.6057ZM5.90815 16.1709C5.39369 16.1709 4.97518 16.5884 4.97518 17.1039C4.97518 17.6183 5.39369 18.0358 5.90815 18.0358H8.39676C8.91123 18.0358 9.32974 17.6183 9.32974 17.1039C9.32974 16.5884 8.91123 16.1709 8.39676 16.1709H5.90815ZM10.573 17.1039C10.573 16.5884 10.9905 16.1709 11.506 16.1709H16.4812C16.9967 16.1709 17.4142 16.5884 17.4142 17.1039C17.4142 17.6183 16.9967 18.0358 16.4812 18.0358H11.506C10.9905 18.0358 10.573 17.6183 10.573 17.1039ZM1.87003 6.39302C1.87105 6.43181 1.87309 6.46652 1.87615 6.39302H1.87003ZM24.8779 6.39302C24.8769 6.30524 24.8759 6.35117 24.8739 6.39302H1.87003C1.86799 6.35117 1.86697 6.30524 1.86697 6.39302H0.00816548C0.00306169 6.61044 0 6.17662 0 6.39302V6.29197C0.00816608 4.16062 0.271522 2.46105 1.38211 1.36271C2.50801 0.250085 4.25554 0 6.4563 0H20.2753C22.4822 0 24.2328 0.250086 25.3597 1.36169C26.4907 2.47841 26.7439 4.21574 26.7439 6.39302C26.7439 6.1705 26.7408 6.60738 26.7357 6.39302H24.8739C24.8728 6.43181 24.8708 6.46652 24.8677 6.39302H24.8779Z" fill="#18BC7A"/>
</svg>
