<svg width="256" height="88" viewBox="0 0 256 88" fill="none" xmlns="http://www.w3.org/2000/svg">
<ellipse cx="128" cy="82" rx="128" ry="6" fill="#F5EFEF" fill-opacity="0.43"/>
<path d="M140.008 50C140.008 50 145.817 61.6147 145.785 73.5231" stroke="black" stroke-width="3" stroke-miterlimit="1.5" stroke-linejoin="round"/>
<path fill-rule="evenodd" clip-rule="evenodd" d="M153.43 70.0048C143.81 70.0048 136 74.1297 136 79.2104C136 84.2911 143.81 82.7943 153.43 82.7943C163.05 82.7943 170.859 84.2911 170.859 79.2104C170.859 74.1297 163.05 70.0048 153.43 70.0048Z" fill="#D9D1BB"/>
<path fill-rule="evenodd" clip-rule="evenodd" d="M148.75 71.7433L148.89 67.8966L140.327 69.8642L142.004 73.992L148.75 71.7433Z" fill="#D9D1BB"/>
<path d="M116.285 51.3546C116.285 51.3546 110.476 63.9311 110.507 76.8256" stroke="black" stroke-width="3" stroke-miterlimit="1.5" stroke-linejoin="round"/>
<path fill-rule="evenodd" clip-rule="evenodd" d="M101.841 69.0048C111.461 69.0048 119.27 73.1297 119.27 78.2104C119.27 83.2911 111.461 81.7943 101.841 81.7943C92.2207 81.7943 84.4111 83.2911 84.4111 78.2104C84.4111 73.1297 92.2207 69.0048 101.841 69.0048Z" fill="#D9D1BB"/>
<path fill-rule="evenodd" clip-rule="evenodd" d="M107.86 70.8838L107.719 67.0371L116.283 69.0047L114.606 73.1325L107.86 70.8838Z" fill="#D9D1BB"/>
<path d="M182.064 27.3425C182.064 27.3425 178.194 41.6934 171.214 43.1226C168.183 43.7436 167.081 31.6022 160.045 32.1887" stroke="black" stroke-width="3" stroke-miterlimit="1.5" stroke-linejoin="round"/>
<path fill-rule="evenodd" clip-rule="evenodd" d="M187.803 19.0721C187.845 19.0314 187.901 18.9906 187.943 18.9498C192.539 14.9401 197.388 12.9655 198.765 14.5438C200.143 16.1221 197.529 20.6589 192.933 24.6672C189.714 27.4752 186.369 29.2854 184.188 29.575C183.39 30.1371 182.563 30.3578 181.812 30.1343C179.805 29.537 179.084 25.9967 180.202 22.2315C181.321 18.4664 183.861 15.8944 185.863 16.4903C186.833 16.7756 187.494 17.7355 187.803 19.0721Z" fill="#00C26B"/>
<path d="M74.3853 27.7282C74.3853 27.7282 78.2555 42.0791 85.2355 43.5083C88.2668 44.1293 89.3691 31.988 96.405 32.5744" stroke="black" stroke-width="3" stroke-miterlimit="1.5" stroke-linejoin="round"/>
<path fill-rule="evenodd" clip-rule="evenodd" d="M68.647 18.9978C68.6048 18.957 68.5486 18.9163 68.5064 18.8755C63.9106 14.8658 59.0619 12.8911 57.6845 14.4694C56.3072 16.0478 58.9213 20.5845 63.5171 24.5928C66.7356 27.4009 70.0805 29.2111 72.2617 29.5006C73.06 30.0628 73.8864 30.2835 74.6383 30.06C76.6453 29.4627 77.3663 25.9224 76.2476 22.1572C75.1288 18.392 72.5892 15.8201 70.5864 16.416C69.6167 16.7013 68.9561 17.6612 68.647 18.9978Z" fill="#00C26B"/>
<path fill-rule="evenodd" clip-rule="evenodd" d="M160 13.1442C160 9.65703 158.784 6.31413 156.616 3.84784C154.451 1.38434 151.514 0 148.45 0C136.631 0 118.369 0 106.55 0C103.486 0 100.549 1.38434 98.3837 3.84784C96.2165 6.31413 95 9.65703 95 13.1442C95 21.0147 95 30.9853 95 38.8557C95 42.3429 96.2165 45.6859 98.3837 48.1494C100.549 50.6157 103.486 52 106.55 52H148.45C151.514 52 154.451 50.6157 156.616 48.1494C158.784 45.6859 160 42.3429 160 38.8557C160 30.9853 160 21.0147 160 13.1442Z" fill="#00C26B"/>
<path d="M116.232 21.8304C118.6 21.8304 120.519 19.9742 120.519 17.6844C120.519 15.3946 118.6 13.5383 116.232 13.5383C113.865 13.5383 111.946 15.3946 111.946 17.6844C111.946 19.9742 113.865 21.8304 116.232 21.8304Z" fill="white"/>
<path d="M136.049 21.8304C138.416 21.8304 140.335 19.9742 140.335 17.6844C140.335 15.3946 138.416 13.5383 136.049 13.5383C133.681 13.5383 131.762 15.3946 131.762 17.6844C131.762 19.9742 133.681 21.8304 136.049 21.8304Z" fill="white"/>
<path fill-rule="evenodd" clip-rule="evenodd" d="M115.42 37.5264C117.718 34.9046 122.711 33.6886 127.622 33.6521C132.478 33.6157 137.379 34.7076 139.546 37.4461L142.72 34.9362C139.942 31.4244 133.819 29.559 127.593 29.6052C121.418 29.6514 115.264 31.5606 112.375 34.8584L115.42 37.5264Z" fill="white"/>
</svg>
