<svg width="349" height="117" viewBox="0 0 349 117" fill="none" xmlns="http://www.w3.org/2000/svg">
<g clip-path="url(#clip0_223_4402)">
<path d="M194.19 14.1576V4.07883C194.19 0.679197 196.946 -2.07675 200.346 -2.07675V-2.07675C203.745 -2.07675 206.501 0.679193 206.501 4.07882V25.8993C206.501 29.2989 203.745 32.0548 200.346 32.0548V32.0548C196.946 32.0548 194.19 29.2989 194.19 25.8993L194.19 23.3907" stroke="#B8A16B" stroke-width="5"/>
<path d="M182.94 -9.97287H159.464C155.196 -9.97287 151.737 -6.51369 151.737 -2.24656V-1.71591C151.737 2.25814 154.959 5.47975 158.933 5.47975V5.47975C162.907 5.47975 166.129 2.25815 166.129 -1.7159V-2.0343" stroke="#18BC7A" stroke-width="5"/>
<rect x="74.0499" y="-12.1804" width="11.7168" height="11.7168" rx="5.85841" stroke="#07234B" stroke-width="5"/>
<rect x="239.189" y="46.2339" width="25.811" height="25.811" rx="12.9055" stroke="#FBAA95" stroke-width="5"/>
<rect x="133.993" y="3.69678" width="5.26408" height="5.26408" rx="2.63204" fill="#07234B"/>
<path d="M184.68 -0.0815353L184.68 26.6209C184.68 35.2958 191.713 42.3282 200.388 42.3282V42.3282C209.062 42.3282 216.095 35.2958 216.095 26.6209L216.095 20.9739" stroke="#FBAA95" stroke-width="5"/>
<path d="M129.493 5.81933V5.81933C121.99 5.81933 115.908 -0.262748 115.908 -7.76538L115.908 -17.7841" stroke="#FBAA95" stroke-width="5"/>
<path d="M242.755 35.1114V35.1114C232.439 35.1114 224.076 43.4743 224.076 53.7904L224.076 68.4789" stroke="#18BC7A" stroke-width="5"/>
<path d="M216.01 10.012V6.53378C216.01 2.9037 218.953 -0.0390625 222.583 -0.0390625V-0.0390625C226.213 -0.0390625 229.156 2.9037 229.156 6.53378V9.37808C229.156 12.6645 231.82 15.3286 235.107 15.3286V15.3286C238.393 15.3286 241.057 12.6645 241.057 9.37809V7.22027" stroke="#18BC7A" stroke-width="5"/>
<rect x="159.379" y="90.4691" width="15.3677" height="36.8485" rx="7.68386" transform="rotate(-180 159.379 90.4691)" stroke="#B8A16B" stroke-width="5"/>
<rect x="16.1447" y="117.469" width="15.3677" height="36.8485" rx="7.68386" transform="rotate(-180 16.1447 117.469)" stroke="#18BC7A" stroke-width="5"/>
<path d="M49.3424 6.31114L49.3424 16.39C49.3424 19.7896 46.5865 22.5455 43.1868 22.5455V22.5455C39.7872 22.5455 37.0313 19.7896 37.0313 16.39L37.0313 -5.43049C37.0313 -8.83012 39.7872 -11.5861 43.1868 -11.5861V-11.5861C46.5865 -11.5861 49.3424 -8.83012 49.3424 -5.43049L49.3424 -2.92189" stroke="#B8A16B" stroke-width="5"/>
<path d="M60.5923 30.4416L84.0684 30.4416C88.3355 30.4416 91.7947 26.9824 91.7947 22.7153L91.7947 22.1846C91.7947 18.2106 88.5731 14.989 84.599 14.989V14.989C80.625 14.989 77.4034 18.2106 77.4034 22.1846L77.4034 22.503" stroke="#18BC7A" stroke-width="5"/>
<rect x="169.482" y="32.6491" width="11.7168" height="11.7168" rx="5.85841" transform="rotate(-180 169.482 32.6491)" stroke="#07234B" stroke-width="5"/>
<rect x="109.539" y="16.772" width="5.26408" height="5.26408" rx="2.63204" transform="rotate(-180 109.539 16.772)" fill="#07234B"/>
<rect x="39.6628" y="75.9504" width="5.26408" height="5.26408" rx="2.63204" transform="rotate(-180 39.6628 75.9504)" fill="#07234B"/>
<rect x="39.6628" y="85.8843" width="5.26408" height="5.26408" rx="2.63204" transform="rotate(-180 39.6628 85.8843)" fill="#07234B"/>
<path d="M118.794 49.4602L118.794 69.8797C118.794 74.1234 122.234 77.5636 126.478 77.5636V77.5636C130.722 77.5636 134.162 74.1234 134.162 69.8797L134.162 66.9505" stroke="#FBAA95" stroke-width="5"/>
<path d="M72.4364 94.7143L72.4364 78.7947C72.4364 75.4889 75.1163 72.809 78.4222 72.809V72.809C81.728 72.809 84.408 75.4889 84.408 78.7947L84.408 81.0814" stroke="#FBAA95" stroke-width="5"/>
<path d="M94.6816 116.62L94.6816 75.7806C94.6816 67.1057 87.6492 60.0733 78.9743 60.0733V60.0733C70.2994 60.0733 63.267 67.1057 63.267 75.7806L63.267 81.4277" stroke="#18BC7A" stroke-width="5"/>
<path d="M58.8518 20.5503L58.8518 -6.1522C58.8518 -14.8271 51.8194 -21.8595 43.1445 -21.8595V-21.8595C34.4695 -21.8595 27.4371 -14.8271 27.4371 -6.1522L27.4371 -0.505154" stroke="#FBAA95" stroke-width="5"/>
<path d="M119.261 88.4314V88.4314C112.251 88.4314 106.568 82.7484 106.568 75.7382L106.568 37.234" stroke="#07234B" stroke-width="5"/>
<path d="M61.7384 88.4314V88.4314C54.7047 88.4314 49.0027 82.7294 49.0027 75.6957L49.0027 30.4416" stroke="#FBAA95" stroke-width="5"/>
<path d="M114.039 14.6494V14.6494C121.542 14.6494 127.624 20.7315 127.624 28.2341L127.624 38.2529" stroke="#FBAA95" stroke-width="5"/>
<path d="M25.4413 30.1445V30.1445C25.4413 40.4606 17.0784 48.8235 6.7623 48.8235L-7.92618 48.8235" stroke="#B8A16B" stroke-width="5"/>
<path d="M27.5217 10.4567L27.5217 13.935C27.5217 17.5651 24.579 20.5078 20.9489 20.5078V20.5078C17.3188 20.5078 14.376 17.565 14.376 13.935L14.376 11.0907C14.376 7.80426 11.7119 5.1401 8.42547 5.1401V5.1401C5.13907 5.1401 2.47491 7.80426 2.47491 11.0907L2.47491 13.2485" stroke="#18BC7A" stroke-width="5"/>
<path d="M8.75757 67.1204V67.1204C19.0737 67.1204 27.4366 75.4832 27.4366 85.7993L27.4366 100.488" stroke="#07234B" stroke-width="5"/>
<path d="M57.4928 47.5074L65.8983 47.5074C71.5722 47.5074 76.1718 42.9079 76.1718 37.234V37.234" stroke="#07234B" stroke-width="5"/>
<path d="M169.227 58.0356V58.0356C169.227 48.4697 161.473 40.7151 151.907 40.7151L151.482 40.7151C141.916 40.7151 134.162 48.4697 134.162 58.0356V58.0356" stroke="#18BC7A" stroke-width="5"/>
<rect x="290.613" y="112.469" width="15.3677" height="36.8485" rx="7.68386" transform="rotate(-180 290.613 112.469)" stroke="#18BC7A" stroke-width="5"/>
<path d="M323.811 1.31114L323.811 11.39C323.811 14.7896 321.055 17.5455 317.655 17.5455V17.5455C314.255 17.5455 311.5 14.7896 311.5 11.39L311.5 -10.4305C311.5 -13.8301 314.255 -16.5861 317.655 -16.5861V-16.5861C321.055 -16.5861 323.811 -13.8301 323.811 -10.4305L323.811 -7.92189" stroke="#B8A16B" stroke-width="5"/>
<path d="M335.061 25.4416L358.537 25.4416C362.804 25.4416 366.263 21.9824 366.263 17.7153L366.263 17.1846C366.263 13.2106 363.041 9.98897 359.067 9.98897V9.98897C355.093 9.98897 351.872 13.2106 351.872 17.1846L351.872 17.503" stroke="#18BC7A" stroke-width="5"/>
<rect x="314.131" y="70.9504" width="5.26408" height="5.26408" rx="2.63204" transform="rotate(-180 314.131 70.9504)" fill="#07234B"/>
<rect x="314.131" y="80.8843" width="5.26408" height="5.26408" rx="2.63204" transform="rotate(-180 314.131 80.8843)" fill="#07234B"/>
<path d="M346.905 89.7143L346.905 73.7947C346.905 70.4889 349.585 67.809 352.89 67.809V67.809C356.196 67.809 358.876 70.4889 358.876 73.7947L358.876 76.0814" stroke="#FBAA95" stroke-width="5"/>
<path d="M369.15 111.62L369.15 70.7806C369.15 62.1057 362.117 55.0733 353.443 55.0733V55.0733C344.768 55.0733 337.735 62.1057 337.735 70.7806L337.735 76.4277" stroke="#18BC7A" stroke-width="5"/>
<path d="M333.32 15.5503L333.32 -11.1522C333.32 -19.8271 326.288 -26.8595 317.613 -26.8595V-26.8595C308.938 -26.8595 301.905 -19.8271 301.905 -11.1522L301.905 -5.50515" stroke="#FBAA95" stroke-width="5"/>
<path d="M336.207 83.4314V83.4314C329.173 83.4314 323.471 77.7294 323.471 70.6957L323.471 25.4416" stroke="#FBAA95" stroke-width="5"/>
<path d="M299.91 25.1445V25.1445C299.91 35.4606 291.547 43.8235 281.231 43.8235L266.542 43.8235" stroke="#B8A16B" stroke-width="5"/>
<path d="M301.99 5.45671L301.99 8.93497C301.99 12.5651 299.047 15.5078 295.417 15.5078V15.5078C291.787 15.5078 288.844 12.565 288.844 8.93496L288.844 6.09067C288.844 2.80426 286.18 0.140099 282.894 0.140099V0.140099C279.607 0.140099 276.943 2.80426 276.943 6.09066L276.943 8.24848" stroke="#18BC7A" stroke-width="5"/>
<path d="M283.226 62.1204V62.1204C293.542 62.1204 301.905 70.4832 301.905 80.7993L301.905 95.4878" stroke="#07234B" stroke-width="5"/>
<path d="M331.961 42.5074L340.367 42.5074C346.04 42.5074 350.64 37.9079 350.64 32.234V32.234" stroke="#07234B" stroke-width="5"/>
</g>
<defs>
<clipPath id="clip0_223_4402">
<rect width="349" height="117" rx="25" fill="white"/>
</clipPath>
</defs>
</svg>
