<svg width="403" height="200" viewBox="0 0 403 200" fill="none" xmlns="http://www.w3.org/2000/svg">
<path d="M303.491 43.3712V28.5581C303.491 23.5616 307.541 19.5111 312.538 19.5111V19.5111C317.534 19.5111 321.585 23.5616 321.585 28.5581V60.6282C321.585 65.6247 317.534 69.6752 312.538 69.6752V69.6752C307.541 69.6752 303.491 65.6247 303.491 60.6282L303.491 56.9412" stroke="#B8A16B" stroke-width="8"/>
<path d="M286.956 7.90601H252.453C246.181 7.90601 241.097 12.9901 241.097 19.2616V20.0415C241.097 25.8822 245.832 30.6171 251.673 30.6171V30.6171C257.514 30.6171 262.248 25.8822 262.248 20.0415V19.5735" stroke="#18BC7A" stroke-width="8"/>
<rect x="126.917" y="4.66153" width="17.2205" height="17.2205" rx="8.61026" stroke="#07234B" stroke-width="8"/>
<rect x="369.626" y="90.5145" width="37.935" height="37.935" rx="18.9675" stroke="#FBAA95" stroke-width="8"/>
<rect x="215.017" y="27.9966" width="7.73675" height="7.73675" rx="3.86838" fill="#07234B"/>
<path d="M289.514 22.4436L289.514 61.6889C289.514 74.4386 299.85 84.7743 312.6 84.7743V84.7743C325.349 84.7743 335.685 74.4386 335.685 61.6889L335.685 53.3892" stroke="#FBAA95" stroke-width="8"/>
<path d="M285.271 -77.3231V-77.3231C295.609 -77.3231 303.989 -68.9427 303.989 -58.6051V7.90598" stroke="#FBAA95" stroke-width="8"/>
<path d="M208.403 31.1162V31.1162C197.376 31.1162 188.437 22.1772 188.437 11.1504L188.437 -3.57438" stroke="#FBAA95" stroke-width="8"/>
<path d="M374.868 74.1675V74.1675C359.706 74.1675 347.415 86.4586 347.415 101.62L347.415 123.208" stroke="#18BC7A" stroke-width="8"/>
<path d="M338.618 8.34271V8.34271C338.618 -6.81915 350.909 -19.1103 366.071 -19.1103L387.659 -19.1103" stroke="#B8A16B" stroke-width="8"/>
<path d="M335.56 37.2783V32.1662C335.56 26.831 339.885 22.506 345.22 22.506V22.506C350.556 22.506 354.881 26.831 354.881 32.1662V36.3466C354.881 41.1767 358.796 45.0923 363.626 45.0923V45.0923C368.456 45.0923 372.372 41.1767 372.372 36.3466V33.1752" stroke="#18BC7A" stroke-width="8"/>
<rect x="252.328" y="155.528" width="22.5863" height="54.1573" rx="11.2932" transform="rotate(-180 252.328 155.528)" stroke="#B8A16B" stroke-width="8"/>
<rect x="41.813" y="195.21" width="22.5863" height="54.1573" rx="11.2932" transform="rotate(-180 41.813 195.21)" stroke="#18BC7A" stroke-width="8"/>
<path d="M90.604 31.839L90.604 46.6521C90.604 51.6486 86.5535 55.6991 81.557 55.6991V55.6991C76.5605 55.6991 72.51 51.6486 72.51 46.6521L72.51 14.582C72.51 9.58546 76.5605 5.53498 81.557 5.53498V5.53498C86.5535 5.53498 90.604 9.58546 90.604 14.582L90.604 18.2689" stroke="#B8A16B" stroke-width="8"/>
<path d="M107.139 67.3042L141.642 67.3042C147.914 67.3042 152.998 62.2201 152.998 55.9486L152.998 55.1687C152.998 49.328 148.263 44.5931 142.422 44.5931V44.5931C136.581 44.5931 131.846 49.328 131.846 55.1687L131.846 55.6367" stroke="#18BC7A" stroke-width="8"/>
<rect x="267.177" y="70.5486" width="17.2205" height="17.2205" rx="8.61026" transform="rotate(-180 267.177 70.5486)" stroke="#07234B" stroke-width="8"/>
<rect x="179.078" y="47.2136" width="7.73675" height="7.73675" rx="3.86838" transform="rotate(-180 179.078 47.2136)" fill="#07234B"/>
<rect x="76.3784" y="134.19" width="7.73675" height="7.73675" rx="3.86838" transform="rotate(-180 76.3784 134.19)" fill="#07234B"/>
<rect x="76.3784" y="148.79" width="7.73675" height="7.73675" rx="3.86838" transform="rotate(-180 76.3784 148.79)" fill="#07234B"/>
<path d="M192.679 95.2563L192.679 125.267C192.679 131.504 197.735 136.561 203.972 136.561V136.561C210.209 136.561 215.265 131.504 215.265 125.267L215.265 120.962" stroke="#FBAA95" stroke-width="8"/>
<path d="M124.546 161.767L124.546 138.37C124.546 133.511 128.485 129.573 133.344 129.573V129.573C138.202 129.573 142.141 133.511 142.141 138.37L142.141 141.731" stroke="#FBAA95" stroke-width="8"/>
<path d="M157.241 193.962L157.241 133.94C157.241 121.19 146.905 110.855 134.155 110.855V110.855C121.406 110.855 111.07 121.19 111.07 133.94L111.07 142.24" stroke="#18BC7A" stroke-width="8"/>
<path d="M104.581 52.7666L104.581 13.5213C104.581 0.771562 94.2449 -9.56415 81.4951 -9.56415V-9.56415C68.7454 -9.56415 58.4097 0.771562 58.4097 13.5213L58.4097 21.8209" stroke="#FBAA95" stroke-width="8"/>
<path d="M193.366 152.533V152.533C183.063 152.533 174.71 144.181 174.71 133.878L174.71 77.2871" stroke="#07234B" stroke-width="8"/>
<path d="M108.823 152.533V152.533C98.4851 152.533 90.1048 144.153 90.1048 133.815L90.1048 67.3042" stroke="#FBAA95" stroke-width="8"/>
<path d="M185.691 44.094V44.094C196.718 44.094 205.657 53.033 205.657 64.0598L205.657 78.7846" stroke="#FBAA95" stroke-width="8"/>
<path d="M19.2271 1.04266V1.04266C34.3889 1.04266 46.68 -11.2485 46.68 -26.4103L46.68 -47.9984" stroke="#18BC7A" stroke-width="8"/>
<path d="M55.4763 66.8675V66.8675C55.4763 82.0293 43.1852 94.3204 28.0233 94.3204L6.4353 94.3204" stroke="#B8A16B" stroke-width="8"/>
<path d="M58.5337 37.9318L58.5337 43.0439C58.5337 48.3791 54.2086 52.7042 48.8734 52.7042V52.7042C43.5382 52.7042 39.2131 48.3791 39.2131 43.0439L39.2131 38.8636C39.2131 34.0335 35.2976 30.1179 30.4674 30.1179V30.1179C25.6373 30.1179 21.7217 34.0334 21.7217 38.8636L21.7217 42.035" stroke="#18BC7A" stroke-width="8"/>
<path d="M30.9556 121.212V121.212C46.1174 121.212 58.4085 133.503 58.4085 148.665L58.4086 170.253" stroke="#07234B" stroke-width="8"/>
<path d="M102.583 92.3863L114.937 92.3863C123.276 92.3863 130.036 85.6262 130.036 77.2871V77.2871" stroke="#07234B" stroke-width="8"/>
<path d="M266.802 107.86V107.86C266.802 93.8006 255.405 82.4033 241.346 82.4033L240.722 82.4033C226.663 82.4033 215.266 93.8006 215.266 107.86V107.86" stroke="#18BC7A" stroke-width="8"/>
</svg>
