<svg width="233" height="159" viewBox="0 0 233 159" fill="none" xmlns="http://www.w3.org/2000/svg">
<g clip-path="url(#clip0_34_247)">
<rect x="19.3723" y="-37.9382" width="18.8182" height="45.1221" rx="9.40909" stroke="#FFDF96" stroke-width="6"/>
<path d="M154.114 65.1155V52.7737C154.114 48.6108 157.489 45.236 161.652 45.236V45.236C165.815 45.236 169.19 48.6108 169.19 52.7737V79.4934C169.19 83.6564 165.815 87.0311 161.652 87.0311V87.0311C157.489 87.0311 154.114 83.6564 154.114 79.4934L154.114 76.4216" stroke="#FFDF96" stroke-width="6"/>
<path d="M140.339 35.567H111.592C106.366 35.567 102.13 39.8029 102.13 45.0281V45.6779C102.13 50.5442 106.075 54.4892 110.942 54.4892V54.4892C115.808 54.4892 119.753 50.5442 119.753 45.6779V45.288" stroke="white" stroke-width="6"/>
<rect x="7" y="32.8638" width="14.3476" height="14.3476" rx="7.17378" stroke="#07234B" stroke-width="6"/>
<rect x="209.217" y="104.394" width="31.6062" height="31.6062" rx="15.8031" stroke="#FBAA95" stroke-width="6"/>
<rect x="80.4019" y="52.3059" width="6.44601" height="6.44601" rx="3.223" fill="#07234B"/>
<path d="M69.0683 12.2782V-12.726C69.0683 -17.9225 64.8557 -22.1351 59.6592 -22.1351V-22.1351C54.4627 -22.1351 50.2501 -17.9225 50.2501 -12.726V-9.13915" stroke="#FBAA95" stroke-width="6"/>
<path d="M98.5951 -69.9604L98.5951 -19.9518C98.5951 -9.32915 107.207 -0.717771 117.829 -0.717772V-0.717772C128.452 -0.717773 137.063 -9.32914 137.063 -19.9518L137.063 -26.8668" stroke="white" stroke-width="6"/>
<path d="M142.47 47.6793L142.47 80.3772C142.47 90.9999 151.081 99.6113 161.704 99.6113V99.6113C172.327 99.6113 180.938 90.9999 180.938 80.3772L180.938 73.4623" stroke="#FBAA95" stroke-width="6"/>
<path d="M68.4967 -35.443V-35.443C77.081 -35.443 84.0399 -28.4841 84.0399 -19.8998V27.2496" stroke="#07234B" stroke-width="6"/>
<path d="M138.935 -35.443V-35.443C147.548 -35.443 154.53 -28.4608 154.53 -19.8478V35.5671" stroke="#FBAA95" stroke-width="6"/>
<path d="M74.8912 54.9051V54.9051C65.7041 54.9051 58.2564 47.4574 58.2564 38.2702L58.2564 26.002" stroke="#FBAA95" stroke-width="6"/>
<path d="M213.584 90.774V90.774C200.951 90.774 190.711 101.015 190.711 113.647L190.711 131.633" stroke="white" stroke-width="6"/>
<path d="M144.133 14.6695L133.84 14.6695C126.892 14.6695 121.26 20.3018 121.26 27.2496V27.2496" stroke="#07234B" stroke-width="6"/>
<path d="M7.31189 1.77747V1.77747C7.31189 13.4911 16.8077 22.9869 28.5213 22.9869H29.0412C40.7548 22.9869 50.2506 13.4911 50.2506 1.77747V1.77747" stroke="white" stroke-width="6"/>
</g>
<defs>
<clipPath id="clip0_34_247">
<rect width="233" height="159" fill="white"/>
</clipPath>
</defs>
</svg>
