<svg width="393" height="169" viewBox="0 0 393 169" fill="none" xmlns="http://www.w3.org/2000/svg">
<rect x="141.767" y="43.682" width="22.5863" height="54.1573" rx="11.2932" stroke="#B8A16B" stroke-width="8"/>
<rect x="352.281" y="4" width="22.5863" height="54.1573" rx="11.2932" stroke="#18BC7A" stroke-width="8"/>
<path d="M303.49 167.371V152.558C303.49 147.562 307.54 143.511 312.537 143.511V143.511C317.533 143.511 321.584 147.562 321.584 152.558V184.628C321.584 189.625 317.533 193.675 312.537 193.675V193.675C307.54 193.675 303.49 189.625 303.49 184.628L303.49 180.941" stroke="#B8A16B" stroke-width="8"/>
<path d="M286.955 131.906H252.452C246.18 131.906 241.096 136.99 241.096 143.262V144.041C241.096 149.882 245.831 154.617 251.672 154.617V154.617C257.513 154.617 262.248 149.882 262.248 144.041V143.574" stroke="#18BC7A" stroke-width="8"/>
<rect x="126.917" y="128.661" width="17.2205" height="17.2205" rx="8.61026" stroke="#07234B" stroke-width="8"/>
<rect x="215.016" y="151.997" width="7.73675" height="7.73675" rx="3.86838" fill="#07234B"/>
<rect x="317.715" y="65.0205" width="7.73675" height="7.73675" rx="3.86838" fill="#07234B"/>
<rect x="317.715" y="50.4205" width="7.73675" height="7.73675" rx="3.86838" fill="#07234B"/>
<path d="M201.415 103.954V73.9427C201.415 67.7057 196.359 62.6495 190.121 62.6495V62.6495C183.884 62.6495 178.828 67.7057 178.828 73.9427V78.2478" stroke="#FBAA95" stroke-width="8"/>
<path d="M269.548 37.4427L269.548 60.8401C269.548 65.6988 265.609 69.6376 260.75 69.6376V69.6376C255.891 69.6376 251.953 65.6988 251.953 60.8401L251.953 57.4794" stroke="#FBAA95" stroke-width="8"/>
<path d="M236.854 5.24778L236.854 65.27C236.854 78.0198 247.189 88.3555 259.939 88.3555V88.3555C272.689 88.3555 283.025 78.0198 283.025 65.27L283.025 56.9704" stroke="#18BC7A" stroke-width="8"/>
<path d="M289.513 146.444L289.513 185.689C289.513 198.439 299.849 208.774 312.599 208.774V208.774C325.349 208.774 335.684 198.439 335.684 185.689L335.684 177.389" stroke="#FBAA95" stroke-width="8"/>
<path d="M200.728 46.677V46.677C211.031 46.677 219.384 55.0294 219.384 65.3326V121.923" stroke="#07234B" stroke-width="8"/>
<path d="M285.271 46.677V46.677C295.608 46.677 303.989 55.0573 303.989 65.395V131.906" stroke="#FBAA95" stroke-width="8"/>
<path d="M208.403 155.116V155.116C197.376 155.116 188.437 146.177 188.437 135.15L188.437 120.426" stroke="#FBAA95" stroke-width="8"/>
<path d="M338.617 132.343V132.343C338.617 117.181 350.908 104.89 366.07 104.89L387.658 104.89" stroke="#B8A16B" stroke-width="8"/>
<path d="M335.56 161.278V156.166C335.56 150.831 339.885 146.506 345.22 146.506V146.506C350.555 146.506 354.88 150.831 354.88 156.166V160.347C354.88 165.177 358.796 169.092 363.626 169.092V169.092C368.456 169.092 372.372 165.177 372.372 160.347V157.175" stroke="#18BC7A" stroke-width="8"/>
<path d="M363.138 77.9983V77.9983C347.976 77.9983 335.685 65.7072 335.685 50.5453L335.685 28.9573" stroke="#07234B" stroke-width="8"/>
<path d="M291.51 106.824L279.156 106.824C270.817 106.824 264.057 113.584 264.057 121.923V121.923" stroke="#07234B" stroke-width="8"/>
<path d="M127.291 91.3505V91.3505C127.291 105.41 138.688 116.807 152.748 116.807H153.372C167.431 116.807 178.828 105.41 178.828 91.3505V91.3505" stroke="#18BC7A" stroke-width="8"/>
<path d="M90.6041 155.839L90.6041 170.652C90.6041 175.649 86.5536 179.699 81.5571 179.699V179.699C76.5605 179.699 72.5101 175.649 72.5101 170.652L72.5101 138.582C72.5101 133.585 76.5605 129.535 81.5571 129.535V129.535C86.5536 129.535 90.6041 133.585 90.6041 138.582L90.6041 142.269" stroke="#B8A16B" stroke-width="8"/>
<path d="M107.138 191.304L141.642 191.304C147.913 191.304 152.997 186.22 152.997 179.949L152.997 179.169C152.997 173.328 148.262 168.593 142.422 168.593V168.593C136.581 168.593 131.846 173.328 131.846 179.169L131.846 179.637" stroke="#18BC7A" stroke-width="8"/>
<rect x="24.4666" y="108.696" width="37.935" height="37.935" rx="18.9675" transform="rotate(-180 24.4666 108.696)" stroke="#FBAA95" stroke-width="8"/>
<rect x="179.077" y="171.214" width="7.73675" height="7.73675" rx="3.86838" transform="rotate(-180 179.077 171.214)" fill="#07234B"/>
<path d="M104.58 176.767L104.58 137.521C104.58 124.772 94.2444 114.436 81.4946 114.436V114.436C68.7449 114.436 58.4092 124.772 58.4092 137.521L58.4092 145.821" stroke="#FBAA95" stroke-width="8"/>
<path d="M185.691 168.094V168.094C196.718 168.094 205.657 177.033 205.657 188.06L205.657 202.785" stroke="#FBAA95" stroke-width="8"/>
<path d="M19.2262 125.043V125.043C34.3881 125.043 46.6792 112.752 46.6792 97.5897L46.6792 76.0017" stroke="#18BC7A" stroke-width="8"/>
<path d="M58.5336 161.932L58.5336 167.044C58.5336 172.379 54.2085 176.704 48.8733 176.704V176.704C43.5381 176.704 39.213 172.379 39.213 167.044L39.213 162.864C39.213 158.033 35.2974 154.118 30.4673 154.118V154.118C25.6372 154.118 21.7216 158.033 21.7216 162.864L21.7216 166.035" stroke="#18BC7A" stroke-width="8"/>
</svg>
