<svg width="22" height="26" viewBox="0 0 22 26" fill="none" xmlns="http://www.w3.org/2000/svg">
<path fill-rule="evenodd" clip-rule="evenodd" d="M10.92 5.94001C8.00515 5.94001 5.64221 8.30295 5.64221 11.2178V19.8289H16.1978V11.2178C16.1978 8.30295 13.8348 5.94001 10.92 5.94001ZM18.9755 19.8289V11.2178C18.9755 6.76882 15.3689 3.16223 10.92 3.16223C6.47103 3.16223 2.86443 6.76883 2.86443 11.2178V19.8289H2.0311C1.26404 19.8289 0.642212 20.4507 0.642212 21.2178C0.642212 21.9849 1.26404 22.6067 2.0311 22.6067H19.8089C20.5759 22.6067 21.1978 21.9849 21.1978 21.2178C21.1978 20.4507 20.5759 19.8289 19.8089 19.8289H18.9755Z" fill="#18BC7A"/>
<path fill-rule="evenodd" clip-rule="evenodd" d="M8.42004 24.5511C8.42004 23.7841 9.04187 23.1622 9.80893 23.1622H12.0312C12.7982 23.1622 13.42 23.7841 13.42 24.5511C13.42 25.3182 12.7982 25.94 12.0312 25.94H9.80893C9.04187 25.94 8.42004 25.3182 8.42004 24.5511Z" fill="#18BC7A"/>
<path fill-rule="evenodd" clip-rule="evenodd" d="M10.92 3.71778C11.0735 3.71778 11.1978 3.59342 11.1978 3.44C11.1978 3.28659 11.0735 3.16223 10.92 3.16223C10.7666 3.16223 10.6423 3.28659 10.6423 3.44C10.6423 3.59342 10.7666 3.71778 10.92 3.71778ZM8.42004 3.44C8.42004 2.05929 9.53933 0.940002 10.92 0.940002C12.3008 0.940002 13.42 2.05929 13.42 3.44C13.42 4.82072 12.3008 5.94 10.92 5.94C9.53933 5.94 8.42004 4.82072 8.42004 3.44Z" fill="#18BC7A"/>
</svg>
