<svg width="21" height="24" viewBox="0 0 21 24" fill="none" xmlns="http://www.w3.org/2000/svg">
<path d="M15.9224 13.7267L13.6524 8.32086C14.5029 7.46243 15.0293 6.27608 15.0293 4.96547C15.0293 2.34581 12.9273 0.222168 10.3346 0.222168C7.74163 0.222168 5.63964 2.34581 5.63964 4.96547C5.63964 6.30618 6.19505 7.5112 7.08017 8.37404L4.83284 13.7267H0V19.4193H20.642V13.7267H15.9224ZM10.3346 2.11933C11.8878 2.11933 13.1515 3.39596 13.1515 4.96521C13.1515 6.53447 11.8878 7.81109 10.3346 7.81109C8.78133 7.81109 7.51747 6.53447 7.51747 4.96521C7.51747 3.39596 8.78133 2.11933 10.3346 2.11933ZM8.69274 9.3941C9.20553 9.58841 9.75453 9.70852 10.3346 9.70852C10.9424 9.70852 11.5191 9.5827 12.0522 9.37023L13.8812 13.7267H6.87372L8.69274 9.3941ZM18.7636 17.5216H1.87808V15.6242H18.7636V17.5216ZM0.939041 21.3247H19.7188V23.2222H0.939041V21.3247Z" fill="#18BC7A"/>
</svg>
