<svg width="30" height="28" viewBox="0 0 30 28" fill="none" xmlns="http://www.w3.org/2000/svg">
<path fill-rule="evenodd" clip-rule="evenodd" d="M11.6667 27.9914H18.3333C23.0149 27.9914 25.3557 27.9914 27.0372 26.8474C27.765 26.3522 28.39 25.7158 28.8765 24.9747C30 23.2627 30 20.8792 30 16.1125C30 11.346 30 8.96261 28.8765 7.25055C28.39 6.50939 27.765 5.87301 27.0372 5.37779C25.9566 4.64271 24.604 4.37997 22.533 4.28607C21.5446 4.28607 20.6939 3.52356 20.5 2.53684C20.2092 1.05678 18.9328 -0.00860596 17.4506 -0.00860596H12.5494C11.0671 -0.00860596 9.79073 1.05678 9.5 2.53684C9.30618 3.52356 8.45528 4.28607 7.467 4.28607C5.396 4.37997 4.04332 4.64271 2.96286 5.37779C2.23493 5.87301 1.60992 6.50939 1.12353 7.25055C1.78814e-07 8.96261 0 11.346 0 16.1125C0 20.8792 1.78814e-07 23.2627 1.12353 24.9747C1.60992 25.7158 2.23493 26.3522 2.96286 26.8474C4.64436 27.9914 6.98512 27.9914 11.6667 27.9914ZM15 9.74897C11.5482 9.74897 8.75 12.5981 8.75 16.1125C8.75 19.6272 11.5482 22.4762 15 22.4762C18.4518 22.4762 21.25 19.6272 21.25 16.1125C21.25 12.5981 18.4518 9.74897 15 9.74897ZM15 12.2944C12.929 12.2944 11.25 14.0038 11.25 16.1125C11.25 18.2213 12.929 19.9308 15 19.9308C17.0711 19.9308 18.75 18.2213 18.75 16.1125C18.75 14.0038 17.0711 12.2944 15 12.2944ZM22.0833 11.0217C22.0833 10.3188 22.6429 9.74897 23.3334 9.74897H25C25.6904 9.74897 26.25 10.3188 26.25 11.0217C26.25 11.7246 25.6904 12.2944 25 12.2944H23.3334C22.6429 12.2944 22.0833 11.7246 22.0833 11.0217Z" fill="#18BC7A"/>
</svg>
