<svg width="164" height="240" viewBox="0 0 164 240" fill="none" xmlns="http://www.w3.org/2000/svg">
<g clip-path="url(#clip0_34_1763)">
<rect x="19.3723" y="57.0618" width="18.8182" height="45.1221" rx="9.40909" stroke="#18BC7A" stroke-width="6"/>
<path d="M154.114 160.115V147.774C154.114 143.611 157.489 140.236 161.652 140.236V140.236C165.815 140.236 169.19 143.611 169.19 147.774V174.493C169.19 178.656 165.815 182.031 161.652 182.031V182.031C157.489 182.031 154.114 178.656 154.114 174.493L154.114 171.422" stroke="#18BC7A" stroke-width="6"/>
<path d="M140.339 130.567H111.592C106.366 130.567 102.13 134.803 102.13 140.028V140.678C102.13 145.544 106.075 149.489 110.942 149.489V149.489C115.808 149.489 119.753 145.544 119.753 140.678V140.288" stroke="#18BC7A" stroke-width="6"/>
<rect x="7" y="127.864" width="14.3476" height="14.3476" rx="7.17378" stroke="white" stroke-width="6"/>
<rect x="80.4019" y="147.306" width="6.44601" height="6.44601" rx="3.223" fill="white"/>
<path d="M69.0683 107.278V82.274C69.0683 77.0775 64.8557 72.8649 59.6592 72.8649V72.8649C54.4627 72.8649 50.2501 77.0775 50.2501 82.274V85.8609" stroke="white" stroke-width="6"/>
<path d="M125.835 51.8634L125.835 71.3573C125.835 75.4054 122.553 78.6871 118.505 78.6871V78.6871C114.457 78.6871 111.175 75.4054 111.175 71.3573L111.175 68.5573" stroke="white" stroke-width="6"/>
<path d="M98.5951 25.0396L98.5951 75.0482C98.5951 85.6709 107.206 94.2822 117.829 94.2822V94.2822C128.452 94.2822 137.063 85.6709 137.063 75.0482L137.063 68.1332" stroke="#18BC7A" stroke-width="6"/>
<path d="M142.47 142.679L142.47 175.377C142.47 186 151.081 194.611 161.704 194.611V194.611C172.327 194.611 180.938 186 180.938 175.377L180.938 168.462" stroke="white" stroke-width="6"/>
<path d="M68.4967 59.557V59.557C77.081 59.557 84.0399 66.5159 84.0399 75.1002V122.25" stroke="white" stroke-width="6"/>
<path d="M138.935 59.557V59.557C147.548 59.557 154.53 66.5392 154.53 75.1522V130.567" stroke="white" stroke-width="6"/>
<path d="M74.8913 149.905V149.905C65.7041 149.905 58.2564 142.457 58.2564 133.27L58.2564 121.002" stroke="white" stroke-width="6"/>
<path d="M144.133 109.669L133.84 109.669C126.892 109.669 121.26 115.302 121.26 122.25V122.25" stroke="white" stroke-width="6"/>
<path d="M7.31192 96.7775V96.7775C7.31192 108.491 16.8077 117.987 28.5214 117.987H29.0412C40.7549 117.987 50.2506 108.491 50.2506 96.7775V96.7775" stroke="#18BC7A" stroke-width="6"/>
</g>
<defs>
<clipPath id="clip0_34_1763">
<rect width="164" height="240" fill="white"/>
</clipPath>
</defs>
</svg>
