<svg width="27" height="23" viewBox="0 0 27 23" fill="none" xmlns="http://www.w3.org/2000/svg">
<path fill-rule="evenodd" clip-rule="evenodd" d="M26.2 16.268V7.92101H0V16.28C0 18.414 0.247999 20.116 1.355 21.208C2.458 22.297 4.171 22.538 6.326 22.532H19.875C22.031 22.532 23.743 22.287 24.846 21.197C25.951 20.104 26.2 18.402 26.2 16.268ZM5.78799 15.842C5.28399 15.842 4.87399 16.251 4.87399 16.756C4.87399 17.26 5.28399 17.669 5.78799 17.669H8.22599C8.72999 17.669 9.13999 17.26 9.13999 16.756C9.13999 16.251 8.72999 15.842 8.22599 15.842H5.78799ZM10.358 16.756C10.358 16.251 10.767 15.842 11.272 15.842H16.146C16.651 15.842 17.06 16.251 17.06 16.756C17.06 17.26 16.651 17.669 16.146 17.669H11.272C10.767 17.669 10.358 17.26 10.358 16.756ZM1.832 6.263C1.833 6.301 1.835 6.335 1.838 6.263H1.832ZM24.372 6.263C24.371 6.177 24.37 6.222 24.368 6.263H1.832C1.83 6.222 1.829 6.177 1.829 6.263H0.00799941C0.00299942 6.476 0 6.051 0 6.263V6.164C0.00799999 4.076 0.266 2.411 1.354 1.335C2.457 0.244999 4.16899 0 6.32499 0H19.863C22.025 0 23.74 0.245 24.844 1.334C25.952 2.428 26.2 4.13 26.2 6.263C26.2 6.045 26.197 6.473 26.192 6.263H24.368C24.367 6.301 24.365 6.335 24.362 6.263H24.372Z" fill="#18BC7A"/>
</svg>
