<svg width="28" height="22" viewBox="0 0 28 22" fill="none" xmlns="http://www.w3.org/2000/svg">
<path fill-rule="evenodd" clip-rule="evenodd" d="M2.67037 5.88017C2.68571 3.94943 2.97738 3.05772 3.48141 2.5825C4.003 2.09075 4.99606 1.81318 7.16639 1.81318H20.7051C22.8819 1.81318 23.8783 2.09085 24.4013 2.58308C24.9062 3.05819 25.1979 3.94938 25.2133 5.88017H2.67037ZM0.841829 6.7591V15.5944C0.841829 17.6289 1.09025 19.252 2.19684 20.2933C3.29996 21.3314 5.01295 21.5612 7.16817 21.5555L7.16896 21.5555L20.7173 21.5555C22.873 21.5555 24.5852 21.3218 25.6874 20.2826C26.7932 19.24 27.0418 17.6177 27.0418 15.5828V6.04283C27.0418 4.00806 26.7933 2.38517 25.6853 1.34249C24.5815 0.303801 22.8665 0.0701904 20.7051 0.0701904H7.16639C5.01067 0.0701904 3.29843 0.303896 2.19622 1.34307C1.09042 2.38563 0.841829 4.00798 0.841829 6.04283V6.74423C0.841808 6.74671 0.841797 6.74919 0.841797 6.75167C0.841797 6.75415 0.841808 6.75662 0.841829 6.7591ZM2.66974 7.62316H25.2139V15.5828C25.2139 17.6266 24.9202 18.5548 24.4022 19.0431C23.8807 19.5349 22.8876 19.8125 20.7173 19.8125H7.16639L7.16381 19.8125C4.99336 19.8183 4.00133 19.5426 3.4808 19.0527C2.9636 18.566 2.66974 17.6386 2.66974 15.5944V7.62316ZM6.63014 15.176C6.12538 15.176 5.71618 15.5662 5.71618 16.0475C5.71618 16.5288 6.12538 16.919 6.63014 16.919H9.06735C9.57211 16.919 9.9813 16.5288 9.9813 16.0475C9.9813 15.5662 9.57211 15.176 9.06735 15.176H6.63014ZM11.1998 16.0475C11.1998 15.5662 11.609 15.176 12.1138 15.176H16.9882C17.493 15.176 17.9022 15.5662 17.9022 16.0475C17.9022 16.5288 17.493 16.919 16.9882 16.919H12.1138C11.609 16.919 11.1998 16.5288 11.1998 16.0475Z" fill="#616161"/>
</svg>
