<svg width="21" height="21" viewBox="0 0 21 21" fill="none" xmlns="http://www.w3.org/2000/svg">
<path d="M8.45552 2.38266C9.53058 1.12977 11.4694 1.12977 12.5445 2.38266C13.1032 3.0338 13.9387 3.37986 14.7942 3.31451C16.4403 3.18877 17.8112 4.55973 17.6855 6.20584C17.6201 7.06134 17.9662 7.8968 18.6173 8.45552C19.8702 9.53058 19.8702 11.4694 18.6173 12.5445C17.9662 13.1032 17.6201 13.9387 17.6855 14.7942C17.8112 16.4403 16.4403 17.8112 14.7942 17.6855C13.9387 17.6201 13.1032 17.9662 12.5445 18.6173C11.4694 19.8702 9.53058 19.8702 8.45552 18.6173C7.8968 17.9662 7.06134 17.6201 6.20584 17.6855C4.55973 17.8112 3.18877 16.4403 3.31451 14.7942C3.37986 13.9387 3.0338 13.1032 2.38266 12.5445C1.12977 11.4694 1.12977 9.53058 2.38266 8.45552C3.0338 7.8968 3.37986 7.06134 3.31451 6.20584C3.18877 4.55973 4.55973 3.18877 6.20584 3.31451C7.06134 3.37986 7.8968 3.0338 8.45552 2.38266Z" fill="#18BC7A"/>
<path d="M5.5 10L8.5 13L15 6.5" stroke="white" stroke-width="2"/>
</svg>
