<svg width="125" height="125" viewBox="0 0 125 125" fill="none" xmlns="http://www.w3.org/2000/svg">
<path d="M52.9333 8.95397C58.3161 3.91588 66.6839 3.91587 72.0667 8.95396L77.3128 13.864C79.7902 16.1827 83.0253 17.5227 86.4166 17.6349L93.5981 17.8725C100.967 18.1163 106.884 24.0332 107.127 31.4019L107.365 38.5834C107.477 41.9747 108.817 45.2098 111.136 47.6872L116.046 52.9333C121.084 58.3161 121.084 66.6839 116.046 72.0667L111.136 77.3128C108.817 79.7902 107.477 83.0253 107.365 86.4166L107.127 93.5981C106.884 100.967 100.967 106.884 93.5981 107.127L86.4166 107.365C83.0253 107.477 79.7902 108.817 77.3128 111.136L72.0667 116.046C66.6839 121.084 58.3161 121.084 52.9333 116.046L47.6872 111.136C45.2098 108.817 41.9747 107.477 38.5834 107.365L31.4019 107.127C24.0332 106.884 18.1163 100.967 17.8725 93.5981L17.6349 86.4166C17.5227 83.0253 16.1827 79.7902 13.864 77.3128L8.95397 72.0667C3.91588 66.6839 3.91587 58.3161 8.95396 52.9333L13.864 47.6872C16.1827 45.2098 17.5227 41.9747 17.6349 38.5834L17.8725 31.4019C18.1163 24.0332 24.0332 18.1163 31.4019 17.8725L38.5834 17.6349C41.9747 17.5227 45.2098 16.1827 47.6872 13.864L52.9333 8.95397Z" fill="white"/>
<path fill-rule="evenodd" clip-rule="evenodd" d="M89.519 49.8513L55.4502 83.801L35.48 63.8919L43.885 55.4611L55.452 66.9927L81.1158 41.4186L89.519 49.8513Z" fill="#18BC7A"/>
</svg>
