<svg width="19" height="18" viewBox="0 0 19 18" fill="none" xmlns="http://www.w3.org/2000/svg">
<path fill-rule="evenodd" clip-rule="evenodd" d="M5.38735 12.3906C5.81217 14.1483 6.5572 15.5952 7.48914 16.4903C5.30472 15.9037 3.5012 14.3869 2.52922 12.3906H5.38735ZM6.13085 12.3906C6.34992 13.242 6.64746 14.004 7.00185 14.6446C7.69089 15.8902 8.52076 16.5648 9.32513 16.7201V12.3906H6.13085ZM9.32513 11.8255H5.99985C5.81915 10.9532 5.71858 10.0013 5.71858 9C5.71858 7.99867 5.81915 7.04679 5.99985 6.17448H9.32513V11.8255ZM10.0465 12.3906V16.7203C10.8512 16.5654 11.6815 15.8907 12.3708 14.6446C12.7252 14.004 13.0227 13.242 13.2418 12.3906H10.0465ZM13.3728 11.8255H10.0465V6.17448H13.3728C13.5535 7.04679 13.6541 7.99867 13.6541 9C13.6541 10.0013 13.5535 10.9532 13.3728 11.8255ZM13.9853 12.3906C13.5848 14.0475 12.8998 15.4283 12.0419 16.331C13.9917 15.6566 15.5887 14.2263 16.4825 12.3906H13.9853ZM16.7302 11.8255H14.1087C14.2815 10.9418 14.3755 9.99072 14.3755 9C14.3755 8.00927 14.2815 7.05824 14.1087 6.17448H16.7302C17.0729 7.05001 17.261 8.00303 17.261 9C17.261 9.99696 17.0729 10.95 16.7302 11.8255ZM5.26399 11.8255H2.28152C1.93883 10.95 1.75071 9.99696 1.75071 9C1.75071 8.00303 1.93883 7.05001 2.28152 6.17448H5.26399C5.09119 7.05824 4.99717 8.00927 4.99717 9C4.99717 9.99072 5.09119 10.9418 5.26399 11.8255ZM5.38735 5.60938H2.52923C3.5012 3.61313 5.30472 2.09634 7.48914 1.50966C6.5572 2.40484 5.81217 3.85172 5.38735 5.60938ZM6.13085 5.60938H9.32513V1.27985C8.52076 1.43515 7.69089 2.1098 7.00185 3.35537C6.64746 3.996 6.34992 4.75795 6.13085 5.60938ZM10.0465 5.60938H13.2418C13.0227 4.75795 12.7252 3.996 12.3708 3.35537C11.6815 2.10929 10.8512 1.43459 10.0465 1.27966V5.60938ZM13.9853 5.60938H16.4825C15.5887 3.77365 13.9917 2.34338 12.0419 1.669C12.8998 2.57174 13.5848 3.95248 13.9853 5.60938ZM9.68633 17.4766C9.66487 17.4766 9.64344 17.4763 9.62205 17.4758C9.58338 17.4763 9.54465 17.4766 9.50586 17.4766C4.82438 17.4766 1.0293 13.6815 1.0293 9C1.0293 4.31852 4.82438 0.523438 9.50586 0.523438C9.54465 0.523438 9.58338 0.523698 9.62205 0.524218C9.64344 0.523698 9.66487 0.523438 9.68633 0.523438C9.76123 0.523438 9.83572 0.526612 9.90977 0.532891C14.4037 0.743707 17.9824 4.45392 17.9824 9C17.9824 13.5461 14.4037 17.2563 9.90977 17.4671C9.83572 17.4734 9.76123 17.4766 9.68633 17.4766Z" fill="white"/>
<path d="M7.48914 16.4903L7.35945 16.9732L7.83551 16.1297L7.48914 16.4903ZM5.38735 12.3906L5.87335 12.2731L5.78089 11.8906H5.38735V12.3906ZM2.52922 12.3906V11.8906H1.72965L2.07968 12.6095L2.52922 12.3906ZM6.13085 12.3906V11.8906H5.48591L5.64662 12.5152L6.13085 12.3906ZM7.00185 14.6446L6.56433 14.8867V14.8867L7.00185 14.6446ZM9.32513 16.7201L9.23034 17.2111L9.82513 17.3259V16.7201H9.32513ZM9.32513 12.3906H9.82513V11.8906H9.32513V12.3906ZM5.99985 11.8255L5.51024 11.9269L5.59281 12.3255H5.99985V11.8255ZM9.32513 11.8255V12.3255H9.82513V11.8255H9.32513ZM5.99985 6.17448V5.67448H5.59281L5.51024 6.07306L5.99985 6.17448ZM9.32513 6.17448H9.82513V5.67448H9.32513V6.17448ZM10.0465 12.3906V11.8906H9.54654V12.3906H10.0465ZM10.0465 16.7203H9.54654V17.3258L10.1411 17.2113L10.0465 16.7203ZM12.3708 14.6446L12.8083 14.8867L12.3708 14.6446ZM13.2418 12.3906L13.726 12.5152L13.8867 11.8906H13.2418V12.3906ZM10.0465 11.8255H9.54654V12.3255H10.0465V11.8255ZM13.3728 11.8255V12.3255H13.7799L13.8624 11.9269L13.3728 11.8255ZM10.0465 6.17448V5.67448H9.54654V6.17448H10.0465ZM13.3728 6.17448L13.8624 6.07306L13.7798 5.67448H13.3728V6.17448ZM13.9853 12.3906V11.8906H13.5918L13.4993 12.2731L13.9853 12.3906ZM12.0419 16.331L11.6795 15.9866L12.2054 16.8035L12.0419 16.331ZM16.4825 12.3906L16.932 12.6095L17.2821 11.8906H16.4825V12.3906ZM14.1087 11.8255L13.618 11.7296L13.5014 12.3255H14.1087V11.8255ZM16.7302 11.8255V12.3255H17.0714L17.1958 12.0078L16.7302 11.8255ZM14.1087 6.17448V5.67448H13.5014L13.618 6.27042L14.1087 6.17448ZM16.7302 6.17448L17.1958 5.99224L17.0714 5.67448H16.7302V6.17448ZM2.28152 11.8255L1.81591 12.0078L1.94028 12.3255H2.28152V11.8255ZM5.26399 11.8255V12.3255H5.87122L5.7547 11.7296L5.26399 11.8255ZM2.28152 6.17448V5.67448H1.94029L1.81591 5.99224L2.28152 6.17448ZM5.26399 6.17448L5.7547 6.27042L5.87122 5.67448H5.26399V6.17448ZM2.52923 5.60938L2.07968 5.39049L1.72966 6.10938H2.52923V5.60938ZM5.38735 5.60938V6.10938H5.78089L5.87335 5.72684L5.38735 5.60938ZM7.48914 1.50966L7.83551 1.87026L7.35945 1.02678L7.48914 1.50966ZM9.32513 5.60938V6.10938H9.82513V5.60938H9.32513ZM6.13085 5.60938L5.64662 5.48479L5.48592 6.10938H6.13085V5.60938ZM9.32513 1.27985H9.82513V0.674081L9.23034 0.788917L9.32513 1.27985ZM7.00185 3.35537L6.56433 3.11334L7.00185 3.35537ZM13.2418 5.60938V6.10938H13.8867L13.726 5.48479L13.2418 5.60938ZM10.0465 5.60938H9.54654V6.10938H10.0465V5.60938ZM12.3708 3.35537L12.8083 3.11334L12.3708 3.35537ZM10.0465 1.27966L10.1411 0.788677L9.54654 0.674203V1.27966H10.0465ZM16.4825 5.60938V6.10938H17.2821L16.932 5.39049L16.4825 5.60938ZM13.9853 5.60938L13.4993 5.72684L13.5918 6.10938H13.9853V5.60938ZM12.0419 1.669L12.2054 1.19647L11.6795 2.01344L12.0419 1.669ZM9.62205 17.4758L9.63418 16.9759L9.62476 16.9757L9.61535 16.9758L9.62205 17.4758ZM9.62205 0.524218L9.61534 1.02417L9.62476 1.0243L9.63419 1.02407L9.62205 0.524218ZM9.90977 0.532891L9.86752 1.0311L9.87692 1.0319L9.88634 1.03234L9.90977 0.532891ZM9.90977 17.4671L9.88634 16.9677L9.87692 16.9681L9.86752 16.9689L9.90977 17.4671ZM7.83551 16.1297C6.99404 15.3215 6.28408 13.9725 5.87335 12.2731L4.90134 12.5081C5.34026 14.3241 6.12035 15.8688 7.14277 16.8509L7.83551 16.1297ZM2.07968 12.6095C3.11407 14.7339 5.03312 16.3484 7.35945 16.9732L7.61883 16.0075C5.57633 15.4589 3.88833 14.0398 2.97877 12.1717L2.07968 12.6095ZM5.38735 11.8906H2.52922V12.8906H5.38735V11.8906ZM5.64662 12.5152C5.87468 13.4016 6.18667 14.204 6.56433 14.8867L7.43937 14.4026C7.10825 13.804 6.82515 13.0825 6.61508 12.266L5.64662 12.5152ZM6.56433 14.8867C7.29036 16.1991 8.22232 17.0165 9.23034 17.2111L9.41991 16.2292C8.81921 16.1132 8.09142 15.5813 7.43937 14.4026L6.56433 14.8867ZM9.82513 16.7201V12.3906H8.82513V16.7201H9.82513ZM9.32513 11.8906H6.13085V12.8906H9.32513V11.8906ZM5.99985 12.3255H9.32513V11.3255H5.99985V12.3255ZM5.21858 9C5.21858 10.0345 5.32245 11.0204 5.51024 11.9269L6.48945 11.7241C6.31586 10.8861 6.21858 9.96819 6.21858 9H5.21858ZM5.51024 6.07306C5.32245 6.97963 5.21858 7.96553 5.21858 9H6.21858C6.21858 8.03181 6.31586 7.11394 6.48946 6.2759L5.51024 6.07306ZM9.32513 5.67448H5.99985V6.67448H9.32513V5.67448ZM9.82513 11.8255V6.17448H8.82513V11.8255H9.82513ZM9.54654 12.3906V16.7203H10.5465V12.3906H9.54654ZM10.1411 17.2113C11.1496 17.0171 12.082 16.1996 12.8083 14.8867L11.9333 14.4026C11.281 15.5818 10.5528 16.1137 9.952 16.2294L10.1411 17.2113ZM12.8083 14.8867C13.186 14.204 13.498 13.4016 13.726 12.5152L12.7576 12.266C12.5475 13.0825 12.2644 13.804 11.9333 14.4026L12.8083 14.8867ZM13.2418 11.8906H10.0465V12.8906H13.2418V11.8906ZM10.0465 12.3255H13.3728V11.3255H10.0465V12.3255ZM9.54654 6.17448V11.8255H10.5465V6.17448H9.54654ZM13.3728 5.67448H10.0465V6.67448H13.3728V5.67448ZM14.1541 9C14.1541 7.96553 14.0502 6.97963 13.8624 6.07306L12.8832 6.2759C13.0568 7.11394 13.1541 8.03181 13.1541 9H14.1541ZM13.8624 11.9269C14.0502 11.0204 14.1541 10.0345 14.1541 9H13.1541C13.1541 9.96819 13.0568 10.8861 12.8832 11.7241L13.8624 11.9269ZM13.4993 12.2731C13.1125 13.8735 12.4595 15.1657 11.6795 15.9866L12.4044 16.6754C13.3401 15.6908 14.0572 14.2215 14.4713 12.5081L13.4993 12.2731ZM12.2054 16.8035C14.2815 16.0855 15.9808 14.5633 16.932 12.6095L16.033 12.1717C15.1966 13.8894 13.7019 15.2278 11.8785 15.8585L12.2054 16.8035ZM16.4825 11.8906H13.9853V12.8906H16.4825V11.8906ZM14.1087 12.3255H16.7302V11.3255H14.1087V12.3255ZM13.8755 9C13.8755 9.95938 13.7844 10.8783 13.618 11.7296L14.5994 11.9215C14.7785 11.0052 14.8755 10.0221 14.8755 9H13.8755ZM13.618 6.27042C13.7844 7.12174 13.8755 8.04061 13.8755 9H14.8755C14.8755 7.97793 14.7785 6.99474 14.5994 6.07853L13.618 6.27042ZM16.7302 5.67448H14.1087V6.67448H16.7302V5.67448ZM17.761 9C17.761 7.93967 17.5609 6.92489 17.1958 5.99224L16.2646 6.35672C16.5849 7.17512 16.761 8.0664 16.761 9H17.761ZM17.1958 12.0078C17.5609 11.0751 17.761 10.0603 17.761 9H16.761C16.761 9.9336 16.5849 10.8249 16.2646 11.6433L17.1958 12.0078ZM2.28152 12.3255H5.26399V11.3255H2.28152V12.3255ZM1.25071 9C1.25071 10.0603 1.45086 11.0751 1.81591 12.0078L2.74712 11.6433C2.4268 10.8249 2.25071 9.9336 2.25071 9H1.25071ZM1.81591 5.99224C1.45087 6.92489 1.25071 7.93967 1.25071 9H2.25071C2.25071 8.0664 2.4268 7.17512 2.74712 6.35672L1.81591 5.99224ZM5.26399 5.67448H2.28152V6.67448H5.26399V5.67448ZM5.49717 9C5.49717 8.04061 5.58824 7.12174 5.7547 6.27042L4.77328 6.07853C4.59414 6.99474 4.49717 7.97793 4.49717 9H5.49717ZM5.7547 11.7296C5.58824 10.8783 5.49717 9.95938 5.49717 9H4.49717C4.49717 10.0221 4.59414 11.0053 4.77328 11.9215L5.7547 11.7296ZM2.52923 6.10938H5.38735V5.10938H2.52923V6.10938ZM7.35945 1.02678C5.03312 1.65157 3.11407 3.26607 2.07968 5.39049L2.97877 5.82826C3.88834 3.9602 5.57633 2.54112 7.61883 1.99255L7.35945 1.02678ZM5.87335 5.72684C6.28408 4.02751 6.99404 2.67852 7.83551 1.87026L7.14277 1.14907C6.12035 2.13115 5.34026 3.67593 4.90134 5.49191L5.87335 5.72684ZM9.32513 5.10938H6.13085V6.10938H9.32513V5.10938ZM8.82513 1.27985V5.60938H9.82513V1.27985H8.82513ZM7.43937 3.5974C8.09142 2.4187 8.81921 1.88676 9.41991 1.77078L9.23034 0.788917C8.22232 0.983539 7.29036 1.8009 6.56433 3.11334L7.43937 3.5974ZM6.61508 5.73397C6.82515 4.9175 7.10825 4.19596 7.43937 3.5974L6.56433 3.11334C6.18667 3.79604 5.87468 4.5984 5.64662 5.48479L6.61508 5.73397ZM13.2418 5.10938H10.0465V6.10938H13.2418V5.10938ZM11.9333 3.5974C12.2644 4.19596 12.5475 4.9175 12.7576 5.73396L13.726 5.48479C13.498 4.5984 13.186 3.79604 12.8083 3.11334L11.9333 3.5974ZM9.952 1.77064C10.5528 1.88633 11.281 2.4182 11.9333 3.5974L12.8083 3.11334C12.082 1.80037 11.1496 0.982857 10.1411 0.788677L9.952 1.77064ZM10.5465 5.60938V1.27966H9.54654V5.60938H10.5465ZM16.4825 5.10938H13.9853V6.10938H16.4825V5.10938ZM11.8785 2.14153C13.7019 2.77222 15.1966 4.11057 16.0329 5.82826L16.932 5.39049C15.9807 3.43674 14.2814 1.91455 12.2054 1.19647L11.8785 2.14153ZM14.4713 5.49191C14.0572 3.77846 13.3401 2.30922 12.4044 1.32456L11.6795 2.01344C12.4595 2.83426 13.1125 4.12649 13.4993 5.72684L14.4713 5.49191ZM9.60993 17.9756C9.63534 17.9763 9.66081 17.9766 9.68633 17.9766V16.9766C9.66893 16.9766 9.65154 16.9764 9.63418 16.9759L9.60993 17.9756ZM9.50586 17.9766C9.5469 17.9766 9.58786 17.9763 9.62876 17.9757L9.61535 16.9758C9.5789 16.9763 9.54241 16.9766 9.50586 16.9766V17.9766ZM0.529297 9C0.529297 13.9576 4.54824 17.9766 9.50586 17.9766V16.9766C5.10053 16.9766 1.5293 13.4053 1.5293 9H0.529297ZM9.50586 0.0234375C4.54824 0.0234375 0.529297 4.04238 0.529297 9H1.5293C1.5293 4.59467 5.10053 1.02344 9.50586 1.02344V0.0234375ZM9.62877 0.0242627C9.58786 0.0237131 9.54689 0.0234375 9.50586 0.0234375V1.02344C9.54241 1.02344 9.57891 1.02368 9.61534 1.02417L9.62877 0.0242627ZM9.68633 0.0234375C9.66082 0.0234375 9.63535 0.0237473 9.60991 0.024365L9.63419 1.02407C9.65154 1.02365 9.66892 1.02344 9.68633 1.02344V0.0234375ZM9.95202 0.0346794C9.86396 0.0272122 9.77537 0.0234375 9.68633 0.0234375V1.02344C9.74709 1.02344 9.80749 1.02601 9.86752 1.0311L9.95202 0.0346794ZM18.4824 9C18.4824 4.18563 14.6926 0.256711 9.9332 0.0334404L9.88634 1.03234C14.1148 1.2307 17.4824 4.72222 17.4824 9H18.4824ZM9.9332 17.9666C14.6926 17.7433 18.4824 13.8144 18.4824 9H17.4824C17.4824 13.2778 14.1148 16.7693 9.88634 16.9677L9.9332 17.9666ZM9.68633 17.9766C9.77537 17.9766 9.86396 17.9728 9.95202 17.9653L9.86752 16.9689C9.80749 16.974 9.74709 16.9766 9.68633 16.9766V17.9766Z" fill="white"/>
</svg>
