<svg width="25" height="22" viewBox="0 0 25 22" fill="none" xmlns="http://www.w3.org/2000/svg">
<path id="Union" fill-rule="evenodd" clip-rule="evenodd" d="M1.05609 11.3435C0.38615 10.2491 0 8.96204 0 7.58482C0 3.60295 3.22795 0.375 7.20982 0.375C9.11812 0.375 10.8533 1.11639 12.1429 2.32685C13.4326 1.11639 15.1677 0.375 17.076 0.375C21.0579 0.375 24.2859 3.60295 24.2859 7.58482C24.2859 8.39488 24.1523 9.17374 23.9059 9.90057C23.8669 13.5993 18.2821 17.3019 12.93 20.8501C12.5391 21.1092 12.1494 21.3676 11.7633 21.625C10.6729 20.6338 9.40128 19.6294 8.11751 18.6155C5.0965 16.2294 2.00817 13.7901 1.05609 11.3435Z" fill="#D9D9D9"/>
</svg>
