<svg width="28" height="27" viewBox="0 0 28 27" fill="none" xmlns="http://www.w3.org/2000/svg">
<mask id="path-1-outside-1_34_303" maskUnits="userSpaceOnUse" x="0.16687" y="-0.0117188" width="28" height="27" fill="black">
<rect fill="white" x="0.16687" y="-0.0117188" width="28" height="27"/>
<path fill-rule="evenodd" clip-rule="evenodd" d="M7.14337 1.3525C9.08383 1.13291 11.596 0.988281 14.2669 0.988281C16.9378 0.988281 19.4499 1.13291 21.3904 1.3525C22.3583 1.46203 23.2031 1.59233 23.8627 1.73781C24.1912 1.81026 24.4945 1.89097 24.7535 1.98231C24.9768 2.06107 25.2992 2.19104 25.5639 2.42066C25.8139 2.63753 25.9617 2.91074 26.0402 3.07305L25.5682 3.28061L26.0402 3.07306C26.1305 3.25962 26.2036 3.46004 26.2635 3.64841C26.3839 4.02641 26.4902 4.47961 26.5839 4.94955C26.7728 5.89687 26.939 7.05714 27.0681 8.14464C27.0789 8.23548 27.0894 8.32729 27.0997 8.42003C27.1173 8.50979 27.1273 8.60235 27.1294 8.69668C27.1705 9.09343 27.207 9.50603 27.2383 9.93118C27.3201 11.04 27.3669 12.2401 27.3669 13.4799C27.3669 15.1929 27.2775 16.833 27.1294 18.2632C27.1273 18.3572 27.1173 18.4495 27.0998 18.539C27.0895 18.632 27.0789 18.724 27.0681 18.8151C26.939 19.9025 26.7728 21.0627 26.5839 22.01C26.4902 22.4799 26.3839 22.9331 26.2635 23.3111C26.2035 23.4994 26.1304 23.6998 26.0402 23.8864C25.9617 24.0487 25.8139 24.3219 25.5639 24.5388L25.5639 24.5387L25.224 24.1825L25.5639 24.5388C25.2992 24.7684 24.9768 24.8984 24.7535 24.9771C24.4945 25.0685 24.1912 25.1492 23.8627 25.2216C23.2031 25.3671 22.3583 25.4974 21.3904 25.6069C19.4499 25.8265 16.9378 25.9711 14.2669 25.9711C11.596 25.9711 9.08383 25.8265 7.14337 25.6069C6.17544 25.4974 5.33063 25.3671 4.67106 25.2216C4.34258 25.1492 4.03925 25.0685 3.78024 24.9771C3.55684 24.8984 3.23447 24.7684 2.96976 24.5387C2.64599 24.2578 2.46087 23.8668 2.359 23.6221C2.23959 23.3354 2.13842 23.0059 2.05101 22.6656C1.87521 21.9812 1.72103 21.1178 1.59298 20.1636C1.33601 18.2486 1.16687 15.8354 1.16687 13.4799C1.16687 12.24 1.21371 11.0398 1.29541 9.93113C1.40902 8.3893 1.59134 6.81262 1.81278 5.54868C1.92281 4.92059 2.04839 4.33543 2.19013 3.85843C2.2607 3.62097 2.3445 3.37865 2.44592 3.15905C2.5341 2.96811 2.6957 2.65849 2.96974 2.42074C3.23446 2.19107 3.55683 2.06108 3.78023 1.9823C4.03924 1.89097 4.34257 1.81026 4.67106 1.73781C5.33063 1.59233 6.17543 1.46203 7.14337 1.3525ZM26.0676 8.54078C26.057 8.44481 26.0462 8.34991 26.035 8.25612L26.5516 8.20038L26.035 8.25612C25.9073 7.18032 25.7445 6.0475 25.5625 5.13476C25.4718 4.67968 25.3736 4.26568 25.2687 3.93648L25.7661 3.79245L25.2687 3.93648C25.2163 3.77182 25.159 3.61833 25.0961 3.48817C25.0341 3.36006 24.9568 3.23426 24.8643 3.15401L24.8642 3.15399C24.7529 3.05741 24.5868 2.98052 24.3929 2.91214C24.1899 2.84057 23.9327 2.77082 23.6284 2.70369C23.0192 2.56932 22.2151 2.44417 21.2679 2.33697C19.373 2.12255 16.9022 1.97966 14.2669 1.97966C11.6316 1.97966 9.1607 2.12255 7.26589 2.33697C6.31863 2.44417 5.51453 2.56932 4.90536 2.70369C4.60101 2.77082 4.34381 2.84057 4.14085 2.91214C3.94689 2.98054 3.78076 3.05743 3.66943 3.15402L3.66943 3.15403C3.56163 3.24755 3.471 3.39929 3.39742 3.5586C3.32257 3.72067 3.25387 3.91524 3.19043 4.12871C3.06351 4.55581 2.94533 5.10084 2.83825 5.71203C2.62362 6.93715 2.44449 8.4813 2.33253 10.0006C2.25252 11.0864 2.20655 12.2633 2.20655 13.4799C2.20655 15.7951 2.37311 18.1662 2.62426 20.0378C2.74967 20.9724 2.89789 21.7954 3.06084 22.4297C3.14221 22.7465 3.23018 23.0278 3.32529 23.2562C3.41811 23.4791 3.53236 23.6865 3.66943 23.8054L3.3196 24.1721L3.66944 23.8054C3.78076 23.902 3.94689 23.9789 4.14085 24.0473L3.96054 24.5122L4.14085 24.0473C4.34381 24.1189 4.601 24.1886 4.90536 24.2557C5.51453 24.3901 6.31863 24.5153 7.26589 24.6224C9.1607 24.8369 11.6316 24.9797 14.2669 24.9797C16.9022 24.9797 19.373 24.8369 21.2679 24.6224C22.2151 24.5153 23.0192 24.3901 23.6284 24.2557C23.9327 24.1886 24.1899 24.1189 24.3929 24.0473C24.5868 23.9789 24.7529 23.902 24.8642 23.8054L24.8643 23.8054C24.9568 23.7252 25.0341 23.5994 25.0961 23.4713C25.159 23.3411 25.2163 23.1876 25.2687 23.023L25.6774 23.1413L25.2687 23.023C25.3736 22.6938 25.4718 22.2798 25.5625 21.8247C25.7445 20.912 25.9073 19.7793 26.035 18.7036C26.0463 18.6082 26.0574 18.5116 26.0682 18.4139C26.0699 18.3984 26.0724 18.383 26.0756 18.3677C26.0846 18.3254 26.0897 18.2799 26.0901 18.2318C26.0902 18.2165 26.091 18.2013 26.0926 18.1862C26.2385 16.7846 26.3272 15.1696 26.3272 13.4799C26.3272 12.2649 26.2814 11.0895 26.2015 10.0049L26.0676 8.54078ZM16.0001 16.7138V15.2835H6.00012V17.1906H16.0001V16.7138ZM23.0001 9.56223V10.9925V11.4693H6.00012V9.56223H23.0001Z"/>
</mask>
<path fill-rule="evenodd" clip-rule="evenodd" d="M7.14337 1.3525C9.08383 1.13291 11.596 0.988281 14.2669 0.988281C16.9378 0.988281 19.4499 1.13291 21.3904 1.3525C22.3583 1.46203 23.2031 1.59233 23.8627 1.73781C24.1912 1.81026 24.4945 1.89097 24.7535 1.98231C24.9768 2.06107 25.2992 2.19104 25.5639 2.42066C25.8139 2.63753 25.9617 2.91074 26.0402 3.07305L25.5682 3.28061L26.0402 3.07306C26.1305 3.25962 26.2036 3.46004 26.2635 3.64841C26.3839 4.02641 26.4902 4.47961 26.5839 4.94955C26.7728 5.89687 26.939 7.05714 27.0681 8.14464C27.0789 8.23548 27.0894 8.32729 27.0997 8.42003C27.1173 8.50979 27.1273 8.60235 27.1294 8.69668C27.1705 9.09343 27.207 9.50603 27.2383 9.93118C27.3201 11.04 27.3669 12.2401 27.3669 13.4799C27.3669 15.1929 27.2775 16.833 27.1294 18.2632C27.1273 18.3572 27.1173 18.4495 27.0998 18.539C27.0895 18.632 27.0789 18.724 27.0681 18.8151C26.939 19.9025 26.7728 21.0627 26.5839 22.01C26.4902 22.4799 26.3839 22.9331 26.2635 23.3111C26.2035 23.4994 26.1304 23.6998 26.0402 23.8864C25.9617 24.0487 25.8139 24.3219 25.5639 24.5388L25.5639 24.5387L25.224 24.1825L25.5639 24.5388C25.2992 24.7684 24.9768 24.8984 24.7535 24.9771C24.4945 25.0685 24.1912 25.1492 23.8627 25.2216C23.2031 25.3671 22.3583 25.4974 21.3904 25.6069C19.4499 25.8265 16.9378 25.9711 14.2669 25.9711C11.596 25.9711 9.08383 25.8265 7.14337 25.6069C6.17544 25.4974 5.33063 25.3671 4.67106 25.2216C4.34258 25.1492 4.03925 25.0685 3.78024 24.9771C3.55684 24.8984 3.23447 24.7684 2.96976 24.5387C2.64599 24.2578 2.46087 23.8668 2.359 23.6221C2.23959 23.3354 2.13842 23.0059 2.05101 22.6656C1.87521 21.9812 1.72103 21.1178 1.59298 20.1636C1.33601 18.2486 1.16687 15.8354 1.16687 13.4799C1.16687 12.24 1.21371 11.0398 1.29541 9.93113C1.40902 8.3893 1.59134 6.81262 1.81278 5.54868C1.92281 4.92059 2.04839 4.33543 2.19013 3.85843C2.2607 3.62097 2.3445 3.37865 2.44592 3.15905C2.5341 2.96811 2.6957 2.65849 2.96974 2.42074C3.23446 2.19107 3.55683 2.06108 3.78023 1.9823C4.03924 1.89097 4.34257 1.81026 4.67106 1.73781C5.33063 1.59233 6.17543 1.46203 7.14337 1.3525ZM26.0676 8.54078C26.057 8.44481 26.0462 8.34991 26.035 8.25612L26.5516 8.20038L26.035 8.25612C25.9073 7.18032 25.7445 6.0475 25.5625 5.13476C25.4718 4.67968 25.3736 4.26568 25.2687 3.93648L25.7661 3.79245L25.2687 3.93648C25.2163 3.77182 25.159 3.61833 25.0961 3.48817C25.0341 3.36006 24.9568 3.23426 24.8643 3.15401L24.8642 3.15399C24.7529 3.05741 24.5868 2.98052 24.3929 2.91214C24.1899 2.84057 23.9327 2.77082 23.6284 2.70369C23.0192 2.56932 22.2151 2.44417 21.2679 2.33697C19.373 2.12255 16.9022 1.97966 14.2669 1.97966C11.6316 1.97966 9.1607 2.12255 7.26589 2.33697C6.31863 2.44417 5.51453 2.56932 4.90536 2.70369C4.60101 2.77082 4.34381 2.84057 4.14085 2.91214C3.94689 2.98054 3.78076 3.05743 3.66943 3.15402L3.66943 3.15403C3.56163 3.24755 3.471 3.39929 3.39742 3.5586C3.32257 3.72067 3.25387 3.91524 3.19043 4.12871C3.06351 4.55581 2.94533 5.10084 2.83825 5.71203C2.62362 6.93715 2.44449 8.4813 2.33253 10.0006C2.25252 11.0864 2.20655 12.2633 2.20655 13.4799C2.20655 15.7951 2.37311 18.1662 2.62426 20.0378C2.74967 20.9724 2.89789 21.7954 3.06084 22.4297C3.14221 22.7465 3.23018 23.0278 3.32529 23.2562C3.41811 23.4791 3.53236 23.6865 3.66943 23.8054L3.3196 24.1721L3.66944 23.8054C3.78076 23.902 3.94689 23.9789 4.14085 24.0473L3.96054 24.5122L4.14085 24.0473C4.34381 24.1189 4.601 24.1886 4.90536 24.2557C5.51453 24.3901 6.31863 24.5153 7.26589 24.6224C9.1607 24.8369 11.6316 24.9797 14.2669 24.9797C16.9022 24.9797 19.373 24.8369 21.2679 24.6224C22.2151 24.5153 23.0192 24.3901 23.6284 24.2557C23.9327 24.1886 24.1899 24.1189 24.3929 24.0473C24.5868 23.9789 24.7529 23.902 24.8642 23.8054L24.8643 23.8054C24.9568 23.7252 25.0341 23.5994 25.0961 23.4713C25.159 23.3411 25.2163 23.1876 25.2687 23.023L25.6774 23.1413L25.2687 23.023C25.3736 22.6938 25.4718 22.2798 25.5625 21.8247C25.7445 20.912 25.9073 19.7793 26.035 18.7036C26.0463 18.6082 26.0574 18.5116 26.0682 18.4139C26.0699 18.3984 26.0724 18.383 26.0756 18.3677C26.0846 18.3254 26.0897 18.2799 26.0901 18.2318C26.0902 18.2165 26.091 18.2013 26.0926 18.1862C26.2385 16.7846 26.3272 15.1696 26.3272 13.4799C26.3272 12.2649 26.2814 11.0895 26.2015 10.0049L26.0676 8.54078ZM16.0001 16.7138V15.2835H6.00012V17.1906H16.0001V16.7138ZM23.0001 9.56223V10.9925V11.4693H6.00012V9.56223H23.0001Z" fill="#616161"/>
<path d="M7.14337 1.3525L7.1771 1.6506L7.14337 1.3525ZM21.3904 1.3525L21.4241 1.0544L21.3904 1.3525ZM23.8627 1.73781L23.7981 2.03077L23.8627 1.73781ZM24.7535 1.98231L24.8533 1.69938V1.69938L24.7535 1.98231ZM25.5639 2.42066L25.3673 2.64728L25.3673 2.64728L25.5639 2.42066ZM26.0402 3.07305L26.161 3.34768L26.4457 3.22249L26.3103 2.94246L26.0402 3.07305ZM26.0402 3.07306L26.3103 2.94246L26.1844 2.68197L25.9195 2.79843L26.0402 3.07306ZM26.2635 3.64841L25.9777 3.73945V3.73945L26.2635 3.64841ZM26.5839 4.94955L26.2897 5.00822V5.00822L26.5839 4.94955ZM27.0681 8.14464L26.7702 8.18L26.7702 8.18001L27.0681 8.14464ZM27.0997 8.42003L26.8015 8.45311L26.8029 8.46542L26.8053 8.47757L27.0997 8.42003ZM27.1294 8.69668L26.8295 8.70319L26.8297 8.71541L26.831 8.72758L27.1294 8.69668ZM27.2383 9.93118L26.9391 9.9532L26.9391 9.95325L27.2383 9.93118ZM27.1294 18.2632L26.831 18.2323L26.8297 18.2444L26.8294 18.2566L27.1294 18.2632ZM27.0998 18.539L26.8053 18.4815L26.803 18.4937L26.8016 18.5059L27.0998 18.539ZM27.0681 18.8151L26.7702 18.7797V18.7797L27.0681 18.8151ZM26.5839 22.01L26.8781 22.0686V22.0686L26.5839 22.01ZM26.2635 23.3111L26.5494 23.4021L26.2635 23.3111ZM26.0402 23.8864L25.7702 23.7558L25.7701 23.7558L26.0402 23.8864ZM25.5639 24.5387L25.776 24.7509L25.9832 24.5437L25.781 24.3317L25.5639 24.5387ZM25.224 24.1825L25.441 23.9754L25.0069 24.3895L25.224 24.1825ZM24.7535 24.9771L24.6537 24.6942L24.6537 24.6942L24.7535 24.9771ZM23.8627 25.2216L23.9273 25.5146L23.8627 25.2216ZM21.3904 25.6069L21.3566 25.3088L21.3566 25.3088L21.3904 25.6069ZM7.14337 25.6069L7.1771 25.3088H7.1771L7.14337 25.6069ZM4.67106 25.2216L4.73568 24.9287H4.73568L4.67106 25.2216ZM3.78024 24.9771L3.88001 24.6942H3.88001L3.78024 24.9771ZM2.96976 24.5387L3.16636 24.3121L3.16636 24.3121L2.96976 24.5387ZM2.359 23.6221L2.63595 23.5068L2.359 23.6221ZM2.05101 22.6656L1.76044 22.7402H1.76044L2.05101 22.6656ZM1.59298 20.1636L1.89032 20.1237L1.59298 20.1636ZM1.29541 9.93113L1.5946 9.95318L1.5946 9.95318L1.29541 9.93113ZM1.81278 5.54868L1.51728 5.49691L1.81278 5.54868ZM2.19013 3.85843L2.47771 3.94389H2.47771L2.19013 3.85843ZM2.44592 3.15905L2.17356 3.03326L2.44592 3.15905ZM2.96974 2.42074L3.16634 2.64734L3.16634 2.64734L2.96974 2.42074ZM3.78023 1.9823L3.88 2.26523H3.88L3.78023 1.9823ZM4.67106 1.73781L4.73567 2.03077L4.73568 2.03077L4.67106 1.73781ZM26.035 8.25612L26.0028 7.95786L25.7014 7.99039L25.7371 8.29148L26.035 8.25612ZM26.0676 8.54078L26.3664 8.51347L26.3658 8.50784L26.0676 8.54078ZM26.5516 8.20038L26.5838 8.49865L26.5194 7.90211L26.5516 8.20038ZM26.035 8.25612L25.7371 8.29148L25.7721 8.58623L26.0672 8.55439L26.035 8.25612ZM25.5625 5.13476L25.2683 5.19343V5.19343L25.5625 5.13476ZM25.2687 3.93648L25.1853 3.64832L24.8894 3.734L24.9829 4.02752L25.2687 3.93648ZM25.2687 3.93648L24.9829 4.02751L25.0715 4.30591L25.3522 4.22464L25.2687 3.93648ZM25.0961 3.48817L25.3662 3.35757V3.35757L25.0961 3.48817ZM24.8643 3.15401L24.6656 3.37884L24.6677 3.38063L24.8643 3.15401ZM24.8642 3.15399L25.0629 2.92916L25.0608 2.92738L24.8642 3.15399ZM24.3929 2.91214L24.2931 3.19507H24.2931L24.3929 2.91214ZM23.6284 2.70369L23.5638 2.99665L23.6284 2.70369ZM21.2679 2.33697L21.2341 2.63507L21.2679 2.33697ZM7.26589 2.33697L7.29962 2.63507L7.29962 2.63507L7.26589 2.33697ZM4.90536 2.70369L4.96998 2.99665L4.90536 2.70369ZM4.14085 2.91214L4.04108 2.62922L4.04108 2.62922L4.14085 2.91214ZM3.66943 3.15402L3.47276 2.92734L3.46671 2.93288L3.66943 3.15402ZM3.66943 3.15403L3.8661 3.38072L3.87214 3.37517L3.66943 3.15403ZM3.39742 3.5586L3.66978 3.68438L3.66978 3.68438L3.39742 3.5586ZM3.19043 4.12871L2.90286 4.04325L3.19043 4.12871ZM2.83825 5.71203L3.13375 5.7638L2.83825 5.71203ZM2.33253 10.0006L2.63172 10.0227L2.63172 10.0227L2.33253 10.0006ZM2.62426 20.0378L2.32692 20.0777L2.62426 20.0378ZM3.06084 22.4297L2.77027 22.5044H2.77027L3.06084 22.4297ZM3.32529 23.2562L3.04834 23.3716L3.04834 23.3716L3.32529 23.2562ZM3.66943 23.8054L3.88648 24.0125L4.10362 23.7849L3.86603 23.5788L3.66943 23.8054ZM3.3196 24.1721L3.10255 23.965L3.53665 24.3792L3.3196 24.1721ZM3.66944 23.8054L3.86603 23.5788L3.6499 23.3913L3.45239 23.5983L3.66944 23.8054ZM4.14085 24.0473L4.42055 24.1558L4.53243 23.8673L4.24061 23.7644L4.14085 24.0473ZM4.14085 24.0473L4.24061 23.7644L3.96631 23.6677L3.86115 23.9388L4.14085 24.0473ZM4.90536 24.2557L4.84075 24.5487H4.84075L4.90536 24.2557ZM7.26589 24.6224L7.23216 24.9205L7.26589 24.6224ZM21.2679 24.6224L21.3016 24.9205L21.2679 24.6224ZM23.6284 24.2557L23.693 24.5487H23.693L23.6284 24.2557ZM24.3929 24.0473L24.4926 24.3302V24.3302L24.3929 24.0473ZM24.8642 23.8054L25.0608 24.0321L25.0618 24.0312L24.8642 23.8054ZM24.8643 23.8054L24.6677 23.5788L24.6667 23.5797L24.8643 23.8054ZM25.0961 23.4713L24.826 23.3407L25.0961 23.4713ZM25.2687 23.023L25.3522 22.7348L25.0715 22.6536L24.9829 22.9319L25.2687 23.023ZM25.6774 23.1413L25.594 23.4295L25.7609 22.8532L25.6774 23.1413ZM25.2687 23.023L24.9829 22.9319L24.8894 23.2255L25.1853 23.3111L25.2687 23.023ZM25.5625 21.8247L25.8567 21.8834L25.5625 21.8247ZM26.035 18.7036L25.7371 18.6682V18.6682L26.035 18.7036ZM26.0682 18.4139L26.3664 18.4468V18.4468L26.0682 18.4139ZM26.0756 18.3677L25.7821 18.3055L25.7821 18.3055L26.0756 18.3677ZM26.0901 18.2318L25.7901 18.2296V18.2297L26.0901 18.2318ZM26.0926 18.1862L26.391 18.2172L26.391 18.2172L26.0926 18.1862ZM26.2015 10.0049L26.5007 9.98284L26.5002 9.97757L26.2015 10.0049ZM16.0001 15.2835H16.3001V14.9835H16.0001V15.2835ZM6.00012 15.2835V14.9835H5.70012V15.2835H6.00012ZM6.00012 17.1906H5.70012V17.4906H6.00012V17.1906ZM16.0001 17.1906V17.4906H16.3001V17.1906H16.0001ZM23.0001 9.56223H23.3001V9.26223H23.0001V9.56223ZM23.0001 11.4693V11.7693H23.3001V11.4693H23.0001ZM6.00012 11.4693H5.70012V11.7693H6.00012V11.4693ZM6.00012 9.56223V9.26223H5.70012V9.56223H6.00012ZM14.2669 0.688281C11.5862 0.688281 9.06268 0.833391 7.10963 1.0544L7.1771 1.6506C9.10498 1.43243 11.6058 1.28828 14.2669 1.28828V0.688281ZM21.4241 1.0544C19.4711 0.833391 16.9475 0.688281 14.2669 0.688281V1.28828C16.928 1.28828 19.4288 1.43243 21.3566 1.6506L21.4241 1.0544ZM23.9273 1.44485C23.2538 1.29629 22.3977 1.16458 21.4241 1.0544L21.3566 1.6506C22.3189 1.75948 23.1524 1.88836 23.7981 2.03077L23.9273 1.44485ZM24.8533 1.69938C24.5786 1.60253 24.2625 1.51878 23.9273 1.44485L23.7981 2.03077C24.1199 2.10175 24.4104 2.17941 24.6537 2.26523L24.8533 1.69938ZM25.7605 2.19405C25.4514 1.92596 25.0846 1.78096 24.8533 1.69938L24.6537 2.26523C24.8691 2.34118 25.1469 2.45612 25.3673 2.64728L25.7605 2.19405ZM26.3103 2.94246C26.2263 2.76873 26.057 2.45129 25.7604 2.19404L25.3673 2.64728C25.5707 2.82376 25.6972 3.05274 25.7702 3.20365L26.3103 2.94246ZM25.6889 3.55524L26.161 3.34768L25.9195 2.79843L25.4474 3.00599L25.6889 3.55524ZM25.9195 2.79843L25.4474 3.00599L25.6889 3.55524L26.161 3.34768L25.9195 2.79843ZM26.5494 3.55738C26.487 3.36153 26.409 3.1465 26.3103 2.94246L25.7702 3.20365C25.8519 3.37275 25.9201 3.55856 25.9777 3.73945L26.5494 3.55738ZM26.8781 4.89087C26.7834 4.41622 26.6747 3.95068 26.5494 3.55737L25.9777 3.73945C26.0932 4.10214 26.1969 4.54301 26.2897 5.00822L26.8781 4.89087ZM27.366 8.10929C27.2365 7.01807 27.0692 5.84912 26.8781 4.89087L26.2897 5.00822C26.4764 5.94462 26.6416 7.09621 26.7702 8.18L27.366 8.10929ZM27.3979 8.38695C27.3875 8.29347 27.3769 8.2009 27.366 8.10928L26.7702 8.18001C26.7809 8.27007 26.7913 8.36112 26.8015 8.45311L27.3979 8.38695ZM27.4293 8.69017C27.4269 8.57875 27.415 8.46912 27.3941 8.36249L26.8053 8.47757C26.8195 8.55046 26.8278 8.62594 26.8295 8.70319L27.4293 8.69017ZM27.5375 9.90915C27.506 9.48115 27.4692 9.06559 27.4278 8.66578L26.831 8.72758C26.8717 9.12127 26.908 9.53091 26.9391 9.9532L27.5375 9.90915ZM27.6669 13.4799C27.6669 12.2327 27.6198 11.0252 27.5375 9.9091L26.9391 9.95325C27.0204 11.0547 27.0669 12.2475 27.0669 13.4799H27.6669ZM27.4278 18.2941C27.577 16.8533 27.6669 15.2029 27.6669 13.4799H27.0669C27.0669 15.1829 26.978 16.8126 26.831 18.2323L27.4278 18.2941ZM27.3942 18.5965C27.415 18.4901 27.4269 18.3808 27.4293 18.2698L26.8294 18.2566C26.8277 18.3336 26.8195 18.4089 26.8053 18.4815L27.3942 18.5965ZM27.366 18.8504C27.3769 18.7586 27.3876 18.6658 27.398 18.5721L26.8016 18.5059C26.7914 18.5982 26.7809 18.6894 26.7702 18.7797L27.366 18.8504ZM26.8781 22.0686C27.0692 21.1104 27.2365 19.9416 27.366 18.8504L26.7702 18.7797C26.6416 19.8634 26.4764 21.0149 26.2897 21.9513L26.8781 22.0686ZM26.5494 23.4021C26.6746 23.0088 26.7834 22.5433 26.8781 22.0686L26.2897 21.9513C26.1969 22.4165 26.0932 22.8573 25.9777 23.22L26.5494 23.4021ZM26.3103 24.017C26.409 23.813 26.487 23.5979 26.5494 23.4021L25.9777 23.22C25.9201 23.4009 25.8519 23.5867 25.7702 23.7558L26.3103 24.017ZM25.7605 24.7654C26.057 24.5081 26.2263 24.1907 26.3103 24.017L25.7701 23.7558C25.6972 23.9067 25.5707 24.1357 25.3673 24.3121L25.7605 24.7654ZM25.776 24.7509L25.776 24.7509L25.3518 24.3266L25.3518 24.3266L25.776 24.7509ZM25.781 24.3317L25.441 23.9754L25.0069 24.3896L25.3469 24.7458L25.781 24.3317ZM25.0069 24.3895L25.3468 24.7458L25.781 24.3317L25.441 23.9754L25.0069 24.3895ZM24.8533 25.2601C25.0846 25.1785 25.4514 25.0335 25.7605 24.7654L25.3673 24.3121C25.1469 24.5033 24.8691 24.6183 24.6537 24.6942L24.8533 25.2601ZM23.9273 25.5146C24.2624 25.4407 24.5786 25.3569 24.8533 25.2601L24.6537 24.6942C24.4104 24.78 24.1199 24.8577 23.7981 24.9287L23.9273 25.5146ZM21.4241 25.905C22.3977 25.7948 23.2538 25.6631 23.9273 25.5146L23.7981 24.9287C23.1524 25.0711 22.3189 25.1999 21.3566 25.3088L21.4241 25.905ZM14.2669 26.2711C16.9475 26.2711 19.4711 26.126 21.4241 25.905L21.3566 25.3088C19.4288 25.527 16.928 25.6711 14.2669 25.6711V26.2711ZM7.10964 25.905C9.06268 26.126 11.5862 26.2711 14.2669 26.2711V25.6711C11.6058 25.6711 9.10498 25.527 7.1771 25.3088L7.10964 25.905ZM4.60645 25.5146C5.27997 25.6631 6.13602 25.7948 7.10964 25.905L7.1771 25.3088C6.21486 25.1999 5.3813 25.0711 4.73568 24.9287L4.60645 25.5146ZM3.68048 25.2601C3.95513 25.3569 4.27129 25.4407 4.60645 25.5146L4.73568 24.9287C4.41386 24.8577 4.12337 24.78 3.88001 24.6942L3.68048 25.2601ZM2.77317 24.7653C3.08223 25.0335 3.4491 25.1785 3.68048 25.2601L3.88001 24.6942C3.66458 24.6182 3.38671 24.5033 3.16636 24.3121L2.77317 24.7653ZM2.08205 23.7374C2.18726 23.9901 2.39407 24.4364 2.77317 24.7653L3.16636 24.3121C2.89792 24.0792 2.73449 23.7434 2.63595 23.5068L2.08205 23.7374ZM1.76044 22.7402C1.84977 23.088 1.95507 23.4325 2.08205 23.7374L2.63595 23.5068C2.52411 23.2382 2.42707 22.9238 2.34158 22.591L1.76044 22.7402ZM1.29565 20.2035C1.42453 21.1639 1.58059 22.0401 1.76044 22.7402L2.34158 22.591C2.16982 21.9223 2.01753 21.0717 1.89032 20.1237L1.29565 20.2035ZM0.86687 13.4799C0.86687 15.8482 1.03683 18.2747 1.29565 20.2035L1.89032 20.1237C1.63519 18.2224 1.46687 15.8226 1.46687 13.4799H0.86687ZM0.996221 9.90908C0.913981 11.0251 0.86687 12.2326 0.86687 13.4799H1.46687C1.46687 12.2474 1.51343 11.0546 1.5946 9.95318L0.996221 9.90908ZM1.51728 5.49691C1.29369 6.77313 1.11036 8.36011 0.996221 9.90908L1.5946 9.95318C1.70769 8.41849 1.88899 6.85211 2.10828 5.60045L1.51728 5.49691ZM1.90256 3.77297C1.75616 4.26565 1.62825 4.86346 1.51728 5.49691L2.10828 5.60045C2.21737 4.97773 2.34062 4.4052 2.47771 3.94389L1.90256 3.77297ZM2.17356 3.03326C2.0639 3.27072 1.97538 3.52793 1.90256 3.77297L2.47771 3.94389C2.54602 3.714 2.6251 3.48657 2.71828 3.28483L2.17356 3.03326ZM2.77314 2.19413C2.44992 2.47456 2.2667 2.83159 2.17356 3.03326L2.71828 3.28483C2.8015 3.10462 2.94149 2.84242 3.16634 2.64734L2.77314 2.19413ZM3.68047 1.69938C3.44909 1.78097 3.08221 1.92599 2.77314 2.19413L3.16634 2.64734C3.3867 2.45616 3.66458 2.34119 3.88 2.26523L3.68047 1.69938ZM4.60644 1.44485C4.27128 1.51878 3.95511 1.60253 3.68047 1.69938L3.88 2.26523C4.12336 2.17941 4.41386 2.10175 4.73567 2.03077L4.60644 1.44485ZM7.10963 1.0544C6.13601 1.16458 5.27996 1.29629 4.60644 1.44485L4.73568 2.03077C5.38129 1.88836 6.21486 1.75948 7.1771 1.6506L7.10963 1.0544ZM25.7371 8.29148C25.7481 8.38445 25.7589 8.47855 25.7694 8.57373L26.3658 8.50784C26.3551 8.41108 26.3442 8.31537 26.3329 8.22077L25.7371 8.29148ZM26.5194 7.90211L26.0028 7.95786L26.0672 8.55439L26.5838 8.49865L26.5194 7.90211ZM26.0672 8.55439L26.5837 8.49865L26.5194 7.90211L26.0028 7.95785L26.0672 8.55439ZM25.2683 5.19343C25.4482 6.09525 25.6099 7.21939 25.7371 8.29148L26.3329 8.22076C26.2048 7.14125 26.0409 5.99975 25.8567 5.07608L25.2683 5.19343ZM24.9829 4.02752C25.0828 4.3414 25.1785 4.74306 25.2683 5.19343L25.8567 5.07608C25.765 4.61631 25.6643 4.18997 25.5546 3.84544L24.9829 4.02752ZM25.6827 3.50428L25.1853 3.64832L25.3522 4.22464L25.8496 4.08061L25.6827 3.50428ZM25.3522 4.22464L25.8496 4.08061L25.6827 3.50428L25.1853 3.64832L25.3522 4.22464ZM24.826 3.61877C24.8805 3.73143 24.9328 3.8703 24.9829 4.02751L25.5546 3.84545C25.4998 3.67333 25.4376 3.50522 25.3662 3.35757L24.826 3.61877ZM24.6677 3.38063C24.7133 3.42021 24.7692 3.50136 24.826 3.61877L25.3662 3.35757C25.299 3.21875 25.2002 3.04831 25.0608 2.92739L24.6677 3.38063ZM24.6656 3.37881L24.6656 3.37883L25.0629 2.92919L25.0629 2.92917L24.6656 3.37881ZM24.2931 3.19507C24.4798 3.26089 24.6009 3.32274 24.6676 3.3806L25.0608 2.92738C24.9049 2.79208 24.6938 2.70016 24.4926 2.62922L24.2931 3.19507ZM23.5638 2.99665C23.8615 3.06231 24.1058 3.12901 24.2931 3.19507L24.4926 2.62922C24.274 2.55213 24.004 2.47933 23.693 2.41073L23.5638 2.99665ZM21.2341 2.63507C22.1757 2.74162 22.9685 2.86536 23.5638 2.99665L23.693 2.41073C23.0699 2.27329 22.2545 2.14671 21.3016 2.03887L21.2341 2.63507ZM14.2669 2.27966C16.8924 2.27966 19.3519 2.42207 21.2341 2.63507L21.3016 2.03887C19.3942 1.82303 16.912 1.67966 14.2669 1.67966V2.27966ZM7.29962 2.63507C9.18186 2.42207 11.6414 2.27966 14.2669 2.27966V1.67966C11.6218 1.67966 9.13955 1.82303 7.23216 2.03888L7.29962 2.63507ZM4.96998 2.99665C5.5652 2.86536 6.35805 2.74162 7.29962 2.63507L7.23216 2.03887C6.27921 2.14671 5.46387 2.27329 4.84075 2.41073L4.96998 2.99665ZM4.24061 3.19507C4.42793 3.12901 4.67228 3.06231 4.96998 2.99665L4.84075 2.41073C4.52974 2.47933 4.2597 2.55212 4.04108 2.62922L4.24061 3.19507ZM3.86603 3.38063C3.93272 3.32277 4.05392 3.2609 4.24061 3.19507L4.04108 2.62922C3.83986 2.70017 3.6288 2.7921 3.47283 2.92742L3.86603 3.38063ZM3.87214 3.37517L3.87215 3.37517L3.46671 2.93288L3.46671 2.93288L3.87214 3.37517ZM3.66978 3.68438C3.73875 3.53505 3.80775 3.43119 3.86602 3.38063L3.47283 2.92742C3.31551 3.06391 3.20325 3.26353 3.12507 3.43282L3.66978 3.68438ZM3.478 4.21417C3.5392 4.00824 3.60319 3.82858 3.66978 3.68438L3.12507 3.43282C3.04196 3.61276 2.96854 3.82223 2.90286 4.04325L3.478 4.21417ZM3.13375 5.7638C3.23989 5.15797 3.35575 4.62558 3.478 4.21417L2.90286 4.04325C2.77128 4.48604 2.65076 5.04372 2.54275 5.66026L3.13375 5.7638ZM2.63172 10.0227C2.74315 8.5105 2.92127 6.97664 3.13375 5.7638L2.54275 5.66026C2.32597 6.89766 2.14583 8.45211 2.03335 9.97857L2.63172 10.0227ZM2.50655 13.4799C2.50655 12.2707 2.55225 11.1011 2.63172 10.0227L2.03335 9.97857C1.9528 11.0716 1.90655 12.2559 1.90655 13.4799H2.50655ZM2.92159 19.9979C2.6723 18.14 2.50655 15.7823 2.50655 13.4799H1.90655C1.90655 15.8079 2.07393 18.1923 2.32692 20.0777L2.92159 19.9979ZM3.35141 22.3551C3.19251 21.7365 3.04617 20.9262 2.92159 19.9979L2.32692 20.0777C2.45317 21.0185 2.60328 21.8543 2.77027 22.5044L3.35141 22.3551ZM3.60224 23.1409C3.51471 22.9307 3.43086 22.6644 3.35141 22.3551L2.77027 22.5044C2.85355 22.8286 2.94566 23.125 3.04834 23.3716L3.60224 23.1409ZM3.86603 23.5788C3.78469 23.5083 3.69214 23.3568 3.60224 23.1409L3.04834 23.3716C3.14407 23.6015 3.28003 23.8648 3.47284 24.032L3.86603 23.5788ZM3.53665 24.3792L3.88648 24.0125L3.45238 23.5983L3.10255 23.965L3.53665 24.3792ZM3.45239 23.5983L3.10255 23.965L3.53665 24.3792L3.88648 24.0125L3.45239 23.5983ZM4.24061 23.7644C4.05392 23.6985 3.93271 23.6367 3.86603 23.5788L3.47284 24.032C3.62881 24.1673 3.83986 24.2593 4.04108 24.3302L4.24061 23.7644ZM4.24025 24.6207L4.42055 24.1558L3.86114 23.9388L3.68084 24.4037L4.24025 24.6207ZM3.86115 23.9388L3.68084 24.4037L4.24025 24.6207L4.42055 24.1558L3.86115 23.9388ZM4.96998 23.9628C4.67227 23.8971 4.42792 23.8304 4.24061 23.7644L4.04108 24.3302C4.2597 24.4073 4.52974 24.4801 4.84075 24.5487L4.96998 23.9628ZM7.29962 24.3244C6.35805 24.2178 5.56519 24.0941 4.96998 23.9628L4.84075 24.5487C5.46387 24.6861 6.27921 24.8127 7.23216 24.9205L7.29962 24.3244ZM14.2669 24.6797C11.6414 24.6797 9.18186 24.5373 7.29962 24.3244L7.23216 24.9205C9.13955 25.1364 11.6218 25.2797 14.2669 25.2797V24.6797ZM21.2341 24.3244C19.3519 24.5373 16.8924 24.6797 14.2669 24.6797V25.2797C16.912 25.2797 19.3942 25.1364 21.3016 24.9205L21.2341 24.3244ZM23.5638 23.9628C22.9685 24.0941 22.1757 24.2178 21.2341 24.3244L21.3016 24.9205C22.2545 24.8127 23.0699 24.6861 23.693 24.5487L23.5638 23.9628ZM24.2931 23.7644C24.1058 23.8304 23.8615 23.8971 23.5638 23.9628L23.693 24.5487C24.004 24.4801 24.274 24.4073 24.4926 24.3302L24.2931 23.7644ZM24.6676 23.5788C24.601 23.6367 24.4798 23.6986 24.2931 23.7644L24.4926 24.3302C24.6938 24.2593 24.9049 24.1674 25.0608 24.0321L24.6676 23.5788ZM24.6667 23.5797L24.6667 23.5797L25.0618 24.0312L25.0618 24.0312L24.6667 23.5797ZM24.826 23.3407C24.7692 23.4581 24.7133 23.5392 24.6677 23.5788L25.0608 24.032C25.2002 23.9111 25.299 23.7407 25.3662 23.6019L24.826 23.3407ZM24.9829 22.9319C24.9328 23.0892 24.8805 23.228 24.826 23.3407L25.3662 23.6019C25.4376 23.4542 25.4998 23.2861 25.5546 23.114L24.9829 22.9319ZM25.7609 22.8532L25.3522 22.7348L25.1853 23.3111L25.594 23.4295L25.7609 22.8532ZM25.1853 23.3111L25.594 23.4295L25.7609 22.8532L25.3522 22.7348L25.1853 23.3111ZM25.2683 21.7661C25.1785 22.2164 25.0828 22.6181 24.9829 22.9319L25.5546 23.114C25.6643 22.7695 25.765 22.3432 25.8567 21.8834L25.2683 21.7661ZM25.7371 18.6682C25.6099 19.7402 25.4482 20.8643 25.2683 21.7661L25.8567 21.8834C26.0409 20.9598 26.2048 19.8184 26.3329 18.7389L25.7371 18.6682ZM25.77 18.381C25.7593 18.4779 25.7483 18.5736 25.7371 18.6682L26.3329 18.7389C26.3443 18.6427 26.3555 18.5453 26.3664 18.4468L25.77 18.381ZM25.7821 18.3055C25.7768 18.3305 25.7728 18.3557 25.77 18.381L26.3664 18.4468C26.367 18.4412 26.3679 18.4355 26.3691 18.4298L25.7821 18.3055ZM25.7901 18.2297C25.7899 18.2577 25.7869 18.2831 25.7821 18.3055L26.3691 18.4299C26.3823 18.3678 26.3896 18.3021 26.3901 18.2339L25.7901 18.2297ZM25.7942 18.1551C25.7916 18.1799 25.7903 18.2048 25.7901 18.2296L26.3901 18.2339C26.3901 18.2283 26.3904 18.2228 26.391 18.2172L25.7942 18.1551ZM26.0272 13.4799C26.0272 15.1595 25.939 16.7641 25.7942 18.1551L26.391 18.2172C26.538 16.805 26.6272 15.1796 26.6272 13.4799H26.0272ZM25.9023 10.0269C25.9817 11.1042 26.0272 12.2723 26.0272 13.4799H26.6272C26.6272 12.2576 26.5811 11.0747 26.5007 9.98284L25.9023 10.0269ZM25.7689 8.56809L25.9027 10.0322L26.5002 9.97757L26.3664 8.51347L25.7689 8.56809ZM15.7001 15.2835V16.7138H16.3001V15.2835H15.7001ZM6.00012 15.5835H16.0001V14.9835H6.00012V15.5835ZM6.30012 17.1906V15.2835H5.70012V17.1906H6.30012ZM16.0001 16.8906H6.00012V17.4906H16.0001V16.8906ZM15.7001 16.7138V17.1906H16.3001V16.7138H15.7001ZM23.3001 10.9925V9.56223H22.7001V10.9925H23.3001ZM23.3001 11.4693V10.9925H22.7001V11.4693H23.3001ZM6.00012 11.7693H23.0001V11.1693H6.00012V11.7693ZM5.70012 9.56223V11.4693H6.30012V9.56223H5.70012ZM23.0001 9.26223H6.00012V9.86223H23.0001V9.26223Z" fill="#616161" mask="url(#path-1-outside-1_34_303)"/>
</svg>
