<svg width="27" height="24" viewBox="0 0 27 24" fill="none" xmlns="http://www.w3.org/2000/svg">
<path fill-rule="evenodd" clip-rule="evenodd" d="M26.2171 16.8889C26.2254 16.8809 26.2329 16.8729 26.2384 16.8639C26.1083 17.8389 25.9446 18.8539 25.7624 19.6869C25.6657 20.1279 25.5578 20.5419 25.4398 20.8789C25.3812 21.0469 25.3124 21.2159 25.2324 21.3669C25.159 21.5059 25.0409 21.6959 24.8605 21.8379C24.6634 21.9939 24.4077 22.0919 24.1883 22.1619C23.9465 22.2399 23.6527 22.3119 23.3208 22.3789C22.6551 22.5119 21.7904 22.6339 20.7862 22.7369C18.7751 22.9439 16.1614 23.0809 13.3786 23.0809C10.5958 23.0809 7.98214 22.9439 5.97101 22.7369C4.96685 22.6339 4.10215 22.5119 3.43642 22.3789C3.10449 22.3119 2.81068 22.2399 2.568 22.1619C2.3495 22.0919 2.09288 21.9929 1.89577 21.8379C1.65403 21.6469 1.49782 21.3619 1.39554 21.1389C1.28304 20.8929 1.18356 20.6019 1.09523 20.2879C0.917637 19.6589 0.758643 18.8549 0.625684 17.9539C0.359766 16.1469 0.183105 13.8649 0.183105 11.6369C0.183105 10.4649 0.232385 9.3309 0.316995 8.2839C0.435078 6.8239 0.624754 5.33489 0.85348 4.14789C0.966914 3.55589 1.09522 3.0169 1.23562 2.5859C1.30628 2.3709 1.38625 2.16189 1.4783 1.97989C1.56384 1.81289 1.69587 1.59289 1.89577 1.43489C2.09288 1.27989 2.3495 1.1809 2.568 1.1109C2.81068 1.0329 3.10449 0.960896 3.43642 0.894896C4.10215 0.760896 4.96685 0.638894 5.97101 0.535894C7.98214 0.328894 10.5958 0.191895 13.3786 0.191895C16.1614 0.191895 18.7751 0.328894 20.7862 0.535894C21.7904 0.638894 22.6551 0.760896 23.3208 0.894896C23.6527 0.960896 23.9465 1.0329 24.1892 1.1109C24.4077 1.1809 24.6634 1.27989 24.8605 1.43489C25.0409 1.57689 25.159 1.7669 25.2324 1.9059C25.3124 2.0569 25.3812 2.22589 25.4398 2.39389C25.5578 2.73089 25.6657 3.14489 25.7624 3.58589C25.8572 4.01889 25.9465 4.5009 26.0292 4.9999H26.0469C26.4346 6.8409 26.6364 8.71989 26.6643 10.6069C26.695 12.6869 26.5183 14.7619 26.2282 16.8169L26.2171 16.8889ZM26.3221 16.2379L26.324 16.2159L26.3203 16.2649L26.3221 16.2379ZM14.8895 15.5409V13.5409H5.59166V15.5409H14.8895ZM21.398 7.5409V9.5409H5.59166V7.5409H21.398Z" fill="#18BC7A"/>
</svg>
