<svg width="29" height="24" viewBox="0 0 29 24" fill="none" xmlns="http://www.w3.org/2000/svg">
<path fill-rule="evenodd" clip-rule="evenodd" d="M2.9867 2.86948C2.95043 2.93641 2.90227 3.04509 2.84621 3.20464C2.73304 3.52671 2.61515 3.97638 2.50086 4.52811C2.27332 5.62655 2.07824 7.03999 1.95562 8.4473L1.95562 8.44731C1.86909 9.44037 1.81915 10.5199 1.81915 11.6367C1.81915 13.7697 2.00129 15.9535 2.27193 17.6592C2.40759 18.5142 2.56208 19.2272 2.71928 19.7448C2.79822 20.0047 2.87148 20.194 2.93332 20.3196C2.95108 20.3556 2.96552 20.3815 2.97614 20.3993C3.0117 20.4142 3.078 20.4399 3.18664 20.4723C3.37592 20.5287 3.6344 20.589 3.96239 20.6501C4.61663 20.7722 5.49759 20.8888 6.5534 20.9899C8.66227 21.1917 11.424 21.3271 14.3749 21.3271C17.3258 21.3271 20.0875 21.1917 22.1964 20.9899C23.2522 20.8888 24.1332 20.7722 24.7874 20.6501C25.1154 20.589 25.3738 20.5287 25.5631 20.4723C25.6522 20.4457 25.7128 20.4237 25.7514 20.4084C25.7723 20.3661 25.799 20.3052 25.8303 20.2221C25.9175 19.9905 26.0117 19.6634 26.1076 19.2566C26.2585 18.6168 26.4004 17.8377 26.5228 17.0428H17.2152C14.4218 17.0428 12.1492 14.6272 12.1492 11.6366C12.1492 8.64591 14.4218 6.23037 17.2152 6.23037H26.5228C26.4003 5.43542 26.2585 4.65644 26.1076 4.01657C26.0117 3.60982 25.9175 3.28269 25.8303 3.05106C25.799 2.96798 25.7723 2.90712 25.7514 2.86478C25.7128 2.8495 25.6522 2.82749 25.5631 2.80091C25.3738 2.74447 25.1154 2.68421 24.7874 2.62303C24.1332 2.50098 23.2522 2.38434 22.1964 2.28329C20.0875 2.08146 17.3258 1.94604 14.3749 1.94604C11.424 1.94604 8.66228 2.08146 6.5534 2.28329C5.49759 2.38434 4.61663 2.50098 3.96239 2.62303C3.63441 2.68421 3.37592 2.74447 3.18665 2.80092C3.08796 2.83035 3.02421 2.85419 2.9867 2.86948ZM25.7196 2.80679C25.717 2.8034 25.7157 2.80147 25.7158 2.80135C25.7158 2.80123 25.7171 2.80292 25.7196 2.80679ZM28.2711 6.87911C28.2588 6.78491 28.2462 6.69175 28.2332 6.59967C28.0884 5.56769 27.9028 4.4738 27.6936 3.58647C27.5895 3.1452 27.4742 2.73151 27.3472 2.39415C27.2838 2.22574 27.2103 2.05691 27.1239 1.90582C27.0447 1.76727 26.9176 1.57693 26.7244 1.43519C26.5123 1.27958 26.2368 1.18089 26.0014 1.1107C25.7409 1.03299 25.4247 0.961213 25.0678 0.894624C24.3521 0.761127 23.4221 0.639264 22.3418 0.535877C20.1785 0.328839 17.3678 0.191681 14.3749 0.191681C11.3819 0.191681 8.57127 0.328839 6.40799 0.535877C5.32772 0.639264 4.39766 0.761127 3.68203 0.894624C3.32507 0.961213 3.00891 1.03299 2.74833 1.1107C2.51292 1.18091 2.23738 1.2796 2.02527 1.43524C1.8099 1.59327 1.66762 1.81335 1.57638 1.98044C1.47696 2.16251 1.39094 2.37092 1.31536 2.58604C1.16381 3.01733 1.02632 3.55648 0.90386 4.14766C0.657897 5.33504 0.454022 6.82381 0.32679 8.2841C0.235576 9.33093 0.183228 10.4649 0.183228 11.6367C0.183228 13.8648 0.372581 16.1472 0.659184 17.9535C0.802149 18.8546 0.972716 19.6591 1.16379 20.2881C1.25898 20.6016 1.36567 20.893 1.48667 21.1387C1.59649 21.3617 1.76535 21.6472 2.02528 21.8379C2.23739 21.9936 2.51293 22.0923 2.74834 22.1625C3.00891 22.2402 3.32507 22.312 3.68203 22.3785C4.39766 22.512 5.32772 22.6339 6.40799 22.7373C8.57127 22.9443 11.3819 23.0815 14.3749 23.0815C17.3678 23.0815 20.1785 22.9443 22.3418 22.7373C23.4221 22.6339 24.3521 22.512 25.0678 22.3785C25.4247 22.312 25.7409 22.2402 26.0014 22.1625C26.2368 22.0923 26.5123 21.9936 26.7244 21.838C26.9176 21.6962 27.0447 21.5059 27.1239 21.3674C27.2103 21.2163 27.2838 21.0474 27.3472 20.879C27.4742 20.5417 27.5895 20.128 27.6936 19.6868C27.9028 18.7995 28.0884 17.7057 28.2332 16.6737C28.2462 16.5815 28.2588 16.4881 28.2712 16.3937C28.2888 16.3234 28.2984 16.2497 28.2991 16.1736C28.4656 14.8204 28.5666 13.264 28.5666 11.6367C28.5666 10.465 28.5143 9.33105 28.4229 8.28417M28.2991 7.09988C28.2984 7.02357 28.2887 6.94958 28.2711 6.87911L28.2991 7.09988ZM26.7506 7.98473C26.766 8.13654 26.7805 8.29077 26.7941 8.44723L26.7941 8.4474C26.8807 9.44038 26.9306 10.5199 26.9306 11.6367C26.9306 12.9309 26.8636 14.1735 26.7506 15.2884H17.2152C15.3162 15.2884 13.7851 13.6487 13.7851 11.6366C13.7851 9.62448 15.3162 7.98473 17.2152 7.98473H26.7506ZM28.4229 8.284C28.3874 7.87557 28.3458 7.47987 28.2991 7.09988L28.4229 8.284ZM25.7158 20.4718C25.7157 20.4717 25.717 20.4698 25.7196 20.4664C25.7171 20.4702 25.7158 20.4719 25.7158 20.4718ZM3.01424 2.8234C3.01552 2.82158 3.01618 2.82076 3.01619 2.8208C3.0162 2.82084 3.01556 2.82175 3.01424 2.8234ZM17.1904 10.7594C17.6422 10.7594 18.0084 11.1521 18.0084 11.6366V11.6517C18.0084 12.1361 17.6422 12.5288 17.1904 12.5288C16.7387 12.5288 16.3724 12.1361 16.3724 11.6517V11.6366C16.3724 11.1521 16.7387 10.7594 17.1904 10.7594Z" fill="#616161"/>
</svg>
