<svg width="29" height="24" viewBox="0 0 29 24" fill="none" xmlns="http://www.w3.org/2000/svg">
<g clip-path="url(#clip0_1_1152)">
<path fill-rule="evenodd" clip-rule="evenodd" d="M28.2061 16.8639C28.0661 17.8389 27.8901 18.8539 27.6941 19.6869C27.5901 20.1279 27.4741 20.5419 27.3471 20.8789C27.2841 21.0469 27.2101 21.2159 27.1241 21.3669C27.0451 21.5059 26.9181 21.6959 26.7241 21.8379C26.5121 21.9939 26.2371 22.0919 26.0011 22.1619C25.7411 22.2399 25.4251 22.3119 25.0681 22.3789C24.3521 22.5119 23.4221 22.6339 22.3421 22.7369C20.1791 22.9439 17.3681 23.0809 14.3751 23.0809C11.3821 23.0809 8.5711 22.9439 6.4081 22.7369C5.3281 22.6339 4.3981 22.5119 3.6821 22.3789C3.3251 22.3119 3.00911 22.2399 2.74811 22.1619C2.51311 22.0919 2.23711 21.9939 2.02511 21.8379C1.76511 21.6469 1.59711 21.3619 1.48711 21.1389C1.36611 20.8929 1.25911 20.6019 1.16411 20.2879C0.973108 19.6589 0.802107 18.8549 0.659107 17.9529C0.373107 16.1469 0.183105 13.8649 0.183105 11.6369C0.183105 10.4649 0.236106 9.33089 0.327106 8.28389C0.454106 6.82389 0.658106 5.33489 0.904106 4.14789C1.02611 3.55589 1.1641 3.01689 1.3151 2.58589C1.3911 2.37089 1.47711 2.16189 1.57611 1.97989C1.66811 1.81289 1.81011 1.59289 2.02511 1.43489C2.23711 1.27989 2.51311 1.18089 2.74811 1.11089C3.00911 1.03289 3.3251 0.960894 3.6821 0.894894C4.3981 0.760894 5.3281 0.638895 6.4081 0.535895C8.5711 0.328895 11.3821 0.191895 14.3751 0.191895C17.3681 0.191895 20.1791 0.328895 22.3421 0.535895C23.4221 0.638895 24.3521 0.760894 25.0681 0.894894C25.4251 0.960894 25.7411 1.03289 26.0021 1.11089C26.2371 1.18089 26.5121 1.27989 26.7241 1.43489C26.9181 1.57689 27.0451 1.76689 27.1241 1.90589C27.2101 2.05689 27.2841 2.22589 27.3471 2.39389C27.4741 2.73089 27.5901 3.14489 27.6941 3.58589C27.8911 4.42389 28.0671 5.44489 28.2081 6.42489C28.0881 6.12989 27.5391 6.26789 26.5231 6.22989H17.2151C14.4221 6.22989 12.1491 8.64589 12.1491 11.6369C12.1491 14.6269 14.4221 17.0429 17.2151 17.0429H26.5231C27.4431 17.0329 28.0551 17.0649 28.2061 16.8639ZM28.2971 16.2299C28.2961 16.2419 28.2951 16.2529 28.2941 16.2649C28.2961 16.2489 28.2971 16.2329 28.2981 16.2159L28.2971 16.2299ZM28.3931 7.99989H28.3961L28.3651 7.68089C28.3601 7.6319 28.3551 7.58289 28.3491 7.53389L28.3571 7.60689C28.3601 7.63189 28.3631 7.65689 28.3651 7.68089C28.3861 7.87689 28.4051 8.07689 28.4231 8.27989V8.28389C28.5141 9.33089 28.5671 10.4649 28.5671 11.6369C28.5671 12.9199 28.5041 14.1589 28.3961 15.2879H26.7511C26.7461 15.3369 26.7491 15.3129 26.7511 15.2879C26.7531 15.2649 26.7551 15.2409 26.7511 15.2879H17.2151C15.3161 15.2879 13.7851 13.6489 13.7851 11.6369C13.7851 9.62389 15.3161 7.98489 17.2151 7.98489H26.7511L26.7521 7.99989H28.3931L28.2711 6.87889L28.4211 8.26089L28.4231 8.28389L28.3931 7.99989ZM17.2041 10.7589C17.6631 10.7589 18.0351 11.1519 18.0351 11.6369V11.6519C18.0351 12.1359 17.6631 12.5289 17.2041 12.5289C16.7451 12.5289 16.3731 12.1359 16.3731 11.6519V11.6369C16.3731 11.1519 16.7451 10.7589 17.2041 10.7589Z" fill="#18BC7A"/>
</g>
<defs>
<clipPath id="clip0_1_1152">
<rect width="29" height="24" fill="white"/>
</clipPath>
</defs>
</svg>
