<svg width="25" height="18" viewBox="0 0 25 18" fill="none" xmlns="http://www.w3.org/2000/svg">
<path fill-rule="evenodd" clip-rule="evenodd" d="M25 2.44715C25 1.09553 23.8045 0 22.3295 0H2.67054C1.19554 0 0 1.09553 0 2.44715C0 5.1234 0 10.4219 0 13.0981C0 14.4497 1.19554 15.5453 2.67054 15.5453H8.63125L11.9643 17.8362C12.2821 18.0546 12.7179 18.0546 13.0357 17.8362L16.3687 15.5453H22.3295C23.8045 15.5453 25 14.4497 25 13.0981V2.44715ZM6.74464 10.2272H9.32679L9.86696 11.713C10.0232 12.1417 10.5295 12.3732 10.9964 12.2309C11.4643 12.0877 11.717 11.6238 11.5616 11.1959L8.88304 3.83232C8.76161 3.49769 8.41964 3.27269 8.03571 3.27269C7.65179 3.27269 7.30982 3.49769 7.18839 3.83232L4.50982 11.1959C4.35446 11.6238 4.60714 12.0877 5.075 12.2309C5.54196 12.3732 6.04821 12.1417 6.20446 11.713L6.74464 10.2272ZM16.0714 4.49995H14.2857C13.7929 4.49995 13.3929 4.86649 13.3929 5.31812C13.3929 5.76975 13.7929 6.13629 14.2857 6.13629H16.0464C16.0339 6.50774 16.0295 6.96592 16.0696 7.46255C16.05 7.64991 16.0223 7.84218 15.9839 8.03609C15.7821 9.06453 15.2768 10.1674 13.9295 10.7042C13.4777 10.8841 13.2705 11.3669 13.467 11.7809C13.6634 12.1949 14.1902 12.3847 14.642 12.2047C15.7321 11.7702 16.4705 11.0985 16.9643 10.3302C17.458 11.0985 18.1964 11.7702 19.2866 12.2047C19.7384 12.3847 20.2652 12.1949 20.4616 11.7809C20.658 11.3669 20.4509 10.8841 19.9991 10.7042C18.6518 10.1674 18.1464 9.06453 17.9446 8.03609C17.9062 7.84218 17.8786 7.64991 17.8589 7.46255C17.8991 6.96592 17.8946 6.50774 17.8821 6.13629H19.6429C20.1357 6.13629 20.5357 5.76975 20.5357 5.31812C20.5357 4.86649 20.1357 4.49995 19.6429 4.49995H17.8571V4.09086C17.8571 3.63923 17.4571 3.27269 16.9643 3.27269C16.4714 3.27269 16.0714 3.63923 16.0714 4.09086V4.49995ZM7.34018 8.59081H8.73125L8.03571 6.67792L7.34018 8.59081Z" fill="#18BC7A"/>
</svg>
