<svg width="12" height="17" viewBox="0 0 12 17" fill="none" xmlns="http://www.w3.org/2000/svg">
<path fill-rule="evenodd" clip-rule="evenodd" d="M1 7.83936C0.447715 7.83936 0 8.28707 0 8.83935V12.4108C0 14.6199 1.79086 16.4108 4 16.4108H8C10.2091 16.4108 12 14.6199 12 12.4108V8.83936C12 8.28707 11.5523 7.83936 11 7.83936H1ZM6 10.4107C5.52661 10.4107 5.14286 10.7945 5.14286 11.2679V12.9821C5.14286 13.4555 5.52661 13.8393 6 13.8393C6.47339 13.8393 6.85714 13.4555 6.85714 12.9821V11.2679C6.85714 10.7945 6.47339 10.4107 6 10.4107Z" fill="white"/>
<path fill-rule="evenodd" clip-rule="evenodd" d="M5.14272 1.62507C3.60421 1.62507 2.357 2.87228 2.357 4.41078V6.98221H1.07129V4.41078C1.07129 2.1622 2.89413 0.339355 5.14272 0.339355H6.857C9.10559 0.339355 10.9284 2.1622 10.9284 4.41078V6.98221H9.64272V4.41078C9.64272 2.87228 8.39551 1.62507 6.857 1.62507H5.14272Z" fill="white"/>
</svg>
