<svg width="19" height="19" viewBox="0 0 19 19" fill="none" xmlns="http://www.w3.org/2000/svg">
<path fill-rule="evenodd" clip-rule="evenodd" d="M12.147 11.6452V14.7606C12.147 15.6786 11.7704 16.5592 11.1009 17.2086C10.4307 17.8573 9.52182 18.2222 8.57435 18.2222H3.57265C2.62518 18.2222 1.7163 17.8573 1.04607 17.2086C0.376557 16.5592 0 15.6786 0 14.7606V3.68371C0 2.76571 0.376557 1.88509 1.04607 1.23571C1.7163 0.587014 2.62518 0.222168 3.57265 0.222168H8.57435C10.5472 0.222168 12.147 1.77224 12.147 3.68371V6.79909H4.44866C3.06819 6.79909 1.94781 7.88463 1.94781 9.22217C1.94781 10.5597 3.06819 11.6452 4.44866 11.6452H12.147ZM4.44814 8.18378H15.8828L13.6827 6.05286C13.2647 5.64716 13.2647 4.98947 13.6827 4.58378C14.1014 4.17878 14.7802 4.17878 15.1989 4.58378L18.23 7.52124C19.2067 8.46763 19.2067 10.0018 18.23 10.9482L15.1989 13.8849C14.7802 14.2906 14.1014 14.2906 13.6827 13.8849C13.2647 13.4799 13.2647 12.8215 13.6827 12.4165L15.9078 10.2607H4.44814C3.85651 10.2607 3.37634 9.79547 3.37634 9.22224C3.37634 8.64901 3.85651 8.18378 4.44814 8.18378Z" fill="#18BC7A"/>
</svg>
