<svg width="44" height="27" viewBox="0 0 44 27" fill="none" xmlns="http://www.w3.org/2000/svg">
<path d="M27.3778 13.5C27.3778 20.9558 21.2491 27 13.6889 27C6.12874 27 0 20.9558 0 13.5C0 6.04416 6.12874 0 13.6889 0C21.2491 0 27.3778 6.04416 27.3778 13.5Z" fill="#FF0000"/>
<path d="M44 13.5C44 20.9558 37.8713 27 30.3111 27C22.7509 27 16.6222 20.9558 16.6222 13.5C16.6222 6.04416 22.7509 0 30.3111 0C37.8713 0 44 6.04416 44 13.5Z" fill="#FFE924"/>
<path d="M21.9996 24.3487C25.2689 21.8816 27.3775 17.994 27.3775 13.6207C27.3775 9.24745 25.2689 5.35986 21.9996 2.89282C18.7304 5.35986 16.6218 9.24745 16.6218 13.6207C16.6218 17.994 18.7304 21.8816 21.9996 24.3487Z" fill="#FF7A00"/>
</svg>
