<svg width="25" height="24" viewBox="0 0 25 24" fill="none" xmlns="http://www.w3.org/2000/svg">
<path d="M11.0287 20.2618C6.07815 18.9766 3.12985 14.0288 4.45637 9.23215C5.78286 4.43556 10.8895 1.57895 15.8401 2.86417C16.2141 2.96126 16.6046 3.09379 17.035 3.27009C17.1027 3.29777 17.1614 3.34266 17.205 3.40002C17.2485 3.45737 17.2752 3.52506 17.2824 3.59592C17.2891 3.66669 17.276 3.7379 17.2447 3.80214C17.2133 3.86637 17.1647 3.92127 17.104 3.96113C15.3987 5.07045 14.169 6.73389 13.6405 8.64479C12.5496 12.5894 14.6592 16.7572 18.5483 18.3387C18.6161 18.3661 18.6749 18.4108 18.7185 18.4681C18.7621 18.5253 18.7888 18.593 18.7959 18.6638C18.8033 18.7347 18.7907 18.8062 18.7594 18.8707C18.728 18.9353 18.6792 18.9903 18.6181 19.0299C16.382 20.484 13.6154 20.9334 11.0287 20.2618Z" fill="#18BC7A"/>
</svg>
