<svg width="18" height="22" viewBox="0 0 18 22" fill="none" xmlns="http://www.w3.org/2000/svg">
<path fill-rule="evenodd" clip-rule="evenodd" d="M14.9341 7.71715H16.9253C17.1894 7.71715 17.4426 7.81878 17.6293 7.99969C17.816 8.1806 17.9209 8.42596 17.9209 8.6818V20.2575C17.9209 20.5134 17.816 20.7587 17.6293 20.9396C17.4426 21.1205 17.1894 21.2222 16.9253 21.2222H0.995607C0.731556 21.2222 0.478319 21.1205 0.291607 20.9396C0.104894 20.7587 0 20.5134 0 20.2575V8.6818C0 8.42596 0.104894 8.1806 0.291607 7.99969C0.478319 7.81878 0.731556 7.71715 0.995607 7.71715H2.98682V5.30554C2.98682 3.89842 3.56374 2.54894 4.59066 1.55396C5.61758 0.558975 7.01038 0 8.46266 0H9.45827C10.9106 0 12.3034 0.558975 13.3303 1.55396C14.3572 2.54894 14.9341 3.89842 14.9341 5.30554V7.71715ZM5.99866 2.91817C5.34516 3.55134 4.97804 4.4101 4.97804 5.30554V7.71715H12.9429V5.30554C12.9429 4.4101 12.5758 3.55134 11.9223 2.91817C11.2688 2.285 10.3824 1.92929 9.45827 1.92929H8.46266C7.53848 1.92929 6.65215 2.285 5.99866 2.91817ZM1.99121 19.2929H15.9297V9.64644H1.99121V19.2929ZM6.47144 14.4697C6.47144 15.2688 5.80282 15.9166 4.97803 15.9166C4.15324 15.9166 3.48462 15.2688 3.48462 14.4697C3.48462 13.6705 4.15324 13.0227 4.97803 13.0227C5.80282 13.0227 6.47144 13.6705 6.47144 14.4697ZM8.96033 15.9166C9.78512 15.9166 10.4537 15.2688 10.4537 14.4697C10.4537 13.6705 9.78512 13.0227 8.96033 13.0227C8.13554 13.0227 7.46692 13.6705 7.46692 14.4697C7.46692 15.2688 8.13554 15.9166 8.96033 15.9166ZM14.4359 14.4697C14.4359 15.2688 13.7673 15.9166 12.9425 15.9166C12.1177 15.9166 11.4491 15.2688 11.4491 14.4697C11.4491 13.6705 12.1177 13.0227 12.9425 13.0227C13.7673 13.0227 14.4359 13.6705 14.4359 14.4697Z" fill="#18BC7A"/>
</svg>
