<svg width="8" height="17" viewBox="0 0 8 17" fill="none" xmlns="http://www.w3.org/2000/svg">
<path fill-rule="evenodd" clip-rule="evenodd" d="M0.389791 3.56487C0.661039 1.71362 2.16704 0.339811 3.99882 0.0546983L4.00808 0H4.70752H5.34666H6.19906C7.31166 0 8.15797 0.983668 7.97506 2.06425L7.65028 3.98293C7.50558 4.83776 6.75444 5.46429 5.87428 5.46429H3.9391C3.63249 7.51616 3.65253 9.43165 3.98622 11.5357H5.87428C6.75444 11.5357 7.50558 12.1622 7.65028 13.0171L7.97506 14.9358C8.15797 16.0163 7.31166 17 6.19906 17H5.34666H4.70799H4.00808L3.9988 16.9452C2.16671 16.6598 0.659308 15.2852 0.385902 13.4342C-0.119765 10.0107 -0.138744 7.1721 0.389791 3.56487Z" fill="#18BC7A"/>
</svg>
