<svg width="22" height="24" viewBox="0 0 22 24" fill="none" xmlns="http://www.w3.org/2000/svg">
<path d="M18.1103 2.964C18.0118 2.96434 17.9149 2.93953 17.829 2.892C15.4807 1.704 13.4506 1.2 11.0045 1.2C8.59506 1.2 6.29582 1.764 4.2044 2.892C3.91096 3.048 3.54409 2.94 3.37283 2.652C3.21377 2.364 3.32377 1.992 3.61737 1.836C5.89223 0.6 8.38725 0 11.0045 0C13.6218 0 15.8967 0.564 18.3915 1.8C18.6973 1.98 18.8075 2.34 18.6484 2.628C18.5384 2.844 18.3426 2.964 18.1103 2.964ZM0.608748 9.264C0.48232 9.26334 0.358935 9.22575 0.254216 9.156C-0.0028199 8.964 -0.088446 8.592 0.107338 8.316C1.31813 6.636 2.85908 5.316 4.69362 4.392C8.5585 2.448 13.4506 2.436 17.3031 4.38C19.1376 5.304 20.6786 6.6 21.8894 8.28C22.0852 8.544 22.0117 8.928 21.7427 9.12C21.4614 9.312 21.0822 9.252 20.8866 9C19.7858 7.464 18.3915 6.276 16.7404 5.448C13.2304 3.684 8.74194 3.684 5.2441 5.46C3.58065 6.3 2.18642 7.5 1.08578 9C0.987971 9.18 0.804374 9.264 0.608748 9.264ZM8.25272 23.748C8.09365 23.748 7.94693 23.688 7.82459 23.568C6.76067 22.524 6.18582 21.852 5.36629 20.4C4.52237 18.924 4.08221 17.124 4.08221 15.192C4.08221 11.628 7.18864 8.724 11.0045 8.724C14.8204 8.724 17.9269 11.628 17.9269 15.192C17.9269 15.3511 17.8624 15.5037 17.7477 15.6162C17.6329 15.7289 17.4774 15.7922 17.3153 15.7922C17.1532 15.7922 16.9977 15.7289 16.8829 15.6162C16.8262 15.5606 16.7812 15.4945 16.7504 15.4217C16.7197 15.3489 16.7039 15.2708 16.7039 15.192C16.7039 12.288 14.1478 9.924 11.0045 9.924C7.86131 9.924 5.30503 12.288 5.30503 15.192C5.30503 16.92 5.6966 18.516 6.44254 19.8C7.22536 21.192 7.76349 21.78 8.70522 22.716C8.81706 22.8305 8.87953 22.9832 8.87953 23.142C8.87953 23.3008 8.81706 23.4535 8.70522 23.568C8.5585 23.688 8.41178 23.748 8.25272 23.748ZM17.0218 21.528C15.5664 21.528 14.2823 21.168 13.2304 20.46C11.4081 19.248 10.3196 17.28 10.3196 15.192C10.3196 15.0329 10.384 14.8803 10.4988 14.7678C10.6136 14.6552 10.7691 14.5919 10.9312 14.5919C11.0933 14.5919 11.2487 14.6552 11.3636 14.7678C11.4203 14.8234 11.4653 14.8895 11.496 14.9623C11.5267 15.0351 11.5426 15.1132 11.5426 15.192C11.5426 16.884 12.4232 18.48 13.9153 19.464C14.7837 20.04 15.7987 20.316 17.0218 20.316C17.3153 20.316 17.8045 20.28 18.2937 20.196C18.624 20.136 18.9542 20.352 19.0031 20.688C19.0642 21 18.844 21.324 18.5017 21.384C17.8045 21.516 17.1931 21.528 17.0218 21.528ZM14.5635 24H14.4045C12.4599 23.448 11.1879 22.74 9.85492 21.456C8.14256 19.8 7.20083 17.568 7.20083 15.192C7.20083 13.248 8.88866 11.664 10.9677 11.664C13.047 11.664 14.7348 13.248 14.7348 15.192C14.7348 16.476 15.8967 17.52 17.2786 17.52C18.6851 17.52 19.8225 16.476 19.8225 15.192C19.8225 10.668 15.8476 6.996 10.9555 6.996C7.48224 6.996 4.27784 8.892 2.87142 11.832C2.39439 12.804 2.1497 13.944 2.1497 15.192C2.1497 16.128 2.23532 17.604 2.96924 19.524C3.09158 19.836 2.93252 20.184 2.61455 20.292C2.29642 20.4 1.94188 20.244 1.83173 19.944C1.22032 18.372 0.939065 16.8 0.939065 15.192C0.939065 13.752 1.22032 12.444 1.77063 11.304C3.39721 7.956 7.00521 5.784 10.9555 5.784C16.5081 5.784 21.0456 9.996 21.0456 15.18C21.0456 17.124 19.3578 18.708 17.2786 18.708C15.1995 18.708 13.5117 17.124 13.5117 15.18C13.5117 13.896 12.3743 12.852 10.9677 12.852C9.56132 12.852 8.42397 13.896 8.42397 15.18C8.42397 17.232 9.23116 19.152 10.711 20.592C11.8729 21.72 12.9859 22.344 14.7103 22.8C15.0404 22.896 15.224 23.232 15.1384 23.544C15.0771 23.82 14.8204 24 14.5635 24Z" fill="#18BC7A"/>
</svg>
