<svg width="19" height="18" viewBox="0 0 19 18" fill="none" xmlns="http://www.w3.org/2000/svg">
<path d="M8.45629 14.4H10.3141V12.6H8.45629V14.4ZM9.38518 0C4.25773 0 0.0963135 4.03199 0.0963135 8.99998C0.0963135 13.968 4.25773 18 9.38518 18C14.5126 18 18.674 13.968 18.674 8.99998C18.674 4.03199 14.5126 0 9.38518 0ZM9.38518 16.2C5.28879 16.2 1.95409 12.969 1.95409 8.99998C1.95409 5.03099 5.28879 1.8 9.38518 1.8C13.4816 1.8 16.8163 5.03099 16.8163 8.99998C16.8163 12.969 13.4816 16.2 9.38518 16.2ZM9.38518 3.59999C7.33234 3.59999 5.66963 5.21099 5.66963 7.19999H7.52741C7.52741 6.20999 8.3634 5.39999 9.38518 5.39999C10.407 5.39999 11.243 6.20999 11.243 7.19999C11.243 8.99998 8.45629 8.77499 8.45629 11.7H10.3141C10.3141 9.67498 13.1007 9.44998 13.1007 7.19999C13.1007 5.21099 11.438 3.59999 9.38518 3.59999Z" fill="#18BC7A"/>
</svg>
