<svg width="15" height="19" viewBox="0 0 15 19" fill="none" xmlns="http://www.w3.org/2000/svg">
<path d="M7.5 0.222168C7.5 0.222168 0 2.30837 0 2.67653V10.1214C0 13.8848 5.54167 17.1982 7.08333 18.0981C7.20667 18.179 7.35167 18.2222 7.5 18.2222C7.64833 18.2222 7.79333 18.179 7.91667 18.0981C9.5 17.2391 15 13.8848 15 10.1214V2.67653C15 2.30837 7.5 0.222168 7.5 0.222168ZM11.4167 6.93075L6.83333 11.4304C6.75917 11.5098 6.66903 11.5731 6.56861 11.6165C6.46819 11.6598 6.35969 11.6822 6.25 11.6822C6.14031 11.6822 6.03181 11.6598 5.93139 11.6165C5.83097 11.5731 5.74083 11.5098 5.66667 11.4304L3.625 9.42601C3.47462 9.28722 3.37636 9.10267 3.34611 8.90223C3.31586 8.70179 3.3554 8.49719 3.45833 8.32155C3.5301 8.22225 3.62354 8.13993 3.73183 8.08059C3.84013 8.02125 3.96055 7.98639 4.08431 7.97856C4.20808 7.97072 4.33206 7.9901 4.44723 8.03528C4.56239 8.08047 4.66583 8.15032 4.75 8.23974L6.25 9.71236L10.25 5.78538C10.4105 5.66722 10.609 5.60986 10.8091 5.62382C11.0092 5.63778 11.1974 5.72213 11.3393 5.86138C11.4811 6.00063 11.567 6.18544 11.5812 6.38188C11.5955 6.57832 11.537 6.7732 11.4167 6.93075Z" fill="#18BC7A"/>
</svg>
