<?xml version="1.0" encoding="UTF-8" standalone="no"?>
<!DOCTYPE svg PUBLIC "-//W3C//DTD SVG 1.1//EN" "http://www.w3.org/Graphics/SVG/1.1/DTD/svg11.dtd">
<svg width="100%" height="100%" viewBox="0 0 1891 1890" version="1.1" xmlns="http://www.w3.org/2000/svg" xmlns:xlink="http://www.w3.org/1999/xlink" xml:space="preserve" xmlns:serif="http://www.serif.com/" style="fill-rule:evenodd;clip-rule:evenodd;stroke-linejoin:round;stroke-miterlimit:2;">
    <g transform="matrix(1,0,0,1,-16810,-7216)">
        <g id="Plan-de-travail1" serif:id="Plan de travail1" transform="matrix(1.52381,0,0,1.39672,16810.5,7216.16)">
            <path d="M1240.16,212.321C1240.16,156.01 1219.65,102.005 1183.16,62.187C1146.66,22.369 1097.16,-0 1045.54,0L194.613,0C142.999,-0 93.498,22.369 57.001,62.187C20.504,102.005 -0,156.01 0,212.321C0,465.804 0,887.196 0,1140.68C-0,1196.99 20.504,1251 57.001,1290.81C93.498,1330.63 142.999,1353 194.613,1353L1045.54,1353C1097.16,1353 1146.66,1330.63 1183.16,1290.81C1219.65,1251 1240.16,1196.99 1240.16,1140.68C1240.16,887.196 1240.16,465.804 1240.16,212.321Z" style="fill:none;"/>
            <clipPath id="_clip1">
                <path d="M1240.16,212.321C1240.16,156.01 1219.65,102.005 1183.16,62.187C1146.66,22.369 1097.16,-0 1045.54,0L194.613,0C142.999,-0 93.498,22.369 57.001,62.187C20.504,102.005 -0,156.01 0,212.321C0,465.804 0,887.196 0,1140.68C-0,1196.99 20.504,1251 57.001,1290.81C93.498,1330.63 142.999,1353 194.613,1353L1045.54,1353C1097.16,1353 1146.66,1330.63 1183.16,1290.81C1219.65,1251 1240.16,1196.99 1240.16,1140.68C1240.16,887.196 1240.16,465.804 1240.16,212.321Z"/>
            </clipPath>
            <g clip-path="url(#_clip1)">
                <g transform="matrix(1.14806,0,0,1.25253,-20717.9,-3582.37)">
                    <path d="M18168.4,3562.54L18319.5,3562.54C18319.5,3620.1 18366.1,3666.77 18423.7,3666.77C18473.4,3666.77 18514.9,3632.04 18525.4,3585.55C18528.3,3572.13 18540.2,3562.57 18554,3562.57C18600.6,3562.54 18695.2,3562.54 18717,3562.54C18718.2,3562.54 18719.3,3563.02 18720.2,3563.88C18721,3564.74 18721.5,3565.9 18721.5,3567.11C18719.9,3673.57 18662.4,3766.49 18577.1,3817.87L18270.3,3817.87C18228.6,3792.73 18193.5,3757.65 18168.4,3715.9L18168.4,3562.54ZM18748.3,3817.87L18748.3,3666.77C18805.9,3666.77 18852.6,3620.1 18852.6,3562.54C18852.6,3512.88 18817.8,3471.33 18771.3,3460.86C18757.9,3457.89 18748.4,3445.98 18748.4,3432.24C18748.3,3385.68 18748.3,3291.08 18748.3,3269.28C18748.3,3268.07 18748.8,3266.92 18749.7,3266.07C18750.5,3265.22 18751.7,3264.75 18752.9,3264.76C18859.4,3266.37 18952.3,3323.84 19003.7,3409.18L19003.7,3715.9C18978.5,3757.66 18943.4,3792.74 18901.7,3817.87L18748.3,3817.87ZM18423.7,2982.57L18423.7,3133.67C18366.1,3133.67 18319.5,3180.34 18319.5,3237.9C18319.5,3287.56 18354.2,3329.11 18400.7,3339.59C18414.1,3342.55 18423.7,3354.46 18423.7,3368.21C18423.7,3414.76 18423.7,3509.36 18423.7,3531.16C18423.7,3532.37 18423.2,3533.53 18422.4,3534.37C18421.5,3535.22 18420.3,3535.69 18419.1,3535.68C18312.7,3534.07 18219.7,3476.6 18168.4,3391.26L18168.4,3084.54C18193.5,3042.79 18228.6,3007.7 18270.3,2982.57L18423.7,2982.57ZM18659.4,3380.66C18659.4,3364.98 18653.1,3349.95 18642.1,3338.86C18631,3327.78 18615.9,3321.55 18600.3,3321.55L18553.2,3321.55C18537.5,3321.55 18522.5,3327.78 18511.4,3338.86C18500.3,3349.95 18494.1,3364.98 18494.1,3380.66L18494.1,3427.7C18494.1,3443.37 18500.3,3458.41 18511.4,3469.49C18522.5,3480.58 18537.5,3486.81 18553.2,3486.81L18600.3,3486.81C18615.9,3486.81 18631,3480.58 18642.1,3469.49C18653.1,3458.41 18659.4,3443.37 18659.4,3427.7L18659.4,3380.66ZM18901.7,2982.57C18943.4,3007.71 18978.5,3042.79 19003.7,3084.54L19003.7,3237.9L18852.6,3237.9C18852.6,3180.34 18805.9,3133.67 18748.3,3133.67C18698.7,3133.67 18657.1,3168.4 18646.6,3214.89C18643.7,3228.32 18631.8,3237.87 18618,3237.87C18571.5,3237.9 18476.9,3237.9 18455.1,3237.9C18453.9,3237.9 18452.7,3237.42 18451.9,3236.56C18451,3235.7 18450.5,3234.54 18450.6,3233.33C18452.2,3126.87 18509.6,3033.95 18595,2982.57L18901.7,2982.57Z" style="fill:white;fill-rule:nonzero;"/>
                </g>
            </g>
        </g>
    </g>
</svg>
