<svg width="50" height="51" viewBox="0 0 50 51" fill="none" xmlns="http://www.w3.org/2000/svg">
<circle cx="25" cy="25.4004" r="25" fill="#F4EFE3"/>
<path fill-rule="evenodd" clip-rule="evenodd" d="M25.201 28C30.4478 28 34.701 23.7467 34.701 18.5C34.701 13.2533 30.4478 9 25.201 9C19.9543 9 15.701 13.2533 15.701 18.5C15.701 23.7467 19.9543 28 25.201 28ZM25.4321 17.5724C25.8099 17.5724 26.1211 17.8802 26.1211 18.2602V18.8847C26.1211 19.2648 25.8099 19.5726 25.4321 19.5726H24.8099C24.4321 19.5726 24.1209 19.2648 24.1209 18.8847V18.2602C24.1209 17.8802 24.4321 17.5724 24.8099 17.5724H25.4321ZM20.1716 20.49H22.0004C22.0004 21.1866 22.5644 21.7514 23.2615 21.7514C23.863 21.7514 24.3653 21.3311 24.4924 20.7684C24.5275 20.606 24.6715 20.4903 24.8385 20.4903C25.4025 20.49 26.5475 20.49 26.8113 20.49C26.8259 20.49 26.8392 20.4958 26.8501 20.5062C26.8597 20.5166 26.8658 20.5306 26.8658 20.5453C26.8464 21.8337 26.1505 22.9584 25.1181 23.5802H21.4049C20.9002 23.2759 20.4754 22.8514 20.1716 22.3461V20.49ZM27.1901 23.5802V21.7514C27.8873 21.7514 28.4525 21.1866 28.4525 20.49C28.4525 19.8889 28.0313 19.386 27.4685 19.2593C27.3063 19.2234 27.1914 19.0792 27.1914 18.9129C27.1902 18.3494 27.1901 17.2045 27.1901 16.9406C27.1901 16.926 27.1962 16.9121 27.2071 16.9018C27.2168 16.8915 27.2313 16.8858 27.2458 16.8859C28.5348 16.9054 29.6592 17.601 30.2813 18.6338V22.3461C29.9763 22.8515 29.5514 23.2761 29.0468 23.5802H27.1901ZM23.2615 13.4706V15.2993C22.5644 15.2993 22.0004 15.8642 22.0004 16.5608C22.0004 17.1619 22.4204 17.6648 22.9832 17.7916C23.1453 17.8274 23.2615 17.9716 23.2615 18.138V20.1102C23.2615 20.1248 23.2555 20.1388 23.2458 20.149C23.2349 20.1593 23.2204 20.165 23.2058 20.1649C21.9181 20.1454 20.7925 19.4498 20.1716 18.417V14.7047C20.4754 14.1994 20.9002 13.7747 21.4049 13.4706H23.2615ZM29.0468 13.4706C29.5514 13.7749 29.9763 14.1994 30.2813 14.7047V16.5608H28.4525C28.4525 15.8642 27.8873 15.2993 27.1901 15.2993C26.5898 15.2993 26.0864 15.7197 25.9593 16.2823C25.9242 16.4449 25.7802 16.5605 25.6131 16.5605C25.0539 16.5608 23.9199 16.5608 23.6467 16.5608H23.6415C23.627 16.5608 23.6125 16.555 23.6028 16.5446C23.5919 16.5342 23.5859 16.5202 23.5871 16.5055C23.6065 15.217 24.3012 14.0924 25.3348 13.4706H29.0468ZM19.7636 30C15.5012 30 11.9308 32.9631 11 36.9417C14.0017 40.0599 18.2186 42 22.8885 42H27.5136C32.1835 42 36.4004 40.0599 39.4021 36.9417C38.4713 32.9631 34.9009 30 30.6386 30H19.7636Z" fill="#CCC7BC"/>
</svg>
