<svg width="101" height="116" viewBox="0 0 101 116" fill="none" xmlns="http://www.w3.org/2000/svg">
<g id="Frame">
<path id="Vector" fill-rule="evenodd" clip-rule="evenodd" d="M49.4587 66.7879C67.732 66.7879 82.5449 51.8369 82.5449 33.3939C82.5449 14.951 67.732 0 49.4587 0C31.1858 0 16.3726 14.951 16.3726 33.3939C16.3726 51.8369 31.1858 66.7879 49.4587 66.7879ZM50.2635 30.1333C51.5793 30.1333 52.6631 31.2152 52.6631 32.5511V34.7463C52.6631 36.0823 51.5793 37.1643 50.2635 37.1643H48.0965C46.7808 37.1643 45.6969 36.0823 45.6969 34.7463V32.5511C45.6969 31.2152 46.7808 30.1333 48.0965 30.1333H50.2635ZM31.9426 40.3891H38.3117C38.3117 42.8377 40.276 44.8231 42.7038 44.8231C44.7987 44.8231 46.5481 43.3457 46.9908 41.3677C47.113 40.7968 47.6145 40.3901 48.1962 40.3901C50.1604 40.3891 54.1482 40.3891 55.0669 40.3891C55.1178 40.3891 55.1641 40.4095 55.2021 40.446C55.2355 40.4826 55.2567 40.5318 55.2567 40.5835C55.1892 45.1124 52.7655 49.0659 49.1699 51.2516H36.2378C34.4801 50.182 33.0006 48.6898 31.9426 46.9136V40.3891ZM56.3862 51.2516V44.8231C58.8144 44.8231 60.7828 42.8377 60.7828 40.3891C60.7828 38.2761 59.3159 36.5084 57.3558 36.063C56.7909 35.9368 56.3907 35.4299 56.3907 34.8454C56.3866 32.8646 56.3862 28.84 56.3862 27.9125C56.3862 27.861 56.4074 27.8121 56.4454 27.776C56.4792 27.7398 56.5297 27.7198 56.5802 27.7202C61.0695 27.7887 64.9855 30.2337 67.1521 33.8644V46.9136C66.0899 48.6901 64.61 50.1827 62.8526 51.2516H56.3862ZM42.7038 15.7148V22.1431C40.276 22.1431 38.3117 24.1287 38.3117 26.5775C38.3117 28.6902 39.7745 30.4579 41.7346 30.9038C42.2991 31.0297 42.7038 31.5364 42.7038 32.1214V39.054C42.7038 39.1054 42.6829 39.1546 42.6492 39.1904C42.6112 39.2266 42.5607 39.2467 42.5098 39.2463C38.0251 39.1778 34.1049 36.7326 31.9426 33.102V20.053C33.0006 18.2767 34.4801 16.7839 36.2378 15.7148H42.7038ZM62.8526 15.7148C64.61 16.7843 66.0899 18.2767 67.1521 20.053V26.5775H60.7828C60.7828 24.1287 58.8144 22.1431 56.3862 22.1431C54.2955 22.1431 52.5423 23.6207 52.0996 25.5985C51.9774 26.1699 51.4759 26.5762 50.8939 26.5762C48.9463 26.5775 44.9969 26.5775 44.0454 26.5775H44.0273C43.9768 26.5775 43.9263 26.5571 43.8925 26.5205C43.8545 26.4839 43.8336 26.4345 43.8378 26.3831C43.9054 21.8538 46.3249 17.9007 49.9246 15.7148H62.8526ZM30.5213 73.8182C15.6765 73.8182 3.24187 84.2339 0 98.2193C10.4542 109.18 25.1405 116 41.4048 116H57.5129C73.777 116 88.4635 109.18 98.9176 98.2193C95.6759 84.2339 83.2411 73.8182 68.3965 73.8182H30.5213Z" fill="#CCC7BC"/>
</g>
</svg>
