<svg width="35" height="35" viewBox="0 0 35 35" fill="none" xmlns="http://www.w3.org/2000/svg">
<rect width="34.789" height="34.789" rx="17.3945" fill="#AA1D1D"/>
<path fill-rule="evenodd" clip-rule="evenodd" d="M18.5029 16.466C18.5029 15.7943 17.9529 15.2502 17.2851 15.2502H16.1853C15.5175 15.2502 14.9675 15.7943 14.9675 16.466V17.5698C14.9675 18.2415 15.5175 18.7856 16.1853 18.7856H17.2851C17.9529 18.7856 18.5029 18.2415 18.5029 17.5698V16.466Z" fill="white"/>
<path fill-rule="evenodd" clip-rule="evenodd" d="M8 20.407H11.2324C11.2324 21.6383 12.2293 22.6367 13.4615 22.6367C14.5247 22.6367 15.4125 21.8938 15.6371 20.8992C15.6992 20.6122 15.9537 20.4076 16.2489 20.4076C17.2458 20.407 19.2696 20.407 19.7359 20.407C19.7616 20.407 19.7851 20.4173 19.8044 20.4357C19.8215 20.4541 19.8322 20.4789 19.8322 20.5048C19.798 22.7822 18.5679 24.77 16.7431 25.8691H10.1799C9.28782 25.3313 8.53695 24.5809 8 23.6877V20.407ZM20.4055 25.8691V22.6367C21.6377 22.6367 22.6367 21.6383 22.6367 20.407C22.6367 19.3446 21.8923 18.4558 20.8975 18.2318C20.6109 18.1683 20.4076 17.9135 20.4076 17.6196C20.4055 16.6235 20.4055 14.5998 20.4055 14.1334C20.4055 14.1076 20.4162 14.083 20.4355 14.0648C20.4526 14.0466 20.4782 14.0365 20.5039 14.0367C22.7822 14.0712 24.7696 15.3006 25.8691 17.1262V23.6877C25.3301 24.5811 24.5792 25.3315 23.6871 25.8691H20.4055ZM13.4615 8V11.2324C12.2293 11.2324 11.2324 12.2308 11.2324 13.4621C11.2324 14.5245 11.9747 15.4134 12.9695 15.6375C13.2561 15.7009 13.4615 15.9556 13.4615 16.2498C13.4615 17.2456 13.4615 19.2693 13.4615 19.7357C13.4615 19.7616 13.4508 19.7864 13.4337 19.8044C13.4144 19.8226 13.3888 19.8326 13.3631 19.8324C11.0869 19.798 9.09743 18.5685 8 16.7429V10.1814C8.53695 9.28825 9.28782 8.53759 10.1799 8H13.4615ZM23.6871 8C24.5792 8.53781 25.3301 9.28825 25.8691 10.1814V13.4621H22.6367C22.6367 12.2308 21.6377 11.2324 20.4055 11.2324C19.3444 11.2324 18.4545 11.9754 18.2299 12.9699C18.1678 13.2572 17.9133 13.4615 17.6181 13.4615C16.6233 13.4621 14.5996 13.4621 14.1332 13.4621C14.1075 13.4621 14.0819 13.4519 14.0648 13.4335C14.0455 13.4151 14.0348 13.3903 14.0369 13.3644C14.0712 11.0869 15.2991 9.09915 17.126 8H23.6871Z" fill="white"/>
</svg>
