<svg width="331" height="228" viewBox="0 0 331 228" fill="none" xmlns="http://www.w3.org/2000/svg">
<circle cx="167.969" cy="48.1516" r="48.1516" fill="#B8A16B"/>
<path d="M66.3154 157.827C66.3154 130.212 88.7012 107.827 116.315 107.827H220.445C248.06 107.827 270.445 130.212 270.445 157.827V228H66.3154V157.827Z" fill="#18BC7A"/>
<rect x="113.232" y="127" width="103.711" height="72.4332" rx="10" fill="#0E7D50"/>
<path d="M121.5 191C124.538 191 127 188.538 127 185.5C127 182.462 124.538 180 121.5 180L66 180L66 191L121.5 191Z" fill="#0E7D50"/>
<path d="M209.5 191C206.462 191 204 188.538 204 185.5C204 182.462 206.462 180 209.5 180L270 180L270 191L209.5 191Z" fill="#0E7D50"/>
<rect x="113.232" y="120.173" width="103.711" height="72.4332" rx="10" fill="#F4F4F4"/>
<path fill-rule="evenodd" clip-rule="evenodd" d="M194.72 139.908C197.669 139.908 200.06 137.517 200.06 134.568C200.06 131.618 197.669 129.227 194.72 129.227C191.77 129.227 189.38 131.618 189.38 134.568C189.38 137.517 191.77 139.908 194.72 139.908ZM189.942 141.594C186.216 141.594 183.196 144.614 183.196 148.34H206.243C206.243 144.614 203.223 141.594 199.498 141.594H189.942Z" fill="#D9D9D9"/>
<path d="M95.9478 184.375L95.9478 139.105L23.103 139.105C10.6018 139.105 0.467614 149.239 0.467613 161.74C0.467613 174.241 10.6018 184.375 23.103 184.375L95.9478 184.375Z" fill="#B8A16B"/>
<rect width="11.5235" height="55.148" rx="5.76173" transform="matrix(1.17081e-08 -1 -1 -1.21457e-08 127.226 184.375)" fill="#B8A16B"/>
<rect width="11.5235" height="55.148" rx="5.76173" transform="matrix(1.17081e-08 -1 -1 -1.21457e-08 127.226 162.152)" fill="#B8A16B"/>
<rect width="10.7004" height="55.148" rx="5.35018" transform="matrix(1.17081e-08 -1 -1 -1.21457e-08 127.226 172.852)" fill="#B8A16B"/>
<rect width="11.5235" height="55.148" rx="5.76173" transform="matrix(1.21417e-08 -1 -1 -1.17119e-08 127.226 150.628)" fill="#B8A16B"/>
<rect width="11.5235" height="23.87" rx="5.76173" transform="matrix(1.21417e-08 -1 -1 -1.17119e-08 110.764 139.928)" fill="#B8A16B"/>
<path d="M235.052 184.375L235.052 139.105L307.897 139.105C320.398 139.105 330.532 149.239 330.532 161.74C330.532 174.241 320.398 184.375 307.897 184.375L235.052 184.375Z" fill="#B8A16B"/>
<rect x="203.774" y="184.375" width="11.5235" height="55.148" rx="5.76173" transform="rotate(-90 203.774 184.375)" fill="#B8A16B"/>
<rect x="203.774" y="162.152" width="11.5235" height="55.148" rx="5.76173" transform="rotate(-90 203.774 162.152)" fill="#B8A16B"/>
<rect x="203.774" y="172.852" width="10.7004" height="55.148" rx="5.35018" transform="rotate(-90 203.774 172.852)" fill="#B8A16B"/>
<rect x="203.774" y="150.628" width="11.5235" height="55.148" rx="5.76173" transform="rotate(-90 203.774 150.628)" fill="#B8A16B"/>
<rect x="220.236" y="139.928" width="11.5235" height="23.87" rx="5.76173" transform="rotate(-90 220.236 139.928)" fill="#B8A16B"/>
</svg>
