<svg width="26" height="24" viewBox="0 0 26 24" fill="none" xmlns="http://www.w3.org/2000/svg">
<path d="M23.3328 8.50326C21.9193 3.49377 17.6273 0.0292358 12.7459 0.0292358C7.87935 0.0292358 3.57106 3.4994 2.15908 8.50326C1.05579 8.61874 0.191772 9.506 0.191772 10.5918V16.2252C0.191772 17.1054 0.755972 17.8589 1.55648 18.1758C1.84301 20.6362 4.01267 22.5628 6.66825 22.5628H10.6664C10.9721 23.381 11.7844 23.9711 12.7459 23.9711H17.1768C18.3983 23.9711 19.3923 23.0233 19.3923 21.8586C19.3923 20.6939 18.3983 19.7461 17.1768 19.7461H12.7459C11.7844 19.7461 10.9721 20.3362 10.6664 21.1544H6.66825C4.88408 21.1544 3.39382 19.9433 3.05117 18.3377H4.62265V16.9294H6.09962V9.88766H4.62265V8.47932H3.72762C5.07608 4.3092 8.67839 1.43758 12.7459 1.43758C16.8253 1.43758 20.4158 4.30639 21.7643 8.47932H20.8692V9.88766H19.3923V16.9294H20.8692V18.3377H23.0935C24.3105 18.3377 25.3001 17.3899 25.3001 16.2252V10.5918C25.3001 9.506 24.4361 8.61874 23.3328 8.50326ZM12.7459 21.1544H17.1768C17.583 21.1544 17.9153 21.4699 17.9153 21.8586C17.9153 22.2473 17.583 22.5628 17.1768 22.5628H12.7459C12.3398 22.5628 12.0075 22.2473 12.0075 21.8586C12.0075 21.4699 12.3398 21.1544 12.7459 21.1544ZM3.14569 16.9294H2.39835C1.99662 16.9294 1.66873 16.6139 1.66873 16.2252V10.5918C1.66873 10.2031 1.99662 9.88766 2.39835 9.88766H3.14569V16.9294ZM23.8231 16.2252C23.8231 16.6139 23.4953 16.9294 23.0935 16.9294H22.3462V9.88766H23.0935C23.4953 9.88766 23.8231 10.2031 23.8231 10.5918V16.2252Z" fill="#616161"/>
</svg>
