<svg width="26" height="26" viewBox="0 0 26 26" fill="none" xmlns="http://www.w3.org/2000/svg">
<path d="M23.3324 8.98697C21.919 3.73342 17.6269 0.100098 12.7456 0.100098C7.87899 0.100098 3.57069 3.73933 2.15872 8.98697C1.05543 9.10808 0.191406 10.0386 0.191406 11.1773V17.0851C0.191406 18.0082 0.755605 18.7984 1.55612 19.1307C1.84265 21.711 4.0123 23.7315 6.66788 23.7315H10.666C10.9717 24.5896 11.7841 25.2084 12.7456 25.2084H17.1765C18.3979 25.2084 19.3919 24.2144 19.3919 22.993C19.3919 21.7715 18.3979 20.7775 17.1765 20.7775H12.7456C11.7841 20.7775 10.9717 21.3964 10.666 22.2545H6.66788C4.88371 22.2545 3.39346 20.9843 3.0508 19.3006H4.62229V17.8236H6.09925V10.4388H4.62229V8.96186H3.72725C5.07572 4.58858 8.67802 1.57706 12.7456 1.57706C16.8249 1.57706 20.4154 4.58563 21.7639 8.96186H20.8689V10.4388H19.3919V17.8236H20.8689V19.3006H23.0932C24.3102 19.3006 25.2997 18.3066 25.2997 17.0851V11.1773C25.2997 10.0386 24.4357 9.10808 23.3324 8.98697ZM12.7456 22.2545H17.1765C17.5826 22.2545 17.9149 22.5853 17.9149 22.993C17.9149 23.4006 17.5826 23.7315 17.1765 23.7315H12.7456C12.3394 23.7315 12.0071 23.4006 12.0071 22.993C12.0071 22.5853 12.3394 22.2545 12.7456 22.2545ZM3.14533 17.8236H2.39799C1.99625 17.8236 1.66837 17.4928 1.66837 17.0851V11.1773C1.66837 10.7697 1.99625 10.4388 2.39799 10.4388H3.14533V17.8236ZM23.8228 17.0851C23.8228 17.4928 23.4949 17.8236 23.0932 17.8236H22.3458V10.4388H23.0932C23.4949 10.4388 23.8228 10.7697 23.8228 11.1773V17.0851Z" fill="#18BC7A"/>
</svg>
