<svg width="29" height="24" viewBox="0 0 29 24" fill="none" xmlns="http://www.w3.org/2000/svg">
<mask id="mask0_1_1966" style="mask-type:luminance" maskUnits="userSpaceOnUse" x="0" y="0" width="29" height="24">
<path d="M29 0.697754H0V23.7788H29V0.697754Z" fill="white"/>
</mask>
<g mask="url(#mask0_1_1966)">
<path fill-rule="evenodd" clip-rule="evenodd" d="M27.2181 17.5866C27.2251 17.5786 27.2321 17.5706 27.2391 17.5616C27.1081 18.5366 26.9451 19.5516 26.7621 20.3846C26.6651 20.8256 26.5581 21.2396 26.4401 21.5766C26.3811 21.7446 26.3131 21.9136 26.2321 22.0646C26.1591 22.2036 26.0411 22.3936 25.8611 22.5356C25.6641 22.6906 25.4081 22.7896 25.1891 22.8596C24.9461 22.9376 24.6521 23.0096 24.3211 23.0756C23.6551 23.2096 22.7901 23.3316 21.7861 23.4346C19.7751 23.6416 17.1611 23.7786 14.3781 23.7786C11.5961 23.7786 8.9821 23.6416 6.9711 23.4346C5.9671 23.3316 5.1021 23.2096 4.43611 23.0756C4.10411 23.0096 3.81111 22.9376 3.56811 22.8596C3.34911 22.7896 3.09311 22.6906 2.89611 22.5356C2.65411 22.3446 2.49711 22.0596 2.39511 21.8366C2.28311 21.5906 2.18311 21.2986 2.09511 20.9856C1.91711 20.3566 1.75911 19.5516 1.62611 18.6506C1.35911 16.8446 1.18311 14.5626 1.18311 12.3346C1.18311 11.1626 1.23211 10.0286 1.31711 8.98164C1.43511 7.52164 1.62511 6.03264 1.85311 4.84564C1.96711 4.25364 2.09511 3.71465 2.23611 3.28365C2.30611 3.06865 2.38611 2.85964 2.47911 2.67764C2.56311 2.51064 2.69611 2.29064 2.89611 2.13264C3.09311 1.97664 3.34911 1.87865 3.56811 1.80865C3.81111 1.73065 4.10411 1.65864 4.43611 1.59164C5.1021 1.45864 5.9671 1.33664 6.9711 1.23364C8.9821 1.02664 11.5961 0.889648 14.3781 0.889648C17.1611 0.889648 19.7751 1.02664 21.7861 1.23364C22.7901 1.33664 23.6551 1.45864 24.3211 1.59164C24.6521 1.65864 24.9461 1.73065 25.1891 1.80865C25.4081 1.87865 25.6641 1.97664 25.8611 2.13264C26.0411 2.27464 26.1591 2.46465 26.2321 2.60365C26.3131 2.75465 26.3811 2.92364 26.4401 3.09164C26.5581 3.42864 26.6651 3.84265 26.7621 4.28365C26.8571 4.71665 26.9461 5.19765 27.0291 5.69765H27.0471C27.4341 7.53865 27.6371 9.41765 27.6651 11.3046C27.6951 13.3846 27.5191 15.4596 27.2281 17.5146L27.2181 17.5866ZM19.8461 10.6246L11.6541 18.8166C11.3791 19.0916 11.3791 19.5386 11.6541 19.8136C11.9291 20.0886 12.3751 20.0886 12.6501 19.8136L20.8421 11.6216V15.5546C20.8421 15.9436 21.1571 16.2586 21.5461 16.2586C21.9351 16.2586 22.2511 15.9436 22.2511 15.5546V9.92065L22.2431 9.81364L22.2081 9.67864L22.1531 9.56264L22.1481 9.55465C22.1191 9.50765 22.0851 9.46365 22.0441 9.42265C22.0041 9.38265 21.9601 9.34865 21.9141 9.31965L21.8111 9.26865L21.6881 9.23064L21.5831 9.21764L21.5471 9.21664L15.9101 9.21365C15.5211 9.21365 15.2061 9.52865 15.2051 9.91765C15.2051 10.3066 15.5211 10.6226 15.9101 10.6226L19.8461 10.6246ZM27.3221 16.9356L27.3241 16.9136L27.3201 16.9626L27.3221 16.9356ZM8.1581 12.9126V8.98064C8.1581 8.59164 7.8431 8.27564 7.4541 8.27564C7.0651 8.27564 6.7491 8.59164 6.7491 8.98064V14.6136L6.7571 14.7206L6.7921 14.8556L6.8471 14.9716L6.8521 14.9806C6.8811 15.0276 6.9151 15.0716 6.9561 15.1116C6.9961 15.1526 7.0401 15.1866 7.0861 15.2146L7.1891 15.2666L7.3121 15.3036L7.4181 15.3176L7.4531 15.3186L13.0901 15.3216C13.4791 15.3216 13.7951 15.0056 13.7951 14.6166C13.7951 14.2286 13.4791 13.9126 13.0911 13.9116L9.1541 13.9096L16.4411 6.62264C16.7161 6.34764 16.7161 5.90165 16.4411 5.62665C16.1661 5.35165 15.7201 5.35165 15.4451 5.62665L8.1581 12.9126Z" fill="#18BC7A"/>
</g>
</svg>
