<svg width="28" height="28" viewBox="0 0 28 28" fill="none" xmlns="http://www.w3.org/2000/svg">
<mask id="path-1-outside-1_1_19506" maskUnits="userSpaceOnUse" x="-0.224609" y="0" width="28" height="28" fill="black">
<rect fill="white" x="-0.224609" width="28" height="28"/>
<path fill-rule="evenodd" clip-rule="evenodd" d="M6.75189 1.38196C8.69235 1.15168 11.2045 1 13.8754 1C16.5463 1 19.0584 1.15168 20.9989 1.38196C21.9668 1.49683 22.8116 1.63348 23.4712 1.78604C23.7997 1.86203 24.103 1.94667 24.362 2.04245C24.5854 2.12505 24.9077 2.26136 25.1724 2.50217C25.4224 2.7296 25.5703 3.01612 25.6488 3.18634L25.1767 3.40401L25.6488 3.18634C25.739 3.382 25.8121 3.59219 25.8721 3.78973C25.9924 4.18615 26.0987 4.66143 26.1924 5.15426C26.3813 6.14773 26.5476 7.36453 26.6766 8.50501C26.6874 8.60028 26.6979 8.69657 26.7082 8.79382C26.7258 8.88795 26.7359 8.98502 26.7379 9.08395C26.779 9.50003 26.8155 9.93273 26.8468 10.3786C26.9286 11.5414 26.9754 12.8 26.9754 14.1002C26.9754 15.8967 26.886 17.6166 26.7379 19.1165C26.7358 19.2151 26.7258 19.3119 26.7083 19.4058C26.698 19.5033 26.6874 19.5998 26.6766 19.6953C26.5476 20.8357 26.3813 22.0524 26.1924 23.0458C26.0987 23.5387 25.9924 24.0139 25.8721 24.4103C25.8121 24.6079 25.739 24.818 25.6488 25.0137C25.5703 25.1839 25.4224 25.4704 25.1724 25.6978L24.8325 25.3242L25.1724 25.6978C25.1724 25.6978 25.1724 25.6978 25.1724 25.6978C24.9077 25.9387 24.5854 26.075 24.362 26.1576C24.103 26.2534 23.7997 26.338 23.4712 26.414C22.8116 26.5665 21.9668 26.7032 20.9989 26.8181C19.0584 27.0483 16.5463 27.2 13.8754 27.2C11.2045 27.2 8.69235 27.0483 6.75189 26.8181C5.78396 26.7032 4.93915 26.5665 4.27959 26.414C3.9511 26.338 3.64777 26.2534 3.38876 26.1576C3.16536 26.075 2.84299 25.9386 2.57828 25.6978C2.25451 25.4032 2.06939 24.9931 1.96752 24.7365C1.84811 24.4358 1.74694 24.0903 1.65953 23.7334C1.48373 23.0157 1.32955 22.1102 1.2015 21.1095C0.944531 19.1012 0.775391 16.5704 0.775391 14.1002C0.775391 12.7999 0.822227 11.5413 0.90393 10.3785C1.01754 8.76159 1.19986 7.1081 1.4213 5.78258C1.53133 5.12389 1.65691 4.51022 1.79865 4.00998C1.86922 3.76095 1.95302 3.50682 2.05444 3.27652C2.14262 3.07628 2.30422 2.75158 2.57826 2.50225L2.9281 2.88675L2.57826 2.50225C2.84298 2.26139 3.16535 2.12507 3.38875 2.04245C3.64776 1.94667 3.95109 1.86203 4.27958 1.78604C4.93915 1.63348 5.78395 1.49683 6.75189 1.38196ZM25.6761 8.92046C25.6655 8.81981 25.6547 8.72029 25.6435 8.62193L26.1601 8.56347L25.6435 8.62192C25.5159 7.49371 25.3531 6.3057 25.171 5.34849C25.0803 4.87125 24.9821 4.43707 24.8772 4.09184L25.3746 3.94078L24.8772 4.09183C24.8248 3.91915 24.7675 3.75818 24.7046 3.62169C24.6427 3.48733 24.5653 3.3554 24.4728 3.27124L24.4727 3.27122C24.3614 3.16993 24.1953 3.0893 24.0014 3.01759C23.7984 2.94253 23.5412 2.86938 23.2369 2.79898C22.6277 2.65807 21.8236 2.52681 20.8764 2.4144C18.9816 2.18953 16.5107 2.03968 13.8754 2.03968C11.2401 2.03968 8.76922 2.18953 6.87441 2.4144C5.92715 2.52681 5.12305 2.65807 4.51389 2.79898C4.20953 2.86938 3.95233 2.94253 3.74937 3.01759C3.55541 3.08932 3.38928 3.16996 3.27795 3.27126L3.27795 3.27126C3.17015 3.36933 3.07952 3.52847 3.00594 3.69554C2.9311 3.86551 2.86239 4.06956 2.79895 4.29343C2.67203 4.74133 2.55385 5.31292 2.44677 5.95389C2.23214 7.2387 2.05301 8.85808 1.94106 10.4514L1.42249 10.415L1.94106 10.4514C1.86104 11.5901 1.81507 12.8244 1.81507 14.1002C1.81507 16.5282 1.98164 19.0148 2.23278 20.9776C2.35819 21.9577 2.50642 22.8208 2.66936 23.4861C2.75073 23.8183 2.8387 24.1133 2.93381 24.3528C3.02663 24.5866 3.14088 24.8041 3.27795 24.9288L2.92812 25.3133L3.27796 24.9288C3.38928 25.0301 3.55541 25.1107 3.74937 25.1824L3.56906 25.67L3.74937 25.1824C3.95233 25.2575 4.20953 25.3306 4.51389 25.401C5.12305 25.5419 5.92715 25.6732 6.87441 25.7856C8.76922 26.0105 11.2401 26.1603 13.8754 26.1603C16.5107 26.1603 18.9816 26.0105 20.8764 25.7856C21.8236 25.6732 22.6277 25.5419 23.2369 25.401C23.5412 25.3306 23.7984 25.2575 24.0014 25.1824C24.1953 25.1107 24.3614 25.0301 24.4728 24.9288L24.4728 24.9288C24.5653 24.8446 24.6427 24.7127 24.7046 24.5784C24.7675 24.4419 24.8248 24.2809 24.8772 24.1082L25.2859 24.2323L24.8772 24.1082C24.9821 23.763 25.0803 23.3288 25.171 22.8516C25.3531 21.8944 25.5159 20.7065 25.6435 19.5784C25.6549 19.4783 25.6659 19.3771 25.6767 19.2746C25.6784 19.2583 25.6809 19.2422 25.6841 19.2261C25.6931 19.1818 25.6982 19.134 25.6986 19.0836C25.6987 19.0676 25.6995 19.0516 25.7011 19.0357C25.847 17.5659 25.9357 15.8722 25.9357 14.1002C25.9357 12.8261 25.8899 11.5933 25.81 10.4559L25.6761 8.92046Z"/>
</mask>
<path fill-rule="evenodd" clip-rule="evenodd" d="M6.75189 1.38196C8.69235 1.15168 11.2045 1 13.8754 1C16.5463 1 19.0584 1.15168 20.9989 1.38196C21.9668 1.49683 22.8116 1.63348 23.4712 1.78604C23.7997 1.86203 24.103 1.94667 24.362 2.04245C24.5854 2.12505 24.9077 2.26136 25.1724 2.50217C25.4224 2.7296 25.5703 3.01612 25.6488 3.18634L25.1767 3.40401L25.6488 3.18634C25.739 3.382 25.8121 3.59219 25.8721 3.78973C25.9924 4.18615 26.0987 4.66143 26.1924 5.15426C26.3813 6.14773 26.5476 7.36453 26.6766 8.50501C26.6874 8.60028 26.6979 8.69657 26.7082 8.79382C26.7258 8.88795 26.7359 8.98502 26.7379 9.08395C26.779 9.50003 26.8155 9.93273 26.8468 10.3786C26.9286 11.5414 26.9754 12.8 26.9754 14.1002C26.9754 15.8967 26.886 17.6166 26.7379 19.1165C26.7358 19.2151 26.7258 19.3119 26.7083 19.4058C26.698 19.5033 26.6874 19.5998 26.6766 19.6953C26.5476 20.8357 26.3813 22.0524 26.1924 23.0458C26.0987 23.5387 25.9924 24.0139 25.8721 24.4103C25.8121 24.6079 25.739 24.818 25.6488 25.0137C25.5703 25.1839 25.4224 25.4704 25.1724 25.6978L24.8325 25.3242L25.1724 25.6978C25.1724 25.6978 25.1724 25.6978 25.1724 25.6978C24.9077 25.9387 24.5854 26.075 24.362 26.1576C24.103 26.2534 23.7997 26.338 23.4712 26.414C22.8116 26.5665 21.9668 26.7032 20.9989 26.8181C19.0584 27.0483 16.5463 27.2 13.8754 27.2C11.2045 27.2 8.69235 27.0483 6.75189 26.8181C5.78396 26.7032 4.93915 26.5665 4.27959 26.414C3.9511 26.338 3.64777 26.2534 3.38876 26.1576C3.16536 26.075 2.84299 25.9386 2.57828 25.6978C2.25451 25.4032 2.06939 24.9931 1.96752 24.7365C1.84811 24.4358 1.74694 24.0903 1.65953 23.7334C1.48373 23.0157 1.32955 22.1102 1.2015 21.1095C0.944531 19.1012 0.775391 16.5704 0.775391 14.1002C0.775391 12.7999 0.822227 11.5413 0.90393 10.3785C1.01754 8.76159 1.19986 7.1081 1.4213 5.78258C1.53133 5.12389 1.65691 4.51022 1.79865 4.00998C1.86922 3.76095 1.95302 3.50682 2.05444 3.27652C2.14262 3.07628 2.30422 2.75158 2.57826 2.50225L2.9281 2.88675L2.57826 2.50225C2.84298 2.26139 3.16535 2.12507 3.38875 2.04245C3.64776 1.94667 3.95109 1.86203 4.27958 1.78604C4.93915 1.63348 5.78395 1.49683 6.75189 1.38196ZM25.6761 8.92046C25.6655 8.81981 25.6547 8.72029 25.6435 8.62193L26.1601 8.56347L25.6435 8.62192C25.5159 7.49371 25.3531 6.3057 25.171 5.34849C25.0803 4.87125 24.9821 4.43707 24.8772 4.09184L25.3746 3.94078L24.8772 4.09183C24.8248 3.91915 24.7675 3.75818 24.7046 3.62169C24.6427 3.48733 24.5653 3.3554 24.4728 3.27124L24.4727 3.27122C24.3614 3.16993 24.1953 3.0893 24.0014 3.01759C23.7984 2.94253 23.5412 2.86938 23.2369 2.79898C22.6277 2.65807 21.8236 2.52681 20.8764 2.4144C18.9816 2.18953 16.5107 2.03968 13.8754 2.03968C11.2401 2.03968 8.76922 2.18953 6.87441 2.4144C5.92715 2.52681 5.12305 2.65807 4.51389 2.79898C4.20953 2.86938 3.95233 2.94253 3.74937 3.01759C3.55541 3.08932 3.38928 3.16996 3.27795 3.27126L3.27795 3.27126C3.17015 3.36933 3.07952 3.52847 3.00594 3.69554C2.9311 3.86551 2.86239 4.06956 2.79895 4.29343C2.67203 4.74133 2.55385 5.31292 2.44677 5.95389C2.23214 7.2387 2.05301 8.85808 1.94106 10.4514L1.42249 10.415L1.94106 10.4514C1.86104 11.5901 1.81507 12.8244 1.81507 14.1002C1.81507 16.5282 1.98164 19.0148 2.23278 20.9776C2.35819 21.9577 2.50642 22.8208 2.66936 23.4861C2.75073 23.8183 2.8387 24.1133 2.93381 24.3528C3.02663 24.5866 3.14088 24.8041 3.27795 24.9288L2.92812 25.3133L3.27796 24.9288C3.38928 25.0301 3.55541 25.1107 3.74937 25.1824L3.56906 25.67L3.74937 25.1824C3.95233 25.2575 4.20953 25.3306 4.51389 25.401C5.12305 25.5419 5.92715 25.6732 6.87441 25.7856C8.76922 26.0105 11.2401 26.1603 13.8754 26.1603C16.5107 26.1603 18.9816 26.0105 20.8764 25.7856C21.8236 25.6732 22.6277 25.5419 23.2369 25.401C23.5412 25.3306 23.7984 25.2575 24.0014 25.1824C24.1953 25.1107 24.3614 25.0301 24.4728 24.9288L24.4728 24.9288C24.5653 24.8446 24.6427 24.7127 24.7046 24.5784C24.7675 24.4419 24.8248 24.2809 24.8772 24.1082L25.2859 24.2323L24.8772 24.1082C24.9821 23.763 25.0803 23.3288 25.171 22.8516C25.3531 21.8944 25.5159 20.7065 25.6435 19.5784C25.6549 19.4783 25.6659 19.3771 25.6767 19.2746C25.6784 19.2583 25.6809 19.2422 25.6841 19.2261C25.6931 19.1818 25.6982 19.134 25.6986 19.0836C25.6987 19.0676 25.6995 19.0516 25.7011 19.0357C25.847 17.5659 25.9357 15.8722 25.9357 14.1002C25.9357 12.8261 25.8899 11.5933 25.81 10.4559L25.6761 8.92046Z" fill="#A6A6A6"/>
<path d="M6.75189 1.38196L6.78724 1.67987L6.75189 1.38196ZM20.9989 1.38196L21.0342 1.08405L20.9989 1.38196ZM23.4712 1.78604L23.4036 2.07833L23.4712 1.78604ZM24.362 2.04245L24.4661 1.76108L24.4661 1.76108L24.362 2.04245ZM25.1724 2.50217L24.9705 2.72408L24.9705 2.72408L25.1724 2.50217ZM25.6488 3.18634L25.7744 3.45878L26.0468 3.33316L25.9212 3.06072L25.6488 3.18634ZM25.6488 3.18634L25.9212 3.06073L25.7956 2.78829L25.5231 2.91391L25.6488 3.18634ZM25.8721 3.78973L25.585 3.8769V3.8769L25.8721 3.78973ZM26.1924 5.15426L25.8977 5.2103V5.2103L26.1924 5.15426ZM26.6766 8.50501L26.3785 8.53875L26.3785 8.53875L26.6766 8.50501ZM26.7082 8.79382L26.4099 8.82538L26.4111 8.83715L26.4133 8.84878L26.7082 8.79382ZM26.7379 9.08395L26.438 9.09015L26.4382 9.10181L26.4394 9.11342L26.7379 9.08395ZM26.8468 10.3786L26.5475 10.3996L26.5475 10.3996L26.8468 10.3786ZM26.7379 19.1165L26.4393 19.087L26.4382 19.0986L26.438 19.1102L26.7379 19.1165ZM26.7083 19.4058L26.4134 19.3509L26.4112 19.3625L26.41 19.3742L26.7083 19.4058ZM26.6766 19.6953L26.3785 19.6616L26.3785 19.6616L26.6766 19.6953ZM26.1924 23.0458L26.4871 23.1019V23.1019L26.1924 23.0458ZM25.8721 24.4103L25.585 24.3232L25.8721 24.4103ZM25.6488 25.0137L25.3763 24.8881L25.3763 24.8881L25.6488 25.0137ZM24.8325 25.3242L25.0544 25.1223L24.6106 25.5261L24.8325 25.3242ZM25.1724 25.6978L25.3846 25.91L25.5869 25.7076L25.3943 25.4959L25.1724 25.6978ZM24.362 26.1576L24.258 25.8762L24.2579 25.8762L24.362 26.1576ZM23.4712 26.414L23.4036 26.1217L23.4712 26.414ZM20.9989 26.8181L20.9635 26.5201H20.9635L20.9989 26.8181ZM6.75189 26.8181L6.78724 26.5201H6.78724L6.75189 26.8181ZM4.27959 26.414L4.34719 26.1217H4.34719L4.27959 26.414ZM3.38876 26.1576L3.49282 25.8762L3.49282 25.8762L3.38876 26.1576ZM2.57828 25.6978L2.78017 25.4759L2.78017 25.4759L2.57828 25.6978ZM1.96752 24.7365L2.24634 24.6258L2.24634 24.6258L1.96752 24.7365ZM1.65953 23.7334L1.36814 23.8048L1.36814 23.8048L1.65953 23.7334ZM1.2015 21.1095L1.49908 21.0714L1.2015 21.1095ZM0.90393 10.3785L1.20319 10.3996L1.20319 10.3996L0.90393 10.3785ZM1.4213 5.78258L1.1254 5.73315L1.4213 5.78258ZM1.79865 4.00998L1.51002 3.92819L1.79865 4.00998ZM2.05444 3.27652L1.77988 3.15562L1.77988 3.15562L2.05444 3.27652ZM3.38875 2.04245L3.2847 1.76107L3.38875 2.04245ZM4.27958 1.78604L4.34719 2.07833L4.27958 1.78604ZM25.6435 8.62193L25.6098 8.32383L25.3117 8.35757L25.3454 8.65567L25.6435 8.62193ZM25.6761 8.92046L25.9751 8.8944L25.9745 8.88903L25.6761 8.92046ZM26.1601 8.56347L26.1938 8.86157L26.1263 8.26537L26.1601 8.56347ZM25.6435 8.62192L25.3454 8.65566L25.3792 8.95376L25.6773 8.92002L25.6435 8.62192ZM25.171 5.34849L24.8763 5.40454V5.40454L25.171 5.34849ZM24.8772 4.09184L24.7901 3.80478L24.503 3.89195L24.5902 4.17901L24.8772 4.09184ZM24.8772 4.09183L24.5902 4.179L24.6773 4.46606L24.9644 4.37889L24.8772 4.09183ZM24.7046 3.62169L24.977 3.49607V3.49607L24.7046 3.62169ZM24.4728 3.27124L24.6747 3.04929L24.6703 3.04547L24.4728 3.27124ZM24.4727 3.27122L24.2708 3.49317L24.2752 3.497L24.4727 3.27122ZM24.0014 3.01759L24.1055 2.73622V2.73622L24.0014 3.01759ZM23.2369 2.79898L23.3045 2.5067L23.2369 2.79898ZM20.8764 2.4144L20.841 2.71231L20.8764 2.4144ZM6.87441 2.4144L6.90977 2.71231L6.87441 2.4144ZM4.51389 2.79898L4.5815 3.09126L4.51389 2.79898ZM3.74937 3.01759L3.64531 2.73621L3.74937 3.01759ZM3.27795 3.27126L3.07605 3.04936L3.07082 3.05412L3.06582 3.05912L3.27795 3.27126ZM3.27795 3.27126L3.47984 3.49316L3.48507 3.48839L3.49008 3.48339L3.27795 3.27126ZM3.00594 3.69554L3.2805 3.81645V3.81645L3.00594 3.69554ZM2.79895 4.29343L3.08759 4.37522L2.79895 4.29343ZM2.44677 5.95389L2.74267 6.00332L2.44677 5.95389ZM1.94106 10.4514L1.92003 10.7507L2.21929 10.7717L2.24032 10.4724L1.94106 10.4514ZM1.94106 10.4514L2.24032 10.4724L2.26135 10.1732L1.96208 10.1522L1.94106 10.4514ZM2.23278 20.9776L1.93521 21.0156L2.23278 20.9776ZM2.66936 23.4861L2.37797 23.5575L2.66936 23.4861ZM2.93381 24.3528L3.21264 24.2421L2.93381 24.3528ZM3.27795 24.9288L3.49986 25.1307L3.70174 24.9088L3.47984 24.7069L3.27795 24.9288ZM2.92812 25.3133L2.70622 25.1114L3.15002 25.5152L2.92812 25.3133ZM3.27796 24.9288L3.47985 24.7069L3.25795 24.505L3.05606 24.7269L3.27796 24.9288ZM3.74937 25.1824L4.03074 25.2865L4.1348 25.0051L3.85342 24.9011L3.74937 25.1824ZM3.74937 25.1824L3.85342 24.9011L3.57204 24.797L3.46799 25.0784L3.74937 25.1824ZM4.51389 25.401L4.58149 25.1088L4.51389 25.401ZM6.87441 25.7856L6.83906 26.0835L6.87441 25.7856ZM20.8764 25.7856L20.9117 26.0835L20.8764 25.7856ZM23.2369 25.401L23.3045 25.6933L23.2369 25.401ZM24.0014 25.1824L23.8973 24.9011L24.0014 25.1824ZM24.4728 24.9288L24.6746 25.1507L24.6799 25.1459L24.6849 25.1409L24.4728 24.9288ZM24.4728 24.9288L24.2709 24.7069L24.2657 24.7116L24.2606 24.7167L24.4728 24.9288ZM24.7046 24.5784L24.4322 24.4527V24.4527L24.7046 24.5784ZM24.8772 24.1082L24.9644 23.8212L24.6774 23.734L24.5902 24.021L24.8772 24.1082ZM25.2859 24.2323L25.1988 24.5194L25.3731 23.9453L25.2859 24.2323ZM24.8772 24.1082L24.5902 24.021L24.503 24.3081L24.7901 24.3953L24.8772 24.1082ZM25.171 22.8516L25.4657 22.9077V22.9076L25.171 22.8516ZM25.6435 19.5784L25.3454 19.5446V19.5446L25.6435 19.5784ZM25.6767 19.2746L25.9751 19.306V19.306L25.6767 19.2746ZM25.6841 19.2261L25.3901 19.1667L25.3901 19.1667L25.6841 19.2261ZM25.6986 19.0836L25.3986 19.0816V19.0816L25.6986 19.0836ZM25.7011 19.0357L25.9997 19.0654V19.0654L25.7011 19.0357ZM25.81 10.4559L26.1093 10.4349L26.1089 10.4298L25.81 10.4559ZM13.8754 0.7C11.1942 0.7 8.67017 0.852204 6.71653 1.08405L6.78724 1.67987C8.71453 1.45115 11.2148 1.3 13.8754 1.3V0.7ZM21.0342 1.08405C19.0806 0.852204 16.5565 0.7 13.8754 0.7V1.3C16.536 1.3 19.0362 1.45115 20.9635 1.67987L21.0342 1.08405ZM23.5388 1.49376C22.8647 1.33783 22.0082 1.19963 21.0342 1.08405L20.9635 1.67987C21.9255 1.79403 22.7586 1.92912 23.4036 2.07833L23.5388 1.49376ZM24.4661 1.76108C24.1909 1.65932 23.8743 1.57136 23.5388 1.49376L23.4036 2.07833C23.7251 2.1527 24.0151 2.23402 24.258 2.32383L24.4661 1.76108ZM25.3743 2.28026C25.0654 1.99928 24.6982 1.84692 24.4661 1.76108L24.258 2.32383C24.4726 2.40319 24.75 2.52343 24.9705 2.72408L25.3743 2.28026ZM25.9212 3.06072C25.8378 2.87992 25.6696 2.54893 25.3743 2.28025L24.9705 2.72408C25.1752 2.91026 25.3027 3.15232 25.3763 3.31196L25.9212 3.06072ZM25.3023 3.67645L25.7744 3.45878L25.5231 2.91391L25.0511 3.13158L25.3023 3.67645ZM25.5231 2.91391L25.0511 3.13158L25.3023 3.67645L25.7744 3.45878L25.5231 2.91391ZM26.1591 3.70256C26.0969 3.49783 26.0193 3.27345 25.9212 3.06073L25.3763 3.31196C25.4587 3.49056 25.5272 3.68654 25.585 3.8769L26.1591 3.70256ZM26.4871 5.09821C26.3925 4.60088 26.284 4.11374 26.1591 3.70256L25.585 3.8769C25.7009 4.25856 25.8048 4.72198 25.8977 5.2103L26.4871 5.09821ZM26.9747 8.47128C26.8453 7.32725 26.678 6.10215 26.4871 5.09821L25.8977 5.2103C26.0846 6.19331 26.2499 7.40181 26.3785 8.53875L26.9747 8.47128ZM27.0066 8.76226C26.9962 8.66429 26.9856 8.56728 26.9747 8.47127L26.3785 8.53875C26.3892 8.63328 26.3997 8.72884 26.4099 8.82538L27.0066 8.76226ZM27.0378 9.07774C27.0355 8.96253 27.0237 8.84916 27.0032 8.73886L26.4133 8.84878C26.4278 8.92675 26.4363 9.00751 26.438 9.09015L27.0378 9.07774ZM27.1461 10.3576C27.1146 9.90899 27.0778 9.47347 27.0365 9.05447L26.4394 9.11342C26.4801 9.52658 26.5164 9.95646 26.5475 10.3996L27.1461 10.3576ZM27.2754 14.1002C27.2754 12.7929 27.2284 11.5273 27.1461 10.3575L26.5475 10.3996C26.6288 11.5555 26.6754 12.807 26.6754 14.1002H27.2754ZM27.0364 19.146C27.1855 17.636 27.2754 15.9062 27.2754 14.1002H26.6754C26.6754 15.8871 26.5864 17.5972 26.4393 19.087L27.0364 19.146ZM27.0032 19.4607C27.0237 19.3507 27.0354 19.2376 27.0378 19.1228L26.438 19.1102C26.4362 19.1926 26.4278 19.2731 26.4134 19.3509L27.0032 19.4607ZM26.9747 19.729C26.9856 19.6328 26.9963 19.5356 27.0066 19.4374L26.41 19.3742C26.3997 19.471 26.3892 19.5668 26.3785 19.6616L26.9747 19.729ZM26.4871 23.1019C26.678 22.098 26.8453 20.873 26.9747 19.729L26.3785 19.6616C26.2499 20.7984 26.0846 22.0068 25.8977 22.9898L26.4871 23.1019ZM26.1591 24.4975C26.284 24.0863 26.3925 23.5992 26.4871 23.1019L25.8977 22.9898C25.8048 23.4781 25.7009 23.9415 25.585 24.3232L26.1591 24.4975ZM25.9212 25.1393C26.0193 24.9266 26.0969 24.7022 26.1591 24.4975L25.585 24.3232C25.5272 24.5135 25.4587 24.7095 25.3763 24.8881L25.9212 25.1393ZM25.3743 25.9198C25.6696 25.6511 25.8378 25.3201 25.9212 25.1393L25.3763 24.8881C25.3027 25.0477 25.1752 25.2898 24.9705 25.4759L25.3743 25.9198ZM24.6106 25.5261L24.9505 25.8997L25.3943 25.496L25.0544 25.1223L24.6106 25.5261ZM25.3943 25.4959L25.0544 25.1223L24.6106 25.5261L24.9505 25.8997L25.3943 25.4959ZM25.3845 25.91C25.3914 25.9032 25.3966 25.8973 25.3999 25.8935C25.4015 25.8915 25.4028 25.89 25.4036 25.889C25.404 25.8885 25.4044 25.8881 25.4046 25.8879C25.4047 25.8877 25.4047 25.8876 25.4048 25.8876C25.4048 25.8875 25.4048 25.8875 25.4049 25.8875C25.4049 25.8875 25.4049 25.8875 25.4049 25.8875C25.4049 25.8875 25.4049 25.8875 25.4049 25.8875C25.4049 25.8875 25.4049 25.8875 25.4049 25.8875C25.4053 25.887 25.4028 25.89 25.3999 25.8934C25.3966 25.8973 25.3914 25.9032 25.3846 25.91L24.9603 25.4857C24.9535 25.4925 24.9483 25.4984 24.945 25.5022C24.9433 25.5041 24.942 25.5057 24.9412 25.5067C24.9408 25.5072 24.9405 25.5076 24.9403 25.5078C24.9402 25.5079 24.9401 25.508 24.94 25.5081C24.94 25.5081 24.94 25.5082 24.94 25.5082C24.94 25.5082 24.94 25.5082 24.94 25.5082C24.94 25.5082 24.94 25.5082 24.94 25.5082V25.5082C24.94 25.5082 24.94 25.5082 24.94 25.5082C24.9396 25.5087 24.942 25.5057 24.945 25.5022C24.9482 25.4984 24.9535 25.4925 24.9603 25.4857L25.3845 25.91ZM24.4661 26.439C24.6982 26.3531 25.0654 26.2007 25.3743 25.9198L24.9705 25.4759C24.75 25.6766 24.4726 25.7968 24.258 25.8762L24.4661 26.439ZM23.5388 26.7063C23.8743 26.6287 24.1909 26.5407 24.4661 26.439L24.2579 25.8762C24.0151 25.966 23.7251 26.0473 23.4036 26.1217L23.5388 26.7063ZM21.0342 27.116C22.0081 27.0004 22.8647 26.8622 23.5388 26.7063L23.4036 26.1217C22.7586 26.2709 21.9255 26.406 20.9635 26.5201L21.0342 27.116ZM13.8754 27.5C16.5565 27.5 19.0806 27.3478 21.0342 27.116L20.9635 26.5201C19.0362 26.7489 16.536 26.9 13.8754 26.9V27.5ZM6.71654 27.116C8.67017 27.3478 11.1942 27.5 13.8754 27.5V26.9C11.2148 26.9 8.71453 26.7489 6.78724 26.5201L6.71654 27.116ZM4.21198 26.7063C4.88609 26.8622 5.74264 27.0004 6.71654 27.116L6.78724 26.5201C5.82528 26.406 4.99222 26.2709 4.34719 26.1217L4.21198 26.7063ZM3.28471 26.439C3.55988 26.5407 3.87652 26.6287 4.21198 26.7063L4.34719 26.1217C4.02568 26.0473 3.73566 25.966 3.49282 25.8762L3.28471 26.439ZM2.37639 25.9197C2.68525 26.2007 3.05256 26.3531 3.28471 26.439L3.49282 25.8762C3.27817 25.7968 3.00073 25.6766 2.78017 25.4759L2.37639 25.9197ZM1.6887 24.8473C1.79333 25.1108 1.99889 25.5763 2.37639 25.9197L2.78017 25.4759C2.51014 25.2302 2.34546 24.8754 2.24634 24.6258L1.6887 24.8473ZM1.36814 23.8048C1.4573 24.1688 1.56227 24.5289 1.6887 24.8473L2.24634 24.6258C2.13394 24.3427 2.03658 24.0118 1.95092 23.6621L1.36814 23.8048ZM0.903931 21.1476C1.03274 22.1542 1.18863 23.0719 1.36814 23.8048L1.95092 23.6621C1.77882 22.9595 1.62637 22.0662 1.49908 21.0714L0.903931 21.1476ZM0.475391 14.1002C0.475391 16.5826 0.645275 19.1261 0.903931 21.1476L1.49908 21.0714C1.24379 19.0763 1.07539 16.5582 1.07539 14.1002H0.475391ZM0.604668 10.3575C0.522477 11.5272 0.475391 12.7928 0.475391 14.1002H1.07539C1.07539 12.8069 1.12198 11.5553 1.20319 10.3996L0.604668 10.3575ZM1.1254 5.73315C0.902002 7.07042 0.718761 8.73375 0.604668 10.3575L1.20319 10.3996C1.31633 8.78943 1.49773 7.14578 1.7172 5.83201L1.1254 5.73315ZM1.51002 3.92819C1.36399 4.44353 1.23629 5.06934 1.1254 5.73315L1.7172 5.83201C1.82638 5.17844 1.94982 4.57691 2.08729 4.09177L1.51002 3.92819ZM1.77988 3.15562C1.6708 3.40332 1.58265 3.67189 1.51002 3.92819L2.08729 4.09177C2.1558 3.85001 2.23524 3.61033 2.32899 3.39743L1.77988 3.15562ZM2.37637 2.28035C2.05447 2.57322 1.87239 2.94555 1.77988 3.15562L2.32899 3.39743C2.41285 3.20702 2.55398 2.92993 2.78015 2.72414L2.37637 2.28035ZM3.15 2.68486L2.80016 2.30035L2.35636 2.70414L2.70621 3.08865L3.15 2.68486ZM2.35636 2.70414L2.70621 3.08865L3.15 2.68486L2.80016 2.30035L2.35636 2.70414ZM3.2847 1.76107C3.05254 1.84693 2.68524 1.99932 2.37637 2.28035L2.78016 2.72414C3.00072 2.52346 3.27817 2.4032 3.49281 2.32383L3.2847 1.76107ZM4.21197 1.49376C3.87651 1.57136 3.55987 1.65931 3.2847 1.76107L3.49281 2.32383C3.73565 2.23402 4.02567 2.1527 4.34719 2.07833L4.21197 1.49376ZM6.71653 1.08405C5.74263 1.19963 4.88608 1.33783 4.21197 1.49376L4.34719 2.07833C4.99221 1.92912 5.82528 1.79403 6.78724 1.67987L6.71653 1.08405ZM25.3454 8.65567C25.3565 8.75324 25.3673 8.852 25.3778 8.95188L25.9745 8.88903C25.9638 8.78762 25.9529 8.68733 25.9416 8.58819L25.3454 8.65567ZM26.1263 8.26537L25.6098 8.32383L25.6773 8.92003L26.1938 8.86157L26.1263 8.26537ZM25.6773 8.92002L26.1938 8.86157L26.1263 8.26537L25.6098 8.32383L25.6773 8.92002ZM24.8763 5.40454C25.0564 6.35128 25.2182 7.53099 25.3454 8.65566L25.9416 8.58819C25.8136 7.45644 25.6498 6.26012 25.4657 5.29244L24.8763 5.40454ZM24.5902 4.17901C24.6905 4.50947 24.7864 4.93178 24.8763 5.40454L25.4657 5.29244C25.3741 4.81071 25.2736 4.36467 25.1643 4.00466L24.5902 4.17901ZM25.2875 3.65373L24.7901 3.80478L24.9644 4.37889L25.4618 4.22784L25.2875 3.65373ZM24.9644 4.37889L25.4618 4.22784L25.2875 3.65373L24.7901 3.80478L24.9644 4.37889ZM24.4322 3.7473C24.4872 3.86671 24.5399 4.01347 24.5902 4.179L25.1643 4.00466C25.1097 3.82482 25.0479 3.64965 24.977 3.49607L24.4322 3.7473ZM24.2709 3.49316C24.3178 3.53579 24.3748 3.62282 24.4322 3.7473L24.977 3.49607C24.9105 3.35183 24.8128 3.17501 24.6746 3.04933L24.2709 3.49316ZM24.2752 3.497L24.2752 3.49701L24.6703 3.04547L24.6703 3.04545L24.2752 3.497ZM23.8973 3.29897C24.0832 3.36771 24.204 3.43227 24.2709 3.49313L24.6746 3.04932C24.5189 2.9076 24.3074 2.8109 24.1055 2.73622L23.8973 3.29897ZM23.1693 3.09126C23.4667 3.16006 23.7106 3.22989 23.8973 3.29897L24.1055 2.73622C23.8863 2.65517 23.6158 2.57871 23.3045 2.5067L23.1693 3.09126ZM20.841 2.71231C21.7823 2.82402 22.5747 2.95372 23.1693 3.09126L23.3045 2.5067C22.6808 2.36242 21.8649 2.22961 20.9117 2.11649L20.841 2.71231ZM13.8754 2.33968C16.5004 2.33968 18.9594 2.48901 20.841 2.71231L20.9117 2.11649C19.0037 1.89006 16.521 1.73968 13.8754 1.73968V2.33968ZM6.90977 2.71231C8.7914 2.48901 11.2504 2.33968 13.8754 2.33968V1.73968C11.2298 1.73968 8.74704 1.89006 6.83906 2.11649L6.90977 2.71231ZM4.5815 3.09126C5.17612 2.95372 5.96847 2.82402 6.90977 2.71231L6.83906 2.11649C5.88584 2.22961 5.06999 2.36242 4.44628 2.5067L4.5815 3.09126ZM3.85342 3.29897C4.04021 3.22989 4.28409 3.16006 4.5815 3.09126L4.44628 2.5067C4.13496 2.57871 3.86445 2.65517 3.64531 2.73621L3.85342 3.29897ZM3.47984 3.49315C3.54673 3.4323 3.6675 3.36772 3.85342 3.29897L3.64531 2.73621C3.44333 2.81091 3.23183 2.90762 3.07605 3.04936L3.47984 3.49315ZM3.49008 3.48339L3.49008 3.48339L3.06582 3.05912L3.06581 3.05913L3.49008 3.48339ZM3.2805 3.81645C3.35008 3.65845 3.42022 3.5474 3.47984 3.49316L3.07605 3.04936C2.92008 3.19127 2.80896 3.39848 2.73139 3.57464L3.2805 3.81645ZM3.08759 4.37522C3.14897 4.15859 3.21332 3.969 3.2805 3.81645L2.73139 3.57464C2.64887 3.76202 2.57581 3.98052 2.51032 4.21164L3.08759 4.37522ZM2.74267 6.00332C2.84889 5.36746 2.96495 4.80802 3.08759 4.37522L2.51032 4.21164C2.37912 4.67465 2.2588 5.25839 2.15087 5.90446L2.74267 6.00332ZM2.24032 10.4724C2.35179 8.88592 2.53 7.27638 2.74267 6.00332L2.15087 5.90446C1.93428 7.20101 1.75423 8.83024 1.64179 10.4304L2.24032 10.4724ZM1.40147 10.7142L1.92003 10.7507L1.96208 10.1522L1.44352 10.1157L1.40147 10.7142ZM1.96208 10.1522L1.44352 10.1157L1.40146 10.7142L1.92003 10.7507L1.96208 10.1522ZM2.11507 14.1002C2.11507 12.8314 2.1608 11.6041 2.24032 10.4724L1.64179 10.4304C1.56129 11.576 1.51507 12.8173 1.51507 14.1002H2.11507ZM2.53035 20.9395C2.28089 18.9899 2.11507 16.516 2.11507 14.1002H1.51507C1.51507 16.5404 1.68238 19.0397 1.93521 21.0156L2.53035 20.9395ZM2.96075 23.4147C2.80151 22.7646 2.65501 21.9137 2.53035 20.9395L1.93521 21.0156C2.06138 22.0017 2.21132 22.8771 2.37797 23.5575L2.96075 23.4147ZM3.21264 24.2421C3.12454 24.0203 3.04037 23.7398 2.96075 23.4147L2.37797 23.5575C2.46108 23.8967 2.55286 24.2064 2.65499 24.4636L3.21264 24.2421ZM3.47984 24.7069C3.39689 24.6314 3.30309 24.4699 3.21264 24.2421L2.65499 24.4636C2.75017 24.7033 2.88488 24.9767 3.07606 25.1507L3.47984 24.7069ZM3.15002 25.5152L3.49986 25.1307L3.05605 24.7269L2.70622 25.1114L3.15002 25.5152ZM3.05606 24.7269L2.70622 25.1114L3.15002 25.5152L3.49986 25.1307L3.05606 24.7269ZM3.85342 24.9011C3.66749 24.8323 3.54672 24.7677 3.47985 24.7069L3.07607 25.1507C3.23184 25.2924 3.44333 25.3891 3.64532 25.4638L3.85342 24.9011ZM3.85044 25.7741L4.03074 25.2865L3.46799 25.0784L3.28769 25.566L3.85044 25.7741ZM3.46799 25.0784L3.28769 25.566L3.85044 25.7741L4.03075 25.2865L3.46799 25.0784ZM4.58149 25.1088C4.28409 25.04 4.04021 24.9701 3.85342 24.9011L3.64532 25.4638C3.86446 25.5449 4.13496 25.6213 4.44628 25.6933L4.58149 25.1088ZM6.90976 25.4877C5.96847 25.376 5.17611 25.2463 4.58149 25.1088L4.44628 25.6933C5.06999 25.8376 5.88584 25.9704 6.83906 26.0835L6.90976 25.4877ZM13.8754 25.8603C11.2504 25.8603 8.7914 25.711 6.90976 25.4877L6.83906 26.0835C8.74704 26.3099 11.2298 26.4603 13.8754 26.4603V25.8603ZM20.841 25.4877C18.9594 25.711 16.5004 25.8603 13.8754 25.8603V26.4603C16.521 26.4603 19.0037 26.3099 20.9117 26.0835L20.841 25.4877ZM23.1693 25.1088C22.5747 25.2463 21.7823 25.376 20.841 25.4877L20.9117 26.0835C21.8649 25.9704 22.6808 25.8376 23.3045 25.6933L23.1693 25.1088ZM23.8973 24.9011C23.7106 24.9701 23.4667 25.04 23.1693 25.1088L23.3045 25.6933C23.6158 25.6213 23.8863 25.5449 24.1055 25.4638L23.8973 24.9011ZM24.2709 24.7069C24.204 24.7678 24.0832 24.8323 23.8973 24.9011L24.1055 25.4638C24.3074 25.3891 24.5189 25.2924 24.6746 25.1507L24.2709 24.7069ZM24.2606 24.7167L24.2606 24.7167L24.6849 25.1409L24.6849 25.1409L24.2606 24.7167ZM24.4322 24.4527C24.3748 24.5772 24.3178 24.6642 24.2709 24.7069L24.6747 25.1507C24.8128 25.025 24.9105 24.8482 24.977 24.704L24.4322 24.4527ZM24.5902 24.021C24.5399 24.1866 24.4872 24.3333 24.4322 24.4527L24.977 24.704C25.0479 24.5504 25.1097 24.3752 25.1643 24.1954L24.5902 24.021ZM25.3731 23.9453L24.9644 23.8212L24.7901 24.3953L25.1988 24.5194L25.3731 23.9453ZM24.7901 24.3953L25.1988 24.5194L25.3731 23.9453L24.9644 23.8212L24.7901 24.3953ZM24.8763 22.7956C24.7864 23.2683 24.6905 23.6906 24.5902 24.021L25.1643 24.1954C25.2736 23.8354 25.3741 23.3894 25.4657 22.9077L24.8763 22.7956ZM25.3454 19.5446C25.2182 20.6692 25.0563 21.8489 24.8763 22.7956L25.4657 22.9076C25.6498 21.94 25.8136 20.7438 25.9416 19.6121L25.3454 19.5446ZM25.3783 19.2432C25.3676 19.3449 25.3567 19.4454 25.3454 19.5446L25.9416 19.6121C25.953 19.5113 25.9642 19.4092 25.9751 19.306L25.3783 19.2432ZM25.3901 19.1667C25.385 19.192 25.381 19.2176 25.3783 19.2432L25.9751 19.306C25.9758 19.2991 25.9768 19.2923 25.9782 19.2855L25.3901 19.1667ZM25.3986 19.0816C25.3984 19.1128 25.3952 19.1414 25.3901 19.1667L25.9782 19.2855C25.991 19.2222 25.9981 19.1552 25.9986 19.0856L25.3986 19.0816ZM25.4026 19.0061C25.4001 19.0312 25.3988 19.0564 25.3986 19.0816L25.9986 19.0856C25.9986 19.0788 25.999 19.0721 25.9997 19.0654L25.4026 19.0061ZM25.6357 14.1002C25.6357 15.8626 25.5475 17.5464 25.4026 19.0061L25.9997 19.0654C26.1466 17.5854 26.2357 15.8818 26.2357 14.1002H25.6357ZM25.5107 10.4769C25.5901 11.6074 25.6357 12.8331 25.6357 14.1002H26.2357C26.2357 12.819 26.1896 11.5793 26.1093 10.4349L25.5107 10.4769ZM25.3773 8.94651L25.5111 10.4819L26.1089 10.4298L25.975 8.8944L25.3773 8.94651Z" fill="#A6A6A6" mask="url(#path-1-outside-1_1_19506)"/>
<path d="M21.0006 17.9917L21.0006 11.9948M21.0006 11.9948L15.0006 11.9917M21.0006 11.9948L11.0005 21.9948" stroke="#A6A6A6" stroke-width="1.5"/>
<path d="M6.99902 10.9933L6.99908 16.9902M6.99908 16.9902L12.9991 16.9933M6.99908 16.9902L16.9992 6.99023" stroke="#A6A6A6" stroke-width="1.5"/>
</svg>
