<svg width="65" height="19" viewBox="0 0 65 19" fill="none" xmlns="http://www.w3.org/2000/svg">
<path id="Union" fill-rule="evenodd" clip-rule="evenodd" d="M30.6751 15.8715C32.472 17.5739 35.5025 18.7001 38.4258 18.7001C42.6901 18.7001 46.3375 16.3691 46.847 12.912C47.4639 8.51195 42.2878 7.22861 40.7859 6.88813C39.2572 6.54766 38.104 6.10242 38.2113 5.42146C38.2917 4.84527 39.2036 4.45241 40.4909 4.45241C42.0732 4.45241 43.7896 5.08098 44.7551 6.02384L47.6516 2.20001C46.4179 0.969053 44.1383 0 41.1882 0C36.6826 0 33.4107 2.2262 32.9279 5.60479C32.472 8.80005 34.7784 10.6596 38.6404 11.6286C40.6518 12.1263 41.6441 12.4405 41.5368 13.1215C41.4564 13.8287 40.2763 14.2477 39.0427 14.2477C37.2726 14.2477 35.2075 13.3834 33.8129 12.0477L30.6751 15.8715ZM58.9389 15.8977L59.3948 18.3858H65L60.9503 0.314287H54.916L45.6634 18.3858H51.1613L52.3414 15.8977H58.9389ZM58.0807 11.2882H54.5137L57.0884 5.8667L58.0807 11.2882ZM8.65386 0.613585H0L5.08023 2.44139C5.69775 2.66356 6.16698 3.17456 6.33582 3.80874L9.82132 16.9003C10.0545 17.7762 10.8476 18.3858 11.754 18.3858H14.6696C15.4571 18.3858 16.1713 17.9236 16.494 17.2052L23.9456 0.613585H18.8372L13.0903 12.1499L10.5946 2.13019C10.3726 1.23904 9.57224 0.613585 8.65386 0.613585ZM31.8264 0.613585H26.3987L22.4509 18.3858H27.5593L31.8264 0.613585Z" fill="#07234B"/>
</svg>
